<?xml version="1.0" encoding="UTF-8"?>
<svg id="watering_pose" data-name="watering pose" xmlns="http://www.w3.org/2000/svg" viewBox="0 0 977.14 702.4">
  <defs>
    <style>
      .cls-1, .cls-2, .cls-3, .cls-4, .cls-5, .cls-6 {
        fill: none;
      }

      .cls-1, .cls-7 {
        opacity: .6;
      }

      .cls-2 {
        stroke: #8248cc;
        stroke-width: 12px;
      }

      .cls-2, .cls-3, .cls-4, .cls-5, .cls-8 {
        stroke-miterlimit: 10;
      }

      .cls-9 {
        opacity: .1;
      }

      .cls-10 {
        fill: #fff;
      }

      .cls-11 {
        fill: #ff7b00;
      }

      .cls-12 {
        fill: #994500;
      }

      .cls-13, .cls-8 {
        fill: #874dc4;
      }

      .cls-14 {
        fill: #b877fc;
      }

      .cls-15 {
        fill: #b24e00;
      }

      .cls-16 {
        fill: #a743ff;
      }

      .cls-17, .cls-7 {
        fill: #3a200a;
      }

      .cls-3 {
        stroke: #a743ff;
        stroke-width: 24px;
      }

      .cls-4 {
        stroke: #874dc4;
        stroke-width: 5px;
      }

      .cls-5 {
        stroke: #6c38af;
        stroke-linecap: round;
        stroke-width: 9px;
      }

      .cls-8 {
        stroke: #784eaf;
        stroke-width: 3px;
      }

      .cls-18 {
        fill: #be80ff;
        opacity: .56;
      }

      .cls-6 {
        opacity: .15;
      }
    </style>
  </defs>
  <g id="shadow">
    <g class="cls-6">
      <path class="cls-17" d="m583.47,632.28c-13.5-12.88-66.72-21.88-124.16-20.82-3.51.06-6.98.17-10.41.3-28.5-13.81-73.05-22.44-119.88-22.21-44.77.21-87.29,8.44-114.48,21.85-3.16.02-6.35.06-9.57.12-93.35,1.72-185.82,18.19-196.99,38.44-12.48,22.62,80.69,36.57,193.83,29.6,3.47-.21,6.89-.45,10.28-.69,32.78,17.56,90.94,27.38,153.79,22.11,52.66-4.42,89.46-18.27,105.52-35.02,9.24-.06,18.64-.36,28.07-.94,63.91-3.94,98.51-18.88,83.98-32.74Z"/>
    </g>
  </g>
  <path id="R_leg" data-name="R leg" class="cls-11" d="m487.28,645.6c-28.53,37.21-143.98,4-173.6-36.25-.07-.1-.15-.2-.23-.3-4.37-5.73-10.22-8.38-12.19-14.25-26.67-79.49,190.57-131.66,206.33-195.01.43-1.72,3.76,6.84,6.64,22.47.77,4.19,1.51,8.9,2.15,14.05,6.36,50.83,23.03,141.27-29.11,209.29Z"/>
  <path id="R_leg_shadow" data-name="R leg shadow" class="cls-9" d="m487.28,645.6c-32.24,42.08-143.98,4-173.6-36.25-.07-.1-.15-.2-.23-.3l200.78-186.79c.77,4.19,1.51,8.9,2.15,14.05,6.36,50.83,23.02,141.26-29.11,209.29Z"/>
  <path id="R_Hand" data-name="R Hand" class="cls-11" d="m658.49,181.01h0c-8.36,11.82-27.26,22.71-54.73,29.25-21.94,5.23-98.81,47.22-98.81,47.22,0,0-9.33,1.34-22.68,2.49-33.26,2.86-91.51,4.53-92.83-18.75-.18-3.06.65-6.68,2.69-10.91,26.49-54.7,144.94-88,145.05-88.25,0,0,57.14-23.39,103.06-1.62,23.27,11.03,28.24,26.47,18.26,40.58Z"/>
  <path id="R_hand_shadow" data-name="R hand shadow" class="cls-9" d="m658.48,181.01c-8.36,11.82-27.26,22.71-54.73,29.25-21.94,5.23-98.81,47.22-98.81,47.22,0,0-9.33,1.34-22.68,2.49l-.82-50.89s59.89,18.69,177.04-28.07Z"/>
  <g>
    <line class="cls-4" x1="822.02" y1="211.69" x2="887.05" y2="238.52"/>
    <polygon class="cls-16" points="961.91 222.98 960.86 223.48 793.27 302.31 787.7 304.93 786.73 300.53 784.13 288.66 778.94 264.96 946.62 203.82 953.22 212.1 961.58 222.57 961.91 222.98"/>
    <path class="cls-13" d="m961.58,222.57c-.24.3-.47.6-.71.91l-167.59,78.83-6.54-1.78-2.61-11.87,169.09-76.55,11.9-5.39c2.89,4.2,1.26,9.65-3.55,15.85Z"/>
    <path class="cls-3" d="m696.47,113.31s-22.85-46.08-55.49-16.77c-31.97,28.71-36.88,111.27-16.96,152.1"/>
    <path class="cls-2" d="m697.46,114.91s-18.45-45.04-51.09-15.72c-31.97,28.71-36.88,111.27-16.96,152.1"/>
    <path class="cls-16" d="m782.58,341.71c-.14.19-.29.36-.48.51-6.49,5.64-53.71-1.85-98.01-23.66-13.12-6.46-24.91-13.58-34.99-20.66-8.23-5.77-15.33-11.5-21.08-16.8-10.54-9.72-16.55-18-16.75-22.39-.03-.66.07-1.23.3-1.7l93.13-172.28,16.03,8.03,29.83,14.93,95.88,47.99,10.94,5.47-74.32,179.37-.48,1.19Z"/>
    <path class="cls-18" d="m750.56,107.7l-109.37,184.43c-8.23-5.77-7.42-5.71-13.17-11.01l92.71-188.35,29.83,14.93Z"/>
    <path class="cls-13" d="m782.58,341.71c-.14.19-.29.36-.48.51-6.49,5.64-53.71-1.85-98.01-23.66-43.47-21.4-72.38-50.13-72.83-59.84,23.99,13.89,98.42,49.83,136.3,39.93,44.02-11.5,84.14-114.08,94.65-136.24,1.46-3.07,2.88-5.26,4.24-6.73l10.94,5.47-74.32,179.37-.48,1.19Z"/>
    <path class="cls-16" d="m782.32,342.34l-.22-.11c.19-.15.34-.32.48-.51l-.26.62Z"/>
    <path class="cls-8" d="m857.38,161.16c-3.69,7.5-43.67-4.63-85.02-24.98-41.34-20.35-71.86-42.92-68.17-50.42s40.2,2.92,81.54,23.27c41.34,20.35,75.34,44.64,71.65,52.14Z"/>
    <path class="cls-14" d="m857.38,161.16c-3.69,7.5-43.67-4.63-85.02-24.98,0,0,12.47-27.59,13.37-27.15,41.34,20.35,75.34,44.64,71.65,52.14Z"/>
    <path class="cls-16" d="m782.82,341.32c-.07.13-.15.27-.24.4l.48-1.19c-.04.28-.12.54-.25.79Z"/>
    <ellipse class="cls-13" cx="958.4" cy="212.37" rx="18.06" ry="35.79" transform="translate(-21.71 157.53) rotate(-9.29)"/>
    <ellipse class="cls-16" cx="963.48" cy="210.06" rx="12.79" ry="30.26" transform="translate(-21.27 158.32) rotate(-9.29)"/>
    <path class="cls-5" d="m772.37,136.18c-40.13-65.91-3.81-84.56,15.11-26.3"/>
  </g>
  <path id="R_hand_thumb" data-name="R hand thumb" class="cls-11" d="m598.97,131.12s38.36,8.98,30.66,23.1c-7.7,14.12-32.36,5.82-32.36,5.82l1.7-28.91Z"/>
  <path id="body" class="cls-11" d="m326.53,623.51c-130.05,16.89-250.43-72.85-269.96-173.46-6.89-35.45-1.25-72.24,20.9-106.2.33-.51.67-1.02,1-1.54,5.23-7.98,11.25-17.1,17.24-26.69,5.19-8.32,10.35-16.99,14.93-25.58,11.24-21.13,18.91-41.77,14.73-55.46-1.24-4.07-1.74-13.2-5.05-22.71-2.65-7.63-7.11-15.5-15.22-21.25-23.13-16.36-19.47-53.42-10.82-90.22,14.76-62.79,53.72-73.93,99.01-77.31,41.37-3.09,74.92-7.45,95.81-12.03,20.88-4.57,47.31-27.09,103.17,9.43,19.35,12.64,40.14,48.81,58.46,88.94,4.17,9.14,8.22,18.49,12.1,27.81,10.83,26.06,20.28,51.91,27.38,72.48,7.22,20.99,11.98,36.5,13.19,41.15,34.96,134.23,27.72,346.06-176.86,372.63Z"/>
  <path id="body_shadow" data-name="body shadow" class="cls-9" d="m326.53,623.51c-130.05,16.9-241.86-63.76-261.39-164.37,25.4-1.43,73.51.22,140.11,26.79,333.16,132.94,298.18-201.1,284.94-276.21,7.23,20.99,11.98,36.5,13.19,41.15,34.96,134.23,27.72,346.06-176.85,372.63Z"/>
  <path id="L_leg" data-name="L leg" class="cls-11" d="m234.12,518.81c15.68,55.7-32.54,127.85-102,141.02-33.73,6.4-42.82-8.52-49.15-15.18-4.91-5.17-9.05-11.68-12.5-19.13-20.99-45.06-17.5-123.74-14.92-137.65.17-.97,2.58-9.97,2.66-10.97,3.96-46.34,79.75-39.48,122.45-22.33,23.65,9.48,43.72,29.66,53.45,64.23Z"/>
  <path id="L_leg_shadow" data-name="L leg shadow" class="cls-9" d="m232.19,512.81c19.22,54.58-22.54,125.98-90.72,145.19-33.05,9.31-45.81-.71-52.56-6.95-5.23-4.85-11.6-12.56-15.52-19.77,19.75,14.45,62.87,22.59,101.33-179.14,14.3-10.35,45.53,26.8,57.46,60.67Z"/>
  <path id="L_hand" data-name="L hand" class="cls-11" d="m186.26,314.46s-.05.04-.08.05c-14.27,9.2-12.2-16.29-47.34-11.72-15.74,2.05-30.1,7.22-43.13,12.82-16.68,7.17-31.16,15.05-43.49,18-4.31,1.03-9.98,1.17-16.02.33-15.96-2.26-34.32-11.44-35.94-29.21-.2-2.08-.16-4.27.14-6.6.95-7.33,4.49-15.87,11.63-25.71,21.07-29.05,63.93-51.01,108.28-60.57,20.31-4.38,40.94-6.16,59.93-4.82,44.42,3.15,26.81,93.87,6.01,107.41Z"/>
  <g id="face">
    <path class="cls-10" d="m319.65,123.45c10.53,26.84,1.37,54.75-22.45,61.93-25.85,7.79-57.11-11.88-67.38-43.31-9.84-30.14,4.66-56.46,30.15-59.64,23.63-2.95,49.52,15.13,59.68,41.02Z"/>
    <path class="cls-17" d="m265.28,144.77c-6.22-17.88,2.1-34.19,17.73-36.7,14.89-2.39,31.47,8.64,37.78,24.87,6.46,16.6.21,33.46-14.75,37.5-15.73,4.25-34.39-7.34-40.77-25.67Z"/>
    <path class="cls-10" d="m271.42,132.32c-1.03-5.71,1.84-10.55,6.31-10.86,4.39-.3,8.75,3.9,9.81,9.41,1.08,5.56-1.57,10.5-6,11-4.51.51-9.09-3.78-10.13-9.55Z"/>
    <path class="cls-7" d="m214.8,96.05c-6.36-10.41-7.12-24.3-.67-35.04,11.51-19.38,39.06-18.47,55-5.61-3.91.11-7.59-.04-11.19.02-9.49.08-20.43,1.15-27.88,6.22-11.4,7.42-13.71,21.63-15.26,34.41h0Z"/>
    <path class="cls-10" d="m375.9,111.79c10.44,24.03,32.94,39.95,48.95,35.12,15.01-4.52,18.05-25.67,7.9-46.91-9.86-20.63-29.4-35.45-44.7-33.54-16.26,2.03-22.26,22.07-12.15,45.32Z"/>
    <path class="cls-17" d="m392.5,119.67c-6.27-14.33-2.38-27.17,8.18-28.86,10.15-1.63,23.01,7.66,29.18,20.9,6.29,13.49,3.63,26.74-6.41,29.45-10.46,2.82-24.56-6.87-30.95-21.49Z"/>
    <path class="cls-10" d="m394.56,111.28c-1.65-4.86-.03-9.04,3.56-9.38,3.53-.33,7.69,3.2,9.35,7.92,1.67,4.75.21,9-3.33,9.48-3.59.48-7.91-3.12-9.57-8.02Z"/>
    <path class="cls-7" d="m412.08,65.45c-8.75-6.22-15.9-12.83-24.69-17.82-3.95-2.22-7.84-3.94-12.05-4.66-4.87-.91-9.56-.15-14.67,1.3,5.52-12.82,21.94-13.87,32.77-7.29,10.35,6.1,17.59,16.53,18.64,28.47h0Z"/>
    <g>
      <g class="cls-1">
        <path class="cls-17" d="m397.65,243.6c-18.99,9.28-41.7-7.11-46.1-10.04-15.15-10.06-34.99-46.05-34.99-46.05,77.27,17.22,94.74-1.86,94.74-1.86-16.36,32.74-5.75,54.08-13.65,57.94Z"/>
        <path class="cls-17" d="m411.3,185.65c-16.36,32.74-5.75,54.08-13.65,57.94-4.95,2.42-10.16,3.09-15.22,2.72-14.37-1.07-27.63-10.59-30.88-12.75-15.15-10.06-34.99-46.05-34.99-46.05,16.97,3.78,31.05,5.81,42.7,6.68,41.4,3.08,52.03-8.54,52.03-8.54m.2-2.61c-.76-.06-1.54.22-2.1.82-.21.21-11.03,10.62-49.94,7.73-12.56-.93-26.8-3.16-42.33-6.63-.12-.03-.25-.05-.38-.06-.88-.07-1.74.32-2.28,1.04-.62.82-.69,1.93-.2,2.83.82,1.49,20.33,36.67,35.83,46.96.2.13.43.29.69.47,4.27,2.88,17.26,11.66,31.44,12.71,6.03.45,11.61-.55,16.56-2.97,4.7-2.3,4.82-7.9,4.99-15.65.21-9.88.53-24.82,9.85-43.48.58-1.17.22-2.58-.86-3.32-.39-.27-.84-.42-1.28-.45h0Zm-.39,5.21h0s0,0,0,0h0Z"/>
      </g>
      <path class="cls-15" d="m397.65,243.6c-14.75,6.44-38.85-4.15-52.77-15.91,33.27-22.01,50.56,12.4,52.77,15.91Z"/>
    </g>
    <ellipse class="cls-11" cx="272.9" cy="167.36" rx="21.7" ry="53.55" transform="translate(85.74 427.09) rotate(-85.74)"/>
    <path class="cls-11" d="m460.92,144.05c-3.04,2.67-7.31,5.68-12.7,9.53-16.06,11.47-34.73,12.86-41.7,3.1-6.97-9.75-.85-26.07,16.47-38.42,8.85-6.31,18.12-5.59,25.83-2.03,4.17,9.14,8.22,18.49,12.1,27.81Z"/>
  </g>
  <path id="L_hand_shaodw" data-name="L hand shaodw" class="cls-9" d="m186.04,318.15c-25.78,8.09-75.61,26.63-107.57,24.16,5.23-7.98,11.25-17.1,17.24-26.69-16.68,7.17-31.16,15.05-43.49,18-4.31,1.03-9.98,1.17-16.02.33-1.36-.64-2.59-1.19-3.96-1.58-21.14-6.09-30.39-17.97-31.98-27.63-.4-2.38-.33-4.62.14-6.6.05-.23.1-.45.17-.67,3.21-11.09-8.79,12.34,43.59,2.58,8.29-1.54,4.3,18.8,38.04,1.85,10.44-5.24,19.88-9.12,28.44-11.87,56.53-18.21,73.83,12.71,75.54,24.48.24,1.65.6,3.41-.14,3.64Z"/>
  <g id="overlapping_lines_copy_2" data-name="overlapping lines copy 2">
    <path class="cls-12" d="m71.3,229.64c3.65-1.37,8.79-4.11,12.37-5.81,4.12-1.98,8.31-3.85,12.57-5.56,25.29-10.08,55.77-15.25,80.96-2.21-4.52-.9-8.96-1.68-13.43-2.11-22.41-2.21-44.51,2.63-65.97,8.85-7.74,2.05-18.59,6.04-26.51,6.83h0Z"/>
    <path class="cls-12" d="m28.01,330.75c13.13,3.68,26.42.66,38.62-4.46,18.4-7.65,36.71-18.34,56.88-21.95,20.65-4.02,41.65.13,59.46,11.19-6.38-2.29-12.73-4.41-19.24-5.77-56.79-13.01-95.62,39.67-135.72,20.99h0Z"/>
    <path class="cls-12" d="m517.03,417.82c-7.52,64.7-26.56,130.16-86,165.41,56.03-45.87,68.14-99.08,86-165.41h0Z"/>
    <path class="cls-12" d="m472.14,160.43c12.14,21.38,20.94,44.51,28.01,68.01,6.9,23.55,12.03,47.76,13.52,72.3-12-46.76-26.09-94.69-41.53-140.31h0Z"/>
    <path class="cls-12" d="m201.43,607.36c51.9,19.04,120.18,23.24,170.81,8.78,9.06-2.8,17.85-6.34,26.15-11.15-6.62,5.38-14.22,9.57-22.1,12.99-50.92,21.12-126.63,15.67-174.87-10.62h0Z"/>
    <path class="cls-12" d="m53.86,534.03c-1.96-23.58.74-57.53,10.99-78.94-4.68,26.25-6.3,52.69-10.99,78.94h0Z"/>
    <path class="cls-12" d="m219.69,598.66c2.05-5.74,4.67-11.24,6.43-17.06,5.87-17.71,6.94-36.74,3.36-54.98-4.54-23.04-15.42-43.79-27.73-63.72,8.45,8.88,15.73,18.91,21.66,29.79,18.96,34.73,19.38,73.11-3.71,105.97h0Z"/>
    <path class="cls-12" d="m50.83,281.84c-2.67,8.33-8.52,23.53-2.22,30.68,2.62,2.58,6.27,3.16,10.08,2.73,8.98-1.18,16.92-6.43,22.47-13.87-3.19,9.21-12.1,16.52-21.88,18.19-3.94.66-8.41.23-11.79-2.09-11.6-8.31-3.23-26.7,3.33-35.63h0Z"/>
  </g>
  <path class="cls-12" d="m627.01,157.65c-2.55,3.18-6.84,4.41-10.72,5.06-8.37,1.06-16.89-1.07-24.48-4.53-5.59-2.86-5.77-2.87.48-1.39,10.23,2.19,25.05,6.09,34.72.87h0Z"/>
</svg>