<?xml version="1.0" encoding="UTF-8"?>
<svg id="Layer_1" xmlns="http://www.w3.org/2000/svg" xmlns:xlink="http://www.w3.org/1999/xlink" version="1.1" viewBox="0 0 1005.35 1069.59">
  <!-- Generator: Adobe Illustrator 29.3.1, SVG Export Plug-In . SVG Version: 2.1.0 Build 151)  -->
  <defs>
    <style>
      .st0, .st1 {
        fill: none;
      }

      .st2 {
        opacity: .1;
      }

      .st2, .st3, .st4, .st5, .st6, .st7 {
        isolation: isolate;
      }

      .st8 {
        fill: #b24e00;
      }

      .st9, .st7 {
        fill: #3a200a;
      }

      .st10 {
        fill: #5c5cff;
      }

      .st11 {
        fill: #994500;
      }

      .st1 {
        stroke: #ffe000;
        stroke-miterlimit: 10;
      }

      .st12, .st13 {
        fill: #fff;
      }

      .st12, .st4, .st14 {
        display: none;
      }

      .st15 {
        fill: #5750e3;
      }

      .st16 {
        fill: #ffe000;
      }

      .st4 {
        opacity: .2;
      }

      .st17 {
        fill: #b25000;
      }

      .st18, .st7 {
        opacity: .6;
      }

      .st19 {
        opacity: .15;
      }

      .st20 {
        fill: aqua;
      }

      .st21 {
        fill: #f2b800;
      }

      .st22, .st5, .st6 {
        fill: #2b2b77;
      }

      .st5 {
        opacity: .5;
      }

      .st6 {
        opacity: .35;
      }

      .st23 {
        fill: #ff7b00;
      }

      .st24 {
        clip-path: url(#clippath);
      }
    </style>
    <clipPath id="clippath">
      <path class="st0" d="M624.19,335.98s-9.16-34.25-30.67-84.57c-15.33-17.7-13.03-31.47-20.7-43.27,0,0,13.8-10.49,17.63-19.01s-3.07-21.63-3.07-21.63c0,0,7.1.06,15.93-4.8,6.09-3.35,7.07-13.04,4-17.63,0,0,38.33,5.9,69.76,5.9s62.86,1.31,106.56-25.57c0,0-32.2,3.28-46,0-13.8-3.28-121.9-53.1-137.23-53.1s-112.7,28.33-133.4,46.69c-20.7,18.36-29.13,57.69-42.17,60.97-13.03,3.28-1.53,17.04-7.67,21.63-6.14,4.59-31.43,15.73-32.2,25.57-.77,9.84,6.9,25.57,3.83,39.99-3.07,14.42-13.8,65.56-13.8,65.56l249.16,3.28h.04Z"/>
    </clipPath>
  </defs>
  <g class="st3">
    <g id="wizard_hat">
      <path class="st15" d="M624.19,335.98s-9.16-34.25-30.67-84.57c-15.33-17.7-13.03-31.47-20.7-43.27,0,0,13.8-10.49,17.63-19.01,3.83-8.52-3.07-21.63-3.07-21.63,0,0,7.1.06,15.93-4.8,6.09-3.35,7.07-13.04,4-17.63,0,0,38.33,5.9,69.76,5.9s62.86,1.31,106.56-25.57c0,0-32.2,3.28-46,0s-121.9-53.1-137.23-53.1-112.7,28.33-133.4,46.69c-20.7,18.36-29.13,57.69-42.17,60.97-13.03,3.28-1.53,17.04-7.67,21.63s-31.43,15.73-32.2,25.57,6.9,25.57,3.83,39.99c-3.07,14.42-13.8,65.56-13.8,65.56l249.16,3.28h.04Z"/>
      <g class="st24">
        <g>
          <polygon class="st16" points="529.25 206.22 544.2 204.42 551.19 191.1 557.52 204.75 572.35 207.28 561.32 217.52 563.5 232.41 550.36 225.08 536.87 231.76 539.77 216.99 529.25 206.22"/>
          <polygon class="st16" points="536.09 286.5 549.69 280.04 552.08 265.18 562.42 276.12 577.29 273.79 570.09 287.01 576.89 300.43 562.1 297.67 551.43 308.29 549.49 293.36 536.09 286.5"/>
          <polygon class="st16" points="423.11 227.28 440.78 233.16 455.64 221.94 455.51 240.56 470.77 251.23 453.02 256.85 447.59 274.66 436.76 259.52 418.14 259.86 429.19 244.88 423.11 227.28"/>
          <polygon class="st16" points="455.47 182.95 465.97 182.76 471.77 174 475.2 183.93 485.32 186.73 476.93 193.06 477.4 203.56 468.79 197.54 458.95 201.22 462.01 191.17 455.47 182.95"/>
          <polygon class="st16" points="412.42 302.95 418.22 299.57 418.72 292.88 423.72 297.35 430.24 295.77 427.53 301.91 431.06 307.61 424.39 306.94 420.04 312.05 418.62 305.49 412.42 302.95"/>
          <polygon class="st16" points="589.05 108.4 595.75 108.47 599.62 102.99 601.62 109.4 608.03 111.38 602.55 115.26 602.65 121.97 597.27 117.96 590.92 120.12 593.06 113.77 589.05 108.4"/>
          <polygon class="st16" points="479.8 132.98 490.71 127.85 492.67 115.96 500.91 124.75 512.83 122.94 507.02 133.5 512.42 144.28 500.59 142.01 492.01 150.48 490.5 138.52 479.8 132.98"/>
          <path class="st16" d="M670.74,145.54c-8.57,0-15.52-6.95-15.52-15.52s6.95-15.52,15.52-15.52c.45,0,.89.02,1.33.06-2.37-1.02-4.98-1.59-7.73-1.59-10.8,0-19.55,8.75-19.55,19.55s8.75,19.55,19.55,19.55c7.97,0,14.82-4.77,17.86-11.61-2.84,3.11-6.93,5.07-11.47,5.07h0Z"/>
          <path class="st16" d="M511.81,272.8c-7.53,0-13.63-6.1-13.63-13.63s6.1-13.63,13.63-13.63c.39,0,.78.02,1.17.05-2.08-.9-4.37-1.39-6.78-1.39-9.48,0-17.17,7.69-17.17,17.17s7.69,17.17,17.17,17.17c7,0,13.01-4.19,15.68-10.19-2.49,2.73-6.08,4.45-10.07,4.45h0Z"/>
          <path class="st16" d="M561.52,161.16c-4.41-2.84-5.68-8.71-2.84-13.12s8.71-5.68,13.12-2.84c.23.15.45.31.67.47-.88-1.31-2.04-2.47-3.45-3.37-5.55-3.57-12.95-1.97-16.53,3.58-3.57,5.55-1.97,12.95,3.58,16.53,4.1,2.64,9.2,2.45,13.03-.06-2.49.66-5.24.31-7.58-1.19h0Z"/>
          <path class="st5" d="M375.04,332.14c54.99-22.31,135.51-24.39,156.7-30.64s35.92-21.87,34.28-40.62-.66-38.53-10.52-46.86c-9.87-8.33-37.45-17.7-52.82-15.62-15.36,2.08,4.75-7.29,29.06-8.33s20.55,3.12,34.41,0,20.95-10.41,10.11-16.66-24.37-11.46-36.87-10.41,20.63-8.33,36.87-7.29c16.24,1.04,34.16,2.08,28.33-6.25-5.84-8.33-12.34-16.66-25.23-16.66s26.84-28.01,47.67-21.76,21.7,17.1,50.56,26.11c41.94,13.08,106.07-11.75,106.07-11.75,0,0-13.99,1.74,0,0v227.91h-408.62v-21.16h0Z"/>
        </g>
      </g>
      <path class="st22" d="M218.64,447.14c32.96,22.2,132.62,39.03,278.4,39.03s200.94-7.7,200.94-7.7c0,0,19.97-2.62,35.76-5.96,15.79-3.34,52.19-21.06,52.19-21.06l19.34-37.9-33.01-23.85-283.74-44.55-224.64,29.15-46.35,17.33-20.06,17.25,4.47,22.15,16.71,16.1h0Z"/>
    </g>
    <g id="Confident">
      <g id="shadow" class="st19">
        <path class="st9" d="M630.03,982.45c-2.66,0-5.31.01-7.95.04-28.78-15.04-77.86-24.95-133.57-24.95s-104.78,9.91-133.57,24.95c-85.14.77-152.95,14.39-152.95,31.08s67.81,30.31,152.95,31.08c28.78,15.04,77.86,24.95,133.57,24.95s104.79-9.91,133.57-24.95c2.63.02,5.28.04,7.95.04,88.65,0,160.52-13.93,160.52-31.12s-71.87-31.12-160.52-31.12h0Z"/>
      </g>
      <g id="body">
        <g id="left_arm">
          <path id="R_Hand" class="st23" d="M135.13,574.3h0c6.02,13.17,22.56,27.38,48.34,38.92,20.58,9.21,88.3,64.77,88.3,64.77,0,0,11.96,10.37,14.49,24.64,5.82,32.88,96.4,3.5,102.03-19.13.75-2.97.61-6.68-.61-11.22-15.86-58.68-126.05-113.42-126.11-113.68,0,0-51.8-33.61-100.96-20.76-24.91,6.51-32.67,20.76-25.49,36.47h0Z"/>
          <path id="R_hand_shadow" class="st2" d="M135.14,574.31c6.02,13.17,22.56,27.38,48.34,38.92,20.58,9.21,88.3,64.77,88.3,64.77,0,0,15.18,12.18,14.05,28.5l8.92-128.88s-11.25,49.63-38.49,53.45c-25.31,3.55-62.91-56.76-121.12-56.76h0Z"/>
          <path id="R_hand_thumb" class="st23" d="M217.52,541.16s-4.06-29.14-18.88-26.28c-14.82,2.86-9.73,22.07-9.73,22.07l28.6,4.22h0Z"/>
          <path class="st11" d="M193.35,516.98c-7.46,5.73-9.4,16.44-7.19,25.22l1.15-2.3c-1.65.79-2.89,1.65-4.25,2.76-8.94,7.18-10.87,20.11-7.1,30.47-.76-9.98,1.28-21.04,9.58-27.42,1.45-1.18,3.21-2.15,4.89-2.84-2.4-8.62-1.88-18.13,2.92-25.88h0Z"/>
        </g>
        <g id="right_arm">
          <path id="R_Hand1" class="st23" d="M858.21,574.3h0c-6.02,13.17-22.56,27.38-48.34,38.92-20.58,9.21-88.3,64.77-88.3,64.77,0,0-11.96,10.37-14.49,24.64-5.82,32.88-96.4,3.5-102.03-19.13-.75-2.97-.61-6.68.61-11.22,15.86-58.68,126.05-113.42,126.11-113.68,0,0,51.8-33.61,100.96-20.76,24.91,6.51,32.67,20.76,25.49,36.47h-.01Z"/>
          <path id="R_hand_thumb1" class="st23" d="M775.81,541.16s4.06-29.14,18.88-26.28,9.73,22.07,9.73,22.07l-28.6,4.22h-.01Z"/>
          <path class="st11" d="M799.98,516.98c7.46,5.73,9.4,16.44,7.19,25.22l-1.15-2.3c1.65.79,2.89,1.65,4.25,2.76,8.94,7.18,10.87,20.11,7.1,30.47.76-9.98-1.28-21.04-9.58-27.42-1.45-1.18-3.21-2.15-4.89-2.84,2.4-8.62,1.88-18.13-2.92-25.88h0Z"/>
        </g>
        <path id="torso" class="st23" d="M755.14,965.53c-6.53-63.58-24.72-118.85-38.53-197.72-2.87-17.51-6.66-40.6-9.11-61.32-7.29-61.59-7.88-179.76-10.35-244.39-1.05-27.51-4.64-51.3-8.4-69.56-4.63-22.41-25.14-37.53-47.38-35.01l-85.85,9.74c-19.63,2.23-39.34,3.34-59.06,3.34s-39.43-1.11-59.06-3.34l-85.85-9.74c-22.24-2.52-42.75,12.6-47.38,35.01-3.77,18.26-7.35,42.05-8.4,69.56-2.47,64.63-3.06,182.8-10.35,244.39-13.07,110.45-39.6,180.78-47.64,259.04-1.99,19.38,10.31,37.23,28.82,41.72,27.26,6.62,72.35,11.28,133.91-3.31,14.03-3.32,26.14-6.14,36.58-8.54,19.55-4.48,39.45-6.72,59.36-6.73,19.9.01,39.81,2.25,59.36,6.73,10.44,2.39,22.55,5.21,36.58,8.54,61.56,14.59,106.65,9.93,133.91,3.31,18.52-4.5,30.82-22.35,28.82-41.72h.02Z"/>
        <path class="st17" d="M361.72,959.57c20.43,11.12,43.16,17.23,65.93,21.33,22.66,3.94,45.84,6.19,68.82,6.47,34.5-.69,69.36-4.6,102.52-14.48,9.68-3.01,19.28-6.63,28.32-11.28,1.29-.69,2.59-1.37,3.91-2.04-18.13,15.42-41.16,24.24-64.01,30.18-23.16,5.82-46.85,8.8-70.74,9.15-17.97-.24-35.68-2.06-53.3-5.34-28.89-5.6-58.61-14.8-81.45-33.99h0Z"/>
        <g id="mouth">
          <path class="st7" d="M544.9,630.76c-2.37,6.76-11.61,5.97-22.05,5.22-9.43-.92-20.4-2.48-30.39-1.92-11.04-.22-36.36,7.23-43.74.64-3.88-4.06-.54-10.16,1.97-14.23,7.83-12.46,25.23-23.97,41.09-25.22,18.3-2.2,37.79,7.91,48.44,22.26,3.85,5.19,5.53,9.92,4.7,13.16l-.03.1h.01Z"/>
          <path class="st8" d="M498.26,629.73c10.38.14,15.83,1.78,20.35,2.38.97.13,1.6-1.67.94-2.4-3.13-3.44-10.42-9.85-21.23-9.85-8.44,0-16.85,1.9-23.81,9.88-.64.73-.02,2.48.94,2.36,4.77-.59,11.16-2.44,22.81-2.38h0Z"/>
        </g>
        <g id="eyebrows">
          <g class="st18">
            <path class="st9" d="M546.26,448.13c.46-20.86,17.72-37.66,38.47-38.63,17.44-.95,35.8,7.77,43.08,23.89.98,2.19,1.54,4.59,1.74,6.91-11.73-11.07-28.39-16.1-43.88-15.45-17.02.84-28.53,10.71-39.41,23.28h0Z"/>
          </g>
          <g class="st18">
            <path class="st9" d="M440.56,448.13c-5.85-6.46-11.47-12.63-18.66-16.87-13.27-8.08-28.51-7.97-43.14-3.34-7.99,2.59-15.11,6.28-21.5,12.37.35-4.81,2.54-9.36,5.36-13.25,12.1-16.09,35.89-22.27,54.47-13.9,13.74,6.03,23.18,20.11,23.47,34.98h0Z"/>
          </g>
        </g>
        <g id="eyes">
          <ellipse class="st13" cx="411.15" cy="519.4" rx="50.06" ry="51.26"/>
          <g>
            <ellipse class="st13" cx="581.79" cy="519.4" rx="50.06" ry="51.26"/>
            <g>
              <ellipse class="st9" cx="576.25" cy="505.25" rx="31.12" ry="31.86"/>
              <ellipse class="st13" cx="566.01" cy="496.94" rx="10.52" ry="10.77"/>
            </g>
            <g>
              <ellipse class="st9" cx="417.85" cy="505.25" rx="31.12" ry="31.86"/>
              <ellipse class="st13" cx="407.62" cy="496.94" rx="10.52" ry="10.77"/>
            </g>
          </g>
        </g>
        <path class="st2" d="M700.35,577.09c-1.25-42.88-1.95-84.49-3.12-114.91-1.05-27.51-4.71-53.74-8.4-69.56-7.37-31.58-31.53-35.38-47.23-34.74-.1-.12-.15-.19-.15-.19,0,0-312.82-17.79-330.86,19.59-14.84,30.73-15.75,89.3-15.79,100.43,0,1.1.71,2.08,1.76,2.41,16.96,5.38,26.93,7.43,41.97,11.37,4.27,1.12,8.81.32,12.45-2.17,11.3-7.72,23.28-12.72,31.46-15.57,3.06-1.07,5.65,2.47,3.71,5.07-2.71,3.63-5.78,7.99-8.7,12.48-2.42,3.74-.22,8.76,4.18,9.47,65.19,10.51,131.56,4.81,250.3-27.21,35.3-9.52,49.91,20.02,49.91,31.86h0c-.18,34.61-17.47,105.96-21.28,156.03-4.58,60.26,52.02,147.47-30.45,227.54-101,98.05-336.05,71.41-368.08-50.71h0c-10.09,45.17-19.81,85.11-24.15,127.35-1.99,19.38,10.31,37.23,28.82,41.72,27.26,6.62,72.35,11.28,133.91-3.31,14.03-3.32,26.14-6.14,36.58-8.54,19.55-4.48,39.45-6.72,59.36-6.73,19.9.01,39.81,2.25,59.36,6.73,10.44,2.39,22.55,5.21,36.58,8.54,61.56,14.59,106.65,9.93,133.91,3.31,18.52-4.5,30.82-22.35,28.82-41.72-6.73-65.51-24.63-115.15-38.53-197.72-3.72-19.9-9.33-62.27-9.63-65.26,3.35-15.7,14.49-24.64,14.49-24.64,0,0,67.72-55.55,88.3-64.77,25.78-11.53,42.32-25.75,48.34-38.92-137.37,93.43-156.43,10.31-157.85,2.78h.01Z"/>
      </g>
      <g id="hat_brim">
        <path class="st2" d="M689.1,387.13c-2.23-12.49-10.64-19.44-10.64-19.44,0,0-359.52-13.59-368.6,8.26-9.09,21.84-10.31,43.57-10.31,43.57,0,0,16.59,9.93,66.45,28.62.08.03.17.06.25.09,5.06,1.88,10.69,1.25,15.31-1.54,4.03-2.44,8.68-4.91,13.1-6.52,11.46-4.15,10.55-1.32,10.55-1.32,0,0-2.97,6.26-4.29,10.88,0,.02-.01.04-.02.06-.9,3.18,1.46,6.38,4.76,6.61,72.8,4.92,157.28-36.88,246.24-36.88,22.22,0,34.23,1.77,44.3,21.91,0,0-4.88-41.81-7.11-54.3h.01Z"/>
        <path class="st10" d="M759.82,381.16c-17.75-4.96-35.35-10.39-52.73-16.53-27.55-9.73-63.96-22.48-82.9-28.65,0,0-55.22-15.05-128.15-15.05-64.46,0-121.01,11.22-121.01,11.22,0,0-96.6,38.33-111.16,42.17-14.57,3.83-49.07,13.8-56.73,19.93-7.67,6.13-9.97,13.8-10.73,19.93-.77,6.13,6.13,24.53,22.23,32.97,0,0-12.5-12.18-15.9-23.48-3.61-12,2.1-18.69,12.83-23.29,47.08-19.1,79.44.46,127.99,17.94,4.91,1.77,13.42,1.98,17.52-1.24,2.71-2.13,17.35-12.78,22.06-16.06,16.83-11.74,39.66-19.14,39.66-19.14,0,0-15.38,27.68-22.35,44.08-1.87,4.4.93,9.4,5.66,10.07,20.86,2.97,43.35,2.72,68.14-3.42,123.49-30.58,315.37-47.39,320.79-11.35.17,1.17.31,2.35.51,3.51,6.3,35.68-97.58,53.71-97.58,53.71,0,0,107.91-9.1,107.91-60.46,0-20.5-27.44-31.65-46.07-36.85h.01Z"/>
        <path class="st6" d="M422.81,381.87s-22.29,2.42-38.63,11.34-23.67,14.93-29.4,17.28c-7.08,2.9-21.78,2.95-27.11,1.88,0,0,23.46,12.24,33.43,4.71,8.92-6.74,18.53-13.98,31.95-22.1,14.21-8.59,29.76-13.1,29.76-13.1h0Z"/>
        <g>
          <path class="st16" d="M659.93,355.41l-2.08.38c-7.6,1.44-11.94,8.16-4.14,13.33,5.59,3.7,15.41,4.43,21.19.85l2.04-1.55c-.51,2.07-2.08,3.74-3.79,4.92-7.78,5.36-23.66,3.91-30.1-3.11-.53-.57-1.71-2.1-1.78-2.84-.17-1.72.13-3.72,0-5.48,1.48-3.17,4.95-5.01,8.19-5.98.39-.12,1.72-.53,2.03-.53h8.44Z"/>
          <path class="st16" d="M507.26,355.19l6.19,11c.3.73.86.71,1.54.84l14.81,2.11-11.75,9.27,2.26,13.25s-1.01-.37-1.16-.44c-4.4-1.94-8.67-4.18-13.12-5.99-4.71,1.85-9.42,3.73-14.1,5.66-.12.05-.23.13-.32.23-.09-.06-.12-.12-.14-.23-.07-.46.64-2.78.79-3.42.34-1.45.72-3.31,1.1-4.92.16-.66,1.22-4.25,1.09-4.61l-10.36-8.89v-1l14.28-1.37c.56-.1.9-.09,1.27-.55.59-.73,1.31-2.04,1.86-2.88,1.72-2.66,3.36-5.37,5.03-8.05h.73Z"/>
          <path class="st16" d="M354.87,352.34l-6.03,9.75c1.76,1.45,3.65,2.79,5.42,4.26.04.04.57.32.47.45l-12.9,4.37c-3.06,2.96-5.8,6.25-8.76,9.32-.11.11-.68.73-.78.71-.45-.79-1.42-7.06-1.74-7.27-.09-.06-.28-.04-.39-.03-3.38.2-7.01,1.13-10.43,1.42-.11,0-.21,0-.32,0l.04-.43c3.78-2.83,7.63-5.59,11.31-8.54.44-1.06.55-2.24.82-3.33.46-1.88.98-3.74,1.38-5.63.45.06.93.1,1.38.18,1.99.36,4.01.82,6,1.21,1.68.33,1.39.51,2.96-.32,3.59-1.9,7.11-3.97,10.69-5.91.1-.05.21-.08.26-.2h.64Z"/>
          <path class="st16" d="M577.81,338.33c3.23,1.97,6.37,4.14,9.61,6.1.9.54,1.81,1.24,2.9,1.23,5.49-.07,11.13-.67,16.68-.81.17,0,.95-.25.8.1-.02.04-.5.58-.59.67-2.43,2.5-5.39,4.78-7.79,7.32-.11.11-.41.46-.41.59l7.93,9.48-17.14-2.39c-.69-.05-1.04-.04-1.68.2-3.82,1.45-7.86,4.18-11.68,5.89-.33.15-.66.27-.99.42-.99-3.31-1.44-6.79-2.39-10.11-5.32-1.87-10.74-3.48-16.1-5.24l-.24-.31,16.67-3.77c.22-.16.43-.98.53-1.27.91-2.67,1.6-5.43,2.48-8.1h1.41Z"/>
          <path class="st16" d="M407.18,361.82c.74-.36,1.45-.81,2.14-1.25,4.55-2.87,9.09-5.77,13.62-8.68.16-.21.27-.8.33-1.09.66-3.19.97-6.6,1.68-9.77.03-.13.13-.67.24-.7,2.3.49,4.6,1.02,6.87,1.59,1.93.48,4.29,1.37,6.21,1.64.53.07.84-.09,1.31-.26,5.3-1.96,10.56-4.89,15.85-6.96l1.42-.05-7.61,11.8,8.92,6.69-.26.25-18.12,4.28c-2.73,2.34-5.26,4.91-7.82,7.44l-4.88,4.59-3.57-9.6-16.35.69v-.61Z"/>
          <path class="st16" d="M448.48,411.12c-4.41-2.84-5.68-8.71-2.84-13.12s8.71-5.68,13.12-2.84c.23.15.45.31.67.47-.88-1.31-2.04-2.47-3.45-3.37-5.55-3.57-12.95-1.97-16.53,3.58s-1.97,12.95,3.58,16.53c4.1,2.64,9.2,2.45,13.03-.06-2.49.66-5.24.31-7.58-1.19Z"/>
        </g>
      </g>
      <g id="lightning">
        <path class="st20" d="M832.1,527.91c.64-23.74,15.75-32.39,29.76-48.31-2.64-9.15-.43-18.65-1.97-27.88-1.6-9.63-11.56-17.1-7.74-25.32,8.02-17.24,19.34-20.3,32.83-38.41l4.83,1.43c.62,9.61,23.1,33.43,31.23,31.36,4.53-1.15,15.66-16.86,22.08-20.66,17.62-10.41,47.21-12.39,62.22-32.23l-33.08,16.5-21.2,5.93,2.83-40.82,25.48-26.47c.37-1.75-2.47-1.61-3.5-1.15-1.68.75-25.2,24.33-25.96,26-4.12,9.07-.11,30.82-7.3,44.65-3.04,5.86-20.67,20.6-26.88,17.91-15.59-6.76-16.25-26.61-24.93-38.98-2.59-.64-18.09,19.68-23.92,23.26-19.22,11.82-8.26,3.41-24.15,22.16-13.13-14.4-18.99-30.89-9.26-49.37,8.64-16.41,36.91-26.01,51.83-35.53,12.58-8.03,24.44-18.35,36.49-27.22l-28.25-25.97c6.77-6.89,14.22-14.83,19.82-22.64,2.94-4.1,16.74-24.71,17.45-27.56,3.06-12.35-12.28-28.9-4.19-43.6,2.03-3.69,15.23-9.15,19.79-13.85,6.58-6.78,11.7-19.8,18.76-27.29,10.06-10.67,26.12-18.94,34.27-33.13l-4.39-7.84c-.12,17.21-22.72,27.61-33.18,38.86-6.62,7.12-11.21,18.13-17.85,24.65-15.63,15.35-27.4,6.95-24.51,36.83.69,7.17,5.74,16.92,4.26,23.01-2.58,10.63-28.28,38.14-37.33,46.65l4.46-33.82c-1.62-5.13-23.98-14.46-28.07-19.32-4.11-4.88-.9-25.67,1.25-31.77,2.5-7.08,15.73-16.28,17.14-23.09,1.3-6.26-9.47-30.81-6.62-33.68l40.01-10.9-8.77-32.5c3.21-8.56,25.26-19.01,25.39-26.2.03-1.92-10.64-37.42-16.46-30.77,8.36,7.74,8.38,20.09,11.26,30.41l-25.56,22.03,7.22,36.11-42.53,7.11c-2.42,2.44,10.5,28.68,8.98,36.03-1.21,5.84-11.79,13.65-14.9,20.6-4.77,10.66-3.72,23.76-7.77,34.83l29.84,22.29-3.87,35.69,27.81,26.54-30.51,23.66-19,5.77c-.22-7.15-.16-22.39-3.64-28.24-3.73-6.25-22.59-11.74-24.65-22.57-3.3-17.43,4.45-32.26,8.28-48.46-7.06-6.53-17.06-12.09-23.79-18.67-7.32-7.15-34.63-34.87-38.88-41.4-9.56-14.71-11.84-43.74-28.28-55.52l24.87,58.93,57.38,60.65c-6.29,15.24-12.19,32.34-9.01,49.18,1.73,9.18,21.09,16.38,24.7,24.89,1.2,2.82,4.12,23.92,3.63,27-1.27,8.07-21.21,16.71-24.77,22.64-1.77,2.95-6.43,29.76-6.14,34.11,1.26,19.02,45.24,60.8,28.69,82.87-5.97,7.97-20-4.51-25.34-9.28-19.99-17.86-26.82-43.32-38.01-66.8l11.18-31.53-18.25,29.86,13.55,36.23c-13.52-2.83-27.52-2.91-41.34-2.34-2.86.12-8.78-1.78-8.23,2.34,10.07,1.56,24.33.82,33.72,2.89,20.19,4.46,23.04,18.79,34.82,33.66,5.45,6.88,13.39,11.85,18.29,19.25l-6.49,33.88,14.08,2.44h0Z"/>
        <path class="st20" d="M164.96,522.34c-2.25-22.33,2.11-42.3-12.6-62.25-12.76-2.47-24.92,4.32-37.34,4.98-13.78.72-29.72-6.96-44.89.18-2.37-.55-21.19-36.5-23.64-42.15-1.97-4.55-1.54-6.04,2.14-1.24,5.1,6.66,20.44,35.61,24.33,36.77,6.38.91,11.3-3.22,17.74-4.05,6.77-.88,17.97,3.24,24.77,1.97,8.41-1.57,16.31-7.36,25.61-7.5,2.37-2.75-1.13-3.45-2.87-4.52-9.45-5.78-22.26-5.93-31.63-12.26-1.13-1.83,5.63-35.28,11.82-36.99l-1.14-2.83c-15.83,1.77-22.38-9.84-35.77-13.7-8.57-2.47-40.48-6.04-46.19-11.78-3.5-3.51,10.01-9.13,10.41-13.11-18.65-2.94-20.73-19.04-32.51-28.81-13.94-11.56-14.69-22.66,6.68-4.41,10.42,8.89,14.47,31.01,35.96,24.74,1.77-2.98-3.74-38.26-5.79-42.64-4.47-9.52-18.47-9.91-23.62-16.17s-5.23-14.7-10.35-20.73c-27.58,4.09-14.96-3.51,2.2-7.01,7.33,7.03,8.08,18.36,15.63,25.23,5.51,5,18.85,6.18,22.25,11.89,2.94,4.92,9.32,42.17,8.73,48.48-.67,7.11-7.4,10.57-12.45,14.71.62,1.75.97,4.15,2.42,5.26,2.11,1.63,27.88,3.07,33.79,5.07,12.64,4.27,21.66,15.86,37.79,9.35,5.42-2.19.14-20.66,3.63-27.36,4.33-8.33,21.68-16.32,28.09-24,.53-2.81-10.77-22.6-13.41-25.61-4.2-4.79-14.18-6.89-19.58-10.37-4.59-2.96-18.46-14.29-21.49-15.23-6.38-1.97-22.35,4.78-29.81,4.18-7.21-.59-22.89-31.74-29.67-39.2-4.5-4.96-18.38-12.18-19.91-15.57-2.39-5.27.81-17.05-.89-22.25-2.16-6.6-11.5-11.89-14.27-18.8-2.62-6.53-3.34-18.64-3.16-24.81.22-7.39,7.1-12.56,2.28-17.93-1-1.95-10.21-23.59-8.4-25.37,4.43-4.34,21.63-1.27,27.78-8.88,2.21-2.73,2-15.7,3.92-20.72,2.13-5.58,12.16-15.91,12.05-20.3-.17-6.62-15.47-18.76-9.09-25.63l12.74,27.04c-10.08,14.61-15.02,26.82-15.29,44.78l-25.74,7.43,8.22,20.63c.93,8.06.65,10.4-2.2,17.97-2.52,6.69-.47,14.92,1.85,21.58,2.96,8.51,11.75,12.11,14.51,18.78,3.05,7.35-1.19,16.86,2.59,23.5,2.26,3.97,13.38,9.32,18.05,14.28,6.13,6.51,22.63,34.77,28.11,35.36,6.81.73,21.38-6.56,27.1-5.37,3.04.63,15.68,15.05,18.07,10.07-2.65-16.43,5.92-31.14,8.09-46.92-2.2-6.01-22.07-14.41-26.96-19.66-4.63-4.97-1.04-24.91,2.09-31.04,4.17-8.16,13.73-14,17.06-21.52,2.63-5.93,3.69-19.29,4.25-26.2,3.59-1.78,3.24,3.14,3.14,5.34-.23,4.81-2.38,16.12-3.98,20.71-5.32,15.31-24.46,24.62-19.85,44.44,1.81,7.78,26.77,17.97,33.29,24.25l-3.96,27.36c12.8-10.9,30.78-12.67,45.91-18.8l-.74-41.92c2.84-1.77,3.14,1.82,3.63,3.93,1.16,5.06,1.61,40.87-.39,42.96-19.71,4.72-36.24,12.99-52.48,24.9l.29,18.56c19.75,10.23,32.26,24.46,37.79,46.54l-30.52,26.18c-.15,7.25,1.99,18.06.15,24.86-3.43,12.6-23.76,25.51-18.08,42.99l27.52,10.88,22.89,28.77,1.61-37.73,41.02-20.89c11.32-17.09,3.66-42.14,10.03-59.74.99-2.73,3.61-9.63,7.7-7.92-9.73,13.99-3.89,33.47-6.37,50.1-4.99,33.49-21.93,26.11-43.95,45.25l-3.59,88.93-13.1.69-.05.02Z"/>
      </g>
      <g id="necklace" class="st14">
        <path class="st16" d="M513.48,801.42c-23.64-1.81-41.33-22.44-39.52-46.08,1.81-23.64,22.44-41.33,46.08-39.52,1.24.09,2.46.25,3.66.45-6.32-3.32-13.4-5.43-20.97-6.01-29.78-2.28-55.78,20.01-58.06,49.79-2.28,29.78,20.01,55.78,49.79,58.06,21.98,1.68,41.88-10.02,51.72-28.23-8.49,7.98-20.17,12.51-32.71,11.55h.01Z"/>
        <g>
          <circle class="st21" cx="292.64" cy="577.61" r="12.18"/>
          <circle class="st16" cx="290.5" cy="574.44" r="7.43"/>
        </g>
        <g>
          <circle class="st21" cx="303.66" cy="596.38" r="12.18"/>
          <circle class="st16" cx="301.52" cy="593.21" r="7.43"/>
        </g>
        <g>
          <circle class="st21" cx="316.66" cy="615.05" r="12.18"/>
          <circle class="st16" cx="314.52" cy="611.88" r="7.43"/>
        </g>
        <g>
          <circle class="st21" cx="331.2" cy="632.12" r="12.18"/>
          <circle class="st16" cx="329.06" cy="628.96" r="7.43"/>
        </g>
        <g>
          <circle class="st21" cx="347.17" cy="647.08" r="12.18"/>
          <circle class="st16" cx="345.03" cy="643.91" r="7.43"/>
        </g>
        <g>
          <circle class="st21" cx="366.57" cy="660.75" r="12.18"/>
          <circle class="st16" cx="364.43" cy="657.58" r="7.43"/>
        </g>
        <g>
          <circle class="st21" cx="386.1" cy="671.93" r="12.18"/>
          <circle class="st16" cx="383.96" cy="668.76" r="7.43"/>
        </g>
        <g>
          <circle class="st21" cx="407.21" cy="682.22" r="12.18"/>
          <circle class="st16" cx="405.07" cy="679.05" r="7.43"/>
        </g>
        <g>
          <circle class="st21" cx="428.89" cy="689.55" r="12.18"/>
          <circle class="st16" cx="426.75" cy="686.38" r="7.43"/>
        </g>
        <g>
          <circle class="st21" cx="451.9" cy="694.46" r="12.18"/>
          <circle class="st16" cx="449.76" cy="691.29" r="7.43"/>
        </g>
        <g>
          <circle class="st21" cx="474.22" cy="697.53" r="12.18"/>
          <circle class="st16" cx="472.08" cy="694.36" r="7.43"/>
        </g>
        <g>
          <circle class="st21" cx="496.47" cy="698.53" r="12.18"/>
          <circle class="st16" cx="494.33" cy="695.36" r="7.43"/>
        </g>
        <g>
          <circle class="st21" cx="698.58" cy="577.61" r="11.82"/>
          <circle class="st16" cx="696.51" cy="574.53" r="7.21"/>
        </g>
        <path class="st1" d="M290.56,574.53s53.7,120.73,203.83,120.73,202.12-120.73,202.12-120.73"/>
      </g>
      <path class="st12" d="M548.75,586.48c-7.33-6.63-22.67-27.98-35.25-27.98s-17.45,5.33-17.46,5.35c-.02-.02-4.91-5.35-17.46-5.35s-27.92,21.35-35.25,27.98-22.86,15.43-22.86,15.43c6.63,7.33,32.71,4.79,45.72-7.67,17.95-17.2,29.82-16.61,29.85-16.6h0s11.91-.59,29.85,16.6c13,12.46,39.09,15.01,45.72,7.67,0,0-15.53-8.8-22.86-15.43Z"/>
      <path class="st4" d="M530.2,587.94c-11.05-10.86-17.51-16.61-25.26-16.61-5.81,0-8.9,6.31-8.9,6.31,0,0-2.1-6.35-10.71-5.47-6.62.68-15.39,13.08-21.61,19.26-6.22,6.18-18.36,13.07-25.89,13.98-.58.07-1.02.26-1.36.53,10.04-.51,22.11-4.4,29.71-11.69,17.95-17.2,29.82-16.61,29.85-16.6h0s11.91-.59,29.85,16.6c13,12.46,39.09,15.01,45.72,7.67-11.42,1.39-30.36-3.12-41.41-13.97h.01Z"/>
    </g>
  </g>
</svg>