<?xml version="1.0" encoding="utf-8"?>
<!-- Generator: Adobe Illustrator 27.7.0, SVG Export Plug-In . SVG Version: 6.00 Build 0)  -->
<svg version="1.1" id="Confident" xmlns="http://www.w3.org/2000/svg" xmlns:xlink="http://www.w3.org/1999/xlink" x="0px" y="0px"
	 viewBox="0 0 649.85 712.34" style="enable-background:new 0 0 649.85 712.34;" xml:space="preserve">
<style type="text/css">
	.st0{opacity:0.15;}
	.st1{fill:#FF7B00;}
	.st2{opacity:0.1;enable-background:new    ;}
	.st3{opacity:0.2;enable-background:new    ;}
	.st4{fill:#FFFFFF;}
	.st5{fill:#3A200A;}
	.st6{opacity:0.6;fill:#3A200A;enable-background:new    ;}
	.st7{opacity:0.6;}
	.st8{fill:#B25000;}
	.st9{opacity:0.5;fill:#B25000;}
</style>
<path class="st0" d="M649.85,646.94c0-6.79-23.5-12.3-52.49-12.3c-11.03,0-21.27,0.8-29.72,2.16
	c-29.42-7.08-74.51-11.61-125.07-11.61c-2.66,0-5.31,0.01-7.95,0.04c-28.78-15.04-77.86-24.95-133.57-24.95
	s-104.78,9.91-133.57,24.95C82.34,626,14.53,639.62,14.53,656.31s67.81,30.31,152.95,31.08c28.78,15.04,77.86,24.95,133.57,24.95
	s104.79-9.91,133.57-24.95c2.63,0.02,5.28,0.04,7.95,0.04c83.66,0,152.36-12.41,159.83-28.25
	C629.03,658.58,649.85,653.33,649.85,646.94z"/>
<g>
	<path class="st1" d="M17.93,399.1c0,0.46,0.02,0.93,0.04,1.39c0.89,14.7,15.82,28.59,41.25,28.59c16.13,0,33.58-12.55,33.27-28.36
		c-0.2-10.62-8.92-20.81-30.17-20.81c-2.16,0-4.24,0.04-6.27,0.13C32.21,381.09,17.93,388.22,17.93,399.1L17.93,399.1z"/>
	<path class="st2" d="M18.97,399.21c1.99,11.5,27.8,9.43,35.69-1.82c3.25-4.63,4.3-10.78,1.39-17.34
		C32.21,381.1,17.14,388.26,18.97,399.21z"/>
	<path class="st1" d="M115.51,214.39c0,0-37.72,27.08-74.97,43.71c-56.66,25.28-42.27,60.62-26.08,84.19
		c18.01,26.22,55.72,85.62,77.83,67.97c17.4-13.89,17.79-37.94,17.79-37.94l5.44-157.92L115.51,214.39z"/>
	<path class="st3" d="M121.62,249.4c0,4.36-8.8-2.81-8.8-2.81c-16.21,19.4-41.23,28.43-41.23,37.1s36.35,83.78,36.35,83.78
		S121.62,245.05,121.62,249.4z"/>
</g>
<path class="st1" d="M566.17,608.28c-6.53-63.58-24.72-118.85-38.53-197.72c-3.28-19.37-6.66-40.6-9.11-61.32
	c-7.29-61.59-7.88-179.76-10.35-244.39c-1.05-27.51-4.64-51.3-8.4-69.56c-4.63-22.41-25.14-37.53-47.38-35.01l-85.85,9.74
	c-19.63,2.23-39.34,3.34-59.06,3.34s-39.43-1.11-59.06-3.34l-85.84-9.75c-22.24-2.52-42.75,12.6-47.38,35.01
	c-3.77,18.26-7.35,42.05-8.4,69.56c-2.47,64.63-3.06,182.8-10.35,244.39c-13.07,110.45-39.6,180.78-47.64,259.04
	c-1.99,19.38,10.31,37.23,28.82,41.72c27.26,6.62,72.35,11.28,133.91-3.31c14.03-3.32,26.14-6.14,36.58-8.54
	c19.55-4.48,39.45-6.72,59.36-6.73c19.9,0.01,39.81,2.25,59.36,6.73c10.44,2.39,22.55,5.21,36.58,8.54
	c61.56,14.59,106.65,9.93,133.91,3.31c18.52-4.5,30.82-22.35,28.82-41.72L566.17,608.28z"/>
<g id="eyes">
	<g>
		<ellipse class="st4" cx="223.69" cy="162.15" rx="50.06" ry="51.26"/>
		<g>
			<ellipse class="st4" cx="394.33" cy="162.15" rx="50.06" ry="51.26"/>
			<g>
				<ellipse class="st5" cx="384.6" cy="167.08" rx="31.12" ry="31.86"/>
				<ellipse class="st4" cx="374.36" cy="158.77" rx="10.52" ry="10.77"/>
			</g>
			<g>
				<ellipse class="st5" cx="234.57" cy="167.08" rx="31.12" ry="31.86"/>
				<ellipse class="st4" cx="224.34" cy="158.77" rx="10.52" ry="10.77"/>
			</g>
		</g>
	</g>
	<path class="st6" d="M246.29,246.4c4.41,4.95,10.32,10.64,15.02,13.94c13.18,9.27,27.46,16.48,43.41,19.42
		c7.73,1.43,15.66,1.87,23.49,1.09c3.9-0.39,7.78-1.08,11.57-2.09c2.12-0.57,9.37-1.84,10.54-3.75
		c-12.41,20.35-31.39,38.51-57.2,34.02c-13.57-2.36-23.75-10.66-31.73-21.43c-8.84-11.94-11.3-27.15-15.11-41.2L246.29,246.4z"/>
</g>
<g id="eye-brows">
	<g class="st7">
		<path class="st5" d="M231.66,76.54c-16.46-4.55-31.06-4.7-45.98,3.9c-10.99,6.2-29.1,21.78-27.66,35.81
			c-1.8-1.54-3.05-3.82-3.77-6.25c-3.97-17.06,9.55-34.96,23.9-42.97C195.67,56.78,219.57,59.41,231.66,76.54L231.66,76.54
			L231.66,76.54z"/>
	</g>
	<g class="st7">
		<path class="st5" d="M386.37,76.54c12.1-17.13,35.98-19.76,53.51-9.51c14.36,8.01,27.87,25.91,23.9,42.97
			c-0.73,2.44-1.98,4.72-3.77,6.25c1.46-13.99-16.68-29.63-27.66-35.81C417.43,71.84,402.82,71.99,386.37,76.54L386.37,76.54z"/>
	</g>
</g>
<path class="st8" d="M174.26,602.32c20.43,11.12,43.16,17.23,65.93,21.33c22.66,3.94,45.84,6.19,68.82,6.47
	c34.5-0.69,69.36-4.6,102.52-14.48c9.68-3.01,19.28-6.63,28.32-11.28c1.29-0.69,2.59-1.37,3.91-2.04
	c-18.13,15.42-41.16,24.24-64.01,30.18c-23.16,5.82-46.85,8.8-70.74,9.15c-17.97-0.24-35.68-2.06-53.3-5.34
	C226.82,630.71,197.1,621.51,174.26,602.32L174.26,602.32L174.26,602.32z"/>
<path class="st8" d="M87.23,319.15c17.77,25.1,29.62,74.41,2.13,96.64c1.32-2.36,2.58-4.62,3.67-7.04c1.76-4.14,3.2-8.74,3.95-13.19
	c4.26-24.92-3.71-52.14-9.75-76.42l0,0L87.23,319.15z"/>
<g>
	<path class="st2" d="M440.1,4.86c-0.04-0.03-0.09-0.05-0.13-0.08C439.98,4.82,440.03,4.84,440.1,4.86z"/>
	<path class="st2" d="M571.89,274.44c0.97,0.05,1.95,0.09,2.94,0.14C574.31,274.31,573.27,274.29,571.89,274.44z"/>
</g>
<path class="st1" d="M629.14,250.82c3.33-1.28,6.67-2.54,9.94-3.91c6.85-2.87,8.12-14.48,8.6-20.74
	c1.73-22.87,4.28-44.16-0.95-66.79c-5-21.65-13.91-42.15-22.85-62.41c-4.71-10.68-10.31-22.28-21.18-27.07
	c-9.24-4.07-19.99-2.14-29.79,0.41c-12.22,3.18-24.72,7.51-33.45,16.44c-8.72,8.93-12.38,23.66-5.19,33.81
	c5.75,8.11,16.84,11.26,26.9,10.31c7.56-0.72,12.16-2.17,17.84-4.67c13.54-5.97,5.98,24.53,4.47,30c-1.25,4.52-2.25,9.07-2.44,14.15
	c-0.16,4.32-0.23,12.51,4.82,18.12c-10.19-13.54-28.44-20.85-45.45-18.19c-15.03,2.35-28.48,12.39-35.09,25.72
	c-1.39,2.81-4.81,3.94-7.57,2.43c-9.01-4.93-21.33-12.31-16.13-35.2c-0.11-0.67-6.24,28.65-6.35,27.98
	c-7.01,13.22-8.48,28.7-6.85,43.49c1.13,10.2-5.26,33.98-7.85,52.41c-0.73,5.18,5.46,8.29,9.26,4.7
	c15.32-14.45,41.07-10.15,60.2-10.55c15.03-0.31,30.13-1.76,44.69-5.66c15.36-4.12,27.02-12.35,41-19.17
	C620.09,254.32,624.62,252.55,629.14,250.82z"/>
<g>
	<path class="st8" d="M502.74,220.49c-1.81-6.07-1.86-12.27-0.45-18.13c-4.4,8.5-5.01,22.9-1.32,30.84
		c4.25,9.15,13.42,9.59,24.91,11.27C514.88,240.33,506.12,231.83,502.74,220.49z"/>
	<path class="st8" d="M584.77,208.26c-0.11,8.23-2.22,16.12-5.81,23.1c7.5-9.28,11.52-20.41,10.32-31.26
		c-1.33-12.02-8.79-21.21-19.51-26.05C579.11,181.72,584.96,193.97,584.77,208.26z"/>
</g>
<path class="st2" d="M599.26,260.82c4.88-5,11.14-19.37,17.35-21.67c6.45-2.39,11.78,8.03,18.19,9.77
	c-8.4,2.97-16.99,6.5-24.62,10.49c-6.84,3.57-13.46,7.52-20.68,9.32C592.83,266.52,596.49,264.06,599.26,260.82z"/>
<path class="st3" d="M574.33,117.8c5.1-5.05,10.42-14.36,13.03-19.91c4.34-9.23,15.93,3.8,2.33,23.34
	c-4.58,4.92-9.02,5.07-19.91,8.02c-7.32,1.98-12.57,1.77-19.13,1.09C553.9,127.81,571.27,121.52,574.33,117.8z"/>
<path class="st8" d="M578.07,272.72c-8.46,3.7-17.45,6.06-26.26,7.14c13.25,0.3,26.66-2.42,37.45-8.31
	c12.43-6.79,19.58-16.28,19.68-26C605.17,255.8,593.86,265.81,578.07,272.72z"/>
<path class="st8" d="M555.61,276.54c-9.66-0.15-19.28-1.72-28.19-4.36c12.61,5.68,26.62,8.73,39.43,7.88
	c14.76-0.98,25.56-6.53,29.68-15.15C588.66,272.52,573.64,276.82,555.61,276.54z"/>
<path class="st9" d="M626.31,176.9c-1.33,7.19-4.01,14-7.63,20.01c6.98-8.02,11.62-17.74,12.38-27.54
	c0.87-11.29-3.58-20.35-11.33-25.59C626.05,151.57,628.79,163.47,626.31,176.9z"/>
<g>
	<path class="st2" d="M529.16,413.49c-9.92-49.34-14.05-131.7-14.07-132.13c0.07,1.29,22.84-0.4,41.04-2.75
		c-11.22,1.45-28.1-5.39-37.85-10.4c-7.53-3.87-9.64-9.24-6.13-16.68c1.92-4.09,17.75-3.57,33.6-7.05
		c-33.6,7.05-45.72-23.3-44.56-38.35c0.86-11.22,10.99-15.21,10.64-26.83l-2.12-71.52c-1.05-27.51-4.71-53.74-8.4-69.56
		C490.39-8.47,442.84,5.55,440.1,4.86c54.92,31.92,52.65,105.28,54.14,142.06c0.67,16.57-2.26,33.41-4.81,49.71
		c-3.16,20.2-6.32,40.4-9.49,60.59c-3.38,21.57-6.73,43.31-6.41,65.2c0.32,21.86,6.36,42.78,9.98,64.21
		c7.59,44.93,5.32,89.6-22.82,127.42c-5.45,7.33-11.56,14.15-18.11,20.51c-101,98.05-336.05,71.41-368.08-50.71
		c-10.09,45.17-19.81,85.11-24.15,127.35c-1.99,19.38,10.31,37.23,28.82,41.72c27.26,6.62,72.35,11.28,133.91-3.31
		c14.03-3.32,26.14-6.14,36.58-8.54c19.55-4.48,39.45-6.72,59.36-6.73c19.9,0.01,39.81,2.25,59.36,6.73
		c10.44,2.39,22.55,5.21,36.58,8.54c61.56,14.59,106.65,9.93,133.91,3.31c18.52-4.5,30.82-22.35,28.82-41.72
		C560.96,545.7,539.1,462.96,529.16,413.49z"/>
	<path class="st2" d="M577.41,274.55c0.14-0.07,0.27-0.13,0.38-0.2C577.68,274.42,577.54,274.48,577.41,274.55z"/>
	<path class="st2" d="M577.41,274.55c-2.76,1.3-11.33,2.78-21.28,4.06c0,0,0,0,0,0C560.34,279.02,573.09,276.81,577.41,274.55z"/>
</g>
</svg>
