<?xml version="1.0" encoding="utf-8"?>
<!-- Generator: Adobe Illustrator 27.7.0, SVG Export Plug-In . SVG Version: 6.00 Build 0)  -->
<svg version="1.1" id="Layer_1" xmlns="http://www.w3.org/2000/svg" xmlns:xlink="http://www.w3.org/1999/xlink" x="0px" y="0px"
	 viewBox="0 0 1821.58 1341.3" style="enable-background:new 0 0 1821.58 1341.3;" xml:space="preserve">
<style type="text/css">
	.st0{opacity:0.15;}
	.st1{fill:#DC3030;}
	.st2{fill:#A12525;}
	.st3{fill:#87201B;}
	.st4{fill:#FF7B00;}
	.st5{fill:#E56E00;}
	.st6{fill:#B24E00;}
	.st7{fill:#884406;}
	.st8{fill:#FFFFFF;}
	.st9{fill:#3A200A;}
</style>
<path class="st0" d="M982.42,1161.83c-70.26,0-133.46,10.54-177.27,27.33c-43.18-21.9-115.54-36.26-197.55-36.26
	c-72.72,0-137.86,11.29-181.79,29.12c-34.36-6.64-73.9-10.42-115.97-10.42c-132.29,0-239.53,37.37-239.53,83.47
	s107.24,83.47,239.53,83.47c72.72,0,137.86-11.29,181.79-29.12c34.36,6.64,73.9,10.42,115.97,10.42
	c70.26,0,133.46-10.54,177.27-27.34c43.18,21.9,115.54,36.26,197.55,36.26c132.29,0,239.53-37.37,239.53-83.47
	C1221.95,1199.2,1114.71,1161.83,982.42,1161.83z"/>
<path class="st1" d="M1222.3,947.79c61.89-3.45,130.2,15.02,181.98-19.04c48.41-31.84,60.85-95.72,86.01-147.92
	c28.6-59.33,78.4-108.17,138.28-135.61s129.39-33.26,193-16.18c-19.19-55.98-45.72-113.32-94.97-146.13
	c-55.47-36.96-128.4-34.95-193.33-19.87c-64.93,15.07-127.24,41.74-193.37,50.12c-121.57,15.41-249.54-37.14-325.2-133.54
	c-58.27,124.29-62.53,266.22-63.25,403.48c-0.3,58.65,0.55,120.16,28.81,171.56c10.84,19.7,26.41,37.57,45.76,49.26
	c21.31,12.87,35.01,15.34,53.54-0.29C1119.13,970.26,1170.74,950.66,1222.3,947.79z"/>
<path class="st2" d="M1218.99,949.98c23.72-2.09,47.8-2,71.35-0.72c39.92,2.16,84.14,6.05,115.66-18.54
	c22.22-17.33,41.61-49.05,52.73-74.94c26.89-62.61,43.89-114.12,97.65-162.87c-84.88,41.51-188.51,35.63-274.17-4.24
	c-60.17-28-110.34-74.34-151.35-126.52c-27.8-35.36-49.98-74.58-73.5-112.8c-11.23-18.25-22.17-38.17-36.01-54.6
	c-19.03-22.58-18.75,12.21-19.39,27.32c-4.22,99.79-8.46,199.58-12.69,299.36c-3.33,78.48-6.51,158.36,13.54,234.31
	c3.49,13.22,7.81,26.54,16.04,37.46c8.22,10.92,21.03,19.19,34.7,18.81c15.9-0.44,29-11.83,41.97-21.05
	C1131.48,965.4,1174.6,953.89,1218.99,949.98z"/>
<path class="st3" d="M1198.71,952.33c-23.98,1.83-50.09-4.52-73.36-10.6c-27.29-7.13-55.7-14.85-76.74-33.65
	c-7.82-6.99-14.39-15.36-19.32-24.61c-3.69-6.94-6.79-14.74-13.29-19.15c-11.8,26.09-12.61,56.94-2.2,83.62
	c5.05,12.93,12.72,24.81,22.27,34.88c8.17,8.6,21.88,21.91,34.16,23.78c6.79,1.03,11.27-4.38,16.04-8.37
	c5.75-4.82,12.45-9.55,18.91-13.38c13.67-8.12,24.29-13.65,38.7-19.03C1160.29,959.69,1181.4,954.99,1198.71,952.33z"/>
<path class="st4" d="M264.43,372.1c8.03-85.09,25.6-169.27,52.28-250.46c7.78-23.69,16.49-47.41,30.62-67.95S381.7,15.84,405.9,9.85
	c27.33-6.77,55.83,1.35,83.17,8.06c113.52,27.86,193.66,27.9,309,10.15c37.82-5.82,115.64-5.38,151.39,8.28s66.34,47.95,81.84,74.16
	c16.59,28.04,14.37,63.61,11.09,96.02c-3.28,32.41-11,64.21-15.57,96.46c-7.98,56.37-6.23,114.1,5.15,169.88
	c54.12,24.58,93.95,84.75,104.6,138.5c2.55,12.87,2.76,25.55-0.97,38.13c-4.71,15.89-19.37,29.9-31.16,40.57
	c-12.29,11.12-23.8,20.92-37.25,31.73c10.27,3.87,20.09,10.88,24.48,22.36c4.39,11.48,3.8,22.83-1.61,33.86
	c-5.41,11.03-14.31,20.05-24.25,27.28c-9.3,6.77-18.82,10.24-28.87,14.58c-2.08,20.41-13.69,39.6-14.33,62.2
	c-0.93,32.81,15.14,63.53,29.84,92.87c19.95,39.82,48.79,88.12,68.74,127.94c19.3,38.51,33.68,67.05,29.05,113.59
	c-3.68,37.01-50.85,53.88-86.46,64.64c-35.61,10.75-73.47,11.52-110.61,9.48c-65.33-3.59-127.95-9.97-192.46-35.72
	c-6.35-2.54-21.23-19.23-26.25-31.95c-118.84,35.64-202.91,42.03-301.72,16.48c-15.34,30.2-83.88,48.09-130.91,55.76
	c-47.03,7.67-94.64,7.06-141.91,1.05c-13.74-1.75-28.13-5.26-41-10.36c-9.19-3.64-17.93-8.96-24.76-16.02
	c-4.53-4.69-7.52-10.68-8.61-17.11c-7.17-42.3-6.17-88.41,0.26-131.96c4.86-32.95,12.18-65.55,22.26-97.3
	c5.88-18.52,12.68-36.73,19.49-54.93c5.78-15.45,8.09-32.63,13.71-48.13c-5.81-75.13,2.8-151.36,22.03-224.13
	c8.96-33.9,21.41-66.66,30.84-100.41c-39.4-32.79-82-68.69-113.82-121.23c-28.62-47.24-49.6-97.55-64.72-150.68
	c-13.41-47.13-30.04-82.69,7-149.28c6.13-11.01,13.85-21.52,24.45-28.34c10.6-6.81,24.58-9.35,36-4.03
	c11.01,5.12,17.75,16.24,23.77,26.79c39.36,69.02,76.39,141.36,134.41,195.65C248.56,372.83,257.43,375.54,264.43,372.1z"/>
<path class="st5" d="M141.14,919.92c81.8,84.83,195.47,145.11,311.61,165.07h17.29c96.62,0,194.97-17.01,278.47-65.62
	c36.71-21.38,70.86-47.93,97.21-81.25c26.35-33.32,44.63-73.74,47.88-116.1c2.79-36.32-5.36-72.44-9.99-108.57
	c-9.95-77.67-0.45-157.36,15.24-234.08c9.44-46.16,21.59-80.76,37.39-121.29s33.05-80.78,42.44-123.26s10.47-88.04-5.7-128.43
	s-63.74-75.36-106.77-81.77c9.08-0.65,32.49,0.08,42.43,1.11c11.17,1.16,22.22,3.45,32.94,6.79c21.48,6.68,41.66,17.55,59.03,31.83
	c21.06,17.32,37.79,40.4,45.24,66.82c8.49,30.12,1.75,78.33-3.79,108.4c-15,81.53-27.81,154.63-10.11,233.28
	c-13.87-4.87-23.44-10.2-38.13-10.78c-14.69-0.58-29.75,2.2-42.4,9.69c-12.65,7.49-22.63,20.02-25.34,34.46
	c-2.93,15.59,2.58,31.63,8.16,46.21c1.85,4.82,4.65,9.24,8.32,12.88c5.44,5.4,11.46,10.42,15.37,17.01
	c-10.22,26.18-24.72,51.71-36.39,77.28c-11.67,25.57-20.72,53.19-19.17,81.25s15.4,56.68,40.17,69.95
	c12.16,6.51,26.01,9,39.65,11.06c19.35,2.92,36.15,4.12,54.74-1.98c-4.13,27.25-12.98,59.02-7.85,87.73
	c3.04,17.01,10.81,32.76,18.69,48.13c10.43,20.32,21.32,40.4,32.58,60.28c26.6,46.98,50.47,96.4,67.58,147.6
	c7.2,21.54,13.16,45.86,3.22,66.29c-7.29,14.98-21.91,24.98-36.79,32.46c-36.54,18.39-77.67,27.56-118.57,28.54
	c-40.79,0.98-81.5-2.84-122-7.86c-28.5-3.54-55.9-8.38-82.89-18.2c-4.59-1.67-10.52-3.64-15.53-5.25
	c-4.36-1.4-10.57-3.26-14.52-5.58c-4.82-2.84-10.51-8.97-14.03-13.32c-4.53-5.6-8.16-10.73-11.33-18.13
	c-63.94,21.1-110.36,33.06-178.3,32.46c-20.67-0.18-61.29-3.3-81.64-6.9c-14.32-2.53-28.65-5.62-42.96-9.21
	c-12.73,23.46-47.74,35.31-76.69,43.78c-71.72,21.01-147.86,27.07-220.19,8.26c-17.41-4.53-29.29-10.84-39.99-19.91
	c-10.04-8.51-10.89-21.26-12.38-31.97c-7.44-53.25-1.68-108.92,10.04-161.39C105.13,1025.23,122.06,970.18,141.14,919.92z"/>
<path class="st5" d="M1067.11,721.49c-11.87,12.65-26.05,23.14-41.63,30.78c-1.27,0.63,17.18,11.99,18.94,12.68
	c7.49,2.94,15.55,6.19,23.54,7.34c14.41,2.07,28.14-5.91,25.83-22.06c-0.97-6.75-4.79-12.85-9.67-17.62
	C1079.24,727.86,1073.1,724.76,1067.11,721.49z"/>
<path class="st5" d="M194.56,595.99c33.81-70.21,65.43-146.57,71.05-224.29c-9.48,23.35-33.87,45.57-53.35,61.56
	c-19.48,15.99-45.72,25.01-71.1,20.66c-14.11-2.42-34.34-10.89-46.4-18.61c-25.62-16.4-42.33-35.11-60.76-59.31
	c1.68,4.44,3.63,9.62,5.74,14.71c2.22,5.35,4.2,10.64,6.69,15.88c5.09,10.73,9.81,21.57,15.24,32.13
	c10.05,19.56,21.68,39.2,34.14,57.62c13.26,19.61,30,35.72,47.01,52.01C159.77,564.6,175.76,581.74,194.56,595.99z"/>
<path class="st6" d="M93.43,332.47c-5.51-10.74-17.92-30.55-25.88-46.34c-4.56-9.05-7.44-18.95-8.48-29.03
	c-0.72-6.93-2.82-23.48,5.5-27.03c7.99-3.41,17.08-0.2,23.7,4.68c3.45,2.54,6.54,5.69,8.8,9.34c1.27,2.05,3.62,6.52,4.6,9.74
	c6.87-23.44-25.93-45.25-46.72-36.35c-14.8,6.33-11.87,27.22-9.28,39.84c3.08,15.03,9.13,29.4,17.47,42.27
	c3.99,6.15,8.7,12.31,13.83,17.76c2.72,2.88,5.59,5.62,8.61,8.18C87.96,327.54,90.52,329.95,93.43,332.47z"/>
<path class="st6" d="M329.89,195.8c3.83-5.59,9.45-9.67,15.02-13.54c9.12-6.32,18.59-12.46,29.22-15.65
	c19.23-5.77,41.32-0.7,56.11,12.87c0.63-18.48-10.77-36.83-27.78-44.06c-17.02-7.24-37.91-3.66-52.07,8.23
	S327.58,177.45,329.89,195.8z"/>
<path class="st6" d="M671.89,167.31c14.91-1.92,29.97-3.84,44.94-2.52c14.98,1.31,30.08,6.14,41.25,16.2
	c6.91,6.22,12.03,14.16,16.61,22.26c4.33,7.65,7.34,17.95,7.75,24.8c10.83-19.39,11.51-44.18-0.36-62.96
	c-11.86-18.78-34.08-30.41-56.28-29.84C703.61,135.81,683.54,148.4,671.89,167.31z"/>
<path class="st6" d="M432.63,1238.92c-103.32-27.69-195.81-93.72-245.97-188.19c88.92,89.74,184.82,161.37,314.06,176.29
	c61.98,7.15,124.83,2.52,185.91-9.45c54.98-10.77,135.16-35.65,171.99-57.05C736.41,1246,575.44,1277.2,432.63,1238.92z"/>
<path class="st6" d="M903.94,656.98c-8.57,18.48-14.25,38.44-15.43,58.49c-1.83,31,11.76,68.63,39.77,84.97
	c-5.46-3.18-9.99-17.62-12.24-23.28c-3.49-8.79-5.79-17.95-7.56-27.22c-3.8-19.96-1.52-40.72,3.9-60.16
	c10.52-37.71,32.67-70.66,45.55-107.45c-5.63,6.91-13.62,16.89-19.37,23.29c-6.55,7.3-12.82,14.66-18.36,22.78
	C914.11,637.34,908.6,646.94,903.94,656.98z"/>
<path class="st7" d="M402.43,577.24c18.67-12.51,27.16-32.2,22.11-54.1c-5.05-21.9-17.97-42.3-31.61-60.17
	c1.79,2.34,5.9,3.05,8.55,3.79c4.32,1.21,8.57,2.56,12.95,3.6c9.86,2.34,19.89,3.92,29.98,4.85c20.48,1.89,41.15,1.13,61.55-1.32
	c19.24-2.31,38.26-6.09,57.12-10.48c18.18-4.23,37.15-7.89,54.44-15.05c2.42-1,5.53-1.91,7.59-3.54c0.01-0.01,0.02-0.02,0.03-0.03
	c0.03-0.02,0.05-0.04,0.08-0.06c0.08-0.06,0.16-0.13,0.24-0.19c0.01-0.01,0.04-0.02,0.04-0.04c-13.77,43.42-46.75,78.57-87.64,98.64
	C496.98,563.22,448.5,572.47,402.43,577.24z"/>
<path class="st6" d="M451.71,562.18c31.05-44.83,87.81-73.94,142.34-74.12C569.28,522.61,516.82,552.31,451.71,562.18z"/>
<path class="st8" d="M423.27,368.76c11.8-14.3,19.8-31.85,23.3-49.98c5.66-29.31,0.68-66.92-23.95-86.68
	c-16.61-13.33-40.49-15.93-60.52-8.7c-20.03,7.23-36.16,23.4-45.69,42.45c-9.53,19.05-12.84,40.78-12.1,62.06
	c0.54,15.37,3.24,30.98,10.63,44.47c8.22,14.98,22.06,25.67,39.21,27.97c14.62,1.96,29.64-1.97,42.51-9.17
	C406.92,385.45,415.85,377.75,423.27,368.76z"/>
<path class="st9" d="M412.82,294.18c0.28-30.45-16.33-63.39-51.74-50.14c-20.81,7.79-29.44,29.67-32.42,50.14
	c-3.42,23.44,3.06,52.38,29.63,58.76c22.77,5.46,41.34-13.69,49.58-32.91C411.07,312.58,412.73,303.5,412.82,294.18z"/>
<path class="st8" d="M370.2,292.66c4.98-6.22,6.03-16.49,3.64-23.49c-1.49-4.37-5.2-8.25-9.8-8.7c-5.11-0.5-9.68,3.18-12.88,7.19
	c-7.89,9.89-9.06,32.38,9.61,30.32C364.79,297.54,367.91,295.53,370.2,292.66z"/>
<path class="st8" d="M683,214.13c28.98-4.03,60.02,7.42,78.24,30.31c8.91,11.19,14.67,24.64,18.26,38.49
	c6.24,24.1,5.97,50.07-2.3,73.55c-8.27,23.48-24.78,44.24-46.58,56.24c-21.81,12-48.85,14.73-72.12,5.88
	c-27.78-10.56-48.01-36.67-55.57-65.41C587.43,294.23,617.24,223.29,683,214.13z"/>
<path class="st9" d="M729.15,286.35c1.08,4.64,1.65,9.39,1.67,14.12c0.11,24.47-11.42,50.96-33.36,63.72
	c-24.07,13.99-55.27,4.02-70.6-18.27c-9.4-13.66-13.02-30.95-10.95-47.4c2.32-18.37,11.91-36,26.98-46.75s35.6-13.99,52.77-7.06
	C712.88,251.68,724.92,268.15,729.15,286.35z"/>
<path class="st8" d="M667.02,302.06c5.71-7.13,6.91-18.89,4.17-26.91c-1.71-5.01-5.96-9.45-11.22-9.97
	c-5.85-0.57-11.08,3.64-14.75,8.24c-9.04,11.32-10.37,37.09,11,34.73C660.81,307.64,664.39,305.34,667.02,302.06z"/>
</svg>
