<?xml version="1.0" encoding="UTF-8"?>
<svg id="woah" xmlns="http://www.w3.org/2000/svg" viewBox="0 0 751.19 956.73">
  <defs>
    <style>
      .cls-1 {
        opacity: .6;
      }

      .cls-1, .cls-2 {
        fill: none;
      }

      .cls-3 {
        opacity: .12;
      }

      .cls-3, .cls-4, .cls-5 {
        fill: #ffe94a;
      }

      .cls-4 {
        opacity: .11;
      }

      .cls-6 {
        opacity: .1;
      }

      .cls-7 {
        fill: #fff;
      }

      .cls-8 {
        fill: #ff7b00;
      }

      .cls-9 {
        fill: #b24e00;
      }

      .cls-10 {
        fill: #b25000;
      }

      .cls-11 {
        fill: #3a200a;
      }

      .cls-5 {
        opacity: .2;
      }

      .cls-2 {
        opacity: .15;
      }
    </style>
  </defs>
  <g>
    <circle class="cls-4" cx="375.6" cy="375.6" r="375.6"/>
    <circle class="cls-3" cx="375.6" cy="380.54" r="307.93"/>
    <circle class="cls-5" cx="364.64" cy="391.24" r="252.41"/>
  </g>
  <g class="cls-2">
    <path class="cls-11" d="m506.45,869.58c-2.66,0-5.31.01-7.95.04-28.78-15.04-77.86-24.95-133.57-24.95s-104.78,9.91-133.57,24.95c-85.14.77-152.95,14.39-152.95,31.08s67.81,30.31,152.95,31.08c28.78,15.04,77.86,24.95,133.57,24.95s104.79-9.91,133.57-24.95c2.63.02,5.28.04,7.95.04,88.65,0,160.52-13.93,160.52-31.12s-71.87-31.12-160.52-31.12Z"/>
  </g>
  <path class="cls-8" d="m631.56,852.67c-6.53-63.58-26.45-118.56-38.53-197.72-4.18-27.39-6.66-40.6-9.11-61.32-7.29-61.59-7.88-179.76-10.35-244.39-1.05-27.51-4.64-51.3-8.4-69.56-4.63-22.41-25.14-37.53-47.38-35.01l-85.85,9.74c-19.63,2.23-39.34,3.34-59.06,3.34-19.72,0-39.43-1.11-59.06-3.34l-85.85-9.74c-22.24-2.52-42.75,12.6-47.38,35.01-3.77,18.26-7.35,42.05-8.4,69.56-2.47,64.63-3.06,182.8-10.35,244.39-13.07,110.45-39.6,180.78-47.64,259.04-1.99,19.38,10.31,37.23,28.82,41.72,27.26,6.62,72.35,11.28,133.91-3.31,14.03-3.32,26.14-6.14,36.58-8.54,19.55-4.48,39.45-6.72,59.36-6.73,19.9.01,39.81,2.25,59.36,6.73,10.44,2.39,22.55,5.21,36.58,8.54,61.56,14.59,106.65,9.93,133.91,3.31,18.52-4.5,30.82-22.35,28.82-41.72Z"/>
  <path class="cls-10" d="m445.48,266.77c-24.24-1.89-48.37-1.84-72.59-2.11-24.22.28-48.34.23-72.59,2.11,2.88-1.04,5.82-1.95,8.79-2.73,37.96-9.58,99.23-9.83,136.39,2.73h0Z"/>
  <path class="cls-6" d="m582.98,587.89c-6.4-63.47-7.04-174.02-9.41-235.74-1.05-27.51-4.71-53.74-8.4-69.56-11.17-47.84-60.84-31.92-61.32-33.43,55.05,31.88,52.78,105.33,54.27,142.14,1.33,32.79-17.25,107.99-21.21,160.11-4.58,60.26,52.02,147.47-30.45,227.54-101,98.05-336.05,71.41-368.08-50.71h0c-10.09,45.17-19.81,85.11-24.15,127.35-1.99,19.38,10.31,37.23,28.82,41.72,27.26,6.62,72.35,11.28,133.91-3.31,14.03-3.32,26.14-6.14,36.58-8.54,19.55-4.48,39.45-6.72,59.36-6.73,19.9.01,39.81,2.25,59.36,6.73,10.44,2.39,22.55,5.21,36.58,8.54,61.56,14.59,106.65,9.93,133.91,3.31,18.52-4.5,30.82-22.35,28.82-41.72-6.73-65.51-24.63-115.15-38.53-197.72-6.82-7.56-9.75-66.98-10.05-69.98Z"/>
  <path class="cls-10" d="m238.14,846.71c20.43,11.12,43.16,17.23,65.93,21.33,22.66,3.94,45.84,6.19,68.82,6.47,34.5-.69,69.36-4.6,102.52-14.48,9.68-3.01,19.28-6.63,28.32-11.28,1.29-.69,2.59-1.37,3.91-2.04-18.13,15.42-41.16,24.24-64.01,30.18-23.16,5.82-46.85,8.8-70.74,9.15-17.97-.24-35.68-2.06-53.3-5.34-28.89-5.6-58.61-14.8-81.45-33.99h0Z"/>
  <g id="eyes_copy" data-name="eyes copy">
    <g>
      <ellipse class="cls-7" cx="287.93" cy="414.44" rx="50.06" ry="51.26" transform="translate(-37.13 28.43) rotate(-5.31)"/>
      <g>
        <ellipse class="cls-11" cx="300.61" cy="413.26" rx="31.12" ry="31.86" transform="translate(-36.96 29.6) rotate(-5.31)"/>
        <ellipse class="cls-7" cx="289.65" cy="405.93" rx="10.52" ry="10.77" transform="translate(-36.33 28.56) rotate(-5.31)"/>
      </g>
      <g>
        <ellipse class="cls-7" cx="457.57" cy="405.93" rx="50.06" ry="51.26" transform="translate(-35.61 44.1) rotate(-5.31)"/>
        <g>
          <ellipse class="cls-11" cx="445.35" cy="412.02" rx="31.12" ry="31.86" transform="translate(-36.23 43) rotate(-5.31)"/>
          <ellipse class="cls-7" cx="434.39" cy="404.69" rx="10.52" ry="10.77" transform="translate(-35.6 41.95) rotate(-5.31)"/>
        </g>
      </g>
    </g>
  </g>
  <ellipse class="cls-8" cx="246.94" cy="449.97" rx="27.74" ry="60.57" transform="translate(-253.25 565.15) rotate(-74.21)"/>
  <path class="cls-8" d="m544.72,423.8c6.83,13.71-7.78,28.81-35.38,42.56-27.61,13.74-55.52,13.76-62.35.05-6.83-13.71,10.02-35.97,37.63-49.71,27.61-13.74,53.28-6.61,60.1,7.11Z"/>
  <g id="eye-brows_copy_2" data-name="eye-brows copy 2">
    <g class="cls-1">
      <path class="cls-11" d="m298.15,315.28c-16.96-1.99-31.41.07-44.85,10.84-9.92,7.8-25.46,25.95-21.9,39.59-2.01-1.25-3.59-3.31-4.68-5.61-6.51-16.31,4.11-35.96,17.1-46.1,15.77-12.79,39.78-13.82,54.33,1.28h0Z"/>
    </g>
    <g class="cls-1">
      <path class="cls-11" d="m517.77,366.96c-4.32-8.55-8.35-16.74-13.85-24.22-9.98-13.77-23.5-24.41-40.12-27.91-8.76-1.75-17.3-1.03-25.79,3.12,2.16-4.56,6.14-8.41,10.85-11.01,14.61-7.84,33.28-4.06,46.2,5.33,17.19,12.23,26.56,34.06,22.71,54.69h0Z"/>
    </g>
  </g>
  <g>
    <path class="cls-8" d="m260.08,490.97s-.02.04-.04.07c-9.76,13.43-25.36,26.47-46.81,36.29l-45.12,45.21c-7.57.5-18.74,4.65-26.34,2.49,0,0-.02,0-.03,0-27.39-7.83-51.3-31.03-45.73-55.15,2.1-9.1,8.39-18.33,20.3-26.92,52.16-37.61,73.16-79.41,130.88-65.13,7.45,1.85,13.23,5.2,17.35,9.63,11.6,12.45,10.11,33.42-4.46,53.51Z"/>
    <path class="cls-6" d="m260.08,490.97s-.02.04-.04.07c-27.4,43.81-95.36,81.5-95.36,81.5-7.05.47-14.83,4.58-22.91,2.49,0,0-.02,0-.03,0-27.39-7.83-51.3-31.03-45.73-55.15,2.12-.29,4.46-.48,7.05-.58,61.27-2.49,68.73-23.19,144.14-91.46,5.05-4.57,12.48,0,17.35,9.63,6.26,12.37,8.28,33.11-4.46,53.51Z"/>
    <path class="cls-10" d="m104.7,551.41c18.54,18.71,38.96,22.76,63.33,12.89,36.44-15.78,63.83-46.09,92.05-73.33-23.98,34.93-68.4,84.68-114.12,84.53-17.41-.4-31.86-9.77-41.26-24.09h0Z"/>
    <path class="cls-10" d="m148.58,489.84c17.89-28.13,59.1-73.39,95.85-66.56,5.8,1.2,11.2,3.85,15.64,7.52-4.97-2.93-10.38-4.93-15.96-5.53-34.71-3.66-74.26,40.35-95.54,64.56h0Z"/>
  </g>
  <g>
    <path class="cls-8" d="m479.28,496.76s.02.04.04.07c9.76,13.43,25.36,26.47,46.81,36.29l45.12,45.21c7.57.5,18.74,4.65,26.34,2.49,0,0,.02,0,.03,0,27.39-7.83,51.3-31.03,45.73-55.15-2.1-9.1-8.39-18.33-20.3-26.92-52.16-37.61-73.16-79.41-130.88-65.13-7.45,1.85-13.23,5.2-17.35,9.63-11.6,12.45-10.11,33.42,4.46,53.51Z"/>
    <path class="cls-6" d="m479.28,496.76s.02.04.04.07c27.4,43.81,95.36,81.5,95.36,81.5,7.05.47,14.83,4.58,22.91,2.49,0,0,.02,0,.03,0,27.39-7.83,51.3-31.03,45.73-55.15-2.12-.29-4.46-.48-7.05-.58-61.27-2.49-68.73-23.19-144.14-91.46-5.05-4.57-12.48,0-17.35,9.63-6.26,12.37-8.28,33.11,4.46,53.51Z"/>
    <path class="cls-10" d="m634.66,557.2c-9.41,14.33-23.84,23.69-41.26,24.09-45.75.13-90.08-49.53-114.12-84.53,28.22,27.24,55.61,57.55,92.05,73.33,24.39,9.87,44.81,5.8,63.33-12.89h0Z"/>
    <path class="cls-10" d="m590.78,495.62c-21.24-24.17-60.81-68.23-95.54-64.56-5.58.6-10.99,2.61-15.96,5.53,4.44-3.68,9.85-6.32,15.64-7.52,36.74-6.83,77.93,38.38,95.85,66.56h0Z"/>
  </g>
  <g>
    <g class="cls-1">
      <path class="cls-11" d="m377.12,538.02c-2.84,0-5.67-.32-8.42-.94-21.73-4.93-33.65-24.4-28.99-47.34,3.65-17.99,18.79-37.4,36.88-37.4,1.96,0,3.94.23,5.9.67,21.95,4.98,32.72,29.31,32.01,50.78-.71,21.43-19.56,34.23-37.39,34.23Z"/>
      <path class="cls-11" d="m376.59,452.81c1.89,0,3.83.21,5.8.66,21.23,4.82,32.38,28.06,31.65,50.31-.67,20.24-18.35,33.78-36.92,33.78-2.77,0-5.56-.3-8.31-.93-21.23-4.82-33.27-23.99-28.64-46.8,3.42-16.86,17.92-37.03,36.43-37.03m0-.93h0c-18.33,0-33.65,19.61-37.34,37.77-4.71,23.2,7.36,42.89,29.35,47.88,2.78.63,5.64.95,8.52.95,18.04,0,37.13-12.97,37.85-34.68.38-11.56-2.36-22.99-7.71-32.19-5.9-10.14-14.43-16.73-24.66-19.05-1.99-.45-4.01-.68-6-.68h0Z"/>
    </g>
    <path class="cls-9" d="m345.44,507.31c10.1-14.65,54.49-7.4,58.29,7.09,3.61,13.75-14.68,22.73-32.88,20.38-17-2.19-30.37-20.28-25.41-27.47Z"/>
  </g>
</svg>