<?xml version="1.0" encoding="UTF-8"?>
<svg id="Confident" xmlns="http://www.w3.org/2000/svg" viewBox="0 0 617.55 712.34">
  <defs>
    <style>
      .cls-1, .cls-2 {
        opacity: .6;
      }

      .cls-1, .cls-3 {
        fill: none;
      }

      .cls-4 {
        opacity: .1;
      }

      .cls-5 {
        fill: #fff;
      }

      .cls-6 {
        fill: #ff7b00;
      }

      .cls-7 {
        fill: #b25000;
      }

      .cls-8, .cls-2 {
        fill: #3a200a;
      }

      .cls-9 {
        opacity: .2;
      }

      .cls-3 {
        opacity: .15;
      }
    </style>
  </defs>
  <g class="cls-3">
    <path class="cls-8" d="m442.57,625.19c-2.66,0-5.31.01-7.95.04-28.78-15.04-77.86-24.95-133.57-24.95s-104.78,9.91-133.57,24.95c-85.14.77-152.95,14.39-152.95,31.08s67.81,30.31,152.95,31.08c28.78,15.04,77.86,24.95,133.57,24.95s104.79-9.91,133.57-24.95c2.63.02,5.28.04,7.95.04,88.65,0,160.52-13.93,160.52-31.12s-71.87-31.12-160.52-31.12Z"/>
  </g>
  <g>
    <path class="cls-6" d="m599.62,399.1c0,.46-.02.93-.04,1.39-.89,14.7-15.82,28.59-41.25,28.59-16.13,0-33.58-12.55-33.27-28.36.2-10.62,8.92-20.81,30.17-20.81,2.16,0,4.24.04,6.27.13,23.84,1.05,38.12,8.18,38.12,19.05Z"/>
    <path class="cls-4" d="m598.57,399.21c-1.99,11.5-27.8,9.43-35.69-1.82-3.25-4.63-4.3-10.78-1.39-17.34,23.84,1.05,38.91,8.21,37.08,19.16Z"/>
    <path class="cls-6" d="m502.03,214.39s37.72,27.08,74.97,43.71c56.66,25.28,42.27,60.62,26.08,84.19-18.01,26.22-55.72,85.62-77.83,67.97-17.4-13.89-17.79-37.94-17.79-37.94l-5.44-157.92Z"/>
    <path class="cls-9" d="m495.92,249.4c0,4.36,8.8-2.81,8.8-2.81,16.21,19.4,41.23,28.43,41.23,37.1s-36.35,83.78-36.35,83.78c0,0-13.68-122.42-13.68-118.07Z"/>
  </g>
  <g>
    <path class="cls-6" d="m17.93,399.1c0,.46.02.93.04,1.39.89,14.7,15.82,28.59,41.25,28.59,16.13,0,33.58-12.55,33.27-28.36-.2-10.62-8.92-20.81-30.17-20.81-2.16,0-4.24.04-6.27.13-23.84,1.05-38.12,8.18-38.12,19.05Z"/>
    <path class="cls-4" d="m18.97,399.21c1.99,11.5,27.8,9.43,35.69-1.82,3.25-4.63,4.3-10.78,1.39-17.34-23.84,1.05-38.91,8.21-37.08,19.16Z"/>
    <path class="cls-6" d="m115.51,214.39s-37.72,27.08-74.97,43.71c-56.66,25.28-42.27,60.62-26.08,84.19,18.01,26.22,55.72,85.62,77.83,67.97,17.4-13.89,17.79-37.94,17.79-37.94l5.44-157.92Z"/>
    <path class="cls-9" d="m121.62,249.4c0,4.36-8.8-2.81-8.8-2.81-16.21,19.4-41.23,28.43-41.23,37.1s36.35,83.78,36.35,83.78c0,0,13.68-122.42,13.68-118.07Z"/>
  </g>
  <path class="cls-6" d="m567.69,608.28c-6.53-63.58-24.72-118.85-38.53-197.72-12.29-7.75-6.66-40.6-9.11-61.32-7.29-61.59-7.88-179.76-10.35-244.39-1.05-27.51-4.64-51.3-8.4-69.56-4.63-22.41-25.14-37.53-47.38-35.01l-85.85,9.74c-19.63,2.23-39.34,3.34-59.06,3.34-19.72,0-39.43-1.11-59.06-3.34L164.11.27c-22.24-2.52-42.75,12.6-47.38,35.01-3.77,18.26-7.35,42.05-8.4,69.56-2.47,64.63-3.06,182.8-10.35,244.39-13.07,110.45-39.6,180.78-47.64,259.04-1.99,19.38,10.31,37.23,28.82,41.72,27.26,6.62,72.35,11.28,133.91-3.31,14.03-3.32,26.14-6.14,36.58-8.54,19.55-4.48,39.45-6.72,59.36-6.73,19.9.01,39.81,2.25,59.36,6.73,10.44,2.39,22.55,5.21,36.58,8.54,61.56,14.59,106.65,9.93,133.91,3.31,18.52-4.5,30.82-22.35,28.82-41.72Z"/>
  <path class="cls-4" d="m515.02,372c-.33-2.77,4.38-25.5,4.08-28.49-6.4-63.47-7.04-174.02-9.41-235.74-1.05-27.51-4.71-53.74-8.4-69.56-11.17-47.84-60.84-31.92-61.32-33.43,55.05,31.88,52.78,105.33,54.27,142.14,1.33,32.79-17.25,107.99-21.21,160.11-4.58,60.26,52.02,147.47-30.45,227.54-101,98.05-336.05,71.41-368.08-50.71h0c-10.09,45.17-19.81,85.11-24.15,127.35-1.99,19.38,10.31,37.23,28.82,41.72,27.26,6.62,72.35,11.28,133.91-3.31,14.03-3.32,26.14-6.14,36.58-8.54,19.55-4.48,39.45-6.72,59.36-6.73,19.9.01,39.81,2.25,59.36,6.73,10.44,2.39,22.55,5.21,36.58,8.54,61.56,14.59,106.65,9.93,133.91,3.31,18.52-4.5,30.82-22.35,28.82-41.72-6.73-65.51-24.63-115.15-38.53-197.72-6.82-7.56-12.01-23.48-14.14-41.48Z"/>
  <path class="cls-7" d="m174.26,602.32c20.43,11.12,43.16,17.23,65.93,21.33,22.66,3.94,45.84,6.19,68.82,6.47,34.5-.69,69.36-4.6,102.52-14.48,9.68-3.01,19.28-6.63,28.32-11.28,1.29-.69,2.59-1.37,3.91-2.04-18.13,15.42-41.16,24.24-64.01,30.18-23.16,5.82-46.85,8.8-70.74,9.15-17.97-.24-35.68-2.06-53.3-5.34-28.89-5.6-58.61-14.8-81.45-33.99h0Z"/>
  <path class="cls-7" d="m531.9,319.15c-6.04,24.28-14.02,51.48-9.75,76.42.75,4.44,2.2,9.05,3.95,13.19,1.09,2.41,2.35,4.68,3.67,7.04-27.48-22.23-15.65-71.51,2.13-96.64h0Z"/>
  <g id="eyes">
    <g>
      <ellipse class="cls-5" cx="223.69" cy="162.15" rx="50.06" ry="51.26"/>
      <g>
        <ellipse class="cls-5" cx="394.33" cy="162.15" rx="50.06" ry="51.26"/>
        <g>
          <ellipse class="cls-8" cx="384.6" cy="167.08" rx="31.12" ry="31.86"/>
          <ellipse class="cls-5" cx="374.36" cy="158.77" rx="10.52" ry="10.77"/>
        </g>
        <g>
          <ellipse class="cls-8" cx="234.57" cy="167.08" rx="31.12" ry="31.86"/>
          <ellipse class="cls-5" cx="224.34" cy="158.77" rx="10.52" ry="10.77"/>
        </g>
      </g>
    </g>
    <path class="cls-2" d="m246.29,246.4c4.41,4.95,10.32,10.64,15.02,13.94,13.18,9.27,27.46,16.48,43.41,19.42,7.73,1.43,15.66,1.87,23.49,1.09,3.9-.39,7.78-1.08,11.57-2.09,2.12-.57,9.37-1.84,10.54-3.75-12.41,20.35-31.39,38.51-57.2,34.02-13.57-2.36-23.75-10.66-31.73-21.43-8.84-11.94-11.3-27.15-15.11-41.2Z"/>
  </g>
  <g id="eye-brows">
    <g class="cls-1">
      <path class="cls-8" d="m231.66,76.54c-16.46-4.55-31.06-4.7-45.98,3.9-10.99,6.2-29.1,21.78-27.66,35.81-1.8-1.54-3.05-3.82-3.77-6.25-3.97-17.06,9.55-34.96,23.9-42.97,17.52-10.25,41.42-7.62,53.51,9.51h0Z"/>
    </g>
    <g class="cls-1">
      <path class="cls-8" d="m386.37,76.54c12.1-17.13,35.98-19.76,53.51-9.51,14.36,8.01,27.87,25.91,23.9,42.97-.73,2.44-1.98,4.72-3.77,6.25,1.46-13.99-16.68-29.63-27.66-35.81-14.92-8.6-29.53-8.45-45.98-3.9h0Z"/>
    </g>
  </g>
  <path class="cls-7" d="m87.23,319.15c17.77,25.1,29.62,74.41,2.13,96.64,1.32-2.36,2.58-4.62,3.67-7.04,1.76-4.14,3.2-8.74,3.95-13.19,4.26-24.92-3.71-52.14-9.75-76.42h0Z"/>
</svg>