<?xml version="1.0" encoding="UTF-8"?>
<svg id="Layer_7" data-name="Layer 7" xmlns="http://www.w3.org/2000/svg" viewBox="0 0 332.86 181.33">
  <defs>
    <style>
      .cls-1 {
        opacity: .1;
      }

      .cls-1, .cls-2, .cls-3, .cls-4, .cls-5, .cls-6 {
        stroke-width: 0px;
      }

      .cls-2 {
        opacity: .6;
      }

      .cls-2, .cls-3 {
        fill: #3a200a;
      }

      .cls-4 {
        fill: #b25000;
      }

      .cls-5 {
        fill: #ff7b00;
      }

      .cls-6 {
        fill: #fff;
      }
    </style>
  </defs>
  <path id="body" class="cls-5" d="m299.91,137.18c-6.5-2.92-13.89-4.57-21.89-3.58,2.57-18.65,5.14-36.52,6.82-49.96,1.78-14.2,1.95-26.72,1.55-36.4-.48-11.89-9.74-21.38-21.36-21.96l-44.87-2.24c-10.26-.51-20.47-1.6-30.59-3.27-10.12-1.66-20.14-3.9-30.02-6.69L116.33.84c-11.2-3.17-23,2.86-27.27,13.97-3.47,9.05-7.32,20.96-10.18,34.99-4.01,19.65-9.27,49.11-14.77,76.27-6.66,3.11-23.22,10.48-39.12,14.65C6,145.71.21,154.23,0,163.64l38.73.03c.09.84.35,2.2.53,2.95,2.19,9.14,14.23,12.37,27.36,11.92,15.99-.55,23.58-7.18,25.88-14.87h163.93c.7,2.15,2.01,4.77,3.54,6.63,4.06,4.95,11.26,8.51,22.67,8.9,13.13.45,25.17-2.78,27.36-11.92.43-1.74.87-3.79.13-5.88,0-.01.1-.02.29-.02.21-.01,1.89,1.74,2.09,2.12l20.35.14s-15.95-18.83-32.94-26.46Z"/>
  <path id="shadow" class="cls-1" d="m273.61,102.43c-1.63,13.23-8.11,32.15-9.83,36.18,6-4.32,14.25-5,14.25-5,3.8-28.08,4.22-29.19,6.82-49.96,1.78-14.2,2.11-27.97,1.55-36.4-1.69-25.49-28.53-21.51-28.65-22.33,25.56,21,18.2,58.5,15.86,77.51Z"/>
  <g id="hand_details" data-name="hand details">
    <path class="cls-1" d="m66.62,178.54c-13.13.45-25.17-2.78-27.36-11.92,35.16,11.96,43.47-26.76,43.15-32.92,11.69,11.43,21.98,43.55-15.79,44.84Z"/>
    <path class="cls-1" d="m310,167.28c-2.19,9.14-14.23,12.37-27.36,11.92-11.41-.39-18.61-3.95-22.67-8.9,22.67,8.9,35.54-23.13,32.25-28.72,4.57,2.51,16.5,9.96,18.2,19.8-.19,0-.29.01-.29.02.74,2.09.3,4.14-.13,5.88Z"/>
    <path class="cls-1" d="m332.86,164.24s-16.56-.12-20.59,0c-1.37-7.54-5.9-18.67-12.35-27.05,16.99,7.63,32.94,27.05,32.94,27.05Z"/>
    <path class="cls-4" d="m44.69,147.83c-14.48,18.99,9.24,31.38,26.47,28.74,6.04-.71,11.77-2.8,17.23-5.57-4.66,4.26-10.48,7.29-16.7,8.65-9.42,2.14-20.26.32-27.79-6.14-8.61-7.41-8.29-18.91.79-25.68h0Z"/>
    <path class="cls-4" d="m93.13,156.15c-2.38-11.64-7.3-21.53-20.29-23.02-11.32-1.2-22.41,2.7-32.84,6.88,9.8-6.13,21.33-10.54,33.15-9.36,13.67,1.65,19.72,12.69,19.98,25.5h0Z"/>
    <path class="cls-4" d="m292.22,141.58c6.73,5.41,19.81,14.53,16.99,24.13-2.27,7.7-11.08,9.84-17.95,10.97-18.13,3-42.8-10.4-30.68-31.34,3.43-4.99,9.15-8.42,15.42-10.31,2.48-.71,4.74-1.21,7.25-1.72-3.33.67-6.79.31-10.17,1.19s-6.49,2.19-9.31,4.11c-6.15,4.18-9.69,11.07-9.51,18.53.4,16.96,17.63,25.1,32.61,24.11,6-.4,12.56-1.91,17.8-4.92,4.18-2.4,8.47-6.81,8.84-11.89.84-11.46-12.18-19.23-21.28-22.85Z"/>
  </g>
  <path id="head_top" data-name="head top" class="cls-4" d="m226.31,29.03c-12.28-3.02-24.67-5.04-37.07-7.2-12.45-1.91-24.83-3.96-37.43-5.04,20.88-3.41,55.78,2.34,74.5,12.24h0Z"/>
  <g id="eyebrows">
    <path id="Eyebrows_L" data-name="Eyebrows L" class="cls-2" d="m140.59,44.25c-3.94-1.62-7.71-3.15-11.76-3.53-9.22-.85-17.94,4.42-23.11,11.89-1.14,1.74-1.9,3.54-2.06,5.74-.75-.88-1.28-2.02-1.54-3.23-1.37-8.84,5.46-16.97,13.36-20.25,9.46-4.06,20.95.1,25.1,9.39h0Z"/>
    <path id="Eyebrows_R" data-name="Eyebrows R" class="cls-2" d="m224.36,58.02c6.88-7.4,19.62-8.71,27.61-1.92,8.01,6.28,10.78,19.87,2.85,27.09.6-4.69-.09-8.65-1.52-12.18-5.55-12.74-16.29-14.41-28.94-12.99h0Z"/>
  </g>
  <g id="eyes">
    <g id="left">
      <path class="cls-6" d="m137.82,61.13c-14.19-2.33-27.62,7.55-30.01,22.08-.72,4.4-.34,8.72.92,12.67,9.14,3.27,22.94,12.12,28.77,17.84,10.78-1.8,19.77-10.44,21.68-22.07,2.39-14.53-7.18-28.19-21.36-30.52Z"/>
      <ellipse class="cls-3" cx="137.12" cy="90.06" rx="16.57" ry="16.18" transform="translate(26.01 210.75) rotate(-80.67)"/>
      <ellipse class="cls-6" cx="132.56" cy="84.93" rx="5.6" ry="5.47" transform="translate(27.26 201.96) rotate(-80.67)"/>
    </g>
    <g id="right">
      <path class="cls-6" d="m241.47,118.22c2.65-3.43,4.52-7.57,5.28-12.18,2.39-14.53-7.18-28.19-21.36-30.52-14.19-2.33-27.62,7.55-30.01,22.08-1.95,11.87,4.09,23.17,14.1,28.17,8.13-3.61,23.11-7.45,31.99-7.55Z"/>
      <ellipse class="cls-3" cx="216.79" cy="103.15" rx="16.57" ry="16.18" transform="translate(79.85 300.34) rotate(-80.67)"/>
      <ellipse class="cls-6" cx="212.24" cy="98.02" rx="5.6" ry="5.47" transform="translate(81.09 291.55) rotate(-80.67)"/>
    </g>
  </g>
  <path id="mouth" class="cls-2" d="m135.94,129.62c13.97,11.36,31.59,16.25,49.27,15.47,5.81-.35,11.57-1.53,17.51-3.93-1.93,2.58-4.5,4.69-7.32,6.38-19.02,11.25-50.94,3.27-59.45-17.92h0Z"/>
</svg>