<?xml version="1.0" encoding="UTF-8"?>
<svg id="Layer_7" xmlns="http://www.w3.org/2000/svg" xmlns:xlink="http://www.w3.org/1999/xlink" version="1.1" viewBox="0 0 326.48 380.45">
  <!-- Generator: Adobe Illustrator 29.1.0, SVG Export Plug-In . SVG Version: 2.1.0 Build 142)  -->
  <defs>
    <style>
      .st0, .st1 {
        fill: #3a200a;
      }

      .st2 {
        fill: url(#linear-gradient);
      }

      .st3 {
        fill: #fff;
      }

      .st4 {
        fill: #b25000;
      }

      .st5 {
        opacity: .2;
      }

      .st6 {
        opacity: .1;
      }

      .st7 {
        fill: #ff7b00;
      }

      .st8 {
        display: none;
      }

      .st1 {
        opacity: .6;
      }
    </style>
    <linearGradient id="linear-gradient" x1="163.37" y1="374.4" x2="163.37" y2="152.42" gradientUnits="userSpaceOnUse">
      <stop offset="0" stop-color="#312d80"/>
      <stop offset="1" stop-color="#5750e3"/>
    </linearGradient>
  </defs>
  <g id="torso">
    <path class="st7" d="M313.07,352.6c-3.79-36.86-14.33-68.89-22.33-114.61-7.12-4.49-3.86-23.54-5.28-35.55-4.22-35.7-4.57-104.2-6-141.67-.61-15.95-2.69-29.74-4.87-40.32-2.68-12.99-14.57-21.76-27.46-20.29l-49.76,5.65c-11.38,1.29-22.81,1.94-34.23,1.94-11.43,0-22.86-.65-34.23-1.94L79.13.16c-12.89-1.46-24.78,7.3-27.46,20.29-2.18,10.58-4.26,24.38-4.87,40.32-1.43,37.46-1.78,105.96-6,141.67-7.58,64.02-22.95,104.79-27.61,150.16-1.15,11.23,5.98,21.58,16.71,24.19,15.8,3.84,41.94,6.54,77.63-1.92,8.13-1.93,15.15-3.56,21.2-4.95,11.33-2.6,22.87-3.9,34.41-3.9,11.54,0,23.08,1.31,34.41,3.9,6.05,1.39,13.07,3.02,21.2,4.95,35.68,8.46,61.82,5.76,77.63,1.92,10.73-2.61,17.86-12.95,16.71-24.19Z"/>
    <path class="st6" d="M282.54,213.9c-.19-1.61,2.54-14.78,2.37-16.52-3.71-36.79-4.08-100.87-5.45-136.65-.61-15.95-2.73-31.15-4.87-40.32-6.47-27.73-35.27-18.5-35.55-19.38,31.91,18.48,30.59,61.06,31.46,82.39.77,19.01.87,74.84-2.42,104.96-5.75,52.7,45.12,138.25-3.2,154.15-89.51,29.45-221.13,7.99-239.7-62.8l2-1c-5.85,26.18-11.48,49.34-14,73.82-1.15,11.23,5.98,21.58,16.71,24.19,15.8,3.84,41.94,6.54,77.63-1.92,8.13-1.93,15.15-3.56,21.2-4.95,11.33-2.6,22.87-3.9,34.41-3.9,11.54,0,23.08,1.31,34.41,3.9,6.05,1.39,13.07,3.02,21.2,4.95,35.68,8.46,61.82,5.76,77.63,1.92,10.73-2.61,17.86-12.95,16.71-24.19-3.9-37.97-14.28-66.75-22.33-114.61-3.95-4.38-6.96-13.61-8.19-24.05Z"/>
    <g id="eyebrows">
      <path id="Eyebrows_L" class="st1" d="M114.08,38.65c-4.59-.99-8.98-1.92-13.44-1.56-10.17.86-18.61,8.27-22.78,17.39-.9,2.11-1.38,4.21-1.12,6.63-.98-.81-1.78-1.95-2.3-3.21-3.2-9.33,2.64-19.48,10.58-24.57,9.48-6.24,22.76-3.95,29.06,5.32h0Z"/>
      <path id="Eyebrows_R" class="st1" d="M207.67,37.35c6.03-9.37,19.61-13.26,29.6-7.43,9.91,5.26,15.55,19.48,8.35,28.85-.26-5.21-1.78-9.37-4.01-12.92-8.49-12.75-20.48-12.48-33.93-8.49h0Z"/>
    </g>
    <g id="eyes">
      <g id="left">
        <path class="st3" d="M114.35,54.51c-15.85.22-28.52,13.55-28.29,29.78.07,4.91,1.32,9.53,3.46,13.57,10.55,1.78,27.25,8.7,34.68,13.79,11.36-4.04,19.44-15.17,19.26-28.16-.22-16.23-13.26-29.21-29.1-28.99Z"/>
        <ellipse class="st0" cx="119.19" cy="88.26" rx="17.84" ry="18.27" transform="translate(-1.21 1.66) rotate(-.79)"/>
        <ellipse class="st3" cx="113.26" cy="83.58" rx="6.03" ry="6.18" transform="translate(-1.14 1.57) rotate(-.79)"/>
      </g>
      <g id="right">
        <path class="st3" d="M237.91,96.38c2.21-4.24,3.44-9.09,3.37-14.24-.22-16.23-13.26-29.21-29.1-28.99-15.85.22-28.52,13.55-28.29,29.78.18,13.27,8.93,24.36,20.77,27.84,8.12-5.5,23.64-12.56,33.26-14.4Z"/>
        <ellipse class="st0" cx="208.21" cy="87.81" rx="17.84" ry="18.27" transform="translate(-1.19 2.89) rotate(-.79)"/>
        <ellipse class="st3" cx="202.27" cy="83.12" rx="6.03" ry="6.18" transform="translate(-1.13 2.8) rotate(-.79)"/>
      </g>
    </g>
    <path id="mouth" class="st1" d="M137.37,131.44c16.1,7.55,32.92,7.27,47.67,1.08,4.81-2.13,9.28-5.1,13.44-9.4-.69,3.27-2.09,6.23-3.87,8.85-12.01,17.46-42.13,18.88-57.24-.53h0Z"/>
  </g>
  <g id="code">
    <path class="st5" d="M271.56,371.56c2.79-1.68,5.63-6.44,5.63-12.65v-181.33c0-11.23-9.1-20.33-20.33-20.33H75.54c-11.23,0-20.33,9.1-20.33,20.33v181.33c0,6.09,2.7,11.55,6.94,15.27,0,0-.01,0-.02,0-4.23,3.34-18.02,4.47-22.86,4.48,5.05.9,21.26,2.68,36.08,1.24.07,0,7.52-.67,7.52-.67,5.73-.66,11.8-1.62,18.19-2.94,3.52-.66,7.03-1.45,10.47-2.38,0,0,0,0,0,0l107.19.95s20.2,5.77,42.86,5.57c32.24-.28,40.8-6.05,40.8-6.05-15.58,3.38-26.65,0-30.82-2.84Z"/>
    <rect class="st2" x="52.38" y="152.42" width="221.98" height="221.98" rx="20.33" ry="20.33"/>
    <rect class="st3" x="62.14" y="162.18" width="202.45" height="202.45" rx="12" ry="12"/>
    <g class="st8">
      <path class="st3" d="M527.78,276.06h5.27c.02,1.75-.03,3.52,0,5.27,1.75,0,3.52-.02,5.27,0-.01-5.15.01-10.31,0-15.46-3.51-.03-7.04,0-10.54,0-.03,3.39.02,6.8,0,10.19Z"/>
      <path class="st3" d="M512.66,296.8h4.92v-5.27c-1.64-.01-3.28.02-4.92,0-.01,1.75,0,3.52,0,5.27Z"/>
      <path class="st3" d="M487.01,281.33c-.02,1.75.02,3.52,0,5.27,1.64,0,3.28.01,4.92,0,0-1.75,0-3.52,0-5.27-1.64-.01-3.28,0-4.92,0Z"/>
      <path class="st3" d="M600.99,198.34c1.52-.8,3.46-3.35,3.73-5.06.37-2.39.33-10.86.03-13.34-.31-2.54-3.31-5.73-5.83-6.12-2.04-.32-12.04-.33-13.96.06-4.06.83-5.62,4.85-5.89,8.52-.3,4.03-.57,11.86,2.46,14.79,3.11,3,15.83,3.06,19.46,1.16ZM584.44,182.49c.32-1.89,1.79-3.35,3.69-3.69,2.63-.48,8.95-.58,10.43,2.06.86,1.53.83,8.66.17,10.3-.55,1.37-1.84,2.15-3.29,2.33-1.69.2-7.72.22-8.95-.55-2.74-1.71-2.53-7.54-2.04-10.44Z"/>
      <path class="st3" d="M538.32,296.8h4.92v-5.27h-4.92c-.01-1.64.02-3.28,0-4.92-1.75.01-3.52-.01-5.27,0-.02-1.75.03-3.52,0-5.27-3.39-.01-6.8,0-10.19,0v-10.19h-5.27c0-1.75-.01-3.52,0-5.27-1.64.02-3.28-.01-4.92,0v10.19h4.92v5.27h-15.11v-10.19h4.92v-5.27h-4.92v-4.92c-3.51.02-7.03-.03-10.54,0,.02,1.64-.02,3.29,0,4.92h5.27v10.19c-1.75.02-3.52-.02-5.27,0,.02,1.75,0,3.52,0,5.27,1.75.02,3.52-.01,5.27,0v5.27c-1.75.01-3.52-.02-5.27,0,0,3.39,0,6.8,0,10.19h5.27v10.19c3.39.02,6.8-.03,10.19,0,.03-3.39-.02-6.8,0-10.19h-4.92v-5.27c3.39.02,6.8-.03,10.19,0,.01-1.64,0-3.28,0-4.92h15.11c.01,1.64-.02,3.28,0,4.92,1.75-.01,3.52,0,5.27,0v10.19c1.75.02,3.52-.02,5.27,0,.02-1.64-.01-3.28,0-4.92Z"/>
      <path class="st3" d="M604.74,306.99v-5.27c-1.64-.01-3.28.02-4.92,0,0,1.75,0,3.52,0,5.27,1.64-.02,3.28.01,4.92,0Z"/>
      <path class="st3" d="M543.24,219.83c.02-1.75-.02-3.52,0-5.27-3.39-.03-6.8.02-10.19,0v5.27l-4.94.15-.18,4.79c.4.58,8.91.34,10.39.33-.01-1.75.01-3.52,0-5.27,1.64-.01,3.29.02,4.92,0Z"/>
      <path class="st3" d="M584.36,312.26c5.15.03,10.32-.05,15.47,0,.02-1.75,0-3.52,0-5.27-3.39.03-6.8-.02-10.19,0v-5.27c3.39.02,6.8-.03,10.19,0-.02-5.03.01-10.08,0-15.11h-10.19v4.92c-1.75.01-3.52-.02-5.27,0,.07,6.91-.05,13.83,0,20.74Z"/>
      <path class="st3" d="M553.76,194.02l4.94.15v-5.27c-1.75-.01-3.52.02-5.27,0,.01.99-.26,4.71.33,5.12Z"/>
      <path class="st3" d="M599.82,225.1c-1.75.02-3.52.01-5.27,0,.01,5.03-.04,10.08,0,15.11,1.75.02,3.52-.02,5.27,0,.03-5.03-.01-10.08,0-15.11Z"/>
      <path class="st3" d="M553.43,178.71h-4.92c0,3.39,0,6.8,0,10.19,1.63-.02,3.29-.01,4.92,0-.04-3.39.03-6.8,0-10.19Z"/>
      <path class="st3" d="M491.93,214.56h5.27c.01-1.64-.02-3.28,0-4.92h-5.27v4.92Z"/>
      <path class="st3" d="M522.86,214.56h4.92c0-3.39,0-6.8,0-10.19-1.64.01-3.28,0-4.92,0,0,3.39,0,6.8,0,10.19Z"/>
      <path class="st3" d="M538.32,286.61c1.64-.01,3.28,0,4.92,0v-5.27c-1.64-.01-3.28.02-4.92,0,0,1.75-.02,3.52,0,5.27Z"/>
      <path class="st3" d="M543.39,189.23c-.31,3.39-.12,6.82-.15,10.21,1.75,0,3.52-.02,5.27,0,0-3.51,0-7.03,0-10.54-.99.01-4.71-.26-5.12.33Z"/>
      <path class="st3" d="M522.86,342.84v-10.19h-5.27c0,3.39.01,6.8,0,10.19,1.75.01,3.52,0,5.27,0Z"/>
      <path class="st3" d="M517.58,327.37v-4.92c-1.64,0-3.28.01-4.92,0,.01,1.64,0,3.28,0,4.92h4.92Z"/>
      <path class="st3" d="M471.55,245.49c-3.39.04-6.8-.03-10.19,0v5.27c0,.51,9.3,0,10.19,0-.02-1.75,0-3.52,0-5.27Z"/>
      <path class="st3" d="M568.89,265.87c.02-1.64-.01-3.28,0-4.92h5.27v-5.27c-5.15-.01-10.31.01-15.46,0,0,3.39,0,6.8,0,10.19,3.39.03,6.8,0,10.19,0Z"/>
      <path class="st3" d="M584.36,291.53c-.02-1.64.01-3.29,0-4.92-1.75,0-3.52.02-5.27,0-.01,1.64,0,3.28,0,4.92,1.75-.01,3.52.02,5.27,0Z"/>
      <path class="st3" d="M563.98,306.99c-.01,1.75.01,3.52,0,5.27,3.39.03,6.8-.02,10.19,0v-5.27h-5.27v-5.27c-3.39,0-6.8,0-10.19,0,0,1.75-.02,3.52,0,5.27,1.75.02,3.52-.01,5.27,0Z"/>
      <path class="st3" d="M425.51,301.72c-.02,1.75.02,3.52,0,5.27,1.64.01,3.28,0,4.92,0,0-1.75.02-3.52,0-5.27-1.64.01-3.28-.02-4.92,0Z"/>
      <path class="st3" d="M558.86,337.59c.41.59,4.12.31,5.12.33-.02-3.4.15-6.82-.15-10.21-.4-.58-4.14-.33-5.12-.33.03,3.4-.15,6.82.15,10.21Z"/>
      <path class="st3" d="M440.95,260.8l4.94.15v-5.27c-1.75-.02-3.52.02-5.27,0,0,.98-.25,4.72.33,5.12Z"/>
      <path class="st3" d="M568.89,317.71v14.94h15.46v-15.46h-14.94l-.53.53ZM574.17,322.45h4.92v4.92h-4.92v-4.92Z"/>
      <path class="st3" d="M568.89,342.84v-4.92c-1.63-.03-3.29.04-4.92,0,.01,1.64,0,3.28,0,4.92,1.64-.02,3.29.02,4.92,0Z"/>
      <path class="st3" d="M568.89,348.11v4.92c1.75.02,3.52-.02,5.27,0,.01-1.64,0-3.28,0-4.92-1.75.02-3.52-.01-5.27,0Z"/>
      <path class="st3" d="M594.55,322.45h10.19v-10.19c-1.64-.01-3.28.02-4.92,0-.02,1.64.01,3.28,0,4.92h-10.19v15.46c1.64.01,3.28-.02,4.92,0,.02-3.39-.01-6.8,0-10.19Z"/>
      <path class="st3" d="M579.66,276.11c-.96.31-.56,4.12-.58,5.22,5.15-.01,10.32,0,15.47,0,0-1.75-.02-3.52,0-5.27-4.95-.06-9.93,0-14.89.05Z"/>
      <path class="st3" d="M594.55,260.95c0,1.64.02,3.29,0,4.92,1.75,0,3.52,0,5.27,0,.01-1.64-.01-3.28,0-4.92-1.75.02-3.52-.02-5.27,0Z"/>
      <path class="st3" d="M594.55,265.87c-1.64,0-3.28,0-4.92,0,.02,1.75-.02,3.52,0,5.27,1.64,0,3.29-.01,4.92,0,0-1.75-.02-3.52,0-5.27Z"/>
      <path class="st3" d="M538.32,301.72c-.03,3.51.03,7.04,0,10.55,1.64,0,3.29-.02,4.92,0,0-3.51,0-7.04,0-10.55-1.64-.01-3.29.02-4.92,0Z"/>
      <path class="st3" d="M527.78,337.92v4.92c1.75.01,3.52-.02,5.27,0,0-1.64,0-3.28,0-4.92-1.75.02-3.52-.01-5.27,0Z"/>
      <path class="st3" d="M553.58,327.7c.4-.58,4.14-.33,5.12-.33-.02-1.64.01-3.29,0-4.92-1.75,0-3.52.02-5.27,0-.04,1.63.03,3.29,0,4.92h-4.92v5.27c1.64-.01,3.29,0,4.92,0l.15-4.94Z"/>
      <path class="st3" d="M599.82,260.95c1.64-.02,3.29.01,4.92,0,.01-1.75-.02-3.52,0-5.27-1.64.01-3.29,0-4.92,0,0,1.75.02,3.52,0,5.27Z"/>
      <path class="st3" d="M517.58,342.84c-1.64-.01-3.28,0-4.92,0v-4.92h-10.19c-.02-1.75.03-3.52,0-5.27-1.75.01-3.52,0-5.27,0v-5.27l4.94.15c.59.41.31,4.12.33,5.12,1.64-.01,3.28,0,4.92,0v-10.19c1.75,0,3.52-.01,5.27,0-.01-1.75,0-3.52,0-5.27h15.11l.15,4.94,5.12.33v-10.19c-1.07-.22-4.86.54-5.22-.58-.14-6.72.02-13.45-.05-20.16-1.64.01-3.28,0-4.92,0v10.19c-1.67.23-3.95-.57-5.27.53v10.02h-4.92v-5.27c-1.75-.01-3.52.02-5.27,0-.02,1.75.01,3.52,0,5.27h-4.92v4.92h-5.27v5.27c-1.75.01-3.52-.02-5.27,0,.03,3.39-.02,6.8,0,10.19h-4.92c0,1.75-.01,3.52,0,5.27,3.39.04,6.8-.03,10.19,0v4.92l4.94.15c.59.41.32,4.13.33,5.12,5.03-.04,10.08-.04,15.11,0,.02-1.75,0-3.52,0-5.27Z"/>
      <path class="st3" d="M533.05,327.37l-5.12.33.18,4.79c.51.35,3.96.14,4.94.15-.02-1.75.01-3.52,0-5.27Z"/>
      <path class="st3" d="M553.43,322.45c.04-1.67-.42-3.99.53-5.27h10.02c0-1.64-.01-3.28,0-4.92-1.75-.01-3.52.01-5.27,0,0-1.75.02-3.52,0-5.27-1.75-.02-3.52.02-5.27,0-.02,1.75.01,3.52,0,5.27-3.39-.03-6.8.03-10.19,0,0,3.39,0,6.8,0,10.19,3.39-.03,6.8-.03,10.19,0Z"/>
      <path class="st3" d="M466.27,312.26v4.92c1.75.01,3.52-.02,5.27,0,0-1.64-.01-3.28,0-4.92-1.75.02-3.52-.01-5.27,0Z"/>
      <path class="st3" d="M604.74,225.1v-5.27c-1.64-.01-3.28.02-4.92,0,0,1.75,0,3.52,0,5.27,1.64-.02,3.28.01,4.92,0Z"/>
      <path class="st3" d="M491.93,194.18h10.02l.53-.53v-9.66c-1.75-.02-3.52.03-5.27,0-.02,1.64.01,3.29,0,4.92l-4.94.15-.33,5.12Z"/>
      <path class="st3" d="M487.01,204.37h4.92v-4.92c-1.64-.01-3.28.02-4.92,0,.02,1.64-.01,3.28,0,4.92Z"/>
      <path class="st3" d="M431.33,353.01c2.39.37,10.86.33,13.34.03,1.91-.23,4.5-2.08,5.38-3.76,1.69-3.22,1.62-14.54,0-17.8-.87-1.76-2.6-3.06-4.49-3.59-2.88-.82-9.31-.74-12.39-.41-3.35.36-6.84,2.15-7.58,5.77-.42,2.08-.37,11.35-.09,13.64.31,2.54,3.31,5.73,5.83,6.12ZM434.2,332.73c2.87-.48,9.09-.73,10.59,2.24.97,1.91,1.07,8.28.12,10.22-1.4,2.87-7.64,2.53-10.44,2.21-2.47-.28-3.78-1.97-4.04-4.39-.38-3.5-.69-9.54,3.78-10.28Z"/>
      <path class="st3" d="M429.97,198.67c3.08,1.19,13.3,1.19,16.37,0,1.65-.64,3.27-2.15,3.94-3.79,1.24-3.04,1.32-13,.28-16.09-.74-2.2-3.22-4.6-5.57-4.97-2.04-.32-12.04-.33-13.96.06-2.18.44-5.16,3.51-5.51,5.74-.35,2.21-.35,11.45,0,13.66.31,2.01,2.54,4.67,4.44,5.4ZM434.2,178.79c2.71-.49,9.16-.6,10.59,2.25,1.27,2.53,1.43,10.49-1.58,12.04-1.12.57-7.94.61-9.42.38-1.95-.31-3.16-2.55-3.36-4.37-.38-3.51-.68-9.48,3.77-10.29Z"/>
      <path class="st3" d="M426.42,364.63h178.45c6.63,0,12-5.37,12-12v-178.45c0-6.63-5.37-12-12-12h-178.45c-6.63,0-12,5.37-12,12v178.45c0,6.63,5.37,12,12,12ZM574.15,178.52c.43-5.03,4.62-9.49,9.68-10,3.8-.38,15.71-.42,18.99.69,3.56,1.2,6.67,4.9,7.16,8.65.43,3.31.38,16.53-.6,19.37-.4,1.17-1.77,3.33-2.66,4.19-1.46,1.43-4.02,2.66-6.06,2.9-3.96.46-12.82.42-16.85.05-4.57-.42-9.02-4.4-9.62-9.01-.5-3.78-.38-12.93-.04-16.85ZM481.74,199.45c1.75,0,3.52-.02,5.27,0-.03-3.4.15-6.82-.15-10.21l-5.12-.33v-4.92l4.94-.15.33-5.12h-5.27v-10.19h30.93v10.19h4.92l.15,4.94c.41.59,4.13.32,5.12.33.02-5.15-.01-10.31,0-15.46h4.92v10.19h5.27v5.27c-3.39-.03-6.8.04-10.19,0,0,1.64,0,3.28,0,4.92,1.64,0,3.29,0,4.92,0,0,1.75-.02,3.52,0,5.27,1.75.02,3.52-.01,5.27,0-.01,1.75.01,3.52,0,5.27,1.75,0,3.52,0,5.27,0-.08-8.55.06-17.11,0-25.66l-4.94-.15-.33-5.12h10.19l.15,4.94,4.79.18.33-5.12h20.38v15.46h-4.92v10.19h4.92v10.19h-4.92v-4.92h-5.27c-.02,3.39.03,6.8,0,10.19,3.39.04,6.8-.03,10.19,0v4.92h5.27c.02,1.75-.03,3.52,0,5.27,1.64-.02,3.28.01,4.92,0v-10.19h15.46c0,3.39,0,6.8,0,10.19,1.75.02,3.52-.02,5.27,0,0-3.39,0-6.8,0-10.19h10.19v40.59c-.65,1.13-4.93.18-5.27.53-.01,1.64.02,3.29,0,4.92,1.75-.01,3.52,0,5.27,0v10.19c-3.39,0-6.8,0-10.19,0-.02,1.75.01,3.52,0,5.27-1.75-.01-3.52.01-5.27,0,0,1.64.01,3.28,0,4.92.99.01,4.71-.26,5.12.33l.15,4.94h4.92v-10.19h5.27v20.38l-5.12.33.18,4.79,4.94.15v30.58h-10.19c-.01,1.75.02,3.52,0,5.27,1.64.02,3.29-.01,4.92,0l.15,4.94,5.12.33v4.92h-10.19c.02-3.39-.03-6.8,0-10.19-1.75-.02-3.52.02-5.27,0-.02,3.39.01,6.8,0,10.19h-15.46v-4.92h-4.92c0,3.39.01,6.8,0,10.19,3.39-.03,6.8.02,10.19,0v10.19l-5.12-.33-.15-4.94c-1.64-.01-3.29.02-4.92,0-.02,1.75.01,3.52,0,5.27h-10.19c-.01-5.15.02-10.31,0-15.46-1.75.02-3.52-.02-5.27,0v5.27h-5.27v10.19h-10.19l.33-5.12,4.94-.15v-10.19h4.92v-4.92h-4.92v-5.27c-1.75.01-3.52-.01-5.27,0,0-3.39.01-6.8,0-10.19-1.64.02-3.28-.01-4.92,0v10.19c-1.75-.01-3.52.02-5.27,0,.02,1.75,0,3.52,0,5.27,3.39-.03,6.8.02,10.19,0v4.92c-3.39-.02-6.8.03-10.19,0-.01,5.15.01,10.31,0,15.46h-15.46l.33-5.12,4.94-.15v-4.92c-1.75-.01-3.52.02-5.27,0-.02,1.64.01,3.28,0,4.92h-9.66c-1.09,1.32-.29,3.61-.53,5.27h-4.92c-.03-3.39.04-6.8,0-10.19-1.75.02-3.52-.01-5.27,0v4.92l-4.94.15-.33,5.12h-4.92l-.15-4.94c-.41-.59-4.12-.31-5.12-.33-.02,1.75.02,3.52,0,5.27h-15.46c-.04-5.15.05-10.32,0-15.46-1.64-.01-3.28,0-4.92,0v-4.92h4.92c.01,1.64-.02,3.28,0,4.92,1.75.01,3.52,0,5.27,0v-4.92h5.27v15.11c1.63.03,3.29-.04,4.92,0,.02-1.64-.02-3.29,0-4.92h10.19v-5.27h-4.92c0-1.64.01-3.28,0-4.92-.99-.01-4.71.26-5.12-.33l-.15-4.94h-4.92v-10.19c5.03-.03,10.08.04,15.11,0-.02-1.75.01-3.52,0-5.27h-4.92v-4.92c-1.75-.01-3.52.02-5.27,0-.01,1.64,0,3.29,0,4.92-3.39-.02-6.8.03-10.19,0-.01,5.15,0,10.31,0,15.46h-5.27v-10.19h-4.92v-10.19c-1.75-.02-3.52.02-5.27,0-.02,1.64.01,3.28,0,4.92h-10.19v-4.92h-5.27v4.92h-4.92c0-3.39,0-6.8,0-10.19-1.75.02-3.52,0-5.27,0,0,3.39,0,6.8,0,10.19h-10.19v-4.92l4.94-.15c.59-.41.32-4.13.33-5.12-1.75-.02-3.52.01-5.27,0l.16-4.94.42-.28c1.56-.12,3.13-.03,4.7-.05.02-1.64-.01-3.28,0-4.92h4.92c.01,1.64-.02,3.28,0,4.92,1.75-.01,3.52-.01,5.27,0,.02-1.64-.01-3.29,0-4.92h4.92c0,1.64-.01,3.28,0,4.92.99.01,4.71-.26,5.12.33l.15,4.94c1.75,0,3.52-.02,5.27,0,0-1.75,0-3.52,0-5.27,1.64-.01,3.29.02,4.92,0,0-1.64,0-3.28,0-4.92-1.64-.02-3.29.01-4.92,0,.01-1.75-.01-3.52,0-5.27-1.75-.02-3.52.01-5.27,0v-10.19h10.19c.01,1.75-.02,3.52,0,5.27,5.15-.05,10.32.04,15.47,0,0,1.64-.02,3.29,0,4.92,1.75-.02,3.52.01,5.27,0,.02-1.64-.01-3.29,0-4.92,1.64,0,3.29.02,4.92,0-.01-1.75.02-3.52,0-5.27-3.39,0-6.8,0-10.19,0l-.33-5.12-4.79.18-.15,4.94h-4.92v-10.19c-1.75-.01-3.52.02-5.27,0-.01,1.64,0,3.28,0,4.92h-20.38c-.01,1.75.02,3.52,0,5.27,1.64.02,3.28-.01,4.92,0v10.19h-4.92c.02-3.39-.03-6.8,0-10.19-1.75-.02-3.52,0-5.27,0,.03,3.39-.02,6.8,0,10.19h-10.19v-4.92l4.94-.15c.58-.4.33-4.14.33-5.12-1.75-.02-3.52.01-5.27,0l.33-5.12,4.79.18c.34.49.15,3.98.15,4.94,1.64.01,3.28,0,4.92,0-.02-1.75.01-3.52,0-5.27h-4.92v-4.92h4.92c.01-1.75-.02-3.52,0-5.27-3.39.03-6.8-.02-10.19,0v-10.19c1.75,0,3.52-.01,5.27,0-.01-1.64.01-3.28,0-4.92-.98,0-4.72.25-5.12-.33l-.15-4.94h5.27c.01,1.75-.02,3.52,0,5.27,1.64,0,3.28,0,4.92,0v-5.27h5.27v10.19c1.64.02,3.29-.02,4.92,0,0-1.64,0-3.29,0-4.92.35-.35,4.63.61,5.27-.53v-10.02h10.19c0-1.64-.01-3.28,0-4.92-3.39-.03-6.8.02-10.19,0v-5.27h10.19c0,1.75.01,3.52,0,5.27,1.75.02,3.52-.01,5.27,0v4.92c3.39,0,6.8,0,10.19,0-.02-1.64.01-3.29,0-4.92l-4.94-.15c-.59-.41-.31-4.12-.33-5.12-1.64-.01-3.28,0-4.92,0v-4.92h4.92c.03,1.63-.04,3.29,0,4.92,1.75.01,3.52,0,5.27,0v-4.92c1.75-.02,3.52.02,5.27,0,.01-1.75-.01-3.52,0-5.27,1.64,0,3.29.02,4.92,0,.03-1.75-.02-3.52,0-5.27h5.27v-4.92h-5.27c-.02-3.39.03-6.8,0-10.19-1.64,0-3.28-.01-4.92,0-.02,1.64.02,3.29,0,4.92h-5.27v-4.92c1.75-.01,3.52.02,5.27,0,.02-1.75-.02-3.52,0-5.27h4.92c.01,1.75-.02,3.52,0,5.27ZM420.23,240.21v-4.92h5.27v4.92h-5.27ZM461.35,183.98h4.92c.02-1.75-.02-3.52,0-5.27-1.64-.02-3.29.01-4.92,0v-10.19h14.94c.85,1.13.86,4.1,0,5.27h-10.02c-.02,1.64.02,3.29,0,4.92,2.85.03,6.64-.33,9.33-.02.51.06.9.04,1.21.55v9.66h-10.02l-.53.53v14.94h-4.92v-20.38ZM466.27,214.56v-4.92h5.27v10.19c-5.15.01-10.31-.01-15.46,0-.02,1.75.01,3.52,0,5.27-5.15.03-10.32-.05-15.47,0-.02,1.64.01,3.29,0,4.92-1.64.01-3.29-.02-4.92,0-.02,1.75-.02,3.52,0,5.27,1.64.02,3.29-.02,4.92,0v4.92h-4.92c-.01-1.64.02-3.28,0-4.92-1.75-.02-3.52.02-5.27,0v-5.27c1.75-.02,3.52.02,5.27,0,.02-1.64-.01-3.29,0-4.92,1.64,0,3.29.02,4.92,0,.02-1.75,0-3.52,0-5.27-5.03.01-10.08,0-15.11,0l-.33,5.12c-.47.33-4.43.42-4.94-.37v-10.02h15.46v-4.92h4.92c0,3.39,0,6.8,0,10.19,5.15-.02,10.31.01,15.46,0,.02-1.75.02-3.52,0-5.27-1.64-.02-3.28.01-4.92,0v-4.92h4.92c.01,1.64-.02,3.28,0,4.92,3.39.03,6.8-.02,10.19,0ZM420.92,175.71c1.34-3.98,5.18-6.78,9.33-7.19,3.56-.35,15.68-.41,18.7.63,1.17.4,3.33,1.77,4.19,2.66,1.43,1.46,2.66,4.02,2.9,6.06.46,3.96.42,12.82.05,16.85-.42,4.57-4.4,9.02-9.01,9.62-3.78.5-12.93.38-16.85.04-5.03-.43-9.49-4.62-10-9.68-.38-3.8-.42-15.71.69-18.99ZM420.69,330.11c.41-1.51,1.72-3.65,2.83-4.72,1.48-1.43,4.01-2.66,6.06-2.9,3.96-.46,12.82-.42,16.85-.05,4.57.42,9.02,4.4,9.62,9.01.5,3.78.38,12.93.04,16.85-.43,5.03-4.62,9.49-9.68,10-3.8.38-15.71.42-18.99-.69-3.56-1.2-6.67-4.9-7.16-8.65-.44-3.34-.4-15.83.43-18.84Z"/>
      <path class="st3" d="M517.74,189.23c-.31,1.62-.13,3.31-.15,4.94,1.75,0,3.52,0,5.27,0,0-1.75,0-3.52,0-5.27-.98,0-4.72-.25-5.12.33Z"/>
      <path class="st3" d="M497.2,178.71h10.19v-4.92h-15.46v9.66c1.28.94,3.61.5,5.27.53.02-1.75-.02-3.52,0-5.27Z"/>
      <path class="st3" d="M563.97,219.83c0,1.75.02,3.52,0,5.27,1.63.04,3.29-.03,4.92,0,.02,1.63-.04,3.29,0,4.92,3.39,0,6.8-.02,10.19,0-.04-1.63.03-3.29,0-4.92h-4.92c-.02-1.75.03-3.52,0-5.27-3.39.03-6.8-.02-10.19,0Z"/>
      <path class="st3" d="M589.63,219.83l-.15-4.94-5.12-.33v10.02c.31.5.7.49,1.21.55,2.58.3,6.24-.04,8.98-.02,0-1.75,0-3.52,0-5.27-1.64-.02-3.29.01-4.92,0Z"/>
      <path class="st3" d="M522.86,199.45c1.64,0,3.28,0,4.92,0,0-1.75.02-3.52,0-5.27-1.64-.01-3.28,0-4.92,0,0,1.75,0,3.52,0,5.27Z"/>
      <path class="st3" d="M553.43,209.11v-9.66c-1.64-.01-3.28.02-4.92,0,0,3.39,0,6.8,0,10.19h-5.27c-.01,1.64.02,3.28,0,4.92,1.75.02,3.52-.01,5.27,0v5.27c-1.75.02-3.52-.02-5.27,0-.02,1.75.01,3.52,0,5.27-1.64,0-3.29-.02-4.92,0,.01,1.64,0,3.28,0,4.92h10.19v-4.92h4.92v15.11c1.75,0,3.52,0,5.27,0,0-3.39,0-6.8,0-10.19,1.75,0,3.52.02,5.27,0,0-1.64-.01-3.28,0-4.92-1.64-.04-3.32.16-4.94-.15l-.33-5.12c-1.07-.21-4.86.55-5.22-.57l.28-4.54,4.94-.15c0-1.64-.02-3.29,0-4.92-1.66-.02-4,.41-5.27-.53Z"/>
      <path class="st3" d="M527.78,204.37c1.75-.02,3.52.01,5.27,0,0-1.64-.01-3.29,0-4.92-1.75,0-3.52,0-5.27,0,0,1.64,0,3.28,0,4.92Z"/>
      <path class="st3" d="M538.32,204.37h4.92c.01-1.64-.02-3.28,0-4.92-1.64,0-3.28,0-4.92,0,.02,1.64-.01,3.28,0,4.92Z"/>
      <path class="st3" d="M471.55,306.99c-.01,1.75.02,3.52,0,5.27,3.39-.03,6.8-.03,10.19,0,.01-1.75,0-3.52,0-5.27h-10.19Z"/>
      <path class="st3" d="M543.24,255.68c5.15-.01,10.31-.01,15.46,0,0-3.39,0-6.8,0-10.19h-5.27v5.27l-4.77-.33-.15-4.94c-1.75,0-3.52.02-5.27,0,0,3.39-.04,6.8,0,10.19Z"/>
      <path class="st3" d="M563.97,250.76h9.66c1.09-1.32.29-3.61.53-5.27h-5.27l.33-5.12,4.94-.15v-4.92l-4.94-.15c-.59-.41-.31-4.12-.33-5.12-1.64,0-3.28-.01-4.92,0-.01,3.39,0,6.8,0,10.19h-5.27c0,1.75,0,3.52,0,5.27h5.27v5.27Z"/>
      <path class="st3" d="M527.78,235.29c.03,3.39-.04,6.8,0,10.19,5.15-.02,10.32-.04,15.46,0,0-3.39,0-6.8,0-10.19h-4.92v4.92h-5.27v-10.19c-3.39.02-6.8-.03-10.19,0,.02,1.75.02,3.52,0,5.27,1.63.04,3.29-.03,4.92,0Z"/>
      <path class="st3" d="M497.2,255.68h10.19v5.27l5.12-.33.15-4.94h4.92v-4.92h5.27v10.19h-5.27c0,1.64.01,3.28,0,4.92,3.39-.03,6.8,0,10.19,0,.02-1.64-.01-3.28,0-4.92h5.27v-5.27c1.75-.01,3.52.02,5.27,0-.02-1.64.01-3.28,0-4.92h-10.02c-.94-1.28-.51-3.61-.53-5.27-5.03.01-10.08,0-15.11,0l-.33,5.12c-.47.33-4.43.42-4.94-.37v-10.02h15.46c.01-1.64-.02-3.28,0-4.92-1.56-.04-3.13.08-4.7-.05l-.42-.28-.16-4.94c1.75,0,3.52.02,5.27,0-.02-1.64.01-3.29,0-4.92-1.07-.21-4.86.55-5.22-.57-.08-6.72-.07-13.44-.05-20.16-1.64,0-3.28,0-4.92,0-.04,1.56.08,3.13-.05,4.7l-.28.42-4.94.16c0-1.75.02-3.52,0-5.27-1.64-.02-3.28.01-4.92,0v-4.92h-5.27c-.02,3.39.03,6.8,0,10.19h5.27v4.92h9.66c1.09,1.32.29,3.61.53,5.27h-5.27v15.46h-4.92v14.94c-1.28.94-3.61.51-5.27.53.02,1.64-.01,3.28,0,4.92Z"/>
      <path class="st3" d="M517.58,199.45c-.01,1.64,0,3.28,0,4.92,1.75,0,3.52,0,5.27,0,0-1.64,0-3.28,0-4.92-1.75,0-3.52-.02-5.27,0Z"/>
      <path class="st3" d="M579.42,235.14l4.94.15v4.92l-5.12.33v9.89c.4.58,4.14.33,5.12.33.02-1.75-.01-3.52,0-5.27h5.27l-.15,4.94c-.4.58-4.14.33-5.12.33-.01,1.63-.01,3.29,0,4.92,1.75-.03,3.52.02,5.27,0v-4.92h9.66c.94-1.28.51-3.61.53-5.27-1.75.01-3.52-.01-5.27,0,0-1.75.02-3.52,0-5.27-1.64-.02-3.28.01-4.92,0v-9.66c-.31-.5-.7-.49-1.21-.55-2.68-.31-6.49.04-9.33.02.02,1-.27,4.7.33,5.12Z"/>
      <path class="st3" d="M476.82,240.21c1.64-.02,3.28.01,4.92,0v-4.92l5.12-.33.15-4.94h4.92v15.46h-10.19v5.27h-10.19c.02,1.64-.01,3.29,0,4.92l5.12.33-.18,4.79h-9.89l-.33-5.12h-4.92v10.19h4.92v5.27h5.27v-5.27h15.46v-4.92c1.64-.01,3.28.02,4.92,0-.02-1.75.02-3.52,0-5.27h-4.92v-4.92c3.39-.03,6.8.04,10.19,0-.1-10.3.07-20.63,0-30.93-5.15.04-10.32-.05-15.47,0-.03,1.75.02,3.52,0,5.27-1.64.01-3.29-.02-4.92,0-.04,5.03.06,10.08,0,15.11Z"/>
      <path class="st3" d="M512.66,204.37c.04-1.63-.03-3.29,0-4.92,1.64,0,3.29.02,4.92,0,.01-1.75-.02-3.52,0-5.27-3.39,0-6.8,0-10.19,0,.02,3.39-.03,6.8,0,10.19,1.75.02,3.52,0,5.27,0Z"/>
      <path class="st3" d="M574.17,291.53c0,3.39,0,6.8,0,10.19h4.92c0-3.39,0-6.8,0-10.19-1.64.01-3.28-.02-4.92,0Z"/>
      <path class="st3" d="M548.51,301.72v5.27c1.64.01,3.28-.02,4.92,0,.02-1.75.02-3.52,0-5.27-1.64.02-3.28-.01-4.92,0Z"/>
      <path class="st3" d="M579.09,286.61c.01-1.75-.02-3.52,0-5.27-1.64,0-3.28-.01-4.92,0,0,1.75,0,3.52,0,5.27,1.64.02,3.28-.01,4.92,0Z"/>
      <path class="st3" d="M599.82,245.49c1.64-.01,3.28,0,4.92,0v-5.27c-1.64-.01-3.28.02-4.92,0-.01,1.75.02,3.52,0,5.27Z"/>
      <path class="st3" d="M456.08,306.99c-1.64,0-3.28.01-4.92,0,0,1.75,0,3.52,0,5.27,1.64.01,3.29-.02,4.92,0,.02-1.75,0-3.52,0-5.27Z"/>
      <path class="st3" d="M579.24,256.01c-.3,3.27-.13,6.58-.15,9.86,3.51,0,7.03,0,10.54,0-.02-1.64.01-3.29,0-4.92h-5.27c-.01-1.75.02-3.52,0-5.27-.99.02-4.71-.26-5.12.33Z"/>
      <path class="st3" d="M568.89,276.06h-4.92v-4.92c-1.75-.01-3.52.02-5.27,0-.02,1.64.01,3.28,0,4.92h-10.19v-4.92c3.39.02,6.8-.03,10.19,0,.02-1.75,0-3.52,0-5.27-1.75-.02-3.52.01-5.27,0v-4.92h-9.66c-.94-1.28-.51-3.61-.53-5.27-1.64,0-3.28-.01-4.92,0,.03,3.39,0,6.8,0,10.19,1.64.02,3.28-.01,4.92,0v10.19c1.67.23,3.95-.57,5.27.53v20.21h4.92c.01,1.64-.02,3.28,0,4.92,1.75-.02,3.52,0,5.27,0,0-3.39.03-6.8,0-10.19-1.75-.03-3.52.02-5.27,0v-4.92h5.27c.01,1.64-.02,3.28,0,4.92.99.02,4.71-.26,5.12.33l.15,4.94h4.92l.15-4.94c.41-.59,4.13-.32,5.12-.33,0-1.64,0-3.28,0-4.92-1.56-.02-3.13.07-4.7-.05l-.42-.28-.16-4.94c1.75,0,3.52.02,5.27,0,0-3.39,0-6.8,0-10.19h4.92c.01-1.75-.02-3.52,0-5.27-3.39,0-6.8,0-10.19,0-.03,3.39.02,6.8,0,10.19Z"/>
      <path class="st3" d="M461.02,291.68c-1.62-.31-3.31-.13-4.94-.15,0,1.75,0,3.52,0,5.27,1.75.02,3.52.02,5.27,0,0-.98.25-4.72-.33-5.12Z"/>
      <path class="st3" d="M456.08,291.53c0-1.64.01-3.28,0-4.92-1.64.02-3.29-.01-4.92,0,0,1.64.01,3.29,0,4.92,1.64.01,3.28-.02,4.92,0Z"/>
      <path class="st3" d="M476.82,301.72h4.92c0-3.39,0-6.8,0-10.19-1.64.01-3.28-.01-4.92,0-.03,3.39.02,6.8,0,10.19Z"/>
      <path class="st3" d="M440.62,306.99c-.01-1.75.01-3.52,0-5.27-1.64-.02-3.28.01-4.92,0-.02,1.75,0,3.52,0,5.27,1.64-.02,3.29.01,4.92,0Z"/>
      <path class="st3" d="M487.01,291.53c0-1.64-.02-3.29,0-4.92-1.75,0-3.52-.02-5.27,0,.01,1.64,0,3.28,0,4.92,1.75-.02,3.52.01,5.27,0Z"/>
      <path class="st3" d="M466.28,306.99l.33-5.12,4.94-.15c-.03-3.39.03-6.8,0-10.19-.99.01-4.71-.26-5.12.33l-.15,4.94c-1.64,0-3.29-.02-4.92,0,0,1.64,0,3.29,0,4.92-1.75.01-3.52-.02-5.27,0,0,1.75,0,3.52,0,5.27,3.39,0,6.8,0,10.19,0Z"/>
      <path class="st3" d="M471.55,245.49c.99-.01,4.71.26,5.12-.33.3-1.62.13-3.31.15-4.94-1.75.02-3.52,0-5.27,0,.02,1.75,0,3.52,0,5.27Z"/>
      <path class="st3" d="M435.7,265.87v-4.92c-1.75-.02-3.52.02-5.27,0,.01,1.63.01,3.29,0,4.92,1.75-.02,3.52.01,5.27,0Z"/>
      <path class="st3" d="M456.08,265.87h-10.19v5.27c3.39.02,6.8-.03,10.19,0,.01-1.75,0-3.52,0-5.27Z"/>
      <path class="st3" d="M425.5,260.95c1.64.01,3.29-.02,4.92,0-.02-1.75.01-3.52,0-5.27-1.64,0-3.29.01-4.92,0,.02,1.75-.01,3.52,0,5.27Z"/>
      <rect class="st3" x="451.16" y="245.49" width="4.92" height="5.27"/>
      <path class="st3" d="M487.01,276.06c1.64-.01,3.29.02,4.92,0-.02-1.64.01-3.28,0-4.92h-15.11v4.92l4.77.33c.35.51.14,3.96.15,4.94,1.75,0,3.52,0,5.27,0,.02-1.75-.01-3.52,0-5.27Z"/>
      <rect class="st3" x="451.16" y="255.68" width="4.92" height="5.27"/>
    </g>
  </g>
  <g id="arm_right">
    <path class="st5" d="M260.74,223.34c-1.82-13.83,3.52-26.76,16.28-29.26-8.08,18.69.47,30.05,12.16,36.69,1.55,6.71,2.78,13.74,3.95,20.25-14.53,1.28-29.4-4.93-32.4-27.67Z"/>
    <path class="st7" d="M325.26,201.68c-1.01-9.92-5.8-26.75-16.33-43.77-9.17-14.84-16.97-22.95-28.54-32.4v57.75c-1.74.29-2.92.67-3.33.77-12.18,2.82-15.47,15.86-15.47,22.29,0,18.22,8.86,27.28,18.51,30.48.07.02.18.06.32.1.49.16.98.3,1.47.43l-.83-.25c3.62.94,16.08,3.08,32.8-6.13,13.66-10.05,11.4-29.25,11.4-29.25Z"/>
    <path class="st6" d="M308.93,157.91c6.65,23.1,6.33,44-2.46,54.19-6.27,7.27-22.08,16.57-46.22,4.54,0,0,15.06,42.31,57.58,8.52,20.29-18.05-8.91-67.25-8.91-67.25Z"/>
    <path class="st4" d="M302.39,188.71c-25.57-14.32-41.8,9.94-38.03,27.34,1.04,6.1,3.9,10.87,7.68,16.35-5.76-4.64-9.89-9.48-11.79-15.76-2.99-9.5-.71-20.52,7.82-28.26,9.78-8.86,25.15-8.74,34.32.32h0Z"/>
    <path class="st4" d="M291.96,237.92c15.51-3.09,28.85-11.44,30.63-27.17,1.41-13.7-3.64-32.87-9.4-45.39,8.35,11.73,14.01,32.27,12.63,46.57-1.97,16.55-16.75,25.44-33.86,26h0Z"/>
    <path class="st4" d="M279.18,184.12c1.13-13.33,1.55-26.8,1.2-40.19,1.25,6.64,2.1,13.35,2.78,20.07.63,6.75,1.07,13.52,1.17,20.31,0,0-5.14-.19-5.14-.19h0Z"/>
  </g>
  <g id="arm_left">
    <path class="st5" d="M65.46,223.34c1.82-13.83-3.52-26.76-16.28-29.26,8.08,18.69-.47,30.05-12.16,36.69-1.55,6.71-2.78,13.74-3.95,20.25,14.53,1.28,29.4-4.93,32.4-27.67Z"/>
    <path class="st7" d="M.77,201.68c1.01-9.92,5.8-26.75,16.33-43.77,9.17-14.84,16.97-22.95,28.54-32.4v57.75c1.74.29,2.92.67,3.33.77,12.18,2.82,15.47,15.86,15.47,22.29,0,18.22-8.86,27.28-18.51,30.48-.07.02-.18.06-.32.1-.49.16-.98.3-1.47.43l.83-.25c-3.62.94-16.08,3.08-32.8-6.13C-1.48,220.88.77,201.68.77,201.68Z"/>
    <path class="st6" d="M64.37,211.5c1.74-13.2-3.36-25.55-15.54-27.93,15.49,35.83-33.05,43.43-41.28,42.99,11.79,12.53,51.79,23.07,56.82-15.06Z"/>
    <path class="st4" d="M23.65,188.71c25.57-14.32,41.8,9.94,38.03,27.34-1.04,6.1-3.9,10.87-7.68,16.35,5.76-4.64,9.89-9.48,11.79-15.76,2.99-9.5.71-20.52-7.82-28.26-9.78-8.86-25.15-8.74-34.32.32h0Z"/>
    <path class="st4" d="M34.07,237.92c-15.51-3.09-28.85-11.44-30.63-27.17-1.41-13.7,3.64-32.87,9.4-45.39C4.49,177.08-1.17,197.62.21,211.93c1.97,16.55,16.75,25.44,33.86,26h0Z"/>
    <path class="st4" d="M41.71,184.31c.26-13.54,1.51-27.06,3.95-40.38-.18,6.73-.16,13.45.05,20.17.15,6.7.6,13.39,1.14,20.03l-5.14.19h0Z"/>
  </g>
</svg>