<?xml version="1.0" encoding="utf-8"?>
<!-- Generator: Adobe Illustrator 27.7.0, SVG Export Plug-In . SVG Version: 6.00 Build 0)  -->
<svg version="1.1" id="Layer_1" xmlns="http://www.w3.org/2000/svg" xmlns:xlink="http://www.w3.org/1999/xlink" x="0px" y="0px"
	 viewBox="0 0 1279.69 1341.3" style="enable-background:new 0 0 1279.69 1341.3;" xml:space="preserve">
<style type="text/css">
	.st0{fill:#FF7B00;}
	.st1{opacity:0.1;}
	.st2{fill:#994500;}
	.st3{opacity:0.15;}
	.st4{fill:#E56E00;}
	.st5{fill:#B24E00;}
	.st6{fill:#884406;}
	.st7{fill:#FFFFFF;}
	.st8{fill:#3A200A;}
</style>
<path id="R_Hand" class="st0" d="M4.62,339.77l0.02,0c10.66,30.51,44.5,55.5,99.4,86.44c43.84,24.72,182.88,172.13,182.88,172.13
	s19.18,8.62,47.11,19.31c69.6,26.61,193.51,66.06,210.69,16.94c2.28-6.46,2.72-14.73,0.95-25.06
	C522.53,475.87,288.95,331.5,288.86,330.91c0,0-108.18-85.37-220.09-66.95C12.08,273.3-8.11,303.36,4.62,339.77z"/>
<path id="R_hand_shadow" class="st1" d="M4.64,339.77c10.66,30.51,44.5,55.5,99.4,86.44c43.84,24.72,182.88,172.13,182.88,172.13
	s19.18,8.62,47.11,19.31l-21.57-192.61c-26.54,73.04-96.77,53.67-199.83-16.01C71.54,397.08,32.39,369.33,4.64,339.77z"/>
<path id="R_hand_thumb" class="st0" d="M194.55,283.09c0,0-3.01-65.6-36.53-62.3s-26.17,47.04-26.17,47.04L194.55,283.09z"/>
<path class="st2" d="M145.82,224.38c-17.76,11.2-24.27,34.59-21.16,54.55c0,0,3.03-4.88,3.03-4.88c-3.84,1.42-6.75,3.07-10.01,5.25
	c-21.34,14.12-28.3,42.44-22.05,66.26c0.36-22.34,7.19-46.48,26.93-58.95c3.46-2.33,7.57-4.11,11.44-5.31
	C130.44,261.66,133.56,240.62,145.82,224.38L145.82,224.38z"/>
<path class="st3" d="M1040.16,1161.83c-70.26,0-133.46,10.54-177.27,27.33c-43.18-21.9-115.54-36.26-197.55-36.26
	c-72.72,0-137.86,11.29-181.79,29.12c-34.36-6.64-73.9-10.42-115.97-10.42c-132.29,0-239.53,37.37-239.53,83.47
	s107.24,83.47,239.53,83.47c72.72,0,137.86-11.29,181.79-29.12c34.36,6.64,73.9,10.42,115.97,10.42
	c70.26,0,133.46-10.54,177.27-27.34c43.18,21.9,115.54,36.26,197.55,36.26c132.29,0,239.53-37.37,239.53-83.47
	C1279.69,1199.2,1172.45,1161.83,1040.16,1161.83z"/>
<path class="st0" d="M322.17,372.1c8.03-85.09,25.6-169.27,52.28-250.46c7.78-23.69,16.49-47.41,30.62-67.95
	s34.37-37.84,58.57-43.84c27.33-6.77,55.83,1.35,83.17,8.06c113.52,27.86,193.66,27.9,309,10.15c37.82-5.82,115.64-5.38,151.39,8.28
	c35.75,13.66,66.34,47.95,81.84,74.16c16.59,28.04,14.37,63.61,11.09,96.02s-11,64.21-15.57,96.46
	c-7.43,52.44-6.43,106.06,2.92,158.2c1.26,7.03,5.68,13.11,11.94,16.55c49.15,27,84.9,83.15,94.91,133.64
	c2.55,12.87,2.76,25.55-0.97,38.13c-4.71,15.89-19.37,29.9-31.16,40.57c-4.87,4.41-9.62,8.61-14.42,12.75
	c-9.54,8.23-11.18,22.6-3.38,32.5c2.05,2.6,3.76,5.53,5.03,8.84c4.39,11.48,3.8,22.83-1.61,33.86
	c-5.41,11.03-14.31,20.05-24.25,27.28c-5.64,4.11-11.37,7-17.25,9.61c-6.76,3-11.85,8.89-13.6,16.08
	c-3.99,16.44-11.83,32.62-12.35,51.08c-0.93,32.81,15.14,63.53,29.84,92.87c19.95,39.82,48.79,88.12,68.74,127.94
	c19.29,38.51,33.68,67.05,29.05,113.59c-3.68,37.01-50.85,53.88-86.46,64.64s-73.47,11.52-110.61,9.48
	c-65.33-3.59-127.95-9.97-192.46-35.72c-4.13-1.65-11.87-9.28-18.15-17.92c-5.86-8.06-16.15-11.6-25.73-8.88
	c-103.83,29.4-181.56,35.04-269.17,14.98c-8.12-1.86-16.61,0.6-22.45,6.55c-23.69,24.1-81.9,38.81-123.38,45.58
	c-47.03,7.67-94.64,7.06-141.91,1.05c-13.74-1.75-28.13-5.26-41-10.36c-0.13-0.05-0.26-0.1-0.39-0.15
	c-18.88-7.59-32.16-24.92-34.81-45.1c-5.11-38.89-3.74-80.42,2.08-119.84c4.86-32.95,12.18-65.55,22.26-97.3
	c5.88-18.52,12.68-36.73,19.49-54.93c5.25-14.04,7.64-29.52,12.25-43.86c0.94-2.93,1.32-6.01,1.11-9.09
	c-5.08-73.57,3.56-148.1,22.38-219.32c24.2-91.61,69.58-175.13,90.61-267.68C315.83,410.11,320.39,391,322.17,372.1z"/>
<path class="st4" d="M198.88,919.92c81.8,84.83,195.47,145.11,311.61,165.07h17.29c96.62,0,194.97-17.01,278.47-65.62
	c36.71-21.38,70.86-47.93,97.21-81.25s44.63-73.74,47.88-116.1c2.79-36.32-5.36-72.44-9.99-108.57
	c-9.95-77.67-0.45-157.36,15.24-234.08c9.44-46.16,21.59-80.76,37.39-121.29s33.05-80.78,42.44-123.26s10.47-88.04-5.7-128.43
	C1014.56,66,966.98,31.03,923.96,24.62c9.08-0.65,32.49,0.08,42.43,1.11c11.17,1.16,22.22,3.45,32.94,6.79
	c21.48,6.68,41.66,17.55,59.03,31.83c21.06,17.32,37.79,40.4,45.24,66.82c8.49,30.12,1.75,78.33-3.79,108.4
	c-15,81.53-27.81,154.63-10.11,233.28c-13.87-4.87-23.44-10.2-38.13-10.78c-14.69-0.58-29.75,2.2-42.4,9.69
	c-12.65,7.49-22.63,20.02-25.34,34.46c-2.93,15.59,2.58,31.63,8.16,46.21c1.85,4.82,4.65,9.24,8.32,12.88
	c5.44,5.4,11.46,10.42,15.37,17.01c-10.22,26.18-24.72,51.71-36.39,77.28c-11.67,25.57-20.72,53.19-19.17,81.25
	c1.55,28.06,15.4,56.68,40.17,69.95c12.16,6.51,26.01,9,39.65,11.06c19.35,2.92,36.15,4.12,54.74-1.98
	c-4.13,27.25-12.98,59.02-7.85,87.73c3.04,17.01,10.81,32.76,18.69,48.13c10.43,20.32,21.32,40.4,32.58,60.28
	c26.6,46.98,50.47,96.4,67.58,147.6c7.2,21.54,13.16,45.86,3.22,66.29c-7.29,14.98-21.91,24.98-36.79,32.46
	c-36.54,18.39-77.67,27.56-118.57,28.54c-40.79,0.98-81.5-2.84-122-7.86c-28.5-3.54-55.9-8.38-82.89-18.2
	c-4.59-1.67-10.52-3.64-15.53-5.25c-4.36-1.4-10.57-3.26-14.52-5.58c-4.82-2.84-10.51-8.97-14.03-13.32
	c-4.53-5.6-8.16-10.73-11.33-18.13c-63.94,21.1-110.36,33.06-178.3,32.46c-20.67-0.18-61.29-3.3-81.64-6.9
	c-14.32-2.53-28.65-5.62-42.96-9.21c-12.73,23.46-47.74,35.31-76.69,43.78c-71.72,21.01-147.86,27.07-220.19,8.26
	c-17.41-4.53-29.29-10.84-39.99-19.91c-10.04-8.51-10.89-21.26-12.38-31.97c-7.44-53.25-1.68-108.92,10.04-161.39
	C162.87,1025.23,179.8,970.18,198.88,919.92z"/>
<path class="st4" d="M1124.85,721.49c-11.87,12.65-26.05,23.14-41.63,30.78c-1.27,0.63,17.18,11.99,18.94,12.68
	c7.49,2.94,15.55,6.19,23.54,7.34c14.41,2.07,28.14-5.91,25.83-22.06c-0.97-6.75-4.79-12.85-9.67-17.62
	C1136.97,727.86,1130.83,724.76,1124.85,721.49z"/>
<path class="st5" d="M387.63,195.8c3.83-5.59,9.45-9.67,15.02-13.54c9.12-6.32,18.59-12.46,29.22-15.65
	c19.23-5.77,41.32-0.7,56.11,12.87c0.63-18.48-10.77-36.83-27.78-44.06c-17.02-7.24-37.91-3.66-52.07,8.23
	S385.31,177.45,387.63,195.8z"/>
<path class="st5" d="M729.63,167.31c14.91-1.92,29.97-3.84,44.94-2.52c14.98,1.31,30.08,6.14,41.25,16.2
	c6.91,6.22,12.03,14.16,16.61,22.26c4.33,7.65,7.34,17.95,7.75,24.8c10.83-19.39,11.51-44.18-0.36-62.96
	c-11.86-18.78-34.08-30.41-56.28-29.84C761.34,135.81,741.28,148.4,729.63,167.31z"/>
<path class="st5" d="M490.36,1238.92c-103.32-27.69-195.81-93.72-245.97-188.19c88.92,89.74,184.82,161.37,314.06,176.29
	c61.98,7.15,124.83,2.52,185.91-9.45c54.98-10.77,135.16-35.65,171.99-57.05C794.15,1246,633.18,1277.2,490.36,1238.92z"/>
<path class="st5" d="M961.68,656.98c-8.57,18.48-14.25,38.44-15.43,58.49c-1.83,31,11.76,68.63,39.77,84.97
	c-5.46-3.18-9.99-17.62-12.24-23.28c-3.49-8.79-5.79-17.95-7.56-27.22c-3.8-19.96-1.52-40.72,3.9-60.16
	c10.52-37.71,32.67-70.66,45.55-107.45c-5.63,6.91-13.62,16.89-19.37,23.29c-6.55,7.3-12.82,14.66-18.36,22.78
	C971.84,637.34,966.33,646.94,961.68,656.98z"/>
<path class="st6" d="M460.16,577.24c18.67-12.51,27.16-32.2,22.11-54.1c-5.05-21.9-17.97-42.3-31.61-60.17
	c1.79,2.34,5.9,3.05,8.55,3.79c4.32,1.21,8.57,2.56,12.95,3.6c9.86,2.34,19.89,3.92,29.98,4.85c20.48,1.89,41.15,1.13,61.55-1.32
	c19.24-2.31,38.26-6.09,57.12-10.48c18.18-4.23,37.15-7.89,54.44-15.05c2.42-1,5.53-1.91,7.59-3.54c0.01-0.01,0.02-0.02,0.03-0.03
	c0.03-0.02,0.05-0.04,0.08-0.06c0.08-0.06,0.16-0.13,0.24-0.19c0.01-0.01,0.04-0.02,0.04-0.04c-13.77,43.42-46.75,78.57-87.64,98.64
	C554.71,563.22,506.24,572.47,460.16,577.24z"/>
<path class="st5" d="M509.44,562.18c31.05-44.83,87.81-73.94,142.34-74.12C627.01,522.61,574.56,552.31,509.44,562.18z"/>
<path class="st7" d="M481,368.76c11.8-14.3,19.8-31.85,23.3-49.98c5.66-29.31,0.68-66.92-23.95-86.68
	c-16.61-13.33-40.49-15.93-60.52-8.7s-36.16,23.4-45.69,42.45c-9.53,19.05-12.84,40.78-12.1,62.06
	c0.54,15.37,3.24,30.98,10.63,44.47c8.22,14.98,22.06,25.67,39.21,27.97c14.62,1.96,29.64-1.97,42.51-9.17
	C464.66,385.45,473.58,377.75,481,368.76z"/>
<path class="st8" d="M470.55,294.18c0.28-30.45-16.33-63.39-51.74-50.14c-20.81,7.79-29.44,29.67-32.42,50.14
	c-3.42,23.44,3.06,52.38,29.63,58.76c22.77,5.46,41.34-13.69,49.58-32.91C468.8,312.58,470.47,303.5,470.55,294.18z"/>
<path class="st7" d="M427.94,292.66c4.98-6.22,6.03-16.49,3.64-23.49c-1.49-4.37-5.2-8.25-9.8-8.7c-5.11-0.5-9.68,3.18-12.88,7.19
	c-7.89,9.89-9.06,32.38,9.61,30.32C422.52,297.54,425.65,295.53,427.94,292.66z"/>
<path class="st7" d="M740.74,214.13c28.98-4.03,60.02,7.42,78.24,30.31c8.91,11.19,14.67,24.64,18.26,38.49
	c6.24,24.1,5.97,50.07-2.3,73.55c-8.27,23.48-24.78,44.24-46.58,56.24c-21.81,12-48.85,14.73-72.12,5.88
	c-27.78-10.56-48.01-36.67-55.57-65.41C645.17,294.23,674.98,223.29,740.74,214.13z"/>
<path class="st8" d="M786.88,286.35c1.08,4.64,1.65,9.39,1.67,14.12c0.11,24.47-11.42,50.96-33.36,63.72
	c-24.07,13.99-55.27,4.02-70.6-18.27c-9.4-13.66-13.02-30.95-10.95-47.4c2.32-18.37,11.91-36,26.98-46.75s35.6-13.99,52.77-7.06
	C770.61,251.68,782.65,268.15,786.88,286.35z"/>
<path class="st7" d="M724.75,302.06c5.71-7.13,6.91-18.89,4.17-26.91c-1.71-5.01-5.96-9.45-11.22-9.97
	c-5.85-0.57-11.08,3.64-14.75,8.24c-9.04,11.32-10.37,37.09,11,34.73C718.55,307.64,722.13,305.34,724.75,302.06z"/>
<path class="st1" d="M302.98,340.24c0,0,14.77,28.27,9.48,84.81c0,0,8.25-43.1,11.49-70.29L302.98,340.24z"/>
<path class="st5" d="M235.88,545.58c0,0,28.38,13.09,52.02-38.54c0,0-14.36,41.47-25.12,66.65L235.88,545.58z"/>
</svg>
