<?xml version="1.0" encoding="UTF-8"?>
<svg id="Layer_1" xmlns="http://www.w3.org/2000/svg" version="1.1" viewBox="0 0 410.26 416.07">
  <!-- Generator: Adobe Illustrator 29.1.0, SVG Export Plug-In . SVG Version: 2.1.0 Build 142)  -->
  <defs>
    <style>
      .st0 {
        isolation: isolate;
        opacity: .1;
      }

      .st1 {
        fill: #b24e00;
      }

      .st2 {
        fill: #3a200a;
      }

      .st3 {
        fill: #994100;
      }

      .st4 {
        fill: #fff;
      }

      .st5 {
        fill: #884406;
      }

      .st6 {
        fill: #b25000;
      }

      .st7 {
        opacity: .53;
      }

      .st8 {
        fill: #e56e00;
      }

      .st9 {
        fill: #ff7b00;
      }
    </style>
  </defs>
  <path class="st9" d="M78.67,171.81s-26.55,33.49-41.94,48.88S-2.5,251.77.21,264.75c2.71,12.98,15.99,13.28,25.04,13.58,9.05.3,25.65-2.72,46.77-25.65s20.52-23.84,20.52-23.84c0,0,6.03,47.68,6.94,92.64s.6,58.54,9.96,68.19,33.19,4.22,43.15,2.11,27.46-12.67,44.36-26.55,55.52-25.35,55.52-25.35c0,0,14.79-4.83,29.57-13.28,0,0,44.96-1.51,66.69-6.34s49.18-17.08,49.18-36.75c0-29.93-47.98-43.51-60.05-62.52s-32.29-47.07-35-66.08c0,0,59.44-44.66,57.33-93.24-1.51-35.3-3.32-38.32-15.99-43.45s-20.52,1.51-21.12,17.8c0,0-5.22-8.06-12.59-3.11-4.15,2.81.4,14.33,1.21,19.43s-.94,7.77-3.62,12.86c-2.68,5.09-14.74,21.43-25.05,29.74,0,0-21.37-85.39-40.64-93.17-13.18-5.41-24,2.37-47.67,12.17-23.67,9.8-29.07,11.83-43.61,16.23-31.78,10.48-78.02,9.48-88.84,24.02s-1.09,47.65-1.09,47.65l17.47,69.97h.02Z"/>
  <path class="st4" d="M117.41,136.43c9.47,0,18.38,2.4,26.15,6.62,8.35-4.62,14-13.52,14-23.73,0-14.97-12.14-27.11-27.11-27.11s-27.11,12.14-27.11,27.11c0,6.74,2.46,12.9,6.53,17.64,2.47-.34,4.98-.53,7.54-.53Z"/>
  <path class="st4" d="M219.68,121.7c5.44-10.57,14.19-19.15,24.9-24.35.09-.88.13-1.77.13-2.68,0-14.97-12.14-27.11-27.11-27.11s-27.11,12.14-27.11,27.11,12.14,27.11,27.11,27.11c.7,0,1.39-.04,2.08-.09h0Z"/>
  <path class="st0" d="M345.7,367.76c-10.13,0-19.71.57-28.24,1.59-15.73-7.12-40.83-11.72-69.09-11.72-34.51,0-64.28,6.87-78.07,16.78-2.69-.08-5.42-.13-8.2-.13-35.65,0-64.56,7.09-64.56,15.83s28.9,15.83,64.56,15.83c6.69,0,13.15-.25,19.22-.71,15.82,6.61,39.97,10.84,67.05,10.84,35.13,0,65.33-7.12,78.79-17.32,5.88.43,12.1.67,18.55.67,35.65,0,64.56-7.09,64.56-15.83s-28.9-15.83-64.56-15.83h-.01Z"/>
  <circle class="st2" cx="134.56" cy="120.42" r="15.96"/>
  <circle class="st4" cx="128.2" cy="117.6" r="5.45"/>
  <circle class="st2" cx="214.21" cy="96.89" r="15.99"/>
  <circle class="st4" cx="207.85" cy="94.07" r="5.45"/>
  <path class="st5" d="M151.71,161.18s16.97,27.65,45.36,19.96,26.43-34.71,26.43-34.71c0,0-11.45,9.84-31.57,14.58-18.65,5.24-40.21.16-40.21.16h0Z"/>
  <path class="st1" d="M170.34,175.65s12.45-3.78,21.67-5.11,21.45-1.22,21.45-1.22c0,0-7.15,7.94-20.12,10.23s-23.01-3.89-23.01-3.89h0Z"/>
  <g>
    <path class="st8" d="M397.91,283.51c0-29.93-47.98-43.51-60.05-62.52-12.07-19.01-32.29-47.07-35-66.08,0,0,59.44-44.66,57.33-93.24-.49-11.49-1.02-19.55-1.94-25.38-3.16,15.63-18.84,56.98-28.59,71.83-9.2,14.02-23.21,21.79-35.19,21.96l-.49-1.43c-2.89-8.39-5.57-16.85-8.08-25.36-1.31-4.46-2.61-8.56-2.88-8.34,0,0-14.36-57.4-30.16-82.36,6.59,29.58,19.81,88.89,30.64,131.81,12.72,50.4,49.25,146.96-52.15,178.98-81.66,25.8-121.43-22.64-133.82-42.48.92,12.82,1.67,26.82,1.95,40.58.91,44.96.6,58.54,9.96,68.19,9.35,9.66,33.59,5.6,43.15,2.11s27.46-12.67,44.36-26.55c16.9-13.88,55.52-25.35,55.52-25.35,0,0,14.79-4.83,29.57-13.28,0,0,44.96-1.51,66.69-6.34s49.18-17.08,49.18-36.75h0Z"/>
    <g class="st7">
      <path class="st8" d="M25.26,278.33c9.05.3,25.65-2.72,46.77-25.65,20.02-21.74,20.52-23.68,20.52-23.83,0,.03.03.22.07.57l.52-1.56s-1.93-10.71-6-25.92-8.14-29.78-8.14-29.78c-6.21,28.28-14.35,65.34-40.06,85.27-13.99,10.84-28.03,11.59-37.93,10.03,3.9,10.31,15.88,10.6,24.26,10.88h0Z"/>
    </g>
  </g>
  <path class="st6" d="M117.41,45.16c21.37-14.49,47.39-21.4,73.07-21.59-12.26,3.61-24.59,6.42-36.77,10.06-12.25,3.48-24,7.95-36.3,11.53h0Z"/>
  <path class="st6" d="M168.55,348.55c42.58,4.53,86.6-4.77,122.04-29.15,5.09-3.43,9.95-7.22,14.87-11.06-3.86,4.86-8.28,9.35-12.92,13.56-33.07,29.05-81.93,39.24-123.99,26.64h0Z"/>
  <path class="st6" d="M95.7,258.53c-5.54-18.6-7.73-37.9-8.73-57.24,4.38,8.75,5.57,18.71,6.79,28.28,1.09,9.64,1.81,19.23,1.94,28.96h0Z"/>
  <path class="st6" d="M294.48,130.08c7.71,17.2,11.58,35.43,19.33,52.63-12.98-12.6-18.35-35.03-19.33-52.63h0Z"/>
  <path class="st3" d="M97.51,103.29c-3.79-3.03-4.54-8.52-4.33-13.12,1.12-16.76,18.91-24.87,32.7-15.5-4.53.68-8.64,1.15-12.22,2.33-7.34,2.26-11.51,7.34-14.13,14.41-1.31,3.73-2.41,7.87-2.03,11.88h0Z"/>
  <path class="st3" d="M237.09,62.71c-3.09-6.73-11.4-12.78-18.37-14.25-8.06-1.67-15.44,2.36-22.9,6.18.99-2.14,2.28-4.12,3.85-5.91,9.02-10.68,24.74-10.62,33.4.32,2.79,3.57,5.63,9.19,4.01,13.66h0Z"/>
  <path class="st6" d="M344.18,59.42c-5.35-8.3-8.86-10.75-18.63-11.9l-.2-1.6c-.96-5.58-3.08-12.67-9.15-14.55,7.09.29,11.48,7.29,14.28,13.12l-2.32-1.94c9.27.52,15.17,8.08,16.01,16.87h.01Z"/>
</svg>