<?xml version="1.0" encoding="UTF-8"?>
<svg id="Layer_1" data-name="Layer 1" xmlns="http://www.w3.org/2000/svg" viewBox="0 0 680.49 724.22">
  <defs>
    <style>
      .cls-1 {
        isolation: isolate;
        opacity: .1;
      }

      .cls-2 {
        fill: #b24e00;
      }

      .cls-3, .cls-4, .cls-5 {
        fill: #3a200a;
      }

      .cls-6 {
        opacity: .35;
      }

      .cls-6, .cls-7 {
        fill: #fff;
      }

      .cls-8 {
        fill: #994500;
      }

      .cls-9 {
        fill: #e50000;
      }

      .cls-10 {
        opacity: .6;
      }

      .cls-11 {
        opacity: .2;
      }

      .cls-12 {
        opacity: .1;
      }

      .cls-13 {
        fill: #ff7b00;
      }

      .cls-14 {
        fill: #41170b;
      }

      .cls-4 {
        opacity: .6;
      }

      .cls-5 {
        opacity: .15;
      }
    </style>
  </defs>
  <path class="cls-5" d="M547.96,646.7c-16.59,0-32.26,1.28-46.15,3.55-7.69,1.26-15.55.82-23.08-1.16-32.85-8.63-79.46-14.02-131.16-14.02s-100.9,5.69-133.87,14.75c-8.28,2.27-16.94,2.68-25.38,1.14-14.86-2.71-31.99-4.26-50.23-4.26-56.98,0-103.18,15.08-103.18,33.68s46.19,33.68,103.18,33.68c19.35,0,37.46-1.74,52.94-4.77,8.39-1.64,17.03-1.28,25.31.89,32.86,8.64,79.5,14.04,131.23,14.04s95.62-5.08,128.28-13.28c7.66-1.92,15.62-2.23,23.4-.86,14.51,2.54,31.09,3.98,48.71,3.98,56.98,0,103.18-15.08,103.18-33.68s-46.19-33.68-103.18-33.68Z"/>
  <g id="body">
    <path class="cls-13" d="M42.22,390.46c25.76,60.03,72.1,45.37,116.3,15,3.05-2.09,15.61-13.7,15.61-13.7,0,0,.2,14.53-.79,17.5-6.75,20.38-22.79,45.88-32.63,64.36-20.39,38.28-38.17,71.98-48.78,113.66-1.79,6.8-3.26,13.66-4.82,20.45-2.72,11.9-6.01,24.21-11.57,35.29-12.43,23.03-20.51,40.37,14.94,46.12,27.85,4.52,56.14,3.99,84.42.14,7.68-1.29,16.8-2.55,24.07-5.22,6.08-2.45,11.19-6.71,15.01-11.95,4.08-6.32,6.83-14.22,9.95-20.58,8.63-24.67,31.27-38.48,54.61-51.59,3.99-2.44,8.27-2.96,12.79-1.39,35.93,13.7,75.94,19.31,108.73,19.15,4.13-.02,5.09.23,11.39.87,17.16,1.73,22.95,5.8,36.17,18.11,4.68,4.75,13,15.68,17.03,20.9,7.55,9.78,9.52,11.71,15.43,16.88,4.86,4.76,10.63,8.82,16.71,11.95,8.72,4.33,17.58,6.99,27.28,8.07,13.82,1.97,47.55.81,61.41-.78,9.91-1.56,25.73-4.33,31.81-13.03,3.95-6.57,4.05-15.8.15-21.89-6.02-9.38-10.35-16.77-14.92-32.32-5.18-18-13.42-57.33-16.63-75.64-3.85-21.98-7.77-36.47-19.57-72.38-1.56-4.75-2-7.57-2.83-9.87-5.85-16.12,47.93-28.94,58.2-35.5,16.39-7.27,33.04-18.58,44.5-33.3,29.84-38.49,8.78-66.99-23.8-95.54-17.6-15.21-36.25-29.36-55.78-41.83-10.36-7.55-21.34-14.21-31.87-21.58-3.63-2.65-6.25-6.94-6.5-11.3.18-3.77.22-9.87-.08-14.82-.6-9.24-1.64-20.43-2.12-30.29-1.32-26.08-3.05-76.13-3.68-93.77-.27-31.07-2.04-76.22-37.97-86.66-7.25-1.4-13.61-3.16-21.22-3.75-19.45-1.21-38.79,2.36-57.94,5.42-17.52,2.88-35.16,4.6-52.78,6.46-9.37,1.04-18.75,1.65-28.2,1.57-19.13-.02-38-2.43-57.01-4.1-34.45-2.49-87.12-23.43-106.55,16.48-2.87,7.32-5.59,14.38-6.98,21.91-8.07,35.09-7.55,78.14-11.12,113.72-5.01,13.02-79.5,145.66-107.33,200.69-7.25,14.08-12.2,23.64-13.35,25.93-.23.69,0,1.06.31,2.03l.04.09Z"/>
    <g id="shadows">
      <path class="cls-1" d="M497.21,686.63c-4.48-3.86-6.05-6.32-6.87-7.3-7.62-9.07-13.83-20.43-21.4-31.41-9.17-13.31-20.26-24.17-34.55-31.02-12.8,0-19.64.73-29.25,1.06.5.25,4.33.42,6.3.63,16.43,1.79,22.95,5.8,36.17,18.11,4.68,4.75,13,15.68,17.03,20.9,7.55,9.78,9.52,11.71,15.43,16.88,4.86,4.76,10.63,8.82,16.71,11.95.14.07.29.13.43.2Z"/>
      <path class="cls-1" d="M503.61,3.79l-.24.14c-.07.95,1.15,3.12,1.84,4.15,8.13,13.62,14.19,29.75,16.14,45.39,4.39,39.79-5.83,88.32-6.82,128.29-.59,20.8-3.4,38.98-3.2,60.26.22,24.22-.83,40.39-3.68,67.81.41,3.56,21.67,11.94,24.56,13.8,5.97,4.07,12.79,9.51,17.88,14.5.99.97,2.29,2.18,3.63,2.77.55,4.07,1.03,7.64,1.15,8.38.17,1.53,1.51.4,2.64.06,12.47-4.9,25.33-10.29,38.79-12.56,5.83-.96,12.16-1.41,17.93-1.52,2.7-.07,4.74.08,4.02-.36-.09-.06-.22-.12-.38-.19l-.09-.04c-20.76-7.61-43.3-1.59-55.07-17.24-1.66-1.99-3.35-4.26-4.81-6.47-.08-.13-.17-.25-.25-.38-13.65-16.05-9.72-70.15-9.6-74.52.2-7.41.47-12.68.18-17.64-.95-15.95-1.76-24.15-2.24-34.01-1.32-26.08-3.05-76.13-3.68-93.77-.27-31.28-2.06-76.83-38.71-86.87Z"/>
      <path class="cls-1" d="M291.31,598.56c2.52.96,5.06,1.87,7.62,2.75-.34-.8-7.75-5.16-15.91-7.94-17.92-6.11-42.03-20.23-53.07-31.17-2.64-2.63.11,2.46.42,3.93,4.87,13.26,1.38,13.36-7.67,26.8-5.56,8.25-12.5,19.05-16.04,28.71-3.1,8.47-5.91,16.58-8.95,24.83-5.34,13.65-7.85,28.04-20.46,36.91-.6.43-5.97,3.73-11.44,7.02.75-.1,9.48-1.21,10.23-1.31,7.68-1.29,15.62-2.35,22.9-5.02,6.08-2.45,11.19-6.71,15.01-11.95,4.08-6.32,6.83-14.22,9.95-20.58,8.63-24.67,31.27-38.48,54.61-51.59,3.99-2.44,8.27-2.96,12.79-1.39Z"/>
      <path class="cls-1" d="M42.22,390.46c25.76,60.03,72.1,45.37,116.3,15,4.88-3.35,9.82-6.99,13.68-11.6,1.08-1.21,1.66-1.94,1.93-2.1.11-.06.09.09.02.35,0,.02-.01.03-.02.05.13-.28.27-.55.37-.85l.06-.16c.74-2.05.95-4.53,1.2-6.82,2.61-24.18,7.7-49.14,2.36-73.56-.47-2.18-.74-2.91-.82-.62,0,16.1.38,32.68-18.01,42.3-4.52,2.2-9.69,4-14.7,3.27-3.36-.35-5.14-2.46-7.06-1.1-.69.61-1.32,1.92-2.12,3.59-1.33,2.86-3.15,6.14-4.93,8.87-2.7,4.18-5.62,7.56-9.2,10.78-17.66,16-53.75,15.47-79.28,10.22-.04.08-.09.18-.13.25-.23.69,0,1.06.31,2.03l.04.09Z"/>
      <path class="cls-1" d="M625.25,405.47c-1.28,1.6-1.46,3.88-1.5,5.93-.02,5.46-.32,11.41-1.16,16.77-.15,1.36-.6,3.31.05,4.46,16.07-7.28,32.28-18.42,43.51-32.84,12.9-16.63,16.28-31.4,13.34-45.11-.35.82-.44,2.8-.7,3.67-.57,3.87-2.24,7.53-4.2,10.83-8.98,15.53-28.09,27.15-44.84,33.5-1.65.63-3.48,1.46-4.5,2.8Z"/>
      <path class="cls-1" d="M617.42,658.8c-6.02-9.38-10.35-16.77-14.92-32.32-5.18-18-13.73-57.27-16.63-75.64-4.2-26.52-12.6-51.63-20.29-74.7-1-3.39-1.38-5.45-2.11-7.55-1.01.01-133.8,26.96-133.8,26.96,28.34,36.93,64.13,41,108.65,32.34.8,1.31,1.59,2.61,2.36,3.88,16.29,27.35,9.7,52.13,24.9,80.18,6.33,12.02,17.96,32.48,23.08,45.08,3.57,9.89,7.63,20.99,1.25,29.85-1.58,2.23-4.71,3.45-4.75,5.43.28.33.7.77,1.2,1.26,9.94-1.59,25.03-4.44,30.93-12.89,3.95-6.57,4.05-15.8.15-21.89Z"/>
    </g>
    <g id="accent_lines" data-name="accent lines">
      <path class="cls-8" d="M575.45,339.76c13-6.06,34.76-8.23,48-2.27-3.98-.64-7.93-.49-11.86-.27-11.61.77-23.32,3.19-34.06,7.33,0,0-2.08-4.79-2.08-4.79h0Z"/>
      <path class="cls-8" d="M132.49,338.3c4.53,13.61,4.15,35.49-3.33,47.94,1.1-3.88,1.42-7.82,1.66-11.75.6-11.62-.45-23.53-3.33-34.68,0,0,5-1.51,5-1.51h0Z"/>
      <path class="cls-8" d="M547.3,259.41c2.18,15.07,4.07,36.82,5.71,52.15,1.75,17.42,3.95,34.63,5.77,52.1-5.94-16.6-9.15-34.06-11.03-51.55-1.75-17.51-2.18-35.16-.44-52.7h0Z"/>
      <path class="cls-8" d="M434.38,616.89c-58.73,4.11-138-1.59-187.16-36.6-7.47-5.54-14.37-11.93-19.76-19.41,48.67,44.68,143.1,50.26,206.91,56.01h0Z"/>
      <path class="cls-8" d="M176.62,307.76c8.7,39.26,5.14,90.08-5.99,128.64,4.11-42.83,7.38-85.59,5.99-128.64h0Z"/>
    </g>
  </g>
  <g id="mouth">
    <g class="cls-10">
      <path class="cls-3" d="M290.33,306.83c-7.62-3.54,4.41-19.4-9.69-45.97,0,0,16.13,16.02,94.37,7.89,0,0-22.23,26.63-38.02,33.42-4.59,1.98-28.35,13.17-46.66,4.67h0Z"/>
      <path class="cls-3" d="M280.66,260.86s9.81,9.76,51.32,10.18c11.68.12,25.86-.5,43.04-2.29,0,0-22.23,26.63-38.02,33.42-3.39,1.46-17.26,7.96-31.66,7.81-5.07-.06-10.22-.93-15-3.15-7.62-3.54,4.41-19.4-9.69-45.97M280.64,258.82h0c-.44,0-.9.08-1.31.26-1.13.5-1.58,1.57-1.08,2.52,8.03,15.14,7.34,26.78,6.88,34.47-.36,6.04-.62,10.4,3.92,12.51,4.77,2.22,10.27,3.38,16.32,3.44,14.21.15,27.77-5.79,32.22-7.74.27-.12.51-.23.72-.32,16.16-6.94,38-32.96,38.92-34.07.55-.67.56-1.53,0-2.21-.49-.6-1.32-.96-2.2-.96-.13,0-.26,0-.38.02-15.72,1.64-30.08,2.4-42.67,2.27-39-.4-49.09-9.23-49.29-9.41-.52-.5-1.28-.78-2.04-.78h.01ZM280.67,262.89h0Z"/>
    </g>
    <path class="cls-2" d="M344.04,298.06c-14.68,8.19-39.44,14.79-53.71,8.78,2.44-2.58,22.02-28.15,53.71-8.78Z"/>
  </g>
  <path class="cls-4" d="M379.61,109.34c13.91-32.72,50.65-55.81,83.27-32.82,3.9,2.8,7.43,5.98,10.4,9.71-4.64-1.14-8.99-2.43-13.29-3.41-35.33-9.33-52.55,9.3-80.37,26.52h0Z"/>
  <path class="cls-4" d="M280.72,125.44c-13.82-6.47-25.03-15.72-39.6-18.32-10-2.02-20.13-.25-30.31.22,6.37-7.79,16.02-12.97,26.11-13.81,20.08-1.89,38.11,13.55,43.81,31.91h0Z"/>
  <g id="right_eye" data-name="right eye">
    <ellipse class="cls-7" cx="410.91" cy="188.04" rx="53.99" ry="46.01" transform="translate(188.96 581.66) rotate(-85.17)"/>
    <ellipse class="cls-14" cx="417.26" cy="192.65" rx="32.4" ry="24.74" transform="translate(190.18 592.22) rotate(-85.17)"/>
    <circle class="cls-7" cx="412.75" cy="180.62" r="8.71"/>
    <ellipse class="cls-13" cx="425.71" cy="249.59" rx="50.52" ry="20.47" transform="translate(-53.54 131.95) rotate(-16.59)"/>
  </g>
  <g id="left_eye" data-name="left eye">
    <ellipse class="cls-7" cx="247.26" cy="181.8" rx="51.61" ry="42.4" transform="translate(49 416.06) rotate(-86.08)"/>
    <ellipse class="cls-14" cx="253.49" cy="187.16" rx="30.97" ry="22.8" transform="translate(48.13 426.15) rotate(-85.77)"/>
    <ellipse class="cls-7" cx="248.28" cy="175.66" rx="8.02" ry="8.33"/>
    <ellipse class="cls-13" cx="237.71" cy="238.18" rx="18.15" ry="45.94" transform="translate(-80.94 346.35) rotate(-63.81)"/>
  </g>
  <g id="right_glove" data-name="right glove">
    <path class="cls-9" d="M624.22,404.33c-2.58-34.63-30.99-87.28-70.51-62.85-27.44-38.58-121.15-62.07-130.3,1.53-126.03,71.58,40.96,251.11,143.33,124.93,33.41,3.64,60.16-27.71,57.48-63.61Z"/>
    <path class="cls-6" d="M412.8,449.48c-4.55,4.18-9.27-4.1-11.04-7.48-14.61-27.89-6.02-74.25,23.08-82.41,5.08-1.42,10.31,4.56,7.42,11.34-21.97,39.97-13.74,43.73-19.46,78.55Z"/>
    <path class="cls-12" d="M585.9,410.46c-1.19-1.38-4.29-2.85-5.37-3.07-30.88,61.05-124.42,111.88-183.94,56.72.03.25.08.5.12.75,35.01,48.5,112.67,73.79,170.03,3.09,33.41,3.64,59.44-27.53,57.48-63.61-.13-2.82-.42-4.93-.77-7.66-3.13,14.98-25.11,24.18-37.56,13.8Z"/>
    <path class="cls-11" d="M553.7,341.48c30.48,24.38,43.43,67.79,26.57,103.87-2.31,5.11-5.13,10.04-8.38,14.6-.83,1.13-1.63,2.27-2.48,3.37,2.17-5.15,4.44-10.17,6.09-15.4,13.62-38.88,1.26-74.1-21.8-106.45h0Z"/>
    <path class="cls-11" d="M423.41,343.02c12.2-10.62,32.51-12.89,47.52-7.67-8.13.99-15.99,1.55-23.98,2.8-8,1.2-15.57,2.89-23.54,4.87h0Z"/>
  </g>
  <g id="left_glove" data-name="left glove">
    <path class="cls-9" d="M192.48,223.74c-.33-.18-.55-.52-.59-.89C180.53,90.36,9.94,150.08,1.11,254.88c-4.31,26.88,4.39,51.58,18.1,74.62.18.31.21.68.07,1.01-10.77,25.3,2.18,55.18,29.26,60.01.06.01.12.03.17.05,39.12,15.26,104.97-13.51,85.76-62.12,1.28-1.5,6.6-7.13,7.98-10.03,1.21-1.7,4.16-7.66,5.41-9.8.27-.46.81-.65,1.32-.49,41.51,12.98,84.27-62.1,43.31-84.4Z"/>
    <path class="cls-6" d="M96.09,165.54c17.38-1.98,21.96,4.54,8.56,16.51-7.76,6.94-18.17,12.78-26.45,19.48s-28.24,28.15-36.86,29.46c-9.93,1.51-7.98-10.65-6.23-16.91,6.18-22.19,38.56-45.99,60.97-48.55Z"/>
    <path class="cls-12" d="M192.49,223.74c-.34-.18-.57-.53-.6-.91-.53-6.19-1.41-11.95-2.6-17.32-.56,4.6-1,8.2-1.1,8.61-1.17,4.85-2.63,9.52-4.78,14.21-12.53,27.38-60.76,71.03-91.8,50.63-6.35-4.18-13.69-15.18-19.02-17.77-5.22-2.54-10.73-.18-13.39,4.65-3.93,7.14-2.15,23.87-.06,31.79,3.41,12.89,16.35,31.24,2.13,42.32-3.35,2.61-6.03,4.14-9.56,5.15-1.08.31-2.25.47-3.44.43s-2.3-.14-3.45-.59c-8.24-3.21-15.37-7.92-22.3-13.21-.4-.3-.9.22-.58.61,12.02,14.43,26.34,21.51,43.61,24.09.65.1,3.22.49,3.46,1.26,1.48,4.68,3.98,9.09,4.05,14.17.1,7.69-4.59,15.8-12.05,18.12-1.4.44-2.87.57-4.34.55-1.87-.03-5.23-.09-8.9-.15.26.05.5.11.76.16.06.01.12.03.17.05,39.12,15.26,104.97-13.51,85.76-62.12,1.28-1.5,6.6-7.13,7.98-10.03,1.21-1.71,4.17-7.69,5.41-9.81.26-.45.8-.64,1.3-.48,41.51,13,84.28-62.08,43.34-84.39Z"/>
    <path class="cls-11" d="M191.95,223.45c-.14,42.25-22.53,80.46-63.71,94.27-13.29,4.27-28.63,3.98-40.84-3.37-15.89-9.08-25.04-29.1-20.89-46.83-.99,26.45,20.8,48.79,47.42,45.53,24.42-3.13,47.27-20.68,60.21-41.27,9.28-14.57,14.46-31.35,17.81-48.33h0Z"/>
    <path class="cls-11" d="M134.47,328.45c-12.33,17.5-33.61,28.91-55.28,28.81-16,.2-32.84-3.93-45.6-14.03-4.21-3.31-8.02-7.01-11.38-11.08,4.34,2.99,8.62,5.95,13.15,8.38,13.37,7.53,28.54,10.29,43.79,10.17,20.56.08,39.63-8.99,55.32-22.25h0Z"/>
  </g>
</svg>