<?xml version="1.0" encoding="UTF-8"?>
<svg id="Layer_1" xmlns="http://www.w3.org/2000/svg" version="1.1" viewBox="0 0 133.47 173.53">
  <!-- Generator: Adobe Illustrator 29.1.0, SVG Export Plug-In . SVG Version: 2.1.0 Build 142)  -->
  <defs>
    <style>
      .st0 {
        fill: #ee3e26;
      }

      .st1 {
        isolation: isolate;
        opacity: .1;
      }

      .st2 {
        fill: #7c7c7c;
      }

      .st3 {
        fill: #3c3c3c;
      }

      .st4 {
        fill: #bf2e22;
      }

      .st5 {
        fill: #b24e00;
      }

      .st6 {
        fill: #3a200a;
      }

      .st7 {
        fill: #997c61;
      }

      .st8 {
        opacity: .75;
      }

      .st8, .st9 {
        fill: #fff;
      }

      .st10 {
        fill: #3d3d3d;
      }

      .st11 {
        fill: #7f3d31;
      }

      .st12 {
        fill: #4f4f4f;
      }

      .st13 {
        fill: #5750e3;
      }

      .st14 {
        fill: #884406;
      }

      .st15 {
        fill: #fdf516;
      }

      .st16 {
        opacity: .25;
      }

      .st17 {
        opacity: .1;
      }

      .st18 {
        fill: #e56e00;
      }

      .st19 {
        fill: #096;
      }

      .st20 {
        fill: #ff7b00;
      }

      .st21 {
        fill: #2d2d2d;
      }

      .st22 {
        fill: #f6c799;
      }

      .st23 {
        fill: #723b17;
      }

      .st24 {
        fill: #2caece;
      }

      .st25 {
        fill: #d8ae88;
      }
    </style>
  </defs>
  <path id="shadow" class="st1" d="M101.26,158.53c-3.64,0-7.14.16-10.37.46-5.49-2.11-14.03-3.46-23.63-3.46-3.94,0-7.7.23-11.15.64-5.5-1.61-13.69-2.64-22.85-2.64-16.57,0-30,3.36-30,7.5s13.43,7.5,30,7.5c2.34,0,4.62-.07,6.81-.2,4.78,3.07,15.15,5.2,27.19,5.2,6.01,0,11.61-.53,16.3-1.45,4.96.91,11.08,1.45,17.7,1.45,16.57,0,30-3.36,30-7.5,0-4.14-13.43-7.5-30-7.5Z"/>
  <g id="body_w_shadows">
    <path class="st20" d="M25.5,71.2c-.07-6-.14-12-.2-18-.04-3.44-.08-6.91.6-10.28.57-2.84,1.74-5.73,4.05-7.47,2.59-1.96,6.05-2.12,9.29-2.35,4.37-.31,8.72-.87,13.02-1.7,4.73-.9,9.21-2.02,13.81-3.44,4.88-1.5,9.71-3.3,14.77-4.07s9.38-.42,13.81,2.15c5.6,3.25,7.63,11.14,8.23,17.62.39,4.25.45,8.53.17,12.78.54-.25.93-.51,1.37-.91,2.68-2.42,5.35-4.97,6.95-8.22.86-1.75,1.38-3.67,1.53-5.62.05-.66.05-1.32.06-1.97.04-3.89.07-7.78.11-11.66,0-.46.01-.93.12-1.38.36-1.48,1.96-2.54,3.45-2.28,1.58.27,2.67,1.73,3.34,3.19,1.04,2.26,1.46,4.79,1.22,7.27,3.05-.55,7.22.58,9.41,2.86,2.63,2.74,1.63,6.04.22,9.03-.33.71-.6,1.46-.78,2.22-.29,1.21-.38,2.46-.61,3.68-.23,1.22-.62,2.45-1.41,3.41-1.43,1.74-4.17,2.21-6.1,1.05-1.38,2.91-2.65,5.81-4.08,8.7-3.15,6.34-6.56,12.82-12.03,17.28-.42.34-.03,3.69-.03,4.3.01,1.64.05,3.28.1,4.91.1,2.92.02,5.84.22,8.76.44,6.45,2.92,12.67,4.77,18.83,3.13,10.45,7.35,21.22,8.27,32.17.35,4.16.01,8.28-2.99,11.54-3.89,4.23-10.33,4.28-15.57,3.42-4.31-.7-8.76-1.75-12.73-3.74-1.89-.95-3.79-2.1-5.31-3.59-1.23-1.21-2.47-3.13-4.42-3.02-4.46.27-8.93.39-13.39.37-3.75,0-7.52-.23-11.15-1.16-1.95-.5-3.85-1.19-5.66-2.08-.92.91-1.99,1.66-3.08,2.35-5.8,3.68-12.5,6.69-19.48,6.65-5.7-.03-15.42-3.01-16.28-9.85-.29-2.29.78-4.49,1.58-6.65.5-1.33.9-2.7,1.31-4.07,2.08-7,4.15-14,6.23-21-.64-4.04-.52-7.07-.18-10.49.22-2.19.75-4.35,1.33-6.47.07-.03-1.02.29-1.17.33-3.52.84-7.47.66-10.26-1.91-1.86-1.71-3.98-4.58-2.34-7.13.39-.61.98-1.09,1.64-1.38,1.35-.57,2.83-.46,4.21-.06.05-.43.06-.86.04-1.29-.16-3.59.82-7.13,3.02-9.97.03-.03.05-.07.08-.1,1.33-1.73,2.77-3.39,4.31-4.94.49-.5,1.01-1,1.64-1.52,1.79-1.5,3.4-3.3,4.97-5.1Z"/>
    <path class="st18" d="M118.36,36.89c1.57-3.88,1.01-8.95-1.39-12.38,1.99.47,3.42,2.26,4.05,4.22.63,1.96.58,4.06.52,6.12-.45.17-.9.3-1.33.52-.66.33-1.21.84-1.85,1.52Z"/>
    <path class="st18" d="M6.94,101.75c2.54.92,5.5.22,7.51-1.59s3.14-4.45,3.53-7.14c.22-1.53.23-3.09.54-4.61.38-1.83,1.2-3.54,2.1-5.19,1.29-2.36,2.86-4.6,4.95-6.28-.53,9.45-4.7,22.59-6.25,27.34-2.04,1.08-4.6,1.5-6.85,1s-4.13-1.69-5.53-3.53Z"/>
    <path class="st14" d="M32.66,48.04c.36-1.97,1.5-3.79,3.11-4.96,1.61-1.17,3.69-1.69,5.66-1.42-1-1.75-3.08-2.84-5.07-2.6-1.99.24-3.77,1.77-4.32,3.71-.47,1.68-.2,3.73.62,5.27Z"/>
    <path class="st5" d="M25.52,77.44c-1.59,6.25-3.18,12.5-4.77,18.75-.65,2.57-1.31,5.17-1.38,7.82,1.01-2.56,1.83-5.23,2.84-7.79.94-2.38,1.88-4.77,2.53-7.25.98-3.75,1.17-7.68.78-11.53Z"/>
    <path class="st18" d="M132.24,41.18c-.15-1.62-1.34-3.52-2.82-4.42.57,1.44.5,3.14.19,4.66-.31,1.52-.91,2.96-1.51,4.39-.34.82-.68,1.64-1.16,2.38-.74,1.14-1.79,2.05-2.94,2.75-1.7,1.03-3.64,1.64-5.62,1.84-.48,2.83-2.23,5.38-3.88,7.71-3.24,4.58-6.59,9.11-10.47,13.16-3.88,4.05-8.32,7.62-13.38,10.01.13,3.47-.31,6.95-1.05,10.38l-13.94-5.64s-11.01,6.9-7.51,7.91,8.79-.19,8.79-.19c1.65,2.91,5.4,6.58,9.71,8.45-.06.19-.12.38-.18.57-2.4,7.49-5.36,14.87-9.81,21.34-4.45,6.47-10.5,12.01-17.81,14.82-8.01,3.08-17.29,2.63-24.97-1.22s-13.4-10.28-15.78-18.56c-2.7,9.02-4.99,17.46-8,26.2-.62,1.8-1.32,3.64-1.22,5.54.14,2.55,1.73,4.86,3.8,6.34,2.07,1.48,4.57,2.21,7.08,2.64,9.92,1.68,20.53-1.44,27.98-8.23,3.4,2.64,8.19,2.81,12.48,2.98,5.96.23,11.94.21,17.9-.05,7.13,6.06,16.25,9.78,25.54,10.64,3.82.35,7.94.14,11.04-2.13,3.04-2.22,4.55-6.09,4.78-9.86.23-3.77-.65-7.51-1.57-11.18-3.08-12.33-6.58-24.55-10.49-36.63-2.6-8.02-1.45-16.75-1.34-25.18,2.96-1.54,5.08-5.32,7.02-8.04,3.75-5.27,6.18-10.25,8.82-17.4,1.54,1.06,4.99.94,6.52-1.41.85-1.31,1.09-2.75,1.2-3.92.11-1.14.35-2.27.7-3.36.49-1.51.69-2,1.06-2.99.48-1.55,1-2.68.85-4.3Z"/>
    <path class="st5" d="M47.39,154.28c-8-4.4-15.64-9.66-21.37-16.8,12.97,10.4,23.94,18.43,45.16,19.65-7.98-.02-17.34.69-23.79-2.85Z"/>
    <path class="st5" d="M78.32,157.2c-1.7-1.42-3.12-3.19-4.12-5.17,6.56,5.24,13.7,10.22,21.19,14.01-6.18-1.57-12.17-4.76-17.07-8.84Z"/>
    <path class="st5" d="M96.24,86.05c3.67-.67,7.12-2.74,10.03-5.09,2.39-1.93,6.07-6.11,8.08-8.21-1.86,3.12-5.44,8.14-8.4,10.22-2.97,2.09-6.1,3.16-9.71,3.08Z"/>
    <g id="eye_left">
      <path class="st9" d="M44.96,66.69c2.76-3.15,3.49-7.64,2.6-11.74-.42-1.94-1.36-3.87-3.01-4.96-1.81-1.2-4.27-1.17-6.21-.19s-3.38,2.79-4.2,4.81c-1.44,3.53-1.04,7.75,1.03,10.95,2.83-.21,7.22-.06,9.79,1.13Z"/>
      <path class="st6" d="M37.6,61.35c-.98-3.87.98-8.73,5.1-8.11,2.57.38,3.95,3.3,4.03,5.67.06,1.88-.54,3.84-1.92,5.1-1.93,1.78-4.83,1.49-6.36-.67-.42-.59-.66-1.28-.85-1.99Z"/>
      <path class="st9" d="M42.29,56.42c.21.78.08,1.78-.4,2.46-.62.88-1.98.94-2.54-.06-.25-.44-.27-.95-.2-1.44.08-.6.31-1.22.82-1.62.83-.65,2.01-.35,2.31.59,0,.02,0,.04.01.07Z"/>
    </g>
    <g id="eye_right">
      <path class="st9" d="M69.37,66.04c-2.68-1.75-3.83-5.69-4.02-6.88-.81-5.08,1.37-11.01,6.57-12.71,2.56-.84,5.57-.33,7.56,1.48,3.16,2.88,4.38,7.77,3.64,11.91-.12.67-.97,4.18-1.86,4.22-4.11.19-7.98.69-11.89,1.98Z"/>
      <path class="st6" d="M80.12,54.01c-.58-1.72-1.83-3.32-3.57-3.79-1.78-.48-3.74.34-4.93,1.76s-1.67,3.32-1.69,5.17c-.01,1.58.3,3.2,1.15,4.52,1.53,2.4,4.5,3.18,6.74,1.27,1.74-1.48,2.62-3.52,2.72-5.79.06-1.06-.08-2.13-.42-3.14Z"/>
      <path class="st9" d="M72.73,57.15c-.49-.27-.84-.79-.96-1.34-.13-.59-.02-1.22.24-1.77.19-.41.47-.78.86-1.01.69-.41,1.64-.25,2.22.31,1.48,1.46-.15,4.85-2.25,3.87-.05-.02-.08-.04-.11-.06Z"/>
    </g>
    <path id="moustache_shad1" class="st18" d="M70.64,69.55c-.51.02-.82.42-.82.84.18-.28.36-.4.82-.4.36,0,.73.27.73.91,0,.36-.14,1.48-1.68,1.48s-4.72-3.97-7.79-3.97-4.8,2.63-4.8,2.63c0,0-1.73-2.63-4.8-2.63s-6.25,3.97-7.79,3.97-1.68-1.11-1.68-1.48c0-.64.36-.91.73-.91.46,0,.64.12.82.4,0-.42-.31-.82-.82-.84-.86-.03-1.26.69-1.44,1.33-.26.94.03,2.09,2.12,3.22,2.09,1.13,3.81.89,5.38.51,1.69-.41,4.44-2,7.49-2s5.92,1.67,7.49,2,3.29.62,5.38-.51c2.09-1.13,2.22-2.26,2.12-3.22-.08-.74-.57-1.36-1.44-1.33Z"/>
    <g id="mouth">
      <path class="st14" d="M68.16,71.16c-6.46,3.71-14.36,4.78-21.57,2.93.76.35,1.27,1.08,1.71,1.79.81,1.29,1.54,2.68,1.78,4.19.22,1.51-.13,3.18-1.24,4.22,3.37-.1,6.54-.84,9.6-2.29,1.62-.77,3.15-1.71,4.53-2.87,2.42-2.05,4.12-4.96,5.2-7.97Z"/>
      <path class="st5" d="M53.38,82.27c2.67-4.12,7.35-6.87,12.23-7.19-2.88,4.06-7.29,6.65-12.23,7.19Z"/>
    </g>
    <path id="beret_shad1" class="st17" d="M103.13,56.45c-.09-2.64.04-5.22-.05-7.85-.11-3.32-.22-6.64-.84-9.9-.62-3.26-1.78-6.47-3.79-9.09-2.01-2.63-4.16-4.22-8.03-5.37,1.08,3.73,1.95,7.52,2.62,11.36l-12.49-9.64-24.47,5.31-22.8,2.45s.12,2.23,3.68,2.51c2.78.22,5.01-.51,8.21-1.56,3.2-1.05,5.21-1.68,9.35-.88h0c4.53,1.77,8.96,5.71,13.99,9.74,9.89,7.93,21.1,9.7,26.02,9.57-.02,3.74-.24,7.48-.72,11.18,3.19-2.51,5.86-5.74,9.31-7.84Z"/>
    <path id="palette_shad1" class="st18" d="M17.97,119.49c5.01,2.68,13.61,4.04,19.38,3.02,5.77-1.02,10.05-3.74,11.25-8.79s-3.95-11.48-3.95-11.48l-26.68,17.25Z"/>
    <path id="bandana_shad3" class="st18" d="M54.23,99.34c-3.45.49-8.14.82-11.84-.52s-6.94-8.38-6.94-8.38l20.98,4.05-2.19,4.85Z"/>
    <path id="bandana_shad2" class="st18" d="M83.33,84.85c2.92-1.19,4.26-4.11,5.28-6.18,1.48-3,4-11.7,6.05-14.39s-7.77,6.47-7.77,6.47l-10.23,13.91,6.67.19Z"/>
    <path id="bandana_shad1" class="st17" d="M66.74,95.77c2.65,1.35,5.68,1.13,10.2.36,0,0,2.68,5.26,9.71,8.45,3.45,1.54,6.09,1.26,8.95,1.95s3.99,1.8,3.99,1.8c0,0,.15-5.89-2.19-8.56s-18.72-9.24-18.72-9.24l-11.92,5.24Z"/>
  </g>
  <g id="paintbrush">
    <path class="st11" d="M110.97,62.93c.8-8.06,2.37-15.95,4.14-23.82,2.1-7.82,2.97-16.28,8.45-22.68.48-.53,1.3-.58,1.83-.1.21.19.35.43.4.69.48,2.2.48,4.28.34,6.32-.55,6.04-2.66,11.75-4.24,17.57-1.17,3.84-2.39,7.67-3.76,11.47-1.33,3.8-2.78,7.57-4.45,11.28-.63,1.45-2.9.85-2.72-.72h0Z"/>
    <path class="st2" d="M123.56,16.42c.48-.53,1.3-.58,1.83-.1.21.19.35.43.4.69.48,2.2.48,4.28.34,6.32-.09.98-.23,1.95-.39,2.92-1.21.12-2.28-.01-3.33-.27-1.37-.33-2.49-.95-3.39-1.62,1.07-2.85,2.47-5.54,4.54-7.95Z"/>
    <path class="st10" d="M125.89,17.77c.93-2.2,3.45-3.67,4.29-7.38.84-3.71.39-7.26-1.91-10.39,0,0,.93,3.48-3.47,7.3s-2.86,7.16-1.79,9.88h0c.83.6,1.88.81,2.88.58h0Z"/>
    <path class="st16" d="M124.7,17.84c-.28,3.6-1.12,10.6-3.44,17.4-2.32,6.8-7.51,26.95-8.68,27.9s-1.62-.22-1.62-.22c0,0-.29,1.09,1.17,1.55s2.18-2.25,2.18-2.25c0,0,4.85-11.78,7.26-20.16,2.41-8.38,5.71-17.79,4.31-24.29l-1.19.07Z"/>
    <path class="st0" d="M124.8,7.3c-.02,1.25-.48,1.65.7,2.11s1.38-1.31,2.49-1.64,2.62,0,2.57-1.13-.38-4.17-2.3-6.64c0,0,.17,2.9-1.19,4.74-1.64,2.22-2.28,2.56-2.28,2.56Z"/>
    <path class="st16" d="M124.7,17.84c.21-2.31-.41-3.44.65-5.22s2.31-1.73,3.46-3.95,1.36-5.28-.54-8.67c0,0,3.69,3.76,1.63,11.38-.46,2.34-3.6,4.85-4.01,6.38-.6.15-1.19.07-1.19.07Z"/>
  </g>
  <g id="beret">
    <path class="st12" d="M75.16,14.75c.67-2.32,2.26-4.61,3.3-5.93.5-.63.31-1.56-.41-1.93-1.53-.79-4.11-1.8-6.51-1.28-.6.13-1,.7-.98,1.31.08,1.81.41,5.71,1.69,8.36,1.72,3.55,2.91-.53,2.91-.53Z"/>
    <path class="st3" d="M73.84,15.71c-.12-2.86,3.22-7.27,3.22-7.87s-.24-1.59-1.1-1.84,3.07.34,2.77,1.95-1.77,2.75-2.44,4.12-1.13,2.67-1.13,2.67l-1.32.96Z"/>
    <path class="st12" d="M71.27,13.58c-4.56-1.79-9.43-2.71-14.32-2.61-13.97.29-21.4,10.09-24.46,13.98-1.81,2.31-2.82,6.77.21,8.55,2.99,1.59,13.56-1.02,17.49-.95,3.38-.01,6.31.98,9.04,2.59,7.74,4.8,17.14,11.64,27.43,13.34,11.54,1.67,22.69-.22,18.81-9.56-.87-2.08-2.23-4.04-3.52-6.53-3.79-7.36-11.37-14.71-23.64-16.81-2.41-.41-4.77-1.11-7.04-2h0Z"/>
    <path class="st21" d="M52.88,11.34c7.47-1.53,15.9-.66,22.37,3.62,3.63,2.66,7.23,5.02,11.69,6.23-1.53.22-3.12.03-4.63-.34-3-.71-5.79-2.36-8.25-4.19-6.15-4.1-13.87-5.21-21.19-5.31h0Z"/>
    <path class="st3" d="M106.56,38.69c3.88,9.34-5.83,12.86-19.9,9.79-10.18-2.22-19.68-8.54-27.43-13.34-2.74-1.62-5.66-2.6-9.04-2.59-3.94-.08-12.76,3.44-17.49.95-2.33-1.37-1.99-4.19-1.82-4.86-.68,3.48,1.51,7.87,18.3,3.15,5.86-1.65,10.3-4.68,19.44,1.14s21.15,9.07,28.54,6.3c7.39-2.76,4.22-7.96,4.22-7.96,1.28,2.49,4.3,5.34,5.17,7.42Z"/>
  </g>
  <g id="right_hand">
    <path id="right_hand1" data-name="right_hand" class="st20" d="M117.71,53.06l-.13-1.2c-.13-1.19-.14-2.39.07-3.57.18-1.02.25-2.92-.34-6.3-1.05-6,3.88-7.13,3.88-7.13,2.57-.46,5.93.27,8.24,1.87l-11.72,16.32"/>
    <path class="st5" d="M120.35,55.9c-1.2-1.28-1.93-3.7-2.09-5.42-.13-1.44.25-2.88.23-4.33-.01-1.36-.37-2.69-.62-4.03s-.22-3.66.18-4.96c-.81.76-1.32,2.86-1.33,3.97-.02,1.11.21,2.21.27,3.32.08,1.38-.11,2.76-.15,4.15-.05,1.38.05,2.81.65,4.06.6,1.25,1.28,2.24,2.86,3.24Z"/>
  </g>
  <g id="bandana">
    <path class="st18" d="M67.01,94.26c1.65,4.71,2.74,6.12,1.51,10.83-1.23,4.71-6.13,7.25-7.48,11.17,0,0-9.05-6.71-7.31-14.53,1.74-7.82,9.56-11.56,9.56-11.56l3.72,4.08Z"/>
    <path class="st0" d="M75.97,91.88s4.83,9.22,11.74,9.88,9.06-1.79,12.57.8c0,0-2.76-14.43-9.64-16.69-6.87-2.26-14.62-1.53-17.31-.43s2.64,6.44,2.64,6.44Z"/>
    <path class="st0" d="M67.52,94.3c.79,4.92,1.62,6.51-.42,10.93-2.04,4.42-7.31,6.06-9.33,9.68,0,0-7.73-8.2-4.64-15.59,3.09-7.39,11.44-9.69,11.44-9.69l2.94,4.67Z"/>
    <path class="st4" d="M76.05,87.6c5.54-1.18,11.91.24,16.01,4.24-4.98-2.82-10.33-3.99-16.01-4.24h0Z"/>
    <path class="st0" d="M74.88,85.46c.28-1.13.7-2.22,1.26-3.24,2.3-4.22,6.6-9.06,11.34-14.43,5.38-6.09,10.48-9.4,15.65-11.33,0,0-9.84,8.4-14.12,19.09s-14.12,9.91-14.12,9.91h0Z"/>
    <path class="st17" d="M74.88,85.46c5.13-2.85,7.34-3.35,10.35-6.43s4.83-10.47,11.28-15.67c0,0-4.37,5.29-6.47,9.85s-2.83,7.21-6.71,9.73-9.07,3.12-9.07,3.12l.63-.6Z"/>
    <path class="st4" d="M66.23,90.45c-4.36,3.91-9.19,8-9.8,14.22-1.35-6.44,4.4-11.89,9.8-14.22h0Z"/>
    <path class="st0" d="M65.11,86.16c1.85-1.74,4.7-2.61,6.3-2.98.76-.18,1.54.01,2.13.52,1.49,1.27,4.31,3.97,5.12,6.83.31,1.09-.18,2.23-1.16,2.79-2.01,1.16-5.92,3.09-9.35,2.99-.98-.03-1.82-.7-2.15-1.61-.64-1.73-1.6-4.72-1.56-6.92.01-.61.24-1.21.68-1.62Z"/>
    <path class="st17" d="M74.77,91.31c-.58,1.81-2.98,3.73-5.85,4.97,3.23-.18,6.71-1.89,8.57-2.96.98-.56,1.47-1.71,1.16-2.79-.7-2.48-2.91-4.83-4.45-6.24h-.03c1.32,1.68,1.18,5.21.6,7.03Z"/>
    <path class="st17" d="M93.36,87.53c.06.06,1.49,1.66,2.22,3.36.74,1.74,1.54,6.03,1.54,6.03-2.35-.15-4.64,1.19-8.12,1.31s-8.18-1.56-12.07-4.75c1.73,2.67,5.68,7.79,10.78,8.28,6.92.66,9.06-1.79,12.57.8,0,0-2.03-10.57-6.92-15.03Z"/>
    <path class="st17" d="M67.1,105.22c2.19-3.79.94-5.9,1.14-6.69-1.05,4.68-5.18,8.38-7.11,9.6-1.08.69-3.76,2.96-3.76,2.96,0,0-2.84-2.34-4.59-5.14,1.21,5.14,4.99,8.94,4.99,8.94,2.01-3.62,6.89-5.46,9.33-9.68Z"/>
    <path class="st0" d="M67.89,88.95c-4.95,1.9-16.51,5.21-26.46-1.09-7.62-4.82-13.87-14.14-15.96-17.47-1.14,1.43.03,2.81.03,2.81,0,0,5.23,16.27,12.93,21.43,9.11,6.1,20.03,1.42,25.93-1.04,5.46-2.27,3.52-4.65,3.52-4.65Z"/>
    <path class="st17" d="M29.36,82.56c3.67,5.06,6.71,8.94,10.45,10.91s11.03,2.48,15.56,1.57,5.23-1.3,5.23-1.3l-5.47,3.08s-6.68,2.14-13.96-.54-11.81-13.72-11.81-13.72Z"/>
  </g>
  <g id="palette">
    <g>
      <path class="st7" d="M9.43,92.23c-11.7,1.7-10.8,19.64,2,24.88,18.03,7.39,32.87.21,35.6-7.43,4.45-12.44-13.35-20.32-24.27-14.18-11.42,6.42-.47-5.15-13.34-3.28Z"/>
      <path class="st22" d="M9.43,91.51c-11.7,1.7-10.8,19.64,2,24.88,18.03,7.39,32.87.21,35.6-7.43,4.45-12.44-13.35-20.32-24.27-14.18-11.42,6.42-.47-5.15-13.34-3.28Z"/>
      <path class="st24" d="M14.73,109.28c1.5,1.47,1.59,3.29.2,4.08-1.39.78-3.73.23-5.22-1.23-1.5-1.47-1.59-3.29-.2-4.08,1.39-.78,3.73-.23,5.22,1.23Z"/>
      <path class="st15" d="M25.86,111.65c2.02,1.13,2.17,2.83.34,3.79-1.84.96-4.97.82-6.99-.31-2.02-1.13-2.17-2.83-.34-3.79,1.84-.96,4.97-.82,6.99.31Z"/>
      <path class="st0" d="M36.97,109.17c1.89,1.23,2.1,3.37.47,4.77-1.63,1.4-4.47,1.53-6.36.3-1.89-1.23-2.1-3.37-.47-4.77,1.63-1.4,4.48-1.53,6.36-.3Z"/>
      <path class="st19" d="M40.04,103.08c1.38-.77,3-.17,3.62,1.33.62,1.5.01,3.34-1.36,4.11-1.38.77-3,.17-3.62-1.33-.62-1.5-.01-3.34,1.36-4.11Z"/>
      <path class="st13" d="M37.9,96.05c1.89.83,2.97,2.62,2.4,3.99-.56,1.37-2.55,1.8-4.44.97-1.89-.83-2.97-2.62-2.4-3.99.56-1.37,2.55-1.8,4.44-.97Z"/>
    </g>
    <path class="st8" d="M9.37,109.59c0,.34.25.43.6.29.47-.24,1.04-.53,1.58-.68,1.52-.55-.15-1.19-.95-.94-.56.06-1.1.57-1.21,1.16l-.02.17Z"/>
    <path class="st8" d="M39.81,104.11c0,.22.2.28.48.19.38-.15.83-.34,1.27-.44,1.22-.35-.12-.77-.76-.61-.45.04-.88.37-.97.75v.11Z"/>
    <path class="st8" d="M34.03,97.23c0,.27.25.35.61.23.47-.19,1.04-.42,1.59-.55,1.53-.44-.15-.95-.96-.75-.56.05-1.11.46-1.22.92l-.02.14Z"/>
    <path class="st9" d="M18.91,112.66c0,.34.39.42.9.26.69-.26,1.51-.58,2.31-.76,2.23-.62-.27-1.18-1.44-.89-.82.09-1.6.63-1.75,1.22l-.02.18Z"/>
    <path class="st8" d="M31.02,110.82c.06.34.45.36.93.12.64-.36,1.4-.81,2.16-1.11,2.1-.96-.45-1.13-1.56-.66-.79.21-1.48.87-1.54,1.47v.18Z"/>
  </g>
  <g id="thumb">
    <path class="st25" d="M6.34,101.7c.33,1.12,1.66,2.8,4.16,2.83s3.79-.52,4.7-1.42c1.77-1.75,1.42-4.38.55-5.71-4.18-6.41-9.41,4.29-9.41,4.29Z"/>
    <g>
      <path class="st20" d="M8.62,94.77c-3.42,2-4.01,7.35.33,8.62,2.57.7,5.13-1.76,6.36-4.23.59-1.19.39-2.68-.58-3.59-1.54-1.44-4.19-1.9-5.94-.89l-.16.09Z"/>
      <path class="st18" d="M15.3,96.35c-.18,2.18-.9,3.28-2.8,4.32-1.19.65-2.76.62-3.65.42-1.52-.34-2.5-.54-2.99-1.56.09,1,.08,3.65,3.41,3.93,4.25.35,5.47-1.78,5.88-2.55,1.48-2.75.14-4.57.14-4.57Z"/>
    </g>
  </g>
  <g id="moustache">
    <path class="st6" d="M70.26,68.28c-.52.02-.83.43-.83.86.19-.29.36-.41.83-.41.37,0,.74.28.74.93,0,.37-.14,1.51-1.72,1.51s-4.82-4.06-7.96-4.06-4.91,2.67-4.91,2.67c0,0-1.77-2.67-4.91-2.67s-6.39,4.06-7.96,4.06-1.71-1.14-1.71-1.51c0-.65.37-.93.74-.93.47,0,.65.12.83.41,0-.43-.32-.84-.83-.86-.88-.03-1.37.67-1.47,1.36-.14.98.03,2.13,2.16,3.29,2.13,1.16,3.89.91,5.49.52,1.73-.42,4.53-2.04,7.66-2.04s6.04,1.7,7.66,2.04,3.36.63,5.49-.52c2.13-1.16,2.31-2.31,2.16-3.29-.11-.75-.59-1.39-1.47-1.36Z"/>
    <g>
      <path class="st23" d="M51.51,67.11c-1.45,0-2.92.87-4.24,1.8.5-.11,2.39-1.06,4.57-.94,2.43.13,4.54,1.78,4.57,1.81-.05-.07-1.8-2.66-4.9-2.66Z"/>
      <path class="st23" d="M61.32,67.11c-3.13,0-4.89,2.64-4.91,2.67h0c1.78-.9,3.77-1.73,5.48-1.37,1.71.36,3.82,2.02,5.25,2.56.54.2,1.72.42,2.41.18h0c-.08,0-.18.02-.27.02-1.69-.09-4.82-4.06-7.96-4.06Z"/>
    </g>
  </g>
</svg>