<?xml version="1.0" encoding="UTF-8"?>
<svg id="Layer_1" xmlns="http://www.w3.org/2000/svg" xmlns:xlink="http://www.w3.org/1999/xlink" version="1.1" viewBox="0 0 530.23 512.51">
  <!-- Generator: Adobe Illustrator 29.3.1, SVG Export Plug-In . SVG Version: 2.1.0 Build 151)  -->
  <defs>
    <style>
      .st0, .st1 {
        fill: none;
      }

      .st2 {
        fill: #788a5a;
      }

      .st3 {
        fill: #f7b600;
      }

      .st4 {
        fill: #769fa6;
      }

      .st5 {
        fill: #3a200a;
      }

      .st6 {
        fill: #9c6262;
      }

      .st7 {
        fill: #d27888;
      }

      .st8 {
        fill: #d29693;
      }

      .st1 {
        stroke: #c6c6c6;
        stroke-miterlimit: 10;
      }

      .st9 {
        fill: #994500;
      }

      .st10 {
        fill: #fff;
      }

      .st11 {
        opacity: .2;
      }

      .st12 {
        opacity: .1;
      }

      .st13 {
        fill: #f7f7f7;
      }

      .st14 {
        fill: #282828;
      }

      .st15 {
        fill: #ffd110;
      }

      .st16 {
        fill: #6b6b6b;
      }

      .st17 {
        fill: #b96575;
      }

      .st18 {
        fill: #ff7b00;
      }

      .st19 {
        fill: #b8cbcd;
      }

      .st20 {
        clip-path: url(#clippath);
      }

      .st21 {
        fill: #a3bf7f;
      }
    </style>
    <clipPath id="clippath">
      <path class="st0" d="M210.87,116.82v-32.11s-.31-27.17,8.95-33.04,36.44,1.85,67.01,1.85,54.96-8.03,63.61-2.16c8.65,5.87,8.95,30.26,8.95,30.26l2.47,58.05s7.1,16.98,18.22,33.97c11.12,16.98,26.25,33.66,19.14,41.69-6.48,6.48-12.97,3.09-12.97,3.09,0,0,8.03,6.48,8.95,14.2.93,7.72-4.32,24.7-11.73,33.66s-17.29,16.67-35.2,15.13-21.61-16.67-21.61-16.67c0,0-16.37,8.65-45.7,8.65s-47.55-9.26-47.55-9.26c0,0-5.87,10.19-22.54,10.19s-25.57-4.3-33.29-10.78-25.07-26.58-17.66-36.77c7.41-10.19,31.19-25.32,43.54-29.95l4.32-31.39s-18.22-2.89-35.2-29.44c-16.98-26.56-10.5-49.41-10.5-49.41,0,0,3.71-11.73,11.12-11.73s14.82,14.2,19.14,20.38,11.43,21,18.53,21.61Z"/>
    </clipPath>
  </defs>
  <g id="book_stack">
    <path class="st11" d="M12.89,502.31l-11.64,5.91c-2.13,1.08-1.36,4.29,1.03,4.29h522.33c2.3,0,3.14-3.03,1.17-4.22l-15.54-9.32c-.36-.22-.77-.33-1.19-.32l-495.15,3.42c-.35,0-.69.09-1.01.25Z"/>
    <g>
      <polygon class="st13" points="17.05 457.33 17.05 497.95 504.89 497.95 504.89 457.64 17.05 457.33"/>
      <polygon class="st8" points="67.52 428.27 461.76 428.27 507.18 452.24 13.41 452.24 67.52 428.27"/>
      <path class="st6" d="M505.73,452.24H14.86c-2.49,0-4.5,1.36-4.5,3.84h0c0,1.65,1.34,3.65,2.99,3.65h485.71c1.93,0,3.5,1.57,3.5,3.5v29.25c0,1.93-1.57,3.5-3.5,3.5H13.35c-1.65,0-2.96,1.76-2.96,3.41h0c0,2.49,1.99,4.08,4.48,4.08h490.87c2.49,0,4.5-2.02,4.5-4.5v-42.22c0-2.49-2.02-4.5-4.5-4.5Z"/>
      <line class="st1" x1="17.05" y1="463.22" x2="502.55" y2="463.22"/>
      <line class="st1" x1="17.05" y1="466.22" x2="502.55" y2="466.22"/>
      <line class="st1" x1="17.05" y1="469.22" x2="502.55" y2="469.22"/>
      <line class="st1" x1="17.05" y1="472.22" x2="502.55" y2="472.22"/>
      <line class="st1" x1="17.05" y1="475.22" x2="502.55" y2="475.22"/>
      <line class="st1" x1="17.05" y1="478.22" x2="502.55" y2="478.22"/>
      <line class="st1" x1="17.05" y1="481.22" x2="502.55" y2="481.22"/>
      <line class="st1" x1="17.05" y1="484.22" x2="502.55" y2="484.22"/>
      <line class="st1" x1="17.05" y1="487.22" x2="502.55" y2="487.22"/>
      <line class="st1" x1="17.05" y1="490.22" x2="502.55" y2="490.22"/>
      <path class="st11" d="M499.51,495.93v.12s0-32.84,0-32.84c0-.27-.22-.48-.48-.48H17.05v-3h481.98c1.92,0,3.48,1.56,3.48,3.48l.04,29.42c0,1.66-1.61,3.31-3.04,3.31Z"/>
    </g>
    <path class="st11" d="M55.58,439.67l-11.64,5.91c-2.13,1.08-1.36,4.29,1.03,4.29h457.76l-25.95-13.54c-.36-.22-.77-.33-1.19-.32l-419.01,3.42c-.35,0-.69.09-1.01.25Z"/>
    <g>
      <polygon class="st13" points="57.05 398.37 57.05 439 524.89 439 524.89 398.69 57.05 398.37"/>
      <polygon class="st19" points="107.52 369.31 481.76 369.31 527.18 393.29 53.41 393.29 107.52 369.31"/>
      <path class="st4" d="M525.73,393.29H54.86c-2.49,0-4.5,1.36-4.5,3.84h0c0,1.65,1.34,3.65,2.99,3.65h465.71c1.93,0,3.5,1.57,3.5,3.5v29.25c0,1.93-1.57,3.5-3.5,3.5H53.35c-1.65,0-2.96,1.76-2.96,3.41h0c0,2.49,1.99,4.08,4.48,4.08h470.87c2.49,0,4.5-2.02,4.5-4.5v-42.22c0-2.49-2.02-4.5-4.5-4.5Z"/>
      <line class="st1" x1="57.05" y1="404.27" x2="522.55" y2="404.27"/>
      <line class="st1" x1="57.05" y1="407.27" x2="522.55" y2="407.27"/>
      <line class="st1" x1="57.05" y1="410.27" x2="522.55" y2="410.27"/>
      <line class="st1" x1="57.05" y1="413.27" x2="522.55" y2="413.27"/>
      <line class="st1" x1="57.05" y1="416.27" x2="522.55" y2="416.27"/>
      <line class="st1" x1="57.05" y1="419.27" x2="522.55" y2="419.27"/>
      <line class="st1" x1="57.05" y1="422.27" x2="522.55" y2="422.27"/>
      <line class="st1" x1="57.05" y1="425.27" x2="522.55" y2="425.27"/>
      <line class="st1" x1="57.05" y1="428.27" x2="522.55" y2="428.27"/>
      <line class="st1" x1="57.05" y1="431.27" x2="522.55" y2="431.27"/>
      <path class="st11" d="M519.51,436.97v.12s0-32.84,0-32.84c0-.27-.22-.48-.48-.48H57.05v-3h461.98c1.92,0,3.48,1.56,3.48,3.48l.04,29.42c0,1.66-1.61,3.31-3.04,3.31Z"/>
    </g>
    <path class="st11" d="M83.58,379.67l-22.11,10.2h449.82c2.3,0,3.14-3.03,1.17-4.22l-15.54-9.32c-.36-.22-.77-.33-1.19-.32l-411.15,3.42c-.35,0-.69.09-1.01.25Z"/>
    <g>
      <polygon class="st13" points="37.05 340.41 37.05 381.04 504.89 381.04 504.89 340.73 37.05 340.41"/>
      <polygon class="st21" points="87.52 311.35 461.76 311.35 507.18 335.33 33.41 335.33 87.52 311.35"/>
      <path class="st2" d="M505.73,335.33H34.86c-2.49,0-4.5,1.36-4.5,3.84h0c0,1.65,1.34,3.65,2.99,3.65h465.71c1.93,0,3.5,1.57,3.5,3.5v29.25c0,1.93-1.57,3.5-3.5,3.5H33.35c-1.65,0-2.96,1.76-2.96,3.41h0c0,2.49,1.99,4.08,4.48,4.08h470.87c2.49,0,4.5-2.02,4.5-4.5v-42.22c0-2.49-2.02-4.5-4.5-4.5Z"/>
      <line class="st1" x1="37.05" y1="346.31" x2="502.55" y2="346.31"/>
      <line class="st1" x1="37.05" y1="349.31" x2="502.55" y2="349.31"/>
      <line class="st1" x1="37.05" y1="352.31" x2="502.55" y2="352.31"/>
      <line class="st1" x1="37.05" y1="355.31" x2="502.55" y2="355.31"/>
      <line class="st1" x1="37.05" y1="358.31" x2="502.55" y2="358.31"/>
      <line class="st1" x1="37.05" y1="361.31" x2="502.55" y2="361.31"/>
      <line class="st1" x1="37.05" y1="364.31" x2="502.55" y2="364.31"/>
      <line class="st1" x1="37.05" y1="367.31" x2="502.55" y2="367.31"/>
      <line class="st1" x1="37.05" y1="370.31" x2="502.55" y2="370.31"/>
      <line class="st1" x1="37.05" y1="373.31" x2="502.55" y2="373.31"/>
      <path class="st11" d="M499.51,379.02v.12s0-32.84,0-32.84c0-.27-.22-.48-.48-.48H37.05v-3h461.98c1.92,0,3.48,1.56,3.48,3.48l.04,29.42c0,1.66-1.61,3.31-3.04,3.31Z"/>
    </g>
    <path class="st11" d="M86.58,321.67l-11.64,5.91c-2.13,1.08-1.36,4.29,1.03,4.29h401.33c2.3,0,3.14-3.03,1.17-4.22l-15.54-9.32c-.36-.22-.77-.33-1.19-.32l-374.15,3.42c-.35,0-.69.09-1.01.25Z"/>
    <g>
      <polygon class="st13" points="87.05 280.8 87.05 321.43 454.89 321.43 454.89 281.12 87.05 280.8"/>
      <polygon class="st7" points="137.52 251.75 411.76 251.75 457.18 275.72 83.41 275.72 137.52 251.75"/>
      <path class="st17" d="M455.73,275.72H84.86c-2.49,0-4.5,1.36-4.5,3.84h0c0,1.65,1.34,3.65,2.99,3.65h365.71c1.93,0,3.5,1.57,3.5,3.5v29.25c0,1.93-1.57,3.5-3.5,3.5H83.35c-1.65,0-2.96,1.76-2.96,3.41h0c0,2.49,1.99,4.08,4.48,4.08h370.87c2.49,0,4.5-2.02,4.5-4.5v-42.22c0-2.49-2.02-4.5-4.5-4.5Z"/>
      <line class="st1" x1="87.05" y1="286.7" x2="452.55" y2="286.7"/>
      <line class="st1" x1="87.05" y1="289.7" x2="452.55" y2="289.7"/>
      <line class="st1" x1="87.05" y1="292.7" x2="452.55" y2="292.7"/>
      <line class="st1" x1="87.05" y1="295.7" x2="452.55" y2="295.7"/>
      <line class="st1" x1="87.05" y1="298.7" x2="452.55" y2="298.7"/>
      <line class="st1" x1="87.05" y1="301.7" x2="452.55" y2="301.7"/>
      <line class="st1" x1="87.05" y1="304.7" x2="452.55" y2="304.7"/>
      <line class="st1" x1="87.05" y1="307.7" x2="452.55" y2="307.7"/>
      <line class="st1" x1="87.05" y1="310.7" x2="452.55" y2="310.7"/>
      <line class="st1" x1="87.05" y1="313.7" x2="452.55" y2="313.7"/>
      <path class="st11" d="M449.51,319.41v.12s0-32.84,0-32.84c0-.27-.22-.48-.48-.48H87.05v-3h361.98c1.92,0,3.48,1.56,3.48,3.48l.04,29.42c0,1.66-1.61,3.31-3.04,3.31Z"/>
    </g>
  </g>
  <path id="shadow" class="st12" d="M201.29,270.2s14.33,56.75,146.08,56.75c17.38,0,39-.4,53.3-12.56,14.62-12.43,14.31-36.9,3.07-51.62-4.61-6.04-10.84-10.53-17.48-13.81-35.75-17.67-184.97,21.25-184.97,21.25Z"/>
  <g id="grad_cap">
    <path class="st14" d="M364.36,32.31L304.53,1.05c-1.98-1.03-4.26-1.31-6.43-.79l-78.61,19.05c-2.54.62-2.75,4.14-.31,5.06l39.68,14.9c-6.15,5.73-5.4,12.19-5.4,12.19l32.19,7.91,38.97-7.91s-.42-5.74-5.47-11.2l44.42-3.97c2.1-.19,2.66-3,.79-3.98Z"/>
    <path class="st16" d="M225.59,20.38S295.15,3.61,295.15,3.61c.74-.16,2.55-.63,3.26-.79,1.63-.51,3.46-.35,4.95.51.32.15,1.16.61,1.49.77,14.38,7.46,40.96,21.27,55.57,28.85-15.15-6.83-42.22-19.04-57.08-25.74-.55-.24-1.4-.65-1.95-.87-.72-.27-1.49-.16-2.22,0-.71.13-2.56.49-3.29.63,0,0-70.29,13.4-70.29,13.4h0Z"/>
    <path class="st15" d="M389.42,70.54c-1.29-.45-7.01-2.57-9.13-2.94-1.27-.22-2.38-.52-3.35-.76,0-.11.03-.22.03-.34,0-2.23-1.81-4.03-4.03-4.03-1.37,0-2.57.68-3.3,1.72-1.45-.58-5.31-3.03-5.4-12.68-.12-11.9,1.55-24.4-6.55-29.28-8.09-4.88-19.12-3.4-19.12-3.4l2.98,1.57c5.36,0,9.57,1.18,12.69,3.38,4.4,3.1,5.24,7.97,4.17,24.4-.99,15.16,8.96,17.95,10.51,18.29,0,.01,0,.03,0,.04,0,2.23,1.81,4.03,4.03,4.03.34,3.61,4.58,13.2,8.18,12.83,3.6-.37,2.86-2.03,3.87-3.04,1.01-1.01,3.23-3.23,3.69-4.89.46-1.66,2.03-4.45.74-4.9Z"/>
    <path class="st16" d="M260.93,38.23c4.46-2.04,8.9-4,13.66-5.45,11.93-3.51,25.21-3.12,36.48,2.38,2.22,1.08,4.4,2.27,6.36,3.76-6.95-2.27-13.81-4.04-20.99-4.73-7.06-.5-14.26-.21-21.24,1.08-4.69.89-9.42,2.2-14.27,2.96h0Z"/>
    <g>
      <path class="st3" d="M389.28,73.76l-13.53-5.05,11.56,9.07c.62-.79,1.16-1.62,1.36-2.34.14-.49.37-1.08.6-1.68Z"/>
      <path class="st3" d="M381.87,83.26c1.47-.28,2.3-.9,2.75-2.41l-9.85-11.36,7.1,13.77Z"/>
    </g>
  </g>
  <g id="body">
    <path class="st18" d="M210.87,116.82v-32.11s-.31-27.17,8.95-33.04,36.44,1.85,67.01,1.85,54.96-8.03,63.61-2.16c8.65,5.87,8.95,30.26,8.95,30.26l2.47,58.05s7.1,16.98,18.22,33.97c11.12,16.98,26.25,33.66,19.14,41.69-6.48,6.48-12.97,3.09-12.97,3.09,0,0,8.03,6.48,8.95,14.2.93,7.72-4.32,24.7-11.73,33.66s-17.29,16.67-35.2,15.13-21.61-16.67-21.61-16.67c0,0-16.37,8.65-45.7,8.65s-47.55-9.26-47.55-9.26c0,0-5.87,10.19-22.54,10.19s-25.57-4.3-33.29-10.78-25.07-26.58-17.66-36.77c7.41-10.19,31.19-25.32,43.54-29.95l4.32-31.39s-18.22-2.89-35.2-29.44c-16.98-26.56-10.5-49.41-10.5-49.41,0,0,3.71-11.73,11.12-11.73s14.82,14.2,19.14,20.38,11.43,21,18.53,21.61Z"/>
    <g class="st20">
      <path class="st12" d="M354.46,53.21c1.54,15.13,1.24,35.2,0,56.2-1.24,21-5.25,64.84-14.82,81.21-9.57,16.37-38.29,44.77-75.96,42.92,0,0-18.53,0-32.73-5.87,0,0-7.1,22.23-16.98,23.47,0,0-8.65-12.35-18.53-18.53-9.88-6.18-26.56-8.03-32.42-6.79-5.87,1.24-18.53,6.18-18.53,6.18l5.25,47.86,174.15,1.74,2.78-16.87s-9.57-16.67,7.72-40.45c17.29-23.78,14.51-17.91,14.51-17.91,0,0,22.54,14.2,21.92,30.88,0,0-20.38,10.34-23.47,44.16l42.3,30.42,21.61-76.89-24.7-16.37s-9.57-1.85-13.59-56.51l.93-108.85h-19.45Z"/>
      <path class="st12" d="M206.92,171.71s1.62-18.27,2.11-28.89c0,0-38.3-15.46-48.06-41.51s-23.77,40.25-23.77,40.25l69.72,30.15Z"/>
    </g>
  </g>
  <g id="face">
    <g id="mouth">
      <path class="st9" d="M256.27,141.56c9.92,7.22,21.27,11.45,33.52,11.05,4-.11,8.08-.55,12.45-1.07-13.77,12.32-38.25,6.47-45.97-9.98h0Z"/>
    </g>
    <g id="eyebrows">
      <path class="st9" d="M234.67,89.38c-2.5-6.22-.22-14.11,5.96-17.67,6.26-3.56,13.87-2.34,18.04,3.69-4.64-.54-7.87-1.34-11.83.09-6.5,1.69-9.83,7.59-12.17,13.88h0Z"/>
      <path class="st9" d="M336.22,89.38c-2.33-6.29-5.68-12.19-12.17-13.88-3.96-1.44-7.19-.64-11.83-.09,4.18-6.03,11.77-7.25,18.04-3.69,6.18,3.56,8.46,11.44,5.96,17.67h0Z"/>
    </g>
    <g id="eyes">
      <g>
        <path class="st10" d="M241.38,115.89c6.43,1.79,12.03,5.11,16.5,9.44,6.54-1.56,12.06-6.53,14-13.46,2.83-10.16-3.11-20.7-13.28-23.54s-20.7,3.11-23.54,13.28c-1.28,4.58-.77,9.22,1.1,13.21,1.74.24,3.48.58,5.22,1.07Z"/>
        <circle class="st5" cx="256.05" cy="108.27" r="11.25"/>
        <circle class="st10" cx="252.27" cy="104.15" r="3.84"/>
      </g>
      <g>
        <path class="st10" d="M313.61,125.25c5.69-6.15,13.26-10.32,21.51-11.82.23-.58.42-1.18.6-1.8,2.83-10.16-3.11-20.7-13.28-23.54-10.16-2.83-20.7,3.11-23.54,13.28-2.83,10.16,3.11,20.7,13.28,23.54.48.13.95.24,1.43.33h0Z"/>
        <circle class="st5" cx="314.59" cy="108.37" r="11.27"/>
        <circle class="st10" cx="310.8" cy="104.25" r="3.84"/>
      </g>
    </g>
  </g>
  <g id="accent_lines">
    <path class="st9" d="M160.03,226.58c3-1.47,6.51-1.47,9.79-1.59,3.33,0,6.68.32,9.97.97,6.6,1.28,13.07,3.95,18.41,8.1,5.21,4.03,10.47,8.38,14.22,14.1,3.73,5.64,5.36,12.3,6.21,18.88-2-6.27-4.18-12.52-8.05-17.6-3.91-5.12-9-9.19-14.14-13.07-2.52-1.97-5.23-3.59-8.13-4.92-5.82-2.72-12.17-4.3-18.56-5.01-3.2-.27-6.57-.71-9.71.14h0Z"/>
    <path class="st9" d="M395.01,231.39c-12.55.41-24.98,6.05-32.9,15.85-3.99,4.86-7.89,9.88-10.48,15.62-2.55,5.7-3.54,12.06-4.27,18.46-.49-6.4-.16-13.06,2.14-19.31,2.26-6.21,6.26-11.55,10.35-16.62,2.14-2.53,4.54-4.87,7.23-6.82,7.93-5.77,18.19-8.63,27.91-7.17h0Z"/>
    <path class="st9" d="M235.76,237.44c5.01,10.29,3.81,25.77-7.18,31.63,1.01-1.06,1.93-2.13,2.73-3.28,5.81-8.34,4.92-18.69,4.45-28.35h0Z"/>
    <path class="st9" d="M327.09,237.3c-1.15,10.44-2.25,21.16,1.75,31.12.56,1.4,1.23,2.76,1.97,4.13-1.12-1.07-2.13-2.28-2.99-3.6-5.82-9.39-5.74-21.94-.73-31.65h0Z"/>
    <path class="st9" d="M234.08,264.18c14.59,6.06,30.4,6.54,45.95,6.71,15.63.11,31.09-2.07,46.26-5.98-3.56,1.72-7.3,3.03-11.07,4.22-11.37,3.48-23.32,5.18-35.21,5.04-15.62-.29-32.34-1.53-45.93-10h0Z"/>
    <path class="st9" d="M362.93,162.02c3.19,13.17,5.06,26.68,5.05,40.24-4.82-.91-9.57-.37-14.19,1.23.83-.99,1.95-1.7,3.12-2.22,3.48-1.5,8.07-1.59,11.06.99-.91-3.27-1.61-6.61-2.19-9.94-1.69-10.02-2.85-20.12-2.85-30.3h0Z"/>
    <path class="st9" d="M203.46,196.79c4.66-.27,10.49,2.27,12.52,6.65-3.97-2.82-8.32-4.12-12.52-6.65h0Z"/>
    <path class="st9" d="M210.87,116.54c.5,11.9-.36,23.83-2.4,35.56-.45-11.89.31-23.84,2.4-35.56h0Z"/>
    <path class="st9" d="M258.67,55.71c14.82-4.45,38.84-4.91,53.55,0-17.89-.97-35.66-.62-53.55,0h0Z"/>
    <path class="st9" d="M367.97,202.26c7.51,3.39,13.9,9.2,18.29,16.15-2.88-2.12-6.59-5.52-9.33-7.87-3.05-2.71-6.11-5.32-8.96-8.28h0Z"/>
  </g>
</svg>