<?xml version="1.0" encoding="UTF-8"?>
<svg xmlns="http://www.w3.org/2000/svg" viewBox="0 0 344.25 387.84">
  <defs>
    <style>
      .cls-1 {
        opacity: .1;
      }

      .cls-1, .cls-2, .cls-3, .cls-4, .cls-5, .cls-6, .cls-7, .cls-8 {
        stroke-width: 0px;
      }

      .cls-2 {
        opacity: .15;
      }

      .cls-2, .cls-4 {
        fill: #3a200a;
      }

      .cls-9 {
        opacity: .6;
      }

      .cls-3 {
        fill: #894406;
      }

      .cls-5 {
        fill: #b24e00;
      }

      .cls-6 {
        fill: #ff7b00;
      }

      .cls-7 {
        fill: #994500;
      }

      .cls-8 {
        fill: #fff;
      }
    </style>
  </defs>
  <g id="body">
    <path id="shadow" class="cls-2" d="m258.78,300.55c-23.9,0-45.49,3.01-61,7.85-11.86-2.12-25.35-3.33-39.67-3.33-47.2,0-85.47,13.05-85.47,29.14,0,.6.07,1.19.17,1.78-39.11,2.4-68.57,12.98-68.57,25.67,0,14.46,38.27,26.18,85.47,26.18s83.48-11.13,85.38-25.07c21.6-1.48,40.23-5.75,52.59-11.65,9.64,1.15,20.12,1.8,31.1,1.8,47.2,0,85.47-11.72,85.47-26.18s-38.27-26.18-85.47-26.18Z"/>
    <g id="leg-right_copy" data-name="leg-right copy">
      <path class="cls-6" d="m252.39,193.21c-4.07-8.04-26.85,9.52-45.08,34.8-18.23,25.28-38.65,76.92-36.36,86.24-.4,9.68,22.6,18.49,51.37,19.66,77.07,3.15,92.65-17.08,30.07-140.71Z"/>
      <path class="cls-1" d="m252.39,193.21c-4.07-8.04-26.85,9.52-45.08,34.8-18.23,25.28-38.65,76.92-36.36,86.24-.4,9.68,22.6,18.49,51.37,19.66,77.07,3.15,92.65-17.08,30.07-140.71Z"/>
    </g>
    <g id="hand-right_copy_2" data-name="hand-right copy 2">
      <g id="Arm">
        <path class="cls-6" d="m306.83,128.05c-.27,2.98-.74,5.71-1.39,8.21-5.01,19.32-20.42,24.81-32.95,25.91-8.87.79-16.3-.63-17.56-.89-.13-.03-.19-.04-.19-.04,1.38-29.73-5.23-51.83-9.7-63.1-2.17-5.47-3.83-8.39-3.83-8.39,1.75-8.73,5.65-12.6,10.13-13.96.14-.05.29-.09.43-.12,6.24-1.66,13.47,1.34,17.53,2.85,19.16,7.08,39.44,28.47,37.53,49.53Z"/>
        <path class="cls-1" d="m306.83,128.05c-.27,2.98-.74,5.71-1.39,8.21-5.01,19.32-20.42,24.81-32.95,25.91-8.87.79-16.3-.63-17.56-.89-.13-.03-.19-.04-.19-.04,1.38-29.73-5.23-51.83-9.7-63.1-2.17-5.47-3.83-8.39-3.83-8.39,1.75-8.73,5.65-12.6,10.13-13.96.14-.05.29-.09.43-.12,6.24-1.66,13.47,1.34,17.53,2.85,19.16,7.08,39.44,28.47,37.53,49.53Z"/>
      </g>
    </g>
    <g id="Body_copy_2" data-name="Body copy 2">
      <path class="cls-6" d="m275.82,205.75c-.42,100.34-49.32,136.38-124.16,139.55-56.12,2.37-97.86-26.4-115.92-62.92-.18-.35-.36-.71-.53-1.07-1.01-2.1-1.95-4.22-2.8-6.37-2.62-6.58-4.49-13.37-5.55-20.21-.96-6.19-1.27-12.43-.87-18.63,2.59-36.21,35.83-76.65,28.58-105.49-5.87-23.36-20.94-54.68-7.66-74.42,18.59-27.64,33.31-33.59,71.48-38.78,9.15-1.24,21.86-2.04,37.52-6.52,1.17-.34,2.36-.69,3.59-1.07,13.28-4.07,21-7.42,28.62-8.66,10.9-1.78,26.63-3.06,36.09,8.66,10.91,13.51,16.7,32.13,26,61.68,14.31,45.48,25.74,99.57,25.59,134.25Z"/>
      <path class="cls-1" d="m275.82,205.75c-.42,100.34-49.32,136.38-124.16,139.55-56.12,2.37-97.86-26.4-115.92-62.92,34.08,4.11,71.92-16.09,71.92-16.09,48.12,23.64,118.07-3.56,139.21-80.92,17.17-62.82-.96-127.57,3.35-113.87,14.31,45.48,25.74,99.57,25.59,134.25Z"/>
    </g>
    <g id="Leg-Left_copy" data-name="Leg-Left copy">
      <path class="cls-6" d="m36.3,373.78c-2.01.14-3.92.19-5.73.16C-.06,373.41-1.9,349.16.95,324.77c.93-7.96,2.35-15.92,3.44-23.09,1.35-6.73,3.08-13.47,5.08-19.96,30.93-92.2,70.18-82.18,98.19-15.43,10.76,27.92,15.48,59.89,17.29,77.64,1,9.8-25.18,29.85-88.65,29.85Z"/>
      <path class="cls-1" d="m36.3,373.78c-1.88,0-3.79.06-5.73.16C-.06,373.41-1.9,349.16.95,324.77c13.87,54.45,97.25,3.58,111.71-49.95,6.4,15.41,5.81,15.76,5.81,15.75,9.09,28.01,4.67,35.61,6.48,53.36,1,9.8-25.18,29.85-88.65,29.85Z"/>
      <path class="cls-7" d="m84.25,243.47c3.57,2.08,7.12,4.32,10.37,6.9,2.21,1.8,4.59,4.05,6.57,6.12,4.85,5.28,8.97,11.4,12.11,17.84.85,1.86,2.29,4.65,2.94,6.57,4.47,11.02,6.99,22.94,8.22,34.73.32,2.06.4,5.02.54,7.1.48,6.83.32,14.5-.05,21.29-.9-6.76-1.46-14.28-2.56-21.03-.94-6.93-2.12-13.88-3.78-20.67-.55-2.18-.97-4.62-1.66-6.77-3.7-13.29-9.17-26.46-17.74-37.35-1.67-2.12-3.9-4.58-5.76-6.52-2.85-2.83-6.14-5.58-9.21-8.2h0Z"/>
    </g>
    <path class="cls-1" d="m171.34,118.54c1.92-7.12,19.39,32.34,7.14,58.55-25.25,54-79.81,40.74-102.54,20.14,8.06,1.34,91.23-63.28,95.4-78.7Z"/>
    <g id="HAnd-left_copy" data-name="HAnd-left copy">
      <g id="Thumb">
        <path id="R_thumb" data-name="R thumb" class="cls-6" d="m133.73,134.43s-6.97-18.11-5.19-28.57c.76-4.48,6.41-5.91,9.12-2.26,2.33,3.14,4.5,8.77,4.5,18.82l-8.43,12Z"/>
        <path class="cls-7" d="m133.15,126.81c-4.86-6.35-10.69-15.55-5.46-23.36,2.46-3.37,7.84-3.72,10.58-.66,1.2,1.42,1.74,3.06,1.89,4.68-1.68-2.33-3.91-4.34-6.78-3.59-1.83.46-2.77,1.69-3.28,3.43-1.86,6.42,2.18,12.94,3.04,19.49h0Z"/>
      </g>
      <g id="Arm-2" data-name="Arm">
        <path class="cls-6" d="m174.4,160.3c-8.99,23.06-33.65,38.26-38.89,41.2-19.69,11.04-40.44,9.49-52.38,2.39-2.05-1.21-3.84-2.59-5.32-4.1-2.57-2.62-4.68-5.13-6.38-7.54-1.94-2.74-3.37-5.36-4.39-7.86-2.85-6.94-2.58-12.93-1.49-18.08,3.04-14.37,14.11-20.89,19.97-22.08,4.32-.88,13.17-1.99,19.27-2.76,12.92-1.62,27.41-5.89,33.19-25.08,2.61-8.68,4.03-15.56,7.66-19.49,2.09-2.3,4.96-3.59,9.25-3.66,2.92-.04,5.56,1.19,7.86,3.02,4.94,3.94,8.3,10.63,9.39,13.2.4.99.79,2.03,1.17,3.12,4.47,12.69,7.5,31.31,1.09,47.72Z"/>
        <path class="cls-1" d="m178.77,136.14c.21,1.17-1.19,1.91-2.34,2.21-8.15,2.17-11.96,9.06-17.42,14.7-12.51,12.91-29.3,21.19-46.33,26.37-8.59,2.62-17.55,4.65-26.49,5.57-3.01.31-17.63,2.6-19.15-.61,21.81,46.03,84.26,24.45,107.36-24.09,1.25-2.63,1.58-5.48,2.22-8.32,1.2-5.3,3.26-10.51,2.15-15.84Z"/>
        <path class="cls-7" d="m133.15,126.81c-1.8,4.1-4.69,7.73-8.25,10.55-5.82,3.46-12.5,5.13-19.14,5.99-6.15.8-13.07,1.6-19.08,2.68-1.86.3-3.82,1.07-5.49,1.94-8.56,4.48-13.8,13.86-14.32,23.38-.5,4.69-.72,9.08.59,14.01-2.49-3.59-4.14-7.94-4.67-12.56.07-13.46,8.82-27.3,22.33-30.54,8.63-1.73,17.72-2.18,26.29-3.96,4.05-.91,7.95-2.29,11.4-4.4,3.84-1.61,7.37-4.15,10.34-7.09h0Z"/>
        <path class="cls-7" d="m95,208.39c8.26.56,16.57-.99,24.44-3.35,4.42-1.16,8.84-2.4,13.01-4.31,16.56-8.25,33.88-24.55,40.42-42.02,5.92-16.28,3.26-37.8-4.87-52.99-2.7-4.58-7.13-10.09-12.45-10.45-3.7-.47-7.51.39-9.99,3.43-2.6,3.08-4.08,7.16-5.61,10.91,1.52-8.4,3.81-17.31,14.05-18.24,7.89-.9,13.78,6.27,17.43,12.31,8.71,16.11,11.54,38.99,5.18,56.41-7.01,18.2-21.88,32.06-38.16,42.07-5.63,3.13-11.85,5.38-18.13,6.74-8.38,1.29-17.11,1.64-25.33-.51h0Z"/>
      </g>
    </g>
    <path class="cls-7" d="m258.78,104.2c4.02,9.19,7.14,18.6,9.74,28.26,2.51,9.67,4.26,19.66,3.98,29.7-2.54-8.3-5.55-20.23-7.85-28.69-2.48-9.63-4.91-19.31-5.87-29.28h0Z"/>
    <g id="Hand_right-palm_copy_2" data-name="Hand right-palm copy 2">
      <path class="cls-6" d="m302.74,116.39c-.49,4.25-4.04,2.35-10.53,1.59-2.45-.3-5.32-.43-8.61,0-20.73,2.69-31.66-7.07-38.68-18.73-5.56-7.36-9.74-25.62-3.76-34.16,1.19-1.7,2.78-3.01,4.83-3.78,5.61,1.57,9.22,7.87,14.74,10.15,25.33,14.4,34.76,25.11,41.55,41.94.38.94.58,1.97.46,2.99Z"/>
      <path class="cls-7" d="m260.73,71.46c-4.75-1.11-8.53-4.77-12.73-6.97-4.24-1.71-6.46,3.15-7.22,6.7-.93,4.44-.55,9.31.44,13.95,1.02,4.53,2.64,9.29,5.36,13,1.93,3.2,4.14,6.21,6.72,8.81,3.18,3.24,6.96,5.77,11.18,7.36,2.55,1.04,5.22,1.28,7.86,2.09,3.58.92,7.37,1.36,11.26,1.59-4.16,1.27-8.68,2.01-13.17,1.91-7.52-.9-14.69-4.76-19.96-10.13-2.84-2.86-5.21-6.1-7.26-9.48-1.04-1.3-2.87-4.7-3.65-6.86-2.76-7.33-4.22-15.29-2.69-23.09,1.15-6.02,5.76-12.33,12.72-9.55,1.52.53,2.4,1.56,3.39,2.64,2.57,2.79,4.56,5.9,7.76,8.04h0Z"/>
    </g>
    <path class="cls-7" d="m274.09,239.47c-1.65,28.28-12.04,57.3-33.62,76.47-8.45,7.3-18.22,13.23-28.68,16.84,14.96-8.24,28.24-19.09,38.07-33,12.86-17.84,19.37-39.02,24.24-60.31h0Z"/>
  </g>
  <g id="worried_face" data-name="worried face">
    <g id="Mouth">
      <path class="cls-3" d="m236.64,137.22c-9.96-.38-17.62-11.66-14.12-23.62,0,0-21.42-1.91-32.86,33.32,0,0,17.74-10.83,46.98-9.7Z"/>
      <path class="cls-5" d="m194.26,134.41s13.07-8.17,29.45,3.4l-34.64,9.11c1.2-4.83,2.84-9.12,5.19-12.51Z"/>
      <path class="cls-3" d="m221.94,113.58c.38,0,.59.02.59.02-3.5,11.96,4.16,23.23,14.12,23.62-1.44-.06-2.86-.08-4.25-.08-26.7,0-42.73,9.78-42.73,9.78,10.32-31.78,28.76-33.34,32.27-33.34m0-2c-3.82,0-23.44,1.67-34.18,34.72-.26.8,0,1.67.66,2.19.36.29.8.43,1.24.43.36,0,.72-.1,1.04-.29.15-.09,15.94-9.49,41.69-9.49,1.38,0,2.78.03,4.17.08.03,0,.05,0,.08,0,1.07,0,1.96-.85,2-1.92.04-1.1-.82-2.03-1.92-2.08-3.81-.15-7.42-2.21-9.9-5.66-3.11-4.32-3.97-9.93-2.37-15.4.17-.57.07-1.19-.27-1.69-.34-.49-.88-.81-1.47-.87-.05,0-.32-.03-.77-.03h0Z"/>
    </g>
    <path class="cls-8" d="m157.27,91.62c1.26.25,2.48.67,3.64,1.22,1.73.82,3.31,1.94,4.71,3.24.7.65,1.28,1.45,1.99,2.08.61.54,1.55.7,2.34.99,3.83,1.43,7.43,3.42,10.67,5.92,9.23-3.91,11.02-17.55,4.43-30.83-6.43-12.96-18.81-21.19-28.29-19.46-9.6,1.75-13.97,13.29-9.24,26.93.59,1.7,1.3,3.37,2.1,4.98.7,1.4,1.44,3.12,2.47,4.31.78.9,2.9.32,4.04.45.38.05.76.11,1.13.18Z"/>
    <path class="cls-8" d="m238.47,65.77c.15-.28.3-.55.47-.81.44-.72.94-1.41,1.46-2.07-4.14-11.57-12.25-20.87-19.72-22.55-8.61-1.93-14.29,6.7-12.44,20.44,1.53,11.34,9.04,20.43,17.01,25.12,1.26-5.94,4.55-15.29,12.83-19.27.12-.29.24-.58.39-.86Z"/>
    <path class="cls-4" d="m227.91,77.71c1.64-3.58,4.06-7.13,7.61-9.61,0-1.28-.15-2.64-.45-4.07-1.68-7.82-7.48-14.64-13.09-15.66-5.65-1.02-9.45,4.15-8.39,11.97,1.13,8.32,7.24,16.29,13.53,17.3.27.04.53.06.79.07Z"/>
    <path class="cls-8" d="m222.75,61.02c-.23-2.44-1.72-4.79-3.34-5.3s-2.8,1.01-2.64,3.44,1.68,4.97,3.37,5.49c1.68.51,2.84-1.14,2.61-3.64Z"/>
    <path class="cls-4" d="m181.65,80.25c-2.78-7.89-9.59-13.6-15.41-13.18s-9.03,6.96-6.89,15.03c2.27,8.6,9.58,15.5,16.12,14.88s9.15-8.33,6.19-16.73Z"/>
    <path class="cls-8" d="m168.09,78.01c-.54-2.71-2.56-4.95-4.53-5.07s-3.22,1.96-2.76,4.68c.47,2.79,2.53,5.18,4.59,5.28s3.26-2.12,2.7-4.9Z"/>
    <g class="cls-9">
      <path class="cls-4" d="m135.2,58.18c6.23-6.33,12.37-11.18,12.13-20.49.03-2.77-.37-5.75-.92-9.32,6.38,3.09,9.6,11.4,7.51,18.17-2.36,8.07-10.76,12.77-18.73,11.65h0Z"/>
    </g>
    <g class="cls-9">
      <path class="cls-4" d="m201.62,11.82c4.69,7.58,7.9,14.65,17.03,16.65,2.69.69,5.67,1.01,9.27,1.32-4.51,5.47-13.35,6.62-19.43,2.99-7.28-4.21-9.85-13.48-6.87-20.96h0Z"/>
    </g>
  </g>
</svg>