<?xml version="1.0" encoding="UTF-8"?>
<svg xmlns="http://www.w3.org/2000/svg" viewBox="0 0 344.25 387.84">
  <defs>
    <style>
      .cls-1 {
        opacity: .1;
      }

      .cls-1, .cls-2, .cls-3, .cls-4, .cls-5, .cls-6, .cls-7, .cls-8 {
        stroke-width: 0px;
      }

      .cls-2 {
        opacity: .15;
      }

      .cls-2, .cls-3, .cls-4 {
        fill: #3a200a;
      }

      .cls-9, .cls-3 {
        opacity: .6;
      }

      .cls-5 {
        fill: #b24e00;
      }

      .cls-6 {
        fill: #ff7b00;
      }

      .cls-7 {
        fill: #994500;
      }

      .cls-8 {
        fill: #fff;
      }
    </style>
  </defs>
  <g id="body">
    <path id="shadow" class="cls-2" d="m258.78,300.55c-23.9,0-45.49,3.01-61,7.85-11.86-2.12-25.35-3.33-39.67-3.33-47.2,0-85.47,13.05-85.47,29.14,0,.6.07,1.19.17,1.78-39.11,2.4-68.57,12.98-68.57,25.67,0,14.46,38.27,26.18,85.47,26.18s83.48-11.13,85.38-25.07c21.6-1.48,40.23-5.75,52.59-11.65,9.64,1.15,20.12,1.8,31.1,1.8,47.2,0,85.47-11.72,85.47-26.18s-38.27-26.18-85.47-26.18Z"/>
    <g id="leg-right_copy" data-name="leg-right copy">
      <path class="cls-6" d="m252.39,193.21c-4.07-8.04-26.85,9.52-45.08,34.8-18.23,25.28-38.65,76.92-36.36,86.24-.4,9.68,22.6,18.49,51.37,19.66,77.07,3.15,92.65-17.08,30.07-140.71Z"/>
      <path class="cls-1" d="m252.39,193.21c-4.07-8.04-26.85,9.52-45.08,34.8-18.23,25.28-38.65,76.92-36.36,86.24-.4,9.68,22.6,18.49,51.37,19.66,77.07,3.15,92.65-17.08,30.07-140.71Z"/>
    </g>
    <g id="hand-right_copy_2" data-name="hand-right copy 2">
      <g id="Arm">
        <path class="cls-6" d="m306.83,128.05c-.27,2.98-.74,5.71-1.39,8.21-5.01,19.32-20.42,24.81-32.95,25.91-8.87.79-16.3-.63-17.56-.89-.13-.03-.19-.04-.19-.04,1.38-29.73-5.23-51.83-9.7-63.1-2.17-5.47-3.83-8.39-3.83-8.39,1.75-8.73,5.65-12.6,10.13-13.96.14-.05.29-.09.43-.12,6.24-1.66,13.47,1.34,17.53,2.85,19.16,7.08,39.44,28.47,37.53,49.53Z"/>
        <path class="cls-1" d="m306.83,128.05c-.27,2.98-.74,5.71-1.39,8.21-5.01,19.32-20.42,24.81-32.95,25.91-8.87.79-16.3-.63-17.56-.89-.13-.03-.19-.04-.19-.04,1.38-29.73-5.23-51.83-9.7-63.1-2.17-5.47-3.83-8.39-3.83-8.39,1.75-8.73,5.65-12.6,10.13-13.96.14-.05.29-.09.43-.12,6.24-1.66,13.47,1.34,17.53,2.85,19.16,7.08,39.44,28.47,37.53,49.53Z"/>
      </g>
    </g>
    <g id="Body_copy_2" data-name="Body copy 2">
      <path class="cls-6" d="m275.82,205.75c-.42,100.34-49.32,136.38-124.16,139.55-56.12,2.37-97.86-26.4-115.92-62.92-.18-.35-.36-.71-.53-1.07-1.01-2.1-1.95-4.22-2.8-6.37-2.62-6.58-4.49-13.37-5.55-20.21-.96-6.19-1.27-12.43-.87-18.63,2.59-36.21,35.83-76.65,28.58-105.49-5.87-23.36-20.94-54.68-7.66-74.42,18.59-27.64,33.31-33.59,71.48-38.78,9.15-1.24,21.86-2.04,37.52-6.52,1.17-.34,2.36-.69,3.59-1.07,13.28-4.07,21-7.42,28.62-8.66,10.9-1.78,26.63-3.06,36.09,8.66,10.91,13.51,16.7,32.13,26,61.68,14.31,45.48,25.74,99.57,25.59,134.25Z"/>
      <path class="cls-1" d="m275.82,205.75c-.42,100.34-49.32,136.38-124.16,139.55-56.12,2.37-97.86-26.4-115.92-62.92,34.08,4.11,71.92-16.09,71.92-16.09,48.12,23.64,118.07-3.56,139.21-80.92,17.17-62.82-.96-127.57,3.35-113.87,14.31,45.48,25.74,99.57,25.59,134.25Z"/>
    </g>
    <g id="Leg-Left_copy" data-name="Leg-Left copy">
      <path class="cls-6" d="m36.3,373.78c-2.01.14-3.92.19-5.73.16C-.06,373.41-1.9,349.16.95,324.77c.93-7.96,2.35-15.92,3.44-23.09,1.35-6.73,3.08-13.47,5.08-19.96,30.93-92.2,70.18-82.18,98.19-15.43,10.76,27.92,15.48,59.89,17.29,77.64,1,9.8-25.18,29.85-88.65,29.85Z"/>
      <path class="cls-1" d="m36.3,373.78c-1.88,0-3.79.06-5.73.16C-.06,373.41-1.9,349.16.95,324.77c13.87,54.45,97.25,3.58,111.71-49.95,6.4,15.41,5.81,15.76,5.81,15.75,9.09,28.01,4.67,35.61,6.48,53.36,1,9.8-25.18,29.85-88.65,29.85Z"/>
      <path class="cls-7" d="m84.25,243.47c3.57,2.08,7.12,4.32,10.37,6.9,2.21,1.8,4.59,4.05,6.57,6.12,4.85,5.28,8.97,11.4,12.11,17.84.85,1.86,2.29,4.65,2.94,6.57,4.47,11.02,6.99,22.94,8.22,34.73.32,2.06.4,5.02.54,7.1.48,6.83.32,14.5-.05,21.29-.9-6.76-1.46-14.28-2.56-21.03-.94-6.93-2.12-13.88-3.78-20.67-.55-2.18-.97-4.62-1.66-6.77-3.7-13.29-9.17-26.46-17.74-37.35-1.67-2.12-3.9-4.58-5.76-6.52-2.85-2.83-6.14-5.58-9.21-8.2h0Z"/>
    </g>
    <path class="cls-1" d="m171.34,118.54c1.92-7.12,19.39,32.34,7.14,58.55-25.25,54-79.81,40.74-102.54,20.14,8.06,1.34,91.23-63.28,95.4-78.7Z"/>
    <g id="HAnd-left_copy" data-name="HAnd-left copy">
      <g id="Thumb">
        <path id="R_thumb" data-name="R thumb" class="cls-6" d="m133.73,134.43s-6.97-18.11-5.19-28.57c.76-4.48,6.41-5.91,9.12-2.26,2.33,3.14,4.5,8.77,4.5,18.82l-8.43,12Z"/>
        <path class="cls-7" d="m133.15,126.81c-4.86-6.35-10.69-15.55-5.46-23.36,2.46-3.37,7.84-3.72,10.58-.66,1.2,1.42,1.74,3.06,1.89,4.68-1.68-2.33-3.91-4.34-6.78-3.59-1.83.46-2.77,1.69-3.28,3.43-1.86,6.42,2.18,12.94,3.04,19.49h0Z"/>
      </g>
      <g id="Arm-2" data-name="Arm">
        <path class="cls-6" d="m174.4,160.3c-8.99,23.06-33.65,38.26-38.89,41.2-19.69,11.04-40.44,9.49-52.38,2.39-2.05-1.21-3.84-2.59-5.32-4.1-2.57-2.62-4.68-5.13-6.38-7.54-1.94-2.74-3.37-5.36-4.39-7.86-2.85-6.94-2.58-12.93-1.49-18.08,3.04-14.37,14.11-20.89,19.97-22.08,4.32-.88,13.17-1.99,19.27-2.76,12.92-1.62,27.41-5.89,33.19-25.08,2.61-8.68,4.03-15.56,7.66-19.49,2.09-2.3,4.96-3.59,9.25-3.66,2.92-.04,5.56,1.19,7.86,3.02,4.94,3.94,8.3,10.63,9.39,13.2.4.99.79,2.03,1.17,3.12,4.47,12.69,7.5,31.31,1.09,47.72Z"/>
        <path class="cls-1" d="m178.77,136.14c.21,1.17-1.19,1.91-2.34,2.21-8.15,2.17-11.96,9.06-17.42,14.7-12.51,12.91-29.3,21.19-46.33,26.37-8.59,2.62-17.55,4.65-26.49,5.57-3.01.31-17.63,2.6-19.15-.61,21.81,46.03,84.26,24.45,107.36-24.09,1.25-2.63,1.58-5.48,2.22-8.32,1.2-5.3,3.26-10.51,2.15-15.84Z"/>
        <path class="cls-7" d="m133.15,126.81c-1.8,4.1-4.69,7.73-8.25,10.55-5.82,3.46-12.5,5.13-19.14,5.99-6.15.8-13.07,1.6-19.08,2.68-1.86.3-3.82,1.07-5.49,1.94-8.56,4.48-13.8,13.86-14.32,23.38-.5,4.69-.72,9.08.59,14.01-2.49-3.59-4.14-7.94-4.67-12.56.07-13.46,8.82-27.3,22.33-30.54,8.63-1.73,17.72-2.18,26.29-3.96,4.05-.91,7.95-2.29,11.4-4.4,3.84-1.61,7.37-4.15,10.34-7.09h0Z"/>
        <path class="cls-7" d="m95,208.39c8.26.56,16.57-.99,24.44-3.35,4.42-1.16,8.84-2.4,13.01-4.31,16.56-8.25,33.88-24.55,40.42-42.02,5.92-16.28,3.26-37.8-4.87-52.99-2.7-4.58-7.13-10.09-12.45-10.45-3.7-.47-7.51.39-9.99,3.43-2.6,3.08-4.08,7.16-5.61,10.91,1.52-8.4,3.81-17.31,14.05-18.24,7.89-.9,13.78,6.27,17.43,12.31,8.71,16.11,11.54,38.99,5.18,56.41-7.01,18.2-21.88,32.06-38.16,42.07-5.63,3.13-11.85,5.38-18.13,6.74-8.38,1.29-17.11,1.64-25.33-.51h0Z"/>
      </g>
    </g>
    <path class="cls-7" d="m258.78,104.2c4.02,9.19,7.14,18.6,9.74,28.26,2.51,9.67,4.26,19.66,3.98,29.7-2.54-8.3-5.55-20.23-7.85-28.69-2.48-9.63-4.91-19.31-5.87-29.28h0Z"/>
    <g id="Hand_right-palm_copy_2" data-name="Hand right-palm copy 2">
      <path class="cls-6" d="m302.74,116.39c-.49,4.25-4.04,2.35-10.53,1.59-2.45-.3-5.32-.43-8.61,0-20.73,2.69-31.66-7.07-38.68-18.73-5.56-7.36-9.74-25.62-3.76-34.16,1.19-1.7,2.78-3.01,4.83-3.78,5.61,1.57,9.22,7.87,14.74,10.15,25.33,14.4,34.76,25.11,41.55,41.94.38.94.58,1.97.46,2.99Z"/>
      <path class="cls-7" d="m260.73,71.46c-4.75-1.11-8.53-4.77-12.73-6.97-4.24-1.71-6.46,3.15-7.22,6.7-.93,4.44-.55,9.31.44,13.95,1.02,4.53,2.64,9.29,5.36,13,1.93,3.2,4.14,6.21,6.72,8.81,3.18,3.24,6.96,5.77,11.18,7.36,2.55,1.04,5.22,1.28,7.86,2.09,3.58.92,7.37,1.36,11.26,1.59-4.16,1.27-8.68,2.01-13.17,1.91-7.52-.9-14.69-4.76-19.96-10.13-2.84-2.86-5.21-6.1-7.26-9.48-1.04-1.3-2.87-4.7-3.65-6.86-2.76-7.33-4.22-15.29-2.69-23.09,1.15-6.02,5.76-12.33,12.72-9.55,1.52.53,2.4,1.56,3.39,2.64,2.57,2.79,4.56,5.9,7.76,8.04h0Z"/>
    </g>
    <path class="cls-7" d="m274.09,239.47c-1.65,28.28-12.04,57.3-33.62,76.47-8.45,7.3-18.22,13.23-28.68,16.84,14.96-8.24,28.24-19.09,38.07-33,12.86-17.84,19.37-39.02,24.24-60.31h0Z"/>
  </g>
  <g id="excited_face" data-name="excited face">
    <g id="face">
      <path class="cls-8" d="m134.62,93.4c5.19-2.58,12.97-4.29,21.7-4.42,11.19-.17,20.9,2.3,25.61,6.04,1.47-6.08.63-13.21-2.75-19.98-6.61-13.23-21.18-21.58-33.56-18.91-13.36,2.89-19.79,17.52-13.15,33.02.63,1.48,1.35,2.89,2.15,4.24Z"/>
      <path class="cls-8" d="m233.65,65.27c2.36-2.02,4.88-2.97,7.37-3.18-.41-1.36-.93-2.75-1.55-4.13-4.96-11.1-15.14-19.26-23.31-18.45-8.68.85-12.14,11.43-7.09,23.93,3.38,8.38,9.51,15,15.74,18-.32-4.81,2.67-10.88,8.83-16.17Z"/>
      <path class="cls-4" d="m151.89,89.18c1.44-.11,2.92-.18,4.43-.21,9.24-.14,17.47,1.53,22.72,4.21,2.71-4.21,2.9-10.17.1-15.82-4.11-8.3-13.42-13.36-21.2-11.39-8.16,2.07-11.8,11.11-7.66,20.28.46,1.03,1.01,1.99,1.61,2.91Z"/>
      <path class="cls-8" d="m152.95,79.38c-.82-2.98.47-5.68,2.83-6.05s4.82,1.65,5.65,4.52c.83,2.89-.33,5.64-2.66,6.11s-5-1.57-5.82-4.58Z"/>
      <path class="cls-3" d="m122.33,65.49c-3.86-5.22-4.92-12.54-2.01-18.53,5.18-10.81,19.82-11.64,28.87-5.58-2.07.24-4.02.34-5.93.54-5.03.49-10.77,1.58-14.48,4.62-5.69,4.47-6.24,12.11-6.45,18.95h0Z"/>
      <path class="cls-4" d="m233.65,65.27c1.37-1.17,2.79-1.99,4.23-2.5-.26-.98-.59-1.97-1-2.96-3.24-7.86-10.23-13.51-15.86-12.71-5.87.82-8.19,8.28-4.92,16.78,2.07,5.37,5.8,9.67,9.72,11.82,1.34-3.44,3.95-7.09,7.83-10.41Z"/>
      <path class="cls-8" d="m218.22,60.68c-.81-2.61.11-4.81,2.02-4.94,1.88-.13,4.05,1.81,4.86,4.34.82,2.55-.02,4.79-1.9,4.99s-4.16-1.77-4.98-4.4Z"/>
      <path class="cls-3" d="m230.92,37.77c-4.75-3.17-8.66-6.57-13.41-9.08-2.13-1.12-4.23-1.97-6.48-2.29-2.6-.41-5.08.07-7.78.92,2.73-6.9,11.45-7.72,17.31-4.39,5.6,3.08,9.62,8.51,10.36,14.84h0Z"/>
      <g>
        <g class="cls-9">
          <path class="cls-4" d="m232.32,130.16c-8.89,6.88-22.49.8-25.1-.25-8.98-3.6-23.2-20.21-23.2-20.21,42.11.63,49.14-11.2,49.14-11.2-4.99,18.82,2.85,28.79-.85,31.66Z"/>
          <path class="cls-4" d="m233.17,98.51c-8.65,16.03,2.85,28.79-.85,31.66-2.32,1.79-4.96,2.71-7.64,3.06-7.6.99-15.53-2.53-17.46-3.31-8.98-3.6-23.2-20.21-23.2-20.21,9.25.14,16.8-.32,22.96-1.13,21.89-2.87,26.18-10.07,26.18-10.07m-.18-1.38c-.4.05-.78.28-1.01.65-.09.13-4.6,6.72-25.18,9.42-6.64.87-14.3,1.25-22.76,1.12-.07,0-.14,0-.2.01-.47.06-.87.35-1.08.79-.23.49-.15,1.08.2,1.49.59.69,14.55,16.91,23.73,20.59.12.05.25.1.41.17,2.54,1.04,10.25,4.21,17.75,3.23,3.19-.42,5.99-1.54,8.31-3.34,2.2-1.7,1.66-4.63.91-8.69-.96-5.17-4.12-13.36.44-23.71.18-.67-.17-1.37-.81-1.64-.23-.1-.48-.13-.72-.1h0Zm.36,2.76h0s0,0,0,0h0Z"/>
        </g>
        <path class="cls-5" d="m232.32,130.16c-6.99,4.94-20.69,2.03-29.2-2.59,14.95-15.06,27.68,1,29.2,2.59Z"/>
      </g>
    </g>
  </g>
</svg>