<?xml version="1.0" encoding="UTF-8"?>
<svg id="megaphone" xmlns="http://www.w3.org/2000/svg" viewBox="0 0 712.2 847.69">
  <defs>
    <style>
      .cls-1 {
        opacity: .6;
      }

      .cls-1, .cls-2 {
        fill: none;
      }

      .cls-3 {
        opacity: .1;
      }

      .cls-4 {
        fill: #f3f0e9;
      }

      .cls-5 {
        fill: #fc4405;
      }

      .cls-6 {
        fill: #fff;
      }

      .cls-7 {
        fill: #fefffa;
      }

      .cls-8 {
        fill: #fd6c00;
      }

      .cls-9 {
        fill: #fe7003;
      }

      .cls-10 {
        fill: #ff4301;
      }

      .cls-11 {
        fill: #ff7b00;
      }

      .cls-12 {
        fill: #994500;
      }

      .cls-13 {
        fill: #9e2f01;
      }

      .cls-14 {
        fill: #c50400;
      }

      .cls-15 {
        fill: #b24e00;
      }

      .cls-16 {
        fill: #c02d01;
      }

      .cls-17 {
        fill: #c02c03;
      }

      .cls-18 {
        fill: #dad6d3;
      }

      .cls-19 {
        fill: #dad7d2;
      }

      .cls-20 {
        fill: #962e08;
      }

      .cls-21 {
        fill: #3a200a;
      }

      .cls-2 {
        opacity: .15;
      }
    </style>
  </defs>
  <g id="shadow">
    <g class="cls-2">
      <path class="cls-21" d="m707.26,812.14c-10.07-20.82-101.52-42.23-194.64-48.95-3.21-.23-6.39-.44-9.55-.63-26.43-14.85-68.44-25.34-113.14-27.96-46.75-2.74-91.7,3.49-120.9,15.75-3.42-.32-6.87-.61-10.38-.86-57.3-4.14-110.93,1.99-125.1,14.13-15.25,13.06,18.5,29.84,82.11,37.2,9.38,1.09,18.75,1.89,27.98,2.45,15.14,17.59,51.14,33.39,103.49,40.63,62.48,8.64,121.09,1.95,154.76-13.82,3.37.43,6.78.84,10.23,1.24,112.61,13.03,206.39,4.1,195.14-19.16Z"/>
    </g>
  </g>
  <path class="cls-11" d="m184.87,760.13c23.54,40.55,142.3,22.35,176.8-13.79.08-.09.17-.18.26-.27,5.06-5.13,11.2-7.01,13.91-12.58,36.6-75.43-172.21-154.9-179.75-219.75-.21-1.76-4.6,6.3-9.45,21.44-1.3,4.06-2.64,8.63-3.93,13.66-12.8,49.6-40.87,137.18,2.16,211.29Z"/>
  <path class="cls-3" d="m184.87,760.13c26.61,45.85,142.3,22.35,176.8-13.79.08-.09.17-.18.26-.27l-175.3-210.89c-1.3,4.06-2.64,8.63-3.93,13.66-12.8,49.6-40.86,137.17,2.16,211.29Z"/>
  <path class="cls-11" d="m123.8,274.35h0c.09,14.48,9.36,34.23,28.15,55.31,15,16.84,54.01,95.26,54.01,95.26,0,0,6.88,6.44,17.17,15.02,25.64,21.38,72.45,56.08,86.86,37.74,1.9-2.41,3.29-5.85,4.04-10.49,9.58-60.02-68.51-155.11-68.46-155.37,0,0-33.48-51.88-83.59-60.31-25.39-4.27-38.31,5.55-38.19,22.83Z"/>
  <path class="cls-3" d="m123.81,274.35c.09,14.48,9.36,34.22,28.15,55.31,15,16.84,54.01,95.26,54.01,95.26,0,0,6.88,6.44,17.17,15.02l29.8-41.26s-59.81-18.94-129.13-124.32Z"/>
  <path class="cls-11" d="m629.85,513.16c17.64,36.51,18.53,73.73,7.18,108.01-.51,1.54-1.05,3.08-1.61,4.61-21.75,59.45-80.3,109.43-151.67,130.46-42.66,12.56-89.91,14.79-136.61,2.51-116.85-30.72-158.46-115.84-162.47-206.95-2.84-64.44,13.14-131.89,34.61-185.2,1.79-4.46,8.5-19.24,18.34-39.14,8.39-16.94,19.07-37.61,30.95-58.78,1.79-3.19,3.61-6.4,5.45-9.61,3.93-6.83,7.97-13.67,12.07-20.4,1.15-1.89,2.31-3.78,3.48-5.65,23.29-37.46,48.53-70.68,69.33-80.75,60.07-29.1,83.41-3.39,103.54,3.81,20.13,7.21,52.84,15.82,93.49,24.16,21.41,4.4,41.15,10.39,56.59,22.6,16.64,13.12,28.3,33.45,31.74,66.72,3.88,37.6-18.29,61.93-23.49,71.05-4.92,8.64-12.97,28.96-16.57,36.18-4.5,9.01-6.15,18-7.91,21.88-5.89,13.04-.92,34.49,7.53,56.89,3.45,9.1,7.46,18.36,11.55,27.27,4.71,10.28,9.52,20.09,13.69,28.68.26.55.53,1.11.79,1.65Z"/>
  <path class="cls-11" d="m623.58,767.12c-3.3,7.51-7.31,14.1-12.12,19.37-6.2,6.78-14.99,21.88-48.84,16.15-31.91-5.41-59.62-23.26-78.87-46.4-22.82-27.41-33.8-62.23-25.89-92.59,9.05-34.75,28.73-55.32,52.18-65.27,42.35-17.99,97.52-9.62,124.28,20.34.42.47.82,4.17,1.1,7.06.17,1.67.29,3.07.36,3.42,2.86,13.86,7.9,92.45-12.2,137.92Z"/>
  <path class="cls-3" d="m637.03,621.17c-.51,1.54-1.05,3.08-1.61,4.61.17,1.67.29,3.07.36,3.42,2.86,13.86,7.9,92.45-12.2,137.92-3.3,7.51-7.31,14.1-12.12,19.37-6.2,6.78-14.99,21.88-48.84,16.15-31.91-5.41-59.62-23.26-78.87-46.4-42.66,12.56-89.91,14.79-136.61,2.51-116.85-30.72-158.46-115.84-162.47-206.95,5.27,11.13,2.64,22.93,5.72,37.17,18.64,86.19,177.84,135.22,253.77-81.3,93.18-265.7,218.18-182.21,168.36-304.83,16.64,13.12,28.3,33.45,31.74,66.72,3.88,37.6-18.29,61.93-23.49,71.05-4.92,8.64-12.97,28.96-16.57,36.18-4.5,9.01-6.15,18-7.91,21.88-5.89,13.04-.92,34.49,7.53,56.89,3.45,9.1,7.46,18.36,11.55,27.27,4.71,10.28,9.52,20.09,13.69,28.68.26.55.53,1.11.79,1.65,17.64,36.51,18.53,73.73,7.18,108.01Z"/>
  <path class="cls-11" d="m712.12,477.67c.01,2.34-.24,4.52-.7,6.56-3.88,17.42-23.26,24.18-39.38,24.38-6.09.07-11.7-.8-15.84-2.37-11.85-4.5-25.21-14.16-40.83-23.41-12.21-7.22-25.8-14.18-41.15-18.22-34.26-9.02-35.46,16.52-48.44,5.58-.03-.02-.05-.04-.08-.07-18.9-16.08-24.79-108.31,19.67-105.76,19.01,1.1,39.24,5.49,58.83,12.43,42.77,15.14,82.47,42.4,99.67,73.9,5.82,10.66,8.25,19.59,8.25,26.98Z"/>
  <path class="cls-3" d="m712.12,477.67c.01,2.34-.24,4.52-.7,6.56-3.88,17.42-23.26,24.18-39.38,24.38-6.09.07-11.7-.8-15.84-2.37-11.85-4.5-25.21-14.16-40.83-23.41-12.21-7.22-25.8-14.18-41.15-18.22-34.26-9.02-35.46,16.52-48.44,5.58-.03-.02-.05-.04-.08-.07-18.9-16.08-24.79-108.31,19.67-105.76,0,0-45.34,43.42-2.63,52.29,147.83,30.71,147,53.13,161.13,34.04,5.82,10.66,8.25,19.59,8.25,26.98Z"/>
  <g id="overlapping_lines_copy" data-name="overlapping lines copy">
    <path class="cls-12" d="m652.12,399.84c-18.16-5.65-34.54-15.79-52.12-22.52-17.52-7.08-35.84-10.46-54.63-12.97,43.89-5.22,71.79,12.85,106.75,35.49h0Z"/>
    <path class="cls-12" d="m680.57,506.47c-42.07,13.43-74.02-43.81-131.93-38.14-6.63.51-13.2,1.81-19.82,3.26,19.09-8.7,40.42-10.13,60.4-3.51,19.54,6.15,36.34,19.1,53.61,29.03,11.44,6.63,24.24,11.33,37.74,9.35h0Z"/>
    <path class="cls-12" d="m184.44,530.42c9.27,68.16,14.45,122.35,64.18,175.04-54.46-42.57-64.98-109.9-64.18-175.04h0Z"/>
    <path class="cls-12" d="m261.82,280.87c-21.12,43.24-41.24,89.06-59.09,133.86,4.6-24.15,12.79-47.5,22.63-69.98,10.01-22.41,21.69-44.22,36.46-63.88h0Z"/>
    <path class="cls-12" d="m482.58,756.57c-50.51,21.48-126.44,19.59-175.07-6.38-7.51-4.17-14.66-9.07-20.73-15.07,7.8,5.6,16.2,9.97,24.95,13.64,50.51,19.91,118.44,21.46,170.86,7.81h0Z"/>
    <path class="cls-12" d="m637.8,679.59c-3.44-26.44-3.79-52.93-7.21-79.37,9.22,21.89,10.3,55.87,7.21,79.37h0Z"/>
    <path class="cls-12" d="m473.86,743.2c-23.73-32.41-24.06-70.8-5.79-105.88,5.71-10.99,12.79-21.17,21.06-30.21-11.92,20.17-22.39,41.13-26.47,64.25-3.22,18.31-1.78,37.31,4.44,54.9,1.87,5.79,4.6,11.23,6.76,16.93h0Z"/>
    <path class="cls-12" d="m664.19,455.05c5.36,9.68,11.33,29.01-1.24,35.77-3.65,1.87-8.14,1.73-11.96.57-9.49-2.9-17.4-11.29-19.38-20.83,4.55,8.09,11.76,14.31,20.52,16.63,3.73.91,7.42.8,10.35-1.42,7.16-6.3,3.31-22.07,1.72-30.71h0Z"/>
  </g>
  <path class="cls-3" d="m525.45,473.81c24.54,11.31,71.59,36.06,103.61,37.69-4.17-8.59-8.98-18.4-13.69-28.68,15.63,9.24,28.99,18.9,40.83,23.4,4.14,1.57,9.75,2.44,15.85,2.37,1.43-.46,2.72-.85,4.13-1.06,21.74-3.34,32.43-13.94,35.24-23.32.7-2.31.91-4.54.7-6.56-.02-.23-.05-.46-.08-.69-1.77-11.41,7.14,13.36-43.56-3-8.02-2.58-6.66,18.1-37.96-3.02-9.68-6.53-18.56-11.58-26.69-15.4-53.74-25.28-74.85,3.18-78.05,14.63-.45,1.61-1.03,3.3-.33,3.63Z"/>
  <g id="Layer_17" data-name="Layer 17">
    <path class="cls-10" d="m287.32,185.51s-.23,8.92-3.48,20.24c-.36,1.26-.76,2.56-1.2,3.88-.31.89-.63,1.8-.97,2.71-.46,1.23-.96,2.48-1.5,3.73-.41.96-.85,1.93-1.32,2.89-.56,1.19-1.17,2.37-1.82,3.55-.45.8-.91,1.61-1.4,2.4-.68,1.14-1.41,2.27-2.18,3.38-.52.75-1.05,1.49-1.62,2.22-.82,1.08-1.68,2.14-2.59,3.18-1.12,1.27-2.31,2.5-3.57,3.68-2.77,2.62-5.88,5-9.4,7.05-1.82,1.07-3.75,2.04-5.79,2.92l-38.96-23.61,38.96-59.4,36.84,21.18Z"/>
    <polygon class="cls-9" points="257.67 188.02 284.85 202.09 286.61 192.89 259.85 176.42 257.67 188.02"/>
    <path class="cls-5" d="m110.86,284.89s10.81,36.27,49.53,30.34c0,0,52.48-61,62.55-73.07,4.78-5.73-62.55-18.27-62.55-18.27-17.26,11.12-46.39,48.79-49.53,61Z"/>
    <path class="cls-17" d="m257.67,168.46s-2.47,44.75-34.4,62.29l5.59,3.49-7.62,10.18-7.85-4.61s-.7,3.05-6.45,1.48c0,0-35.05-15.97-46.56-17.4l6.8-4.4,2.09-7.28,84.4-46.04,3.99,2.29Z"/>
    <path class="cls-20" d="m271.83,230.68c-.82,1.08-1.68,2.14-2.59,3.18l-8.33-4.24,1.82-3.57,9.1,4.63Z"/>
    <path class="cls-20" d="m275.63,225.08c-.68,1.14-1.41,2.27-2.18,3.38l-8.97-4.56,1.81-3.57,9.34,4.75Z"/>
    <path class="cls-20" d="m278.85,219.13c-.56,1.19-1.17,2.37-1.82,3.55l-9.01-4.57,1.81-3.57,9.02,4.59Z"/>
    <path class="cls-20" d="m281.67,212.51c-.46,1.23-.96,2.48-1.5,3.73l-8.81-4.49,1.82-3.56,8.49,4.32Z"/>
    <path class="cls-20" d="m283.84,205.92c-.36,1.26-.76,2.56-1.2,3.88l-8.14-4.14,1.81-3.57,7.53,3.83Z"/>
    <path class="cls-14" d="m265.67,237.37c-2.77,2.62-5.88,5-9.4,7.05l-26.3-14.64s2.29.18,8.75-8.38l26.95,15.97Z"/>
    <path class="cls-4" d="m128.59,19.81s40.23,83.71,124.35,143c1.82,1.28,3.62,43.14-38.1,68.84,0,0-75.28-41.51-189.41-31.59L128.59,19.81Z"/>
    <path class="cls-6" d="m123.81,41.65s29.73,75.71,123.06,131.16v10.37s-113.57-61.81-142.52-106.16,19.46-35.36,19.46-35.36Z"/>
    <path class="cls-19" d="m59.27,152.15s120.7,28.64,166.27,63.28l-6.21,8.46s-73.77-42.17-181.88-40.72l21.81-31.02Z"/>
    <path class="cls-16" d="m94.66,120.08c-21.41,37.09-45.82,66.21-64.41,78.82-9.33,6.34-17.2,8.52-22.49,5.47-15.84-9.15-2.61-61.71,29.54-117.4C69.46,31.27,108.36-6.46,124.2,2.68c3.79,2.19,5.91,6.86,6.51,13.47,1.92,21.01-11.59,61.57-36.05,103.93Z"/>
    <path class="cls-13" d="m94.66,120.08c-21.41,37.09-45.82,66.21-64.41,78.82-1.92-21.01,11.59-61.57,36.05-103.93,21.41-37.09,45.82-66.21,64.41-78.82,1.92,21.01-11.59,61.57-36.05,103.93Z"/>
    <ellipse class="cls-4" cx="93.97" cy="118.8" rx="36.86" ry="32.03" transform="translate(-49.64 166.98) rotate(-70.2)"/>
    <path class="cls-8" d="m37.3,86.96c-13.01,22.91-24.4,47-31.13,72.55-7.52,27.9-7.33,63.03,28.73,33.37,23.56-20.72,41.32-47.41,57.16-74.3,15.35-27.17,29.58-55.9,35.74-86.66,7.64-45.86-22.63-28.83-43.24-8.19-18.76,18.59-33.93,40.51-47.27,63.23h0Zm0,0C51.46,62.31,88.09,6.03,116.32.15c23.5-2.81,15.9,34.79,12.36,48.18-6.8,25.8-18.29,50.12-31.43,73.25-13.46,22.94-28.78,45.04-47.73,63.83-9.91,9.83-38.56,35.1-47.88,13.39-9.01-27.42,21.36-87.19,35.66-111.84h0Z"/>
    <path class="cls-18" d="m65.18,110.55s-5.88,20.66,7.53,30.1c0,0,13-19.7-7.53-30.1Z"/>
    <ellipse class="cls-7" cx="93.97" cy="93.1" rx="6.91" ry="5.4"/>
  </g>
  <path class="cls-11" d="m212.54,277.87s8.24-28.25-6.45-31.71c-14.69-3.46-17.92,16.15-17.92,16.15l24.37,15.57Z"/>
  <path class="cls-11" d="m169.12,295.7c2.13,9.89,9.24,10.99,19.13,8.86,9.89-2.13,16.18-11.88,14.05-21.77s2.7-25.62-7.19-23.48c-9.89,2.13-28.13,26.5-26,36.39Z"/>
  <path class="cls-12" d="m200.4,245.91c-7.04,4.8-11.45,12.53-12.96,20.8,0,0-.14.71-.14.71l-.58.48c-7.59,6.64-15.52,14.9-17.04,25.3-.16,1.49-.16,3.02,0,4.57-.58-1.44-.94-2.99-1.1-4.58-.57-11.46,7.44-21.26,15.65-28.41,0,0-.72,1.19-.72,1.19,1.58-8.91,7.73-17.89,16.89-20.06h0Z"/>
  <g id="face">
    <path class="cls-6" d="m417.78,263.65c-13.87,25.27-8.35,54.13,14.36,64.29,24.64,11.02,58.16-4.49,72.35-34.36,13.61-28.64,2.59-56.59-22.29-63-23.06-5.94-51.05,8.69-64.43,33.06Z"/>
    <path class="cls-21" d="m471.24,286.85c8.46-16.94,2.28-34.18-12.9-38.66-14.47-4.27-32.32,4.56-40.65,19.85-8.52,15.64-4.48,33.16,9.84,39.07,15.06,6.22,35.05-2.89,43.71-20.25Z"/>
    <path class="cls-6" d="m466.74,273.71c1.75-5.53-.47-10.7-4.88-11.57-4.32-.85-9.17,2.75-10.93,8.08-1.78,5.38.22,10.62,4.54,11.68,4.41,1.08,9.5-2.59,11.27-8.18Z"/>
    <g class="cls-1">
      <path class="cls-21" d="m525.27,249.86c.1-12.87-.38-27.27-10.74-36.08-6.75-5.98-17.45-8.44-26.86-9.73-3.57-.52-7.23-.84-11.1-1.45,17.45-10.72,44.89-8.1,53.83,12.58,5.02,11.48,2.5,25.15-5.14,34.67h0Z"/>
    </g>
    <path class="cls-6" d="m363.48,244.91c-13.42,22.5-37.77,35.42-53.03,28.59-14.31-6.4-14.63-27.76-1.85-47.53,12.41-19.2,33.68-31.41,48.62-27.56,15.87,4.09,19.26,24.73,6.27,46.5Z"/>
    <path class="cls-21" d="m348.28,245.72c8.05-13.41,5.82-26.64-4.43-29.67-9.86-2.91-23.79,4.66-31.61,17.01-7.96,12.58-7.01,26.06,2.6,30.02s25.23-3.68,33.44-17.36Z"/>
    <path class="cls-6" d="m347.3,237.13c2.26-4.61,1.19-8.97-2.33-9.76-3.46-.78-8.04,2.2-10.28,6.66-2.26,4.5-1.35,8.9,2.09,9.82,3.5.93,8.24-2.09,10.52-6.73Z"/>
    <g class="cls-1">
      <path class="cls-21" d="m332.35,190.14c4.28-11.19,14.11-19.23,25.73-22.26,12.22-3.36,27.72,2.17,29.51,16-4.51-2.8-8.82-4.81-13.75-5.28-4.24-.46-8.46.13-12.87,1.17-9.82,2.39-18.5,6.78-28.63,10.36h0Z"/>
    </g>
    <ellipse class="cls-11" cx="456.07" cy="325.79" rx="21.7" ry="53.55" transform="translate(106.28 763.72) rotate(-86.92)"/>
    <path class="cls-11" d="m318.2,290.95c-8.15,8.79-26.5,5.03-40.96-8.4-3.4-3.16-6.31-5.84-8.67-8.2,1.79-3.19,3.61-6.4,5.45-9.61,3.93-6.83,7.97-13.67,12.07-20.4,6.87-1.04,14.21.4,20.68,6.4,15.6,14.46,19.58,31.43,11.43,40.21Z"/>
    <g>
      <g class="cls-1">
        <path class="cls-21" d="m343.36,359.47c-8.44,0-31.71-4.36-45.83-17.31l-1.93-1.77,2.57-.48c8.2-1.53,13.9-4.63,16.94-9.2,4.65-7.01,2.64-16.28,1.02-23.73-.44-2.02-.85-3.93-1.07-5.55l-.43-3.28,2.56,2.1c.29.24,29.07,23.56,60.12,23.56h0c4.06,0,8.04-.4,11.83-1.19l3.88-.81-2.64,2.96c-1.05,1.18-25.95,28.92-43.47,34.32-.81.25-2,.38-3.54.38h0Z"/>
        <path class="cls-21" d="m316.35,301.27s29.05,23.85,60.96,23.85c4,0,8.06-.38,12.1-1.22,0,0-25.51,28.59-42.88,33.94-.68.21-1.76.32-3.16.32-9.05,0-31.46-4.6-44.95-16.96,29.84-5.58,19.34-29.26,17.94-39.93m-3.45-6.21l.86,6.55c.22,1.67.64,3.61,1.09,5.65,1.57,7.21,3.52,16.18-.83,22.73-2.83,4.27-8.24,7.17-16.09,8.64l-5.14.96,3.86,3.53c14.41,13.2,38.11,17.65,46.72,17.65,1.69,0,2.98-.14,3.93-.43,17.87-5.5,43-33.51,44.06-34.7l5.28-5.92-7.77,1.63c-3.7.77-7.59,1.17-11.56,1.17-30.57,0-59.01-23.03-59.3-23.26l-5.11-4.19h0Z"/>
      </g>
      <path class="cls-15" d="m300.96,340.6c7.54,7.17,25.49,16.99,42.95,15.26,7.94-.79,13.89-3.29,22.03-10.69-17.79-9.41-64.98-4.57-64.98-4.57Z"/>
    </g>
  </g>
</svg>