<?xml version="1.0" encoding="utf-8"?>
<!-- Generator: Adobe Illustrator 27.7.0, SVG Export Plug-In . SVG Version: 6.00 Build 0)  -->
<svg version="1.1" id="Layer_1" xmlns="http://www.w3.org/2000/svg" xmlns:xlink="http://www.w3.org/1999/xlink" x="0px" y="0px"
	 viewBox="0 0 128 150" style="enable-background:new 0 0 128 150;" xml:space="preserve">
<style type="text/css">
	.st0{opacity:0.1;}
	.st1{fill:#FF7B00;}
	.st2{fill:#E56E00;}
	.st3{fill:#884406;}
	.st4{fill:#B24E00;}
	.st5{fill:#FFFFFF;}
	.st6{fill:#3A200A;}
</style>
<path class="st0" d="M97,135c-3.64,0-7.14,0.16-10.37,0.46C81.14,133.35,72.6,132,63,132c-3.94,0-7.7,0.23-11.15,0.64
	C46.35,131.03,38.16,130,29,130c-16.57,0-30,3.36-30,7.5s13.43,7.5,30,7.5c2.34,0,4.62-0.07,6.81-0.2c4.78,3.07,15.15,5.2,27.19,5.2
	c6.01,0,11.61-0.53,16.3-1.45C84.26,149.46,90.38,150,97,150c16.57,0,30-3.36,30-7.5S113.57,135,97,135z"/>
<g>
	<path class="st1" d="M21.24,47.67c-0.07-6-0.14-12-0.2-18c-0.04-3.44-0.08-6.91,0.6-10.28c0.57-2.84,1.74-5.73,4.05-7.47
		c2.59-1.96,6.05-2.12,9.29-2.35c4.37-0.31,8.72-0.87,13.02-1.7c4.73-0.9,9.21-2.02,13.81-3.44c4.88-1.5,9.71-3.3,14.77-4.07
		s9.38-0.42,13.81,2.15c5.6,3.25,7.63,11.14,8.23,17.62c0.39,4.25,0.45,8.53,0.17,12.78c0.54-0.25,0.93-0.51,1.37-0.91
		c2.68-2.42,5.35-4.97,6.95-8.22c0.86-1.75,1.38-3.67,1.53-5.62c0.05-0.66,0.05-1.32,0.06-1.97c0.04-3.89,0.07-7.78,0.11-11.66
		c0-0.46,0.01-0.93,0.12-1.38c0.36-1.48,1.96-2.54,3.45-2.28c1.58,0.27,2.67,1.73,3.34,3.19c1.04,2.26,1.46,4.79,1.22,7.27
		c3.05-0.55,7.22,0.58,9.41,2.86c2.63,2.74,1.63,6.04,0.22,9.03c-0.33,0.71-0.6,1.46-0.78,2.22c-0.29,1.21-0.38,2.46-0.61,3.68
		c-0.23,1.22-0.62,2.45-1.41,3.41c-1.43,1.74-4.17,2.21-6.1,1.05c-1.38,2.91-2.65,5.81-4.08,8.7c-3.15,6.34-6.56,12.82-12.03,17.28
		c-0.42,0.34-0.03,3.69-0.03,4.3c0.01,1.64,0.05,3.28,0.1,4.91c0.1,2.92,0.02,5.84,0.22,8.76c0.44,6.45,2.92,12.67,4.77,18.83
		c3.13,10.45,7.35,21.22,8.27,32.17c0.35,4.16,0.01,8.28-2.99,11.54c-3.89,4.23-10.33,4.28-15.57,3.42
		c-4.31-0.7-8.76-1.75-12.73-3.74c-1.89-0.95-3.79-2.1-5.31-3.59c-1.23-1.21-2.47-3.13-4.42-3.02c-4.46,0.27-8.93,0.39-13.39,0.37
		c-3.75-0.01-7.52-0.23-11.15-1.16c-1.95-0.5-3.85-1.19-5.66-2.08c-0.92,0.91-1.99,1.66-3.08,2.35c-5.8,3.68-12.5,6.69-19.48,6.65
		c-5.7-0.03-15.42-3.01-16.28-9.85c-0.29-2.29,0.78-4.49,1.58-6.65c0.5-1.33,0.9-2.7,1.31-4.07c2.08-7,4.15-14,6.23-21
		c-0.64-4.04-0.52-7.07-0.18-10.49c0.22-2.19,0.75-4.35,1.33-6.47c0.07-0.03-1.02,0.29-1.17,0.33c-3.52,0.84-7.47,0.66-10.26-1.91
		c-1.87-1.72-4-4.61-2.32-7.16c0.59-0.9,1.6-1.46,2.66-1.65c1.05-0.19,2.14-0.05,3.17,0.25c0.22-1.93-0.42-3.89-0.41-5.84
		c0.02-3.22,1.57-6.39,4.08-8.39c1.7-1.36,3.74-2.21,5.42-3.6C18.06,51.27,19.67,49.47,21.24,47.67z"/>
	<path class="st2" d="M98.87,32.92c-3.45,2.1-6.12,5.33-9.31,7.84c1.7-13.37,0.35-27.11-3.4-40.05c3.87,1.15,6.02,2.74,8.03,5.37
		c2.01,2.62,3.17,5.83,3.79,9.09s0.73,6.58,0.84,9.9C98.91,27.7,98.78,30.28,98.87,32.92z"/>
	<path class="st2" d="M114.1,13.36c1.57-3.88,1.01-8.95-1.39-12.38c1.99,0.47,3.42,2.26,4.05,4.22s0.58,4.06,0.52,6.12
		c-0.45,0.17-0.9,0.3-1.33,0.52C115.29,12.17,114.74,12.68,114.1,13.36z"/>
	<path class="st2" d="M125.16,13.23c0.57,1.44,0.5,3.14,0.19,4.66c-0.31,1.52-0.91,2.96-1.51,4.39c-0.34,0.82-0.68,1.64-1.16,2.38
		c-0.74,1.14-1.79,2.05-2.94,2.75c-1.7,1.03-3.64,1.64-5.62,1.84c-0.48,2.83-2.23,5.38-3.88,7.71c-3.24,4.58-6.59,9.11-10.47,13.16
		s-8.32,7.62-13.38,10.01c0.28,7.28-1.96,14.54-4.19,21.48c-2.4,7.49-5.36,14.87-9.81,21.34c-4.45,6.47-10.5,12.01-17.81,14.82
		c-8.01,3.08-17.29,2.63-24.97-1.22c-7.68-3.85-13.4-10.28-15.78-18.56c-2.7,9.02-4.99,17.46-8,26.2c-0.62,1.8-1.32,3.64-1.22,5.54
		c0.14,2.55,1.73,4.86,3.8,6.34c2.07,1.48,4.57,2.21,7.08,2.64c9.92,1.68,20.53-1.44,27.98-8.23c3.4,2.64,8.19,2.81,12.48,2.98
		c5.96,0.23,11.94,0.21,17.9-0.05c7.13,6.06,16.25,9.78,25.54,10.64c3.82,0.35,7.94,0.14,11.04-2.13c3.04-2.22,4.55-6.09,4.78-9.86
		c0.23-3.77-0.65-7.51-1.57-11.18c-3.08-12.33-6.58-24.55-10.49-36.63c-2.6-8.02-1.45-16.75-1.34-25.18
		c2.96-1.54,5.08-5.32,7.02-8.04c3.75-5.27,6.18-10.25,8.82-17.4c1.54,1.06,4.99,0.94,6.52-1.41c0.85-1.31,1.09-2.75,1.2-3.92
		c0.11-1.14,0.35-2.27,0.7-3.36c0.49-1.51,0.69-2,1.06-2.99c0.48-1.55,1-2.68,0.85-4.3S126.64,14.13,125.16,13.23z"/>
	<path class="st2" d="M2.68,78.22c2.54,0.92,5.5,0.22,7.51-1.59c2.01-1.81,3.14-4.45,3.53-7.14c0.22-1.53,0.23-3.09,0.54-4.61
		c0.38-1.83,1.2-3.54,2.1-5.19c1.29-2.36,2.86-4.6,4.95-6.28c-0.53,9.45-4.7,22.59-6.25,27.34c-2.04,1.08-4.6,1.5-6.85,1
		S4.08,80.06,2.68,78.22z"/>
	<path class="st3" d="M63.9,47.63c-7.24,4.16-16.09,5.35-24.16,3.28c0.85,0.39,1.42,1.21,1.92,2c0.91,1.45,1.73,3,1.99,4.69
		c0.25,1.69-0.15,3.56-1.39,4.73c3.78-0.11,7.33-0.94,10.75-2.56c1.81-0.86,3.53-1.92,5.07-3.21C60.79,54.26,62.7,51,63.9,47.63z"/>
	<path class="st4" d="M47.35,60.07c2.99-4.62,8.23-7.7,13.7-8.06C57.82,56.56,52.88,59.46,47.35,60.07z"/>
	<path class="st5" d="M65.11,42.51c-2.68-1.75-3.83-5.69-4.02-6.88c-0.81-5.08,1.37-11.01,6.57-12.71c2.56-0.84,5.57-0.33,7.56,1.48
		c3.16,2.88,4.38,7.77,3.64,11.91c-0.12,0.67-0.97,4.18-1.86,4.22C72.89,40.72,69.02,41.22,65.11,42.51z"/>
	<path class="st5" d="M40.7,43.16c2.76-3.15,3.49-7.64,2.6-11.74c-0.42-1.94-1.36-3.87-3.01-4.96c-1.81-1.2-4.27-1.17-6.21-0.19
		c-1.94,0.98-3.38,2.79-4.2,4.81c-1.44,3.53-1.04,7.75,1.03,10.95C33.74,41.82,38.13,41.97,40.7,43.16z"/>
	<path class="st6" d="M33.34,37.82c-0.98-3.87,0.98-8.73,5.1-8.11c2.57,0.38,3.95,3.3,4.03,5.67c0.06,1.88-0.54,3.84-1.92,5.1
		c-1.93,1.78-4.83,1.49-6.36-0.67C33.77,39.22,33.53,38.53,33.34,37.82z"/>
	<path class="st5" d="M38.03,32.89c0.21,0.78,0.08,1.78-0.4,2.46c-0.62,0.88-1.98,0.94-2.54-0.06c-0.25-0.44-0.27-0.95-0.2-1.44
		c0.08-0.6,0.31-1.22,0.82-1.62c0.83-0.65,2.01-0.35,2.31,0.59C38.01,32.84,38.02,32.86,38.03,32.89z"/>
	<path class="st6" d="M75.86,30.48c-0.58-1.72-1.83-3.32-3.57-3.79c-1.78-0.48-3.74,0.34-4.93,1.76s-1.67,3.32-1.69,5.17
		c-0.01,1.58,0.3,3.2,1.15,4.52c1.53,2.4,4.5,3.18,6.74,1.27c1.74-1.48,2.62-3.52,2.72-5.79C76.34,32.56,76.2,31.49,75.86,30.48z"/>
	<path class="st5" d="M68.47,33.62c-0.49-0.27-0.84-0.79-0.96-1.34c-0.13-0.59-0.02-1.22,0.24-1.77c0.19-0.41,0.47-0.78,0.86-1.01
		c0.69-0.41,1.64-0.25,2.22,0.31c1.48,1.46-0.15,4.85-2.25,3.87C68.53,33.66,68.5,33.64,68.47,33.62z"/>
	<path class="st3" d="M28.4,24.51c0.36-1.97,1.5-3.79,3.11-4.96c1.61-1.17,3.69-1.69,5.66-1.42c-1-1.75-3.08-2.84-5.07-2.6
		c-1.99,0.24-3.77,1.77-4.32,3.71C27.31,20.92,27.58,22.97,28.4,24.51z"/>
	<path class="st3" d="M80.08,18.68c0.6-2.34,0.27-4.96-1.11-6.93s-3.86-3.19-6.24-2.84C72,9.02,71.29,9.26,70.61,9.55
		c-0.9,0.38-1.79,0.83-2.53,1.47c-0.75,0.64-1.36,1.47-1.61,2.42c2.46-1.35,5.48-1.73,8.14-0.83S79.68,15.89,80.08,18.68z"/>
	<path class="st4" d="M21.26,53.91c-1.59,6.25-3.18,12.5-4.77,18.75c-0.65,2.57-1.31,5.17-1.38,7.82c1.01-2.56,1.83-5.23,2.84-7.79
		c0.94-2.38,1.88-4.77,2.53-7.25C21.46,61.69,21.65,57.76,21.26,53.91z"/>
	<path class="st4" d="M43.13,130.75c-8-4.4-15.64-9.66-21.37-16.8c12.97,10.4,23.94,18.43,45.16,19.65
		C58.94,133.58,49.58,134.29,43.13,130.75z"/>
	<path class="st4" d="M74.06,133.67c-1.7-1.42-3.12-3.19-4.12-5.17c6.56,5.24,13.7,10.22,21.19,14.01
		C84.95,140.94,78.96,137.75,74.06,133.67z"/>
	<path class="st4" d="M91.98,62.52c3.67-0.67,7.12-2.74,10.03-5.09c2.39-1.93,6.07-6.11,8.08-8.21c-1.86,3.12-5.44,8.14-8.4,10.22
		C98.72,61.53,95.59,62.6,91.98,62.52z"/>
	<path class="st4" d="M116.45,31.34c-1.38-1.04-2.29-2.68-2.45-4.4c-0.13-1.44,0.25-2.88,0.23-4.33c-0.01-1.36-0.37-2.69-0.62-4.03
		c-0.25-1.34-0.4-2.74,0-4.04c-0.81,0.76-1.14,1.94-1.15,3.05c-0.02,1.11,0.21,2.21,0.27,3.32c0.08,1.38-0.11,2.76-0.15,4.15
		c-0.05,1.38,0.05,2.81,0.65,4.06C113.83,30.37,115.07,31.24,116.45,31.34z"/>
	<path class="st4" d="M114.1,13.36c0.72-0.91,2.07-1.69,3.18-2.03c0.01-0.46,0.03-0.9,0.03-1.37c-0.56,0.03-1.29,0.41-1.69,0.81
		s-0.7,0.9-0.99,1.38C114.39,12.57,114.35,12.94,114.1,13.36z"/>
</g>
</svg>
