<?xml version="1.0" encoding="UTF-8"?>
<svg id="Question" xmlns="http://www.w3.org/2000/svg" version="1.1" viewBox="0 0 603 979">
  <!-- Generator: Adobe Illustrator 29.1.0, SVG Export Plug-In . SVG Version: 2.1.0 Build 142)  -->
  <defs>
    <style>
      .st0 {
        opacity: .1;
      }

      .st0, .st1 {
        isolation: isolate;
      }

      .st1 {
        opacity: .2;
      }

      .st2 {
        fill: #383854;
      }

      .st3 {
        fill: #3a200a;
      }

      .st4 {
        fill: #fff;
      }

      .st5 {
        fill: #b25000;
      }

      .st6 {
        opacity: .6;
      }

      .st7 {
        opacity: .2;
      }

      .st8 {
        fill: #ff7b00;
      }
    </style>
  </defs>
  <g class="st7">
    <path class="st3" d="M428,891.9h-8c-28.8-15-77.9-25-133.6-25s-104.8,9.9-133.6,25c-85,.8-152.8,14.4-152.8,31.1s67.8,30.3,152.9,31.1c28.8,15,77.9,25,133.6,25s104.8-9.9,133.6-25h8c88.6,0,160.5-13.9,160.5-31.1s-71.9-31.1-160.6-31.1h0Z"/>
  </g>
  <path class="st8" d="M585.1,665.8v1.4c-.9,14.7-15.8,28.6-41.2,28.6s-33.6-12.5-33.3-28.4c.2-10.6,8.9-20.8,30.2-20.8s4.2,0,6.3.1c23.7,1.1,38,8.2,38,19.1h0Z"/>
  <path class="st0" d="M584,665.9c-2,11.5-27.8,9.4-35.7-1.8-3.2-4.6-4.3-10.8-1.4-17.3,23.9,1,39,8.2,37.1,19.1h0Z"/>
  <path class="st8" d="M487.5,481.1s37.7,27.1,75,43.7c56.7,25.3,42.3,60.6,26.1,84.2-18,26.2-55.7,85.6-77.8,68-17.4-13.9-17.8-37.9-17.8-37.9l-5.5-158h0Z"/>
  <path class="st1" d="M481.4,516.1c0,4.4,8.8-2.8,8.8-2.8,16.2,19.4,41.2,28.4,41.2,37.1s-36.4,83.8-36.4,83.8c0,0-13.6-122.5-13.6-118.1h0Z"/>
  <path class="st8" d="M553.2,875c-6.5-63.6-24.7-118.8-38.5-197.7-12.3-7.8-6.7-40.6-9.1-61.3-7.3-61.6-7.9-179.8-10.4-244.4-1-27.5-4.6-51.3-8.4-69.6-4.6-22.4-25.1-37.5-47.4-35l-85.9,9.7c-19.6,2.2-39.3,3.3-59.1,3.3s-39.4-1.1-59-3.3l-85.9-9.7c-22.2-2.5-42.8,12.6-47.4,35-3.8,18.3-7.3,42-8.4,69.6-2.5,64.6-3.1,182.8-10.3,244.4-13,110.4-39.6,180.7-47.6,259-2,19.4,10.3,37.2,28.8,41.7,27.3,6.6,72.3,11.3,133.9-3.3,14-3.3,26.1-6.1,36.6-8.5,19.6-4.5,39.4-6.7,59.4-6.7s39.8,2.2,59.4,6.7c10.4,2.4,22.5,5.2,36.6,8.5,61.6,14.6,106.6,9.9,133.9,3.3,18.4-4.5,30.7-22.4,28.8-41.7h0Z"/>
  <path class="st5" d="M367.1,289.1c-24.2-1.9-48.4-1.8-72.6-2.1-24.2.3-48.3.2-72.6,2.1,2.9-1,5.8-2,8.8-2.7,37.9-9.6,99.2-9.9,136.4,2.7h0Z"/>
  <path class="st0" d="M500.5,638.7c-.3-2.8,4.4-25.5,4.1-28.5-6.4-63.5-7-174-9.4-235.7-1-27.5-4.7-53.7-8.4-69.6-11.2-47.8-60.9-31.9-61.4-33.4,55,31.9,52.8,105.3,54.3,142.1,1.3,32.8-17.2,108-21.2,160.1-4.6,60.3,52,147.5-30.5,227.5-101,98.1-336,71.5-368-50.6h0c-10.1,45.1-19.9,85.1-24.2,127.3-2,19.4,10.3,37.2,28.8,41.7,27.3,6.6,72.3,11.3,133.9-3.3,14-3.3,26.1-6.1,36.6-8.5,19.6-4.5,39.5-6.7,59.4-6.7s39.8,2.2,59.4,6.7c10.4,2.4,22.5,5.2,36.6,8.5,61.6,14.6,106.6,9.9,133.9,3.3,18.5-4.5,30.8-22.3,28.8-41.7-6.7-65.5-24.6-115.1-38.5-197.7-6.9-7.6-12.1-23.5-14.2-41.5h0Z"/>
  <path class="st5" d="M159.7,869c20.4,11.1,43.2,17.2,65.9,21.3,22.7,3.9,45.8,6.2,68.8,6.5,34.5-.7,69.4-4.6,102.5-14.5,9.7-3,19.3-6.6,28.3-11.3,1.3-.7,2.6-1.4,3.9-2-18.1,15.4-41.2,24.2-64,30.2-23.2,5.8-46.9,8.8-70.7,9.2-18-.2-35.7-2.1-53.3-5.3-28.8-5.7-58.5-14.9-81.4-34.1h0Z"/>
  <path class="st5" d="M517.4,585.8c-6,24.3-14,51.5-9.8,76.4.8,4.4,2.2,9,4,13.2,1.1,2.4,2.3,4.7,3.7,7-27.6-22.1-15.7-71.4,2.1-96.6h0Z"/>
  <g id="eyes">
    <g>
      <ellipse class="st4" cx="209.5" cy="436.8" rx="50.1" ry="51.3" transform="translate(-39.5 21.3) rotate(-5.3)"/>
      <g>
        <ellipse class="st3" cx="222.2" cy="435.6" rx="31.1" ry="31.9" transform="translate(-39.4 22.4) rotate(-5.3)"/>
        <ellipse class="st4" cx="211.2" cy="428.3" rx="10.5" ry="10.8" transform="translate(-38.7 21.4) rotate(-5.3)"/>
      </g>
      <g>
        <ellipse class="st4" cx="379.4" cy="421" rx="50.1" ry="51.3" transform="translate(-37.3 36.9) rotate(-5.3)"/>
        <g>
          <ellipse class="st3" cx="367.2" cy="427" rx="31.1" ry="31.9" transform="translate(-37.9 35.8) rotate(-5.3)"/>
          <ellipse class="st4" cx="356.2" cy="419.7" rx="10.5" ry="10.8" transform="translate(-37.3 34.8) rotate(-5.3)"/>
        </g>
      </g>
    </g>
  </g>
  <ellipse class="st8" cx="196" cy="466.5" rx="27.7" ry="60.6" transform="translate(-306.2 528.2) rotate(-74.2)"/>
  <ellipse class="st8" cx="401.3" cy="382.9" rx="27.7" ry="60.6" transform="translate(-88.1 644) rotate(-71.7)"/>
  <g id="eye-brows">
    <g class="st6">
      <path class="st3" d="M217.1,343.2c-16.5-4.5-31.1-4.7-46,3.9-11,6.2-29.1,21.8-27.7,35.8-1.8-1.5-3.1-3.8-3.8-6.2-4-17.1,9.6-35,23.9-43,17.6-10.2,41.5-7.6,53.6,9.5h0Z"/>
    </g>
    <g class="st6">
      <path class="st3" d="M442.6,375.4c-16.6,12.9-40.3,14.5-59,4.8-14.2-7.2-26.1-22.1-25.9-38.7.2-5.4,1.8-10.7,4.8-14.7.2,9.5,3.5,17.4,9,24.4,10.7,13.2,26.3,20.4,43.1,22.9,9.3,1.5,18.4,1.4,28,1.3h0Z"/>
    </g>
    <g class="st6">
      <path class="st3" d="M238.6,522.4c3.8-15.8,19-25,35-23.6,14.8,1.1,28.4,8.8,38.9,18.4,6.8,6.4,12.9,13.7,16.7,22.3-15.9-7.8-30.4-16.9-46.3-23-17.6-6.6-29.3-5.4-44.3,5.9h0Z"/>
    </g>
  </g>
  <path class="st8" d="M181.7,513.3s0,0,0,0c-9.8,13.5-25.4,26.5-46.8,36.4l-45.1,45.2c-7.6.5-18.7,4.7-26.3,2.5h0c-27.4-7.8-51.3-31-45.7-55.2,2.1-9.1,8.4-18.3,20.3-26.9,52.2-37.6,73.2-79.4,130.9-65.1,7.4,1.9,13.2,5.2,17.4,9.6,11.3,12.4,9.8,33.4-4.7,53.5h0Z"/>
  <path class="st0" d="M181.7,513.3s0,0,0,0c-27.4,43.9-95.4,81.6-95.4,81.6-7.1.5-14.8,4.6-22.9,2.5h0c-27.4-7.8-51.3-31-45.7-55.2,2.1-.3,4.5-.5,7-.6,61.3-2.5,68.7-23.2,144.1-91.5,5.1-4.6,12.5,0,17.4,9.6,6.2,12.5,8.2,33.2-4.5,53.6h0Z"/>
  <path class="st5" d="M26.3,573.7c18.5,18.7,39,22.8,63.3,12.9,36.4-15.8,63.8-46.1,92.1-73.3-24,34.9-68.4,84.7-114.1,84.5-17.5-.4-31.9-9.8-41.3-24.1h0Z"/>
  <path class="st5" d="M70.2,512.1c17.9-28.1,59.1-73.4,95.9-66.6,5.8,1.2,11.2,3.9,15.6,7.5-5-2.9-10.4-4.9-16-5.5-34.7-3.6-74.3,40.4-95.5,64.6h0Z"/>
  <g>
    <path class="st4" d="M362,395.5c-17.8,2.9-29.4,19.1-26.5,37,4.3,27.3,39.3,36.4,56,13.8,8-10.8,7.1-25.1,1.6-36.9,11.5,4.1,23.8,5.9,36,6,4.4,42.6-41.5,73.3-78.3,48.8-28.8-19.2-30.3-61.5-4.2-83.7l15.5,15Z"/>
    <path class="st4" d="M190,437.5c-10.5-2.3-21.3-2.6-32-1-.2-38.1,40.5-63.9,74.7-45.1,26.7,14.7,34.9,51.5,16.8,76.1l-7.5-7.5c10.6-9.7,13.3-26.1,6.8-38.8-15.6-30.9-60.6-17.3-58.9,16.3Z"/>
    <path class="st4" d="M207.7,417.8c12.7-2.6,18.4,14.4,8.2,20.2-15,8.4-23.1-17.2-8.2-20.2Z"/>
    <path class="st4" d="M354.7,408.7c12.8-1.2,15.4,19.5,3.7,21.7-17.3,3.2-17.9-20.4-3.7-21.7Z"/>
  </g>
  <path class="st2" d="M290.8.2c45.7-3.8,101.1,28.6,80,80.9-10.2,25.2-45.6,40.3-54.2,61.7-4.7,11.6-2.7,29-20,30-27,1.5-22.8-32-14.4-48.4s50.5-41.2,50.6-63.1c.2-28-39.2-39-57.3-21.5-14.7,14.3-11.3,47.2-38,42.9-18.7-3-17.1-25.2-11.7-38.6C236.1,18.4,263.9,2.5,290.8.2Z"/>
  <path class="st2" d="M117.8,95.1c27.7-2.7,48.6,18,39.9,45.9-3,9.7-12.5,23.2-13.5,32.5s6.5,22.1-5.9,25c-10.4,2.4-14.3-4.2-16.6-13-6.2-23.4,15-38.3,13.2-55.1-2.1-20.4-37-18.3-39.9,3-1.3,9.9,4.3,29-12.6,28.4-15.3-.5-14.1-21.7-11-32,5.6-19.2,27-32.8,46.3-34.7Z"/>
  <path class="st2" d="M463.8,97.1c26.8-2.3,58.9,20.8,55,49.9-4,29.6-34.1,25.4-53.1,34.8-9,4.4-12.2,19.1-24.3,13.1s-.4-26,9.2-31.2,24.3-6,34.5-11.5c21.8-11.6,1.7-40.4-18.7-33.7-9.8,3.2-21.8,24.8-32.7,10.2-12.1-16.3,16.7-30.4,30.2-31.6Z"/>
  <path class="st2" d="M291.7,187c31.7-5,37.6,40.3,8.5,44.4-32.3,4.6-36.4-40.1-8.5-44.4Z"/>
  <path class="st2" d="M144.7,205c21.9-4.5,24.1,25,6.5,27.5-18.2,2.6-22.2-24.3-6.5-27.5Z"/>
  <path class="st2" d="M441.7,225.4c-10.5,10.6-31.3-3.9-21.1-18.6,11-15.8,35.9,3.6,21.1,18.6Z"/>
</svg>