<?xml version="1.0" encoding="UTF-8"?>
<svg id="Layer_1" xmlns="http://www.w3.org/2000/svg" xmlns:xlink="http://www.w3.org/1999/xlink" version="1.1" viewBox="0 0 536.6 362.8">
  <!-- Generator: Adobe Illustrator 29.3.1, SVG Export Plug-In . SVG Version: 2.1.0 Build 151)  -->
  <defs>
    <style>
      .st0 {
        fill: none;
      }

      .st1 {
        fill: #f7b600;
      }

      .st2 {
        fill: #b24e00;
      }

      .st3, .st4 {
        fill: #3a200a;
      }

      .st5 {
        fill: #e5e5e5;
      }

      .st6 {
        fill: #994500;
      }

      .st7 {
        fill: #c6c6c6;
      }

      .st8 {
        clip-path: url(#clippath-1);
      }

      .st9 {
        fill: #5fc9b7;
      }

      .st10 {
        fill: #fff;
      }

      .st11 {
        opacity: .16;
      }

      .st11, .st12 {
        fill: #ffff8d;
      }

      .st11, .st12, .st4 {
        isolation: isolate;
      }

      .st12 {
        opacity: .15;
      }

      .st13 {
        fill: #3f867a;
      }

      .st14 {
        opacity: .1;
      }

      .st15 {
        fill: #282828;
      }

      .st16 {
        fill: #ffd110;
      }

      .st17 {
        fill: #6b6b6b;
      }

      .st18 {
        fill: #ff7b00;
      }

      .st19 {
        fill: #55b5a4;
      }

      .st20 {
        clip-path: url(#clippath);
      }

      .st4 {
        opacity: .6;
      }
    </style>
    <clipPath id="clippath">
      <path class="st0" d="M390.53,226.82c-11.36-20.44-26.11-45.8-26.11-45.8,0,0,0-19.31,0-40.5s.76-65.87-13.63-74.95c-14.38-9.08-44.29,3.03-80.25,3.03s-72.3-9.84-83.66-3.5c-11.36,6.35-9.84,27.62-9.84,27.62,0,0-2.65,21.49-2.65,82.43,0,.93,0,1.84,0,2.75-16.5,15.51-47.64,41.4-57.91,62.93-11.73,24.61-6.44,24.98,0,27.63,6.44,2.65,27.7,1.83,40.13-15.14,4.02-5.49,8.17-10.4,11.95-14.53-2.78,14.22-5.51,25.67-5.51,43.49,0,36.34,77.22,33.69,115.74,33.69,104.77,0,95.48-42.96,95.48-42.96,0,0,28.01,14.76,37.48,2.27,9.46-12.49-9.84-28.01-21.2-48.45Z"/>
    </clipPath>
    <clipPath id="clippath-1">
      <rect class="st0" x="40.4" y="122.35" width="446.42" height="224.92"/>
    </clipPath>
  </defs>
  <g id="grad_cap">
    <path class="st15" d="M363.58,41.88L289.28,3.05c-2.46-1.28-5.3-1.63-7.99-.98l-97.64,23.66c-3.15.76-3.42,5.15-.38,6.29l49.28,18.5c-7.64,7.12-6.7,15.14-6.7,15.14l39.98,9.82,48.4-9.82s-.52-7.12-6.8-13.91l55.16-4.93c2.61-.23,3.31-3.73.98-4.94Z"/>
    <path class="st17" d="M191.23,27.06s86.48-20.42,86.48-20.42c.91-.22,3.18-.75,4.05-.96,1.93-.6,4.1-.42,5.87.6.39.19,1.45.75,1.85.95,17.91,9.16,51,26.14,69.2,35.45-18.77-8.58-52.3-23.92-70.71-32.34-.69-.3-1.75-.82-2.44-1.1-.97-.38-2.02-.26-3.01-.03-.88.16-3.18.63-4.09.8,0,0-87.21,17.05-87.21,17.05h0Z"/>
    <path class="st16" d="M394.71,89.36c-1.6-.56-8.71-3.19-11.34-3.65-1.58-.27-2.96-.65-4.16-.94.01-.14.04-.27.04-.42,0-2.77-2.24-5.01-5.01-5.01-1.7,0-3.19.85-4.1,2.14-1.8-.72-6.59-3.76-6.71-15.75-.15-14.78,1.92-30.3-8.13-36.36-10.05-6.06-23.75-4.22-23.75-4.22l3.71,1.95c6.65,0,11.88,1.46,15.76,4.19,5.47,3.86,6.5,9.9,5.17,30.3-1.23,18.82,11.13,22.29,13.05,22.71,0,.02,0,.03,0,.05,0,2.77,2.24,5.01,5.01,5.01.42,4.48,5.69,16.39,10.16,15.93,4.47-.46,3.55-2.52,4.81-3.78,1.26-1.26,4.01-4.01,4.58-6.07.57-2.06,2.52-5.53.92-6.08Z"/>
    <path class="st17" d="M235.13,49.23c5.59-2.38,11.14-4.73,17.04-6.47,14.79-4.18,31.13-3.71,45.15,2.85,2.77,1.29,5.49,2.7,7.98,4.47-8.52-3.07-17.1-5.38-26.03-6.27-8.81-.67-17.8-.26-26.49,1.45-5.83,1.18-11.67,2.87-17.65,3.98h0Z"/>
    <g>
      <path class="st1" d="M394.54,93.36l-16.8-6.27,14.36,11.27c.77-.98,1.45-2.01,1.7-2.91.17-.61.46-1.34.74-2.09Z"/>
      <path class="st1" d="M385.34,105.16c1.82-.34,2.86-1.11,3.42-2.99l-12.23-14.11,8.81,17.1Z"/>
    </g>
  </g>
  <g id="body">
    <path class="st18" d="M390.53,226.82c-11.36-20.44-26.11-45.8-26.11-45.8,0,0,0-19.31,0-40.5s.76-65.87-13.63-74.95c-14.38-9.08-44.29,3.03-80.25,3.03s-72.3-9.84-83.66-3.5c-11.36,6.35-9.84,27.62-9.84,27.62,0,0-2.65,21.49-2.65,82.43,0,.93,0,1.84,0,2.75-16.5,15.51-47.64,41.4-57.91,62.93-11.73,24.61-6.44,24.98,0,27.63,6.44,2.65,27.7,1.83,40.13-15.14,4.02-5.49,8.17-10.4,11.95-14.53-2.78,14.22-5.51,25.67-5.51,43.49,0,36.34,77.22,33.69,115.74,33.69,104.77,0,95.48-42.96,95.48-42.96,0,0,28.01,14.76,37.48,2.27,9.46-12.49-9.84-28.01-21.2-48.45Z"/>
    <g id="accent_lines">
      <path class="st6" d="M364.21,202.01c3.46,16.36,5.92,32.98,6.24,49.72-3.83-16.3-5.55-33.02-6.24-49.72h0Z"/>
      <path class="st6" d="M173.88,178.37c.31,14.7-.74,29.41-2.97,43.94-.26-14.7.69-29.42,2.97-43.94h0Z"/>
      <path class="st6" d="M235.38,70.64c18.14-5.04,48.17-5.59,66.18,0-11.06-1-22.01-1.07-33.08-1.02-11.05.01-22.04.28-33.1,1.02h0Z"/>
    </g>
    <g class="st20">
      <path class="st14" d="M355.57,63.91c2.57,17.24,6.6,150.76-23.11,187.82s-94.45,100.84-169.28,47.28l-53.76-26v66.77h285.41v-59.06s-14.67-23.11-14.31-71.17,0-145.64,0-145.64h-24.95Z"/>
      <path class="st14" d="M165.23,186.3c.05,17.78-4.59,62.62-23.35,79.17l23.35-9.38s5.33-19.15,7.27-57.35,1.88-20.85,1.88-20.85l-8.82-15.98-.33,24.39Z"/>
    </g>
    <g id="face">
      <g id="eyebrows">
        <path class="st6" d="M206.74,114.09c-3.15-7.59-.04-17.7,7.38-21.81,7.82-4.39,17.03-2.92,22.28,4.53-3.55-.36-7.03-1.16-10.37-.86-2.24.22-4.33.89-6.42,1.76-6.85,2.5-10.2,9.47-12.88,16.37h0Z"/>
        <path class="st6" d="M332.28,114.09c-2.9-7.92-6.83-15.09-15.02-17.26-4.79-1.81-9.58-.64-14.65-.02,5.31-7.4,14.43-8.84,22.25-4.47,7.4,4.1,10.5,14.16,7.42,21.75h0Z"/>
      </g>
      <g id="eyes">
        <g>
          <circle class="st10" cx="229.98" cy="136.24" r="23.73"/>
          <circle class="st3" cx="233.18" cy="142.44" r="13.91"/>
          <circle class="st10" cx="228.5" cy="137.35" r="4.75"/>
        </g>
        <g>
          <circle class="st10" cx="308.9" cy="136.03" r="23.73"/>
          <circle class="st3" cx="305.53" cy="142.56" r="13.93"/>
          <circle class="st10" cx="300.86" cy="137.47" r="4.75"/>
        </g>
      </g>
      <g id="mouth">
        <path class="st4" d="M296.11,178.01s-11.71,6.64-28.34,6.7c-16.62-.06-28.34-6.7-28.34-6.7,0,12.61,14.46,20.56,28.12,20.73h0c.07,0,.15,0,.22,0,.07,0,.15,0,.22,0h0c13.66-.18,28.12-8.13,28.12-20.74Z"/>
        <path class="st2" d="M267.77,190.16c-5.14,0-11.24,1.68-13.92,2.5-.57.17-.64.95-.11,1.23,3.27,1.74,9.01,3.17,14.04,3.17s10.77-1.42,14.04-3.17c.53-.28.45-1.05-.11-1.23-2.68-.82-8.78-2.5-13.92-2.5Z"/>
      </g>
    </g>
  </g>
  <g id="book_glow">
    <g class="st8">
      <g id="light">
        <circle class="st12" cx="268.56" cy="303.94" r="117.58"/>
        <circle class="st12" cx="266.77" cy="303.94" r="87.77"/>
        <circle class="st12" cx="265.6" cy="301.47" r="64.79"/>
        <circle class="st11" cx="266.77" cy="302.45" r="50.17"/>
        <circle class="st12" cx="266.55" cy="302.45" r="39.41"/>
      </g>
    </g>
  </g>
  <g id="book">
    <path class="st5" d="M12.46,345.95c4.58-2.37,9.32-7.39,9.61-9.17,0,0,1.33-.89,2.07-2.66s.03-3.38.03-3.38c0,0,2.64-1.65,2.19-4.31s-1.63-5.32-1.63-5.32h5.18s1.92-4.44,1.92-7.54-2.22-9.32-2.22-9.32c0,0,21.66-1.73,40.19-3.96s34.5-5.43,49.84-8.95,38.34-14.06,54.95-14.06,27.8-3.19,46.65,1.92c0,0-24.97-12.78-53.37-12.78s-60.78,10.16-76.96,14.76-46.81,3.33-51.42.48c0,0,21.42,2.38,35.07.32s49.35-14.44,60.94-16.98,20.63-4.28,35.71-4.28,42.69,3.33,64.27,16.35,33.46,28.4,33.46,28.4c0,0,45.55-46.78,117.44-46.78,43.33,0,45.3,13.29,84.45,13.29,20.86-.42,27.82-2.71,27.82-2.71,0,0-10.83,5.17-29.3,5.17-34.22,0-56.38-10.09-77.8-10.09s-50.47,11.33-50.47,11.33c0,0,18.84.81,38.53,6.35s61.73,16.44,84.1,18.35,31.73,2.48,44.92,2.1c0,0-2.1,4.2-2.1,7.45s2.1,8.6,2.1,8.6c0,0-.57,2.68,0,4.78s3.25,3.44,3.25,3.44c0,0-.38,4.4,1.72,6.69s4.59,2.1,4.59,2.1c0,0-.57,3.82,2.1,5.54s9.17,4.88,9.17,4.88H12.46Z"/>
    <path class="st7" d="M270.54,309.59c15.04-13.79,32.87-25.78,53.21-29.51-4.95,1.22-9.75,2.9-14.34,5.07-9.13,4.38-17.49,10.19-25.18,16.74-3.81,3.27-7.54,6.76-10.89,10.38l-2.81-2.68h0Z"/>
    <path class="st7" d="M277.02,305.84c7.05-5.02,14.07-10.4,22.32-13.53,11.37-4.31,23.74-4.94,35.75-4.4,14.05,1,27.73,5.26,41.12,9.23,24.57,7.22,48.7,16.87,74.49,17.84,8.56.29,17.12.64,25.68.51-10.68.6-21.45.81-32.14.51-6.46-.2-12.9-1.26-19.23-2.42-27.39-5.23-53.37-15.74-80.79-20.31-6.19-.97-12.52-1.2-18.78-.9-20.65.72-29.44,5.14-46.52,16.31,0,0-1.89-2.85-1.89-2.85h0Z"/>
    <path class="st7" d="M330.07,313.92c14.38-5.6,30.22-7.65,45.46-4.93,28.35,5.22,54.5,19.03,83.14,22.93,1.38.2,4.28.54,5.68.65,15.23,1.32,30.71,2.1,45.88-.24-7.47,1.92-15.22,2.53-22.92,2.89-7.72.31-15.44.05-23.14-.44-15.51-.92-30.44-5.76-44.98-10.87-31.57-11.14-55.49-22.03-89.14-9.98h0Z"/>
    <path class="st7" d="M460.55,324.84c16.79,1.87,33.81,2.96,50.55,0-14.85,5.6-35.38,4-50.55,0h0Z"/>
    <path class="st7" d="M321.76,324.84c9.22-4.05,19.07-7.06,29.24-7.17,9.99-.47,20.69,1.29,28.98,7.17-2.18-1.26-4.5-2.22-6.86-3.02-11.83-3.96-24.8-3.55-36.93-1.18-4.88,1.05-9.62,2.75-14.43,4.21h0Z"/>
    <path class="st7" d="M254.43,309.54c-10.63-13.33-25.37-22.28-42.29-24.82-2.01-.4-5.16-.62-7.22-.85,1.25.04,4.26.15,5.46.19,7.89.62,15.8,2.37,23.09,5.56,9.04,3.91,17.15,10.15,23.83,17.32,0,0-2.87,2.61-2.87,2.61h0Z"/>
    <path class="st7" d="M244.02,312.38c-6.1-5.94-12.92-11.03-20.57-14.56-23.16-10.33-51.54-6.94-75.3.29-8.34,2.53-16.2,6.24-24.53,8.9-8.36,2.69-16.93,4.6-25.54,6.05-17.21,2.78-34.81,4.08-52.15,2.03,25.93,1.72,52.34-2.14,76.93-10.36,8.18-2.9,16.06-6.79,24.36-9.49,8.34-2.81,16.91-4.98,25.63-6.28,22.18-3.1,45.44-2.3,64.26,11.31,3.7,2.55,7.12,5.47,10.37,8.5l-3.45,3.62h0Z"/>
    <path class="st7" d="M29.91,321.1c26.54,2.74,53.73,4.47,79.82-2.12,18.53-4.85,36.22-13.2,55.42-15.42,15.38-1.96,31.03,1.34,44.93,7.95-7.12-2.86-14.45-5.19-22-6.33-31.2-5.54-59.16,13.34-89.24,17.9-22.88,3.63-46.18,1.56-68.92-1.98h0Z"/>
    <path class="st7" d="M24.17,330.73c34.9,4.97,70.88.02,104.61-9.53-32.41,10.87-70.84,16.12-104.61,9.53h0Z"/>
    <path class="st7" d="M22.07,336.78c16.39,2.98,33.24,2.39,49.75.7-8.18,1.73-16.56,2.44-24.93,2.46-8.33-.09-16.84-.61-24.82-3.15h0Z"/>
    <path class="st7" d="M214.03,326.09c-19.01-7.78-35.33-9.3-55.26-3.91,19.91-6.13,36.51-5.09,55.93,2.09,0,0-.66,1.82-.66,1.82h0Z"/>
    <path class="st7" d="M288.29,308.24c-8.24-2.69-15.4-2.85-19.64,3.62-4.25-6.47-11.4-6.31-19.64-3.62-8.39,2.74-56.37,33.29-107.88,33.29h255.06c-51.51,0-99.5-30.55-107.88-33.29Z"/>
    <path class="st9" d="M308.62,342.45c0-18.09-17.94-32.76-40.06-32.76s-40.06,14.67-40.06,32.76h80.13Z"/>
    <path class="st19" d="M302.82,342.45c0-15.47-15.34-28.01-34.26-28.01s-34.26,12.54-34.26,28.01l34.26,10,34.26-10Z"/>
    <path class="st13" d="M296.85,342.49c0-12.73-12.62-23.09-28.2-23.09s-28.2,10.36-28.2,23.09l28.41,9.96,27.98-9.96Z"/>
    <path class="st14" d="M530.98,351.12l-218.89-9.42c-1.29-.06-2.56.32-3.61,1.05h0c-.08.06-12.64,8.31-40.17,8.36-27.53-.05-40.09-8.3-40.17-8.36h0c-1.06-.74-2.33-1.11-3.61-1.05l-218.89,9.42c-3.24.14-5.74,2.87-5.61,6.11.14,3.15,2.73,5.61,5.85,5.61.08,0,.17,0,.26,0l217.13-9.34c4.85,2.7,19.24,9.25,44.7,9.34.03,0,.06,0,.09,0,.08,0,.16,0,.24,0,.08,0,.16,0,.24,0,.03,0,.06,0,.09,0,25.46-.1,39.85-6.64,44.7-9.34l217.13,9.34c.09,0,.17,0,.26,0,3.12,0,5.72-2.46,5.85-5.61.14-3.24-2.37-5.97-5.61-6.11Z"/>
    <path class="st9" d="M530.98,346.12l-218.89-9.42c-1.29-.06-2.56.32-3.61,1.05h0c-.08.06-12.64,8.31-40.17,8.36-27.53-.05-40.09-8.3-40.17-8.36h0c-1.06-.74-2.33-1.11-3.61-1.05l-218.89,9.42c-3.24.14-5.74,2.87-5.61,6.11.14,3.15,2.73,5.61,5.85,5.61.08,0,.17,0,.26,0l217.13-9.34c4.85,2.7,19.24,9.25,44.7,9.34.03,0,.06,0,.09,0,.08,0,.16,0,.24,0,.08,0,.16,0,.24,0,.03,0,.06,0,.09,0,25.46-.1,39.85-6.64,44.7-9.34l217.13,9.34c.09,0,.17,0,.26,0,3.12,0,5.72-2.46,5.85-5.61.14-3.24-2.37-5.97-5.61-6.11Z"/>
  </g>
</svg>