<?xml version="1.0" encoding="UTF-8"?>
<svg xmlns="http://www.w3.org/2000/svg" viewBox="0 0 418.3 343.28">
  <defs>
    <style>
      .cls-1 {
        opacity: .1;
      }

      .cls-1, .cls-2, .cls-3, .cls-4 {
        stroke-width: 0px;
      }

      .cls-2 {
        fill: #231f20;
        opacity: .17;
      }

      .cls-3 {
        fill: #ff7b00;
      }

      .cls-4 {
        fill: #994500;
      }
    </style>
  </defs>
  <g id="shadow">
    <path class="cls-2" d="m14.14,232.81c16.89,12.83,36.83,19.9,56.87,20.18,12.33.17,20.59,8.62,30.82,14.05,19.48,10.35,43.4,12.39,64.66,17.44,4.49,1.07,9.16,2.23,12.8,5.53,3.69,3.35,5.87,8.47,8.49,13.04,14.84,25.84,43.49,33.41,69.36,38.93,4.12.88,8.33,1.76,12.47,1.03,7.91-1.39,14.36-8.51,18.6-16.57,4.25-8.06,6.77-17.22,10.22-25.8,4.12-10.24,9.59-19.7,13.04-30.28,3.45-10.58,4.69-22.96.25-33.01,10.27-3.22,19.68,6.78,28.67,13.51,20.09,15.04,47.61,14.52,67.3-1.25,4.76-3.82,9.54-10.25,7.63-16.7-1.03-3.47-3.73-5.77-6.29-7.81-42.2-33.71-87.9-61.19-135.74-81.61-9.35-3.99-18.82-7.73-28.59-9.89-11.22-2.49-22.7-2.88-34.11-3.05-22.68-.33-45.37.19-68.03,1.56-16.17.98-32.38,2.4-48.23,6.36-22.03,5.5-130.21,56.36-80.19,94.35Z"/>
    <path class="cls-2" d="m391.5,156.65c12.39-16.96,20.13-38.98,14.19-59.12-.43-1.46-.96-2.95-1.98-4.08-1.16-1.28-2.83-1.96-4.45-2.56-19.48-7.21-41.22-8.15-61.25-2.67-11.94,3.27-23.38,8.77-35.71,9.94-9.32.88-18.84-.76-28.01,1.13-13.28,2.74-23.89,12.41-33.78,21.69-13.08,12.28-26.88,25.83-30.04,43.49-3.36,18.77,7,38.39,22.86,48.98,15.86,10.59,36.18,12.99,54.97,9.77,41.39-7.08,78.73-33.04,103.2-66.56Z"/>
  </g>
  <g id="Leg-Left">
    <path class="cls-3" d="m93.72,231.03c-10.09,14.6-38.45,12.49-63.34-4.72C10.39,212.49-1.28,193.15.11,178.5c.35-3.59,1.48-6.9,3.47-9.78,9.51-13.76,35.23-12.67,58.99,1.89,1.46.89,2.91,1.84,4.35,2.83,24.89,17.21,36.89,42.99,26.8,57.59Z"/>
    <path class="cls-3" d="m3.58,168.72s24.05-35.05,74.09-39.65c50.04-4.6,16.05,101.96,16.05,101.96"/>
    <path class="cls-1" d="m70.44,169.93c-1.44-.99-2.57-2.26-4.03-3.15-5.89,4.96-15.6,8.06-25.95,9.91C15.33,164.32.11,178.5.11,178.5c-1.39,14.65,10.28,33.99,30.27,47.81,24.89,17.21,53.25,19.32,63.34,4.72,10.09-14.6,1.61-43.9-23.28-61.11Z"/>
    <path class="cls-4" d="m.11,178.5c8.99-9.8,25.49-8.94,37.41-6.07,17.01,4.33,32.61,15.07,41.72,30.19,2.21,3.76,4.08,7.71,5.41,11.82-2.15-3.75-4.43-7.36-7.03-10.71-2.52-3.26-5.5-6.57-8.53-9.34-12.67-11.74-29.19-19.34-46.41-20.9-7.75-.47-16.2.06-22.57,5.01H.11Z"/>
  </g>
  <g id="Body">
    <path class="cls-3" d="m407.44,110.54c-9.65,22.17-25.91,40.21-46.88,61.17-36.45,36.45-55.91,84-157.4,95.49-74.32,8.41-139.16-48.11-137.61-116.36.03-1.04.06-2.08.12-3.13,3.45-65.9,49.79-115.66,137.49-119.49,38.93-1.7,61.63-15.33,87.46-25.51,21.03-8.3,28.51,4.74,49.26,8.66,28.34,5.36,65.5-14.7,72.77,7.66,2.48,7.64,4.24,16.26,5.08,25.45,1.91,20.71-.82,44.3-10.29,66.06Z"/>
    <path class="cls-1" d="m407.44,110.54c-9.65,22.17-25.91,40.21-46.88,61.17-36.45,36.45-55.91,84-157.4,95.49-72.94,8.25-136.74-46.03-137.63-112.56-.02-1.5,1.71-2.35,2.88-1.4,34.94,28.46,107.16,58.11,177.87,23.66,20.6-10.04,35.92-15.64,62.94-59.12,4.51-7.26,11.08-13.01,18.9-16.46,21.21-9.35,64.12-30.11,86.88-53.87,1.07-1.11,2.95-.44,3.04,1.1,1.21,19.7-1.75,41.64-10.6,61.99Z"/>
    <path class="cls-4" d="m95.71,227.99c-21.55-19.3-33.66-49.03-31.35-77.92.52-6.62,1.7-13.18,3.26-19.62-.59,8.8-1.24,17.55-.54,26.19,1.67,26.2,12.58,50.75,28.63,71.35h0Z"/>
  </g>
  <g id="Leg-right">
    <path class="cls-3" d="m275.96,301.51c-1.92,3.24-5.19,7.58-8.93,10.38-14.2,10.64-40.43-.37-58.57-24.59-14.07-18.78-19.14-39.99-14.08-53.53,1.45-3.92,3.76-7.2,6.95-9.59,0,0,52.31-55.3,84.54-46.29h0c5.29,1.48,10.04,4.69,13.93,10.16,21.3,29.98-10.64,92.6-23.84,113.46Z"/>
    <path class="cls-1" d="m275.96,301.51c-1.92,3.24-5.19,7.58-8.93,10.38-14.2,10.64-40.43-.37-58.57-24.59-14.07-18.78-19.14-39.99-14.08-53.53,18.97-18.91,50.68,25.59,50.68,25.59,61.74-43.47,41.24-80.71,40.81-81.46,5.29,1.47,10.04,4.68,13.93,10.15,21.3,29.98-10.64,92.6-23.84,113.46Z"/>
    <path class="cls-4" d="m305.5,229.42c1.33-12.87,1.37-27-5.54-38.24-3.36-5.41-8.31-9.79-14.31-11.37-12.51-3.24-25.59,2.65-36.6,8.58-17.38,9.76-32.84,22.48-47.71,35.8,13.23-15.18,28.49-28.76,45.85-39.09,11.72-6.6,25.84-12.79,39.53-8.91,14,4.15,20.86,19.68,21.03,33.22.18,6.79-.69,13.51-2.24,20.01h0Z"/>
    <path class="cls-4" d="m263.12,314.15c-4.41-25.42-13.37-51.09-32.47-69.07-6.3-6.03-19.5-15.58-28.45-14.51-2.39.41-4.85,1.37-6.24,3.39-.93,1.63-1.54,3.44-2,5.27-2.09,9.5.65,19.26,3.33,28.5-4-8.97-7.52-18.98-5.95-29.04,1.02-6.3,3.8-10.11,10.24-11.42,10.54-1.72,24.43,8.03,31.8,14.9,19.49,18.46,28.53,45.74,29.73,71.99h0Z"/>
  </g>
  <g id="hand-Right">
    <path id="Thumb" class="cls-3" d="m386.95,210.01s26.58-4.35,26.55,10.89c-.02,16.33-44.6-5.88-44.6-5.88l18.04-5.01Z"/>
    <path class="cls-3" d="m397.35,248.4c-4.28,1.47-8.87,1.87-13.36,1.32-89.71-10.84-81.13-98.6-81.13-98.6.2-.93.41-1.84.64-2.73,10.19-40.38,47.18-37.35,54.51-33.36,7.49,4.09,19.74,25.19,19.74,38.81s2.39,29.62,24.18,62.3c1.64,2.46,2.96,4.75,3.99,6.86,7.87,16.17-.84,22.74-8.57,25.4Z"/>
    <path class="cls-1" d="m397.35,248.4c-4.28,1.47-8.87,1.87-13.36,1.32-89.71-10.84-81.13-98.6-81.13-98.6.2-.93.41-1.84.64-2.73,11.33,30.63,46.31,107.51,102.42,74.61,7.87,16.17-.84,22.74-8.57,25.4Z"/>
    <path class="cls-4" d="m408.1,228.55c-2.95-3.16-5-6.63-7.13-10.22-2.14-3.62-4.07-7.42-5.07-11.6,6.41,5.51,12.34,12.97,12.2,21.82h0Z"/>
    <path class="cls-4" d="m377.75,153.84c-1.73-7.27-4.73-13.8-8-20.4-2.45-4.83-5.1-9.69-8.2-14.15-1.06-1.55-2.19-2.93-3.55-4.25,11.87,4.62,22.38,26.48,19.74,38.8h0Z"/>
    <path class="cls-4" d="m302.86,151.12c1.45,19.69,5.26,39.3,13.8,57.16,1.12,2.64,2.61,5.05,3.8,7.68-1.46-1.59-2.87-3.24-4.24-4.92-2-2.75-4.24-6.17-5.76-9.21-1.38-2.47-2.54-5.33-3.59-7.95-4.91-13.56-6.86-28.56-4-42.76h0Z"/>
  </g>
</svg>