<?xml version="1.0" encoding="UTF-8"?>
<svg xmlns="http://www.w3.org/2000/svg" xmlns:xlink="http://www.w3.org/1999/xlink" version="1.1" viewBox="0 0 734.09 887.55">
  <!-- Generator: Adobe Illustrator 29.1.0, SVG Export Plug-In . SVG Version: 2.1.0 Build 142)  -->
  <defs>
    <style>
      .st0 {
        fill: #babae2;
      }

      .st1, .st2, .st3, .st4, .st5, .st6, .st7, .st8, .st9, .st10, .st11 {
        stroke-miterlimit: 10;
      }

      .st1, .st2, .st3, .st4, .st6, .st7, .st8, .st9, .st11 {
        fill: none;
      }

      .st1, .st3, .st4, .st6, .st7, .st8, .st9, .st11 {
        stroke: #5c5ccc;
        stroke-linecap: round;
        stroke-width: 2px;
      }

      .st1, .st12 {
        opacity: .25;
      }

      .st13 {
        mix-blend-mode: darken;
        opacity: .15;
      }

      .st13, .st14, .st15, .st16 {
        fill: #cdcaf7;
      }

      .st17 {
        fill: #b24e00;
      }

      .st18 {
        fill: #3a200a;
      }

      .st19 {
        fill: blue;
      }

      .st19, .st20 {
        opacity: .1;
      }

      .st21 {
        fill: #4e48cc;
      }

      .st22 {
        isolation: isolate;
      }

      .st2 {
        stroke: url(#linear-gradient1);
        stroke-width: 40px;
      }

      .st3, .st16 {
        opacity: .75;
      }

      .st23 {
        mix-blend-mode: multiply;
      }

      .st4 {
        opacity: .45;
      }

      .st24 {
        fill: #5750e3;
      }

      .st25 {
        fill: #fff;
      }

      .st5 {
        fill: url(#linear-gradient);
        stroke: #babae2;
        stroke-width: 4px;
      }

      .st7 {
        opacity: .35;
      }

      .st26 {
        fill: #894406;
      }

      .st15 {
        opacity: .51;
      }

      .st27 {
        fill: url(#radial-gradient1);
      }

      .st8 {
        opacity: .55;
      }

      .st28 {
        fill: #e56e00;
      }

      .st29 {
        fill: #ff7b00;
      }

      .st9 {
        opacity: .85;
      }

      .st10 {
        fill: url(#radial-gradient);
        stroke: #fff;
        stroke-opacity: .75;
        stroke-width: 7px;
      }

      .st30 {
        display: none;
      }

      .st11 {
        opacity: .65;
      }

      .st31 {
        fill: #5c5ccc;
        opacity: .87;
      }

      .st32 {
        fill: #8b8bcc;
      }
    </style>
    <linearGradient id="linear-gradient" x1="108.02" y1="384.71" x2="256.13" y2="444.65" gradientUnits="userSpaceOnUse">
      <stop offset="0" stop-color="#fff"/>
      <stop offset=".03" stop-color="#edefff"/>
      <stop offset=".1" stop-color="#cacfff"/>
      <stop offset=".13" stop-color="#bdc4ff"/>
      <stop offset=".32" stop-color="#888dd5"/>
      <stop offset=".56" stop-color="#4e51a7"/>
      <stop offset=".76" stop-color="#232585"/>
      <stop offset=".91" stop-color="#090a70"/>
      <stop offset="1" stop-color="#000069"/>
    </linearGradient>
    <radialGradient id="radial-gradient" cx="338.68" cy="302.43" fx="338.68" fy="302.43" r="212.75" gradientTransform="translate(293.78 -142.26) rotate(30.34)" gradientUnits="userSpaceOnUse">
      <stop offset="0" stop-color="#fff" stop-opacity="0"/>
      <stop offset=".19" stop-color="#fefeff" stop-opacity=".01"/>
      <stop offset=".34" stop-color="#fdfdff" stop-opacity=".05"/>
      <stop offset=".48" stop-color="#fafaff" stop-opacity=".12"/>
      <stop offset=".61" stop-color="#f7f7ff" stop-opacity=".21"/>
      <stop offset=".73" stop-color="#f3f3ff" stop-opacity=".33"/>
      <stop offset=".86" stop-color="#ededff" stop-opacity=".48"/>
      <stop offset=".97" stop-color="#e7e7ff" stop-opacity=".65"/>
      <stop offset="1" stop-color="#e6e6ff" stop-opacity=".7"/>
    </radialGradient>
    <linearGradient id="linear-gradient1" x1="68.11" y1="249.64" x2="297.77" y2="249.64" gradientUnits="userSpaceOnUse">
      <stop offset="0" stop-color="#5c5ccc"/>
      <stop offset="1" stop-color="#8b8bcc"/>
    </linearGradient>
    <radialGradient id="radial-gradient1" cx="434.85" cy="288.23" fx="434.85" fy="288.23" r="201.17" gradientUnits="userSpaceOnUse">
      <stop offset=".75" stop-color="#fff" stop-opacity=".35"/>
      <stop offset=".86" stop-color="#fff" stop-opacity=".36"/>
      <stop offset=".9" stop-color="#fff" stop-opacity=".38"/>
      <stop offset=".93" stop-color="#fff" stop-opacity=".43"/>
      <stop offset=".95" stop-color="#fff" stop-opacity=".5"/>
      <stop offset=".97" stop-color="#fff" stop-opacity=".58"/>
      <stop offset=".99" stop-color="#fff" stop-opacity=".69"/>
      <stop offset="1" stop-color="#fff" stop-opacity=".75"/>
    </radialGradient>
  </defs>
  <g class="st22">
    <g id="Layer_3">
      <rect class="st30" width="734.09" height="887.55"/>
      <path class="st5" d="M107.03,560.01h0c-37.51-15.46-55.39-58.39-39.93-95.9l68.13-165.35c15.46-37.51,58.39-55.39,95.9-39.93h0c37.51,15.46,55.39,58.39,39.93,95.9l-68.13,165.35c-15.46,37.51-58.39,55.39-95.9,39.93Z"/>
      <g>
        <ellipse class="st32" cx="141.76" cy="341.64" rx="37.53" ry="26.52" transform="translate(-228.12 342.56) rotate(-67.61)"/>
        <ellipse class="st14" cx="140.26" cy="340.15" rx="36.73" ry="25.14" transform="translate(-227.68 340.25) rotate(-67.61)"/>
      </g>
    </g>
    <g id="Layer_1">
      <g>
        <g>
          <path class="st25" d="M417.77,827.13c-11.83,0-26.23-4.62-40.55-13-18.58-10.88-48.87-48.68-52.55-59.05l-.45-1.26-1.34-.07c-.34-.02-34.13-1.89-69.17-22.4-34.58-20.24-50.81-33.94-67.18-50.77l-.93-.96-1.24.49c-.19.07-19.02,7.41-44.85,7.41-29.96,0-56.65-9.42-79.32-28-26.35-21.59-36.61-41.8-30.5-60.05.8-2.39,1.91-5,2.89-7.24,3.28-7.51,11.99-27.45,43.27-53.09,33.4-27.37,47.18-34.4,47.31-34.47l1.01-.51.09-1.13c.03-.38,3.31-38.11,33.8-70.19l1.98-2.08-2.64-1.13c-.26-.11-25.93-11.32-29.73-28.22-3.78-16.8,18.93-38.77,19.16-38.99.21-.18,26.3-23.23,55.25-33.38,29.09-10.2,36.02-11.93,36.08-11.94l.85-.21.43-.76c.03-.05.64-1.15,1.31-2.97,10.21-2.13,20-3.21,29.13-3.21,32.69,0,57.97,13.89,73.1,40.16.88,1.52,1.81,3.15,2.79,4.87,25.12,43.86,83.94,146.56,162.69,146.56.82,0,1.65-.01,2.48-.03,47.5-1.31,82.46-36.51,92.05-47.27.21-.24.43-.48.65-.73-1.79,18.78-7.27,71.35-14.57,96.92-9.51,33.35-17.7,57.27-25.77,75.29l-.12.28-.04.3c-.09.74-9.38,74.48-49.43,124.47-18.11,22.61-36.06,41.14-53.33,55.06-17.87,14.4-28.62,18.69-32.41,19.87-3.01.94-6.44,1.41-10.2,1.41Z"/>
          <path class="st0" d="M269.87,311.96c16.31,0,30.74,3.47,42.88,10.32,11.67,6.58,21.26,16.28,28.49,28.84.88,1.52,1.81,3.15,2.79,4.87,25.29,44.16,84.51,147.57,164.43,147.57.84,0,1.7-.01,2.54-.03,19.19-.53,38.36-6.47,56.97-17.64,14.95-8.98,26.3-19.48,33.1-26.59-2.22,22.16-7.33,67.51-13.92,90.61-9.48,33.25-17.64,57.09-25.68,75.02l-.25.55-.07.6c-.02.18-2.31,18.69-9.51,43.1-6.6,22.41-18.82,54.54-39.5,80.36-40.35,50.38-72.27,70.39-84.78,74.28-2.82.88-6.05,1.32-9.6,1.32-11.48,0-25.53-4.52-39.54-12.72-17.86-10.46-48.16-48.09-51.67-57.99l-.9-2.52-2.67-.13c-.33-.02-33.68-1.89-68.26-22.13-34.38-20.12-50.51-33.73-66.76-50.44l-1.86-1.91-2.48.98c-.18.07-18.71,7.27-44.12,7.27-29.49,0-55.75-9.27-78.05-27.54-16.14-13.23-26.21-26.04-29.93-38.1-2.82-9.13-1.32-15.66.06-19.77.77-2.31,1.86-4.87,2.82-7.08,3.23-7.39,11.79-27.01,42.7-52.34,33.11-27.14,46.81-34.16,46.94-34.22l2.02-1.01.18-2.25c.03-.37,3.3-37.45,33.26-68.97l3.95-4.16-5.27-2.27c-.25-.11-25-10.93-28.57-26.82-2.92-12.98,12.34-31.09,18.54-37.06,1.3-1.14,26.62-23.19,54.58-32.99,28.85-10.12,35.83-11.87,35.89-11.89l1.7-.41.85-1.53c.07-.12.5-.9,1.03-2.21,9.69-1.96,18.99-2.95,27.66-2.95M269.87,307.96c-9.5,0-19.71,1.13-30.64,3.48-.76,2.32-1.54,3.72-1.54,3.72,0,0-6.59,1.59-36.27,12-29.69,10.41-55.97,33.82-55.97,33.82,0,0-23.81,22.76-19.73,40.88,4.08,18.11,30.9,29.62,30.9,29.62-31.38,33.01-34.34,71.41-34.34,71.41,0,0-13.61,6.78-47.69,34.71-31.26,25.62-40.31,45.77-43.83,53.83-1.04,2.39-2.14,4.98-2.95,7.41-2.75,8.22-7.86,30.28,31.13,62.23,27.44,22.49,56.99,28.45,80.58,28.45,26.57,0,45.59-7.55,45.59-7.55,15.38,15.82,31.68,30.07,67.6,51.1,35.93,21.03,70.09,22.67,70.09,22.67,3.76,10.59,34.29,48.9,53.42,60.1,14.5,8.49,29.36,13.27,41.56,13.27,3.9,0,7.53-.49,10.79-1.5,13.46-4.18,45.83-24.55,86.71-75.6,40.88-51.04,49.85-125.48,49.85-125.48,8.56-19.11,16.9-44.11,25.87-75.55,8.57-30.04,14.68-97.48,15.21-103.47-1.5,1.75-3.05,3.54-4.7,5.4-15.82,17.76-48.89,45.46-90.61,46.61-.81.02-1.62.03-2.43.03-80.7,0-140.91-110.78-163.75-150.43-14.96-25.98-40.06-41.17-74.84-41.17h0Z"/>
        </g>
        <g>
          <path class="st25" d="M609.85,440.06c1.05-14.33,1.62-33.21-.15-62.43-1.83-30.23-9.35-62.32-10.8-68.29,4.92-8.66,31.76-55.29,44.43-66.4,9.84-8.62,22.36-17.64,31.5-24.23,4.26-3.07,7.94-5.72,10.24-7.54,2.85-2.25,5.23-3.35,7.28-3.35s4.2,1.14,6.69,3.58c3.81,3.72,6.4,9.25-3.57,35.58l-.8,2.12,2.04,1c.16.08,4.22,2.21,5.82,7.39,1.54,4.99-2.96,10.79-3,10.85l-1.9,2.42,2.75,1.37c.86.44,8.36,4.61,4.26,14.16-5.22,12.18-12.99,20.69-18.89,20.69h0c-.28,0-.56-.02-.83-.05l-2.18-.29-.56,2.12c-.13.48-13.09,48.67-36.5,85.5-15.76,24.79-28.75,38.96-35.83,45.78Z"/>
          <path class="st0" d="M692.36,210.34c.86,0,2.32.3,4.94,2.87,3.06,3,5.27,8.01-4.16,32.91l-1.79,4.31,4.23,1.93c.38.21,3.36,1.97,4.57,5.89.95,3.07-1.61,7.32-2.57,8.55l-4.06,4.91,5.73,2.67c1.53.82,6.09,3.95,3.09,10.95-4.69,10.93-11.82,19.17-16.59,19.17-.17,0-.34-.01-.5-.03l-4.36-.57-1.13,4.25c-.13.48-13,48.32-36.19,84.8-11.37,17.88-22.27,31.55-30.79,40.6.74-13.54.94-31.03-.58-56.05-1.77-29.21-8.71-59.77-10.63-67.77,14.29-25.1,33.85-56.51,43.42-64.89,9.75-8.54,22.21-17.52,31.31-24.08,4.46-3.22,7.99-5.76,10.33-7.6,2.36-1.86,4.28-2.81,5.73-2.81M692.36,205.34c-2.64,0-5.49,1.24-8.84,3.89-7.05,5.58-27.26,19.07-41.83,31.84-13.33,11.68-40.84,59.76-45.45,67.91.12.46,8.96,35.79,10.97,68.81,1.91,31.59,1.15,51.21-.35,68.36,3.89-3.25,20.15-17.82,40.93-50.52,23.9-37.6,36.8-86.2,36.8-86.2.38.05.77.08,1.15.08,8,0,16.23-10.65,21.19-22.2,5.19-12.11-5.44-17.39-5.44-17.39,0,0,5.39-6.78,3.43-13.14-1.96-6.35-7.1-8.89-7.1-8.89,9.53-25.19,8.4-32.95,2.98-38.25-2.84-2.78-5.52-4.29-8.44-4.29h0Z"/>
        </g>
      </g>
      <path class="st14" d="M582.62,475.82s0,157.19-163.51,229.01c-56.48,26.79-149.47,34.58-149.47,34.58l51.86,16.76s40.86,73.37,92.83,73.37,114.31-98.44,114.31-98.44c0,0,26.36-39.31,35.2-104.13,0,0,34.44-54.28,41.08-179.02l-22.3,27.87Z"/>
      <path class="st15" d="M566.67,481.35s-32.38,22.73-72.47,17.99c-40.09-4.75-90.22-57.22-108.68-84.69-18.46-27.48-41.09-65.74-41.09-65.74,19.42,46.23,38.23,88.96,56.69,121.92,18.46,32.96,42.64,53.3,66.21,67.68,6.62,4.03,17.03,9.88,26.87,11.52-11.52,25.23-31.13,40.44-52.14,49.34-111.16,47.08-198.89-18.51-198.89-18.51-30.12,10.67-83.91,22.26-120.09,28.16-36.18,5.89-61.4,1.47-73.44-6.56-11.26-7.51-10.61-18.82-9.08-29.51-5.64,8.24-8.46,14.56-10.08,18.28-1.04,2.39-2.14,4.98-2.95,7.41-2.75,8.22-7.86,30.28,31.13,62.23,58.35,47.82,126.17,20.9,126.17,20.9,15.38,15.82,31.68,30.07,67.6,51.1,35.93,21.03,70.09,22.67,70.09,22.67,3.76,10.59,34.29,48.9,53.42,60.1,19.13,11.2,38.9,15.95,52.35,11.77,13.46-4.18,45.83-24.56,86.71-75.6,40.88-51.04,49.85-125.48,49.85-125.48,8.56-19.11,16.9-44.11,25.87-75.55,8.97-31.45,15.24-103.9,15.24-103.9,0,0-23.77,23.66-39.29,34.48Z"/>
      <g class="st23">
        <path class="st13" d="M508.18,502.85c-79.64,0-138.77-103.26-164.02-147.35-.98-1.71-1.91-3.33-2.78-4.85-14.85-25.78-39.67-39.41-71.79-39.41-18.91,0-40.33,4.64-63.65,13.8l-3.9,1.53-.83-4.11c-.53-2.62-12.57-65.1,24.31-139.23,19.92-40.04,50.07-73.04,87.21-95.45,35.42-21.37,76.16-32.67,117.8-32.67s80.94,10.94,116.18,31.63c28.14,16.42,52.16,36.74,71.38,60.4,18.81,23.15,32.62,48.98,41.05,76.76,8.44,27.83,11.27,56.92,8.39,86.46-2.95,30.27-11.83,60.35-26.4,89.42-10.2,20.35-18.77,34.48-37.27,55.25-9.69,10.87-45.04,46.46-93.14,47.78-.84.02-1.68.03-2.52.03h0Z"/>
        <path class="st0" d="M430.52,58.65c39.18,0,78.72,10.2,114.39,31.14,112.97,65.92,151.61,191.66,93.06,308.42-10.28,20.5-18.59,34.1-36.75,54.48-15.82,17.76-48.89,45.46-90.61,46.61-.81.02-1.62.03-2.43.03-80.69,0-140.92-110.78-163.75-150.43-14.97-25.99-40.05-41.17-74.84-41.17-18.83,0-40.5,4.45-64.94,14.05,0,0-12.75-63.06,24.01-136.96,41.02-82.45,120.7-126.17,201.86-126.17M430.52,51.61c-42.29,0-83.65,11.47-119.62,33.18-37.71,22.75-68.32,56.26-88.54,96.89-19.52,39.24-25.2,75.46-26.52,98.93-1.44,25.61,1.77,41.88,1.91,42.56l1.66,8.22,7.81-3.07c22.92-9,43.9-13.56,62.37-13.56,15.78,0,29.71,3.34,41.39,9.93,11.19,6.31,20.39,15.63,27.35,27.71.87,1.52,1.8,3.14,2.78,4.85,25.55,44.62,85.4,149.11,167.07,149.11.88,0,1.74-.01,2.62-.04,19.72-.54,39.39-6.63,58.45-18.08,18.18-10.92,31.12-24.04,37.22-30.88,18.76-21.06,27.45-35.39,37.79-56.01,14.77-29.45,23.77-59.95,26.76-90.65,2.92-30,.05-59.54-8.53-87.82-8.56-28.22-22.59-54.45-41.69-77.96-19.49-23.98-43.83-44.58-72.35-61.22-35.76-21-76.55-32.1-117.94-32.1h0Z"/>
      </g>
      <path class="st29" d="M607.21,377.78c-2-33.03-10.85-68.35-10.97-68.81-.43.76-.67,1.18-.67,1.18,0,0-7.36-52.11-19.16-86.95-11.8-34.83-47.14-56.94-62.39-61.6-15.25-4.67-47.51-1.3-72.71-5.16-25.19-3.86-90.48-16.04-90.48-16.04,0,0-40.51-7.62-65.14,11.57-24.63,19.19-45.23,61.12-51.76,88.44s4.48,48.42,6.09,57.7c.92,5.3-.06,10.02-1.07,13.1,50.97-10.97,86.43,4.6,105.48,37.68,23.07,40.05,84.27,152.66,166.18,150.4,41.72-1.15,74.79-28.85,90.61-46.61,1.65-1.86,3.2-3.64,4.7-5.4.02-.28.04-.43.04-.43,0,0,.31-.24.89-.72,1.51-17.15,2.27-36.77.35-68.36Z"/>
      <g>
        <path class="st14" d="M125.93,390.44c-1,3.77-1.31,7.58-.5,11.2,4.08,18.11,30.9,29.62,30.9,29.62-1.52,1.6-2.96,3.22-4.35,4.85.29.18.58.36.87.54,23.52,14.4,50.6,9.88,76.14,1.03,25.54-8.86,43.8-10.07,61.89-8.88,18.1,1.19,29.81,3.66,32.49-.92,2.68-4.58,1.74-14.75-17.62-26.09-34.53-20.21-83.42-13.74-122.53-6.87-39.1,6.87-47.41,2.32-47.41,2.32,0,0-7.45-2.79-8.75-7,0,0-.44.06-1.15.21Z"/>
        <path class="st14" d="M682.83,269.11l18.74,1.24.33-.21c-.26-.15-.41-.23-.41-.23,0,0,5.39-6.78,3.43-13.14-1.96-6.35-7.1-8.89-7.1-8.89.12-.33.24-.64.36-.96l-2.32-.06-13.02,22.25Z"/>
        <g>
          <path class="st28" d="M566.67,481.35c15.52-10.82,39.29-34.48,39.29-34.48l-.11-55.75c-.55,23.83-13.2,57.04-39.19,90.23Z"/>
          <path class="st16" d="M685.99,307.11l-3.95-.31-3.05-4.52s-3.01,13.05-21.37,49.65c-18.37,36.61-51.76,39.18-51.76,39.18l.11,55.75s17.93-13.65,41.83-51.25c23.9-37.6,37.29-87.98,37.29-87.98.32.04.64.04.95.05l-.05-.58Z"/>
        </g>
      </g>
      <path class="st25" d="M375.8,276.12c2.48,22.52,20.89,53.82,53.21,54.91s41.48-36.91,37.43-60.54c-4.01-23.43-23.86-51.99-54.79-50.09-40.93,4.16-35.85,55.72-35.85,55.72Z"/>
      <path class="st25" d="M526.26,292.81c-.16-.86-.34-1.7-.55-2.55-2.92-11.97-2.62-26.17,3.43-38.02,6.31-12.36,19.74-10.4,19.74-10.4,0,0,17.37,1.86,28.43,26.79,6.17,13.92,6.76,26.17,6.08,34.29-.61,7.25-3.18,14.24-7.62,19.99-2.52,3.26-5.76,5.99-9.26,6.76-9.16,1.99-19.18-1.07-29.81-14.86-7.81-10.57-9.92-19.14-10.44-21.99Z"/>
      <path class="st26" d="M457.2,358.68c-2.26-.7-4.45,1.27-3.98,3.59,2.57,12.79,9.92,45.83,19.46,59.14,11.78,16.44,26.09,30.29,51.56,25.09.67-.14,1.15-.74,1.14-1.42-.17-8.68-.94-62.76,5.12-71.48,6.6-9.49,4.83-8.69,3.3-10.11s-1.77.79-5.94,2.54-18.95,3.31-33.92,1.61c-10.98-1.24-28.29-6.34-36.75-8.96Z"/>
      <path class="st17" d="M463.3,393.47s7.88,23.62,18.06,34.77c10.18,11.15,20.69,17.48,30.95,17.34,0,0-7.7-30.82-23.44-43.29-15.74-12.48-25.57-8.82-25.57-8.82Z"/>
      <path class="st18" d="M438.64,312.62c8.5.34,19.05-4.72,23.25-18.22,2.05-6.6,1.9-13.69-.05-20.32-4.36-14.84-15.05-22.93-17.62-24.43-3.12-1.82-14.6-8.3-25.99-.19-11.39,8.11-13.68,22.53-10.74,34.34,2.94,11.81,12.62,28.07,31.15,28.82Z"/>
      <path class="st25" d="M425.86,284.18c3.31.13,7.41-1.84,9.05-7.09.8-2.57.74-5.33-.02-7.91-1.7-5.78-5.86-8.92-6.86-9.51-1.21-.71-5.68-3.23-10.11-.07s-5.32,8.77-4.18,13.36,4.91,10.92,12.12,11.21Z"/>
      <path class="st18" d="M530.96,292.04c-.1-.53-.21-1.06-.34-1.59-1.82-7.45-1.63-16.29,2.14-23.67,3.93-7.69,12.29-6.48,12.29-6.48,0,0,10.81,1.16,17.7,16.68,3.84,8.66,4.21,16.29,3.78,21.34-.38,4.51-1.98,8.86-4.75,12.44-1.57,2.03-3.59,3.73-5.77,4.21-5.7,1.24-11.94-.67-18.56-9.25-4.86-6.58-6.18-11.92-6.5-13.69Z"/>
      <path class="st25" d="M533.73,282.99c-.04-.21-.08-.42-.14-.63-.72-2.95-.65-6.46.85-9.38,1.56-3.05,4.87-2.57,4.87-2.57,0,0,4.28.46,7.01,6.61,1.52,3.43,1.67,6.46,1.5,8.46-.15,1.79-.78,3.51-1.88,4.93-.62.8-1.42,1.48-2.29,1.67-2.26.49-4.73-.27-7.35-3.67-1.93-2.61-2.45-4.72-2.58-5.42Z"/>
      <path class="st26" d="M374.34,221.55c-2.27-17.66,7.37-40.64,27.3-42.25,11.22-1.12,22.42,3.63,30.36,11.26,2.06,2.05,3.98,4.21,5.42,6.77-11.24-2.87-22.29-6.34-33.76-5.16-7.3.74-12.13,4.87-17.49,11.69-4.11,5.22-7.74,11.28-11.83,17.68h0Z"/>
      <path class="st26" d="M529.11,213.14c9.54-7.63,24.77-6.25,33.57,2.27,8.67,8,12.37,20.99,9.83,32.4-2.87-4.02-6.09-9.35-8.75-13.44-8.87-14.23-17.58-19.5-34.65-21.23h0Z"/>
      <path class="st21" d="M593.9,299.71c7.42,28.26,12.63,57.34,13.8,86.55,1.55,29.18.73,58.68-4.44,87.47.89-34.55-.12-68.98-2.69-103.42-.6-7.85-1.75-19.19-2.59-27.06-1.25-14.34-3.67-29.49-4.07-43.55h0Z"/>
      <path class="st32" d="M702.16,235.25c-2.99,13.44-10.2,25.81-19.79,35.62,0,0-1.72-3.31-1.72-3.31,2.86-.65,5.68-.89,8.58-.88,4.45.11,9.28.58,13.28,3.13,3.95,2.56,6.52,7.54,5.82,12.12-5.8-7.55-10.31-8.83-19.38-9.51-1.27-.12-2.55-.24-3.84-.36-2.86-.27-5.75-.05-8.55.64h0c3.88-6.75,9.39-14.51,13.87-20.93,3.84-5.55,7.51-11.15,11.74-16.51h0Z"/>
      <path class="st32" d="M678.99,302.28c1.68,1.22,2.9,3.69,4.71,4.45,3.53,1.04,8.07-1.88,11.05-4.09,1.85-1.31,3.69-2.69,5.71-3.96-2.95,5.2-7.44,10.39-13.8,10.99-5.09.56-6.37-3.45-7.66-7.39h0Z"/>
      <path class="st32" d="M569.9,614.31c-12.3,31.55-31.54,60.33-55.05,84.69-22.99,24.69-52.18,44.96-84.99,53.84,22.83-10.8,43.93-23.95,62.2-41.18,30.69-28.31,56.33-61.5,77.83-97.35h0Z"/>
      <path class="st32" d="M356.81,760.85c-34.3-2.62-69.17-8.8-99.73-25.31-15.95-8.82-31.82-17.88-46.5-28.78-9.74-7.34-18.42-16.12-26.1-25.52,6.21,5.19,12.36,10.39,18.79,15.12,12.9,9.53,27.06,16.96,41.01,24.87,6.18,3.43,14.77,8.5,21,11.58,28.56,14.58,60.38,21.14,91.52,28.05h0Z"/>
      <path class="st32" d="M246.44,611.21c-13.84,35.66-35.91,65.13-74.57,75.19-11.89,3.1-24.22,3.88-36.24,2.83,17.94-1.68,35.37-5.49,51.26-13.78,15.71-8.18,28.81-20.27,39.55-34.39,7.36-9.44,13.29-19.9,20-29.85h0Z"/>
      <path class="st32" d="M98.62,518.63c18.44-14.9,44.47-28.21,67.98-31.94-22.76,9.65-45.36,21.94-67.98,31.94h0Z"/>
      <path class="st32" d="M147.62,426.65c6.31,1.64,12.39,4.17,18.98,3.94,6.29-.12,12.55-1.69,18.71-3.67,18.88-5.88,36.87-16,56.69-18.7,13.34-2.2,27.25-1.69,40.24,2.16,6.47,1.89,12.6,4.63,18.43,7.8-3.18-.97-6.34-1.97-9.51-2.81-30.99-8.34-56.55-.86-85.15,10.98-11.79,4.22-24.31,8.41-37.02,8.06-7.85-.2-14.78-3.98-21.37-7.74h0Z"/>
      <path class="st32" d="M206.64,401.96c-5.2,8.07-12.82,16.06-23.04,16.88-5.38.25-11.01-2.03-14.18-6.52-6.49-10.14,2.15-23.64,7.95-32.09-2.67,8.57-7.38,17.25-5.9,26.12,1.11,5.32,6.89,8.24,11.98,8.23,9.07-.35,16.27-6.88,23.18-12.62h0Z"/>
      <g>
        <g>
          <circle class="st25" cx="360.58" cy="476.36" r="47.48"/>
          <g class="st12">
            <path class="st21" d="M395.64,511.43c-13.62,14.46-36.1,19.8-54.64,12.19-25.95-10.37-38.35-41.02-26.84-66.48,13.98-31.84,56.21-39.64,80.5-14.86,18.64,18.51,19.55,50.15.98,69.15h0ZM392.66,508.44c23.95-22.91,16.78-62.64-14.27-75.08-23.13-9.42-50.41,2.56-59.13,25.89-11.19,29.1,10.37,60.43,41.31,61.36,11.73.46,23.56-3.98,32.08-12.17h0Z"/>
          </g>
        </g>
        <path class="st24" d="M330.97,495.27c.14-.32,1.21-1.97,1.47-2.36,1.64-2.2,3.86-3.98,6.27-5.24,4.08-2.12,8.51-2.74,12.8-2.77,4.81.01,9.26.96,14.23-.18.27-.05.58-.15.85-.21,10.51-2.86,19.21-15.39,11.51-23.86l-.65-.65c-4.46-4.16-12.93-6.7-19.34-3.4-3.28,1.69-5.96,5.22-4.7,8.69,1.78,4.9,10.83,9.65,16.06,5.59.73-.58,1.39-1.38,1.45-2.23.28-3.07-5.11-4.23-7.35-4.44-1.6-.13-4.5.47-3.91-2.21.55-2.48,4.64-2.54,6.47-2.42,2.59.15,5.06.99,7.07,2.28,6.54,4.03,4.06,13.24-3.03,16.92-6.93,3.67-15.13,3.45-21.7,1.1-6.68-2.38-13.22-7.63-11.71-15.94.83-4.41,3.62-8.47,7.25-11.45,10.02-8.26,23.79-9.36,34.13-4.73,11.1,4.97,21.05,17.66,16.5,31.51-.16.47-.33.94-.52,1.41-2.72,6.43-9.07,11.83-15.5,14.21-6.19,2.29-12.59,1.92-18.56.91-6.62-1.09-18.49-4.68-29.26-.27,0,0,.16-.26.16-.26Z"/>
      </g>
    </g>
    <g id="Layer_2">
      <path class="st10" d="M601.22,452.69c18.16-20.38,26.47-33.98,36.75-54.48,58.54-116.76,19.9-242.5-93.06-308.42-109.58-64.34-255.43-27.23-316.25,95.02-36.76,73.9-24.01,136.96-24.01,136.96,69.58-27.32,116.71-12.93,139.78,27.12,23.07,40.05,84.27,152.66,166.18,150.4,41.72-1.15,74.79-28.85,90.61-46.61Z"/>
      <ellipse class="st32" cx="285.28" cy="236.37" rx="38.77" ry="30.9" transform="translate(-41.95 410.09) rotate(-67.61)"/>
      <path class="st32" d="M189.4,331.75c29.41-21.68,87.02-30.02,119.74-12.14-30.15-5.77-60.49-1.97-90.19,4.25-9.98,2.19-19.83,4.52-29.55,7.9h0Z"/>
      <ellipse class="st14" cx="283.95" cy="233.61" rx="36.73" ry="29.29" transform="translate(-40.23 407.15) rotate(-67.61)"/>
      <ellipse class="st32" cx="283.95" cy="233.61" rx="20.56" ry="16.4" transform="translate(-40.23 407.15) rotate(-67.61)"/>
      <ellipse class="st31" cx="136.15" cy="339.11" rx="20.15" ry="16.4" transform="translate(-229.26 335.81) rotate(-67.61)"/>
      <path class="st2" d="M283.95,233.61c-30.59-29.26-59.8-85.76-125.86-68.72-17.97,5.68-35.66,14.56-47.94,29.25-18.71,22.4-24.8,56.34-20.94,84.7,3.69,27.07,19.16,47.1,43.69,58.67.9.42,1.8.83,2.72,1.21"/>
      <path class="st6" d="M283.53,206.44c8.37,3.45,11.65,14.76,7.33,25.26-4.33,10.5-14.62,16.22-22.99,12.77"/>
      <path class="st6" d="M274.71,197.34c8.37,3.45,11.65,14.76,7.33,25.26-4.33,10.5-14.62,16.22-22.99,12.77"/>
      <path class="st6" d="M266.67,187.93c9.31,3.84,10.71,17.04,7.33,25.26-4.33,10.5-14.62,16.22-22.99,12.77"/>
      <path class="st6" d="M258.22,178.57c9.31,3.84,10.71,17.04,7.33,25.26-4.33,10.5-14.62,16.22-22.99,12.77"/>
      <path class="st6" d="M248.9,169.19c9.31,3.84,10.71,17.04,7.33,25.26-4.33,10.5-14.62,16.22-22.99,12.77"/>
      <path class="st6" d="M240.6,161.76c9.31,3.84,10.71,17.04,7.33,25.26-4.33,10.5-14.62,16.22-22.99,12.77"/>
      <path class="st6" d="M232.55,155.78c9.31,3.84,10.71,17.04,7.33,25.26-4.33,10.5-14.62,16.22-22.99,12.77"/>
      <path class="st6" d="M224.22,150.92c9.31,3.84,10.71,17.04,7.33,25.26-4.33,10.5-14.62,16.22-22.99,12.77"/>
      <path class="st6" d="M215.11,146.82c9.49,3.37,11.54,16.49,8.56,24.87-3.8,10.7-13.8,16.92-22.34,13.89"/>
      <path class="st6" d="M205.94,144.18c9.68,2.76,12.56,15.72,10.12,24.27-3.12,10.92-12.7,17.76-21.41,15.28"/>
      <path class="st6" d="M195.59,141.98c9.9,1.86,13.96,14.5,12.32,23.24-2.1,11.16-11.01,18.85-19.91,17.18"/>
      <path class="st6" d="M187.59,141.43c9.9,1.86,13.96,14.5,12.32,23.24-2.1,11.16-11.01,18.85-19.91,17.18"/>
      <path class="st6" d="M178.3,140.9c10.02.97,15.19,13.2,14.34,22.05-1.1,11.3-9.29,19.76-18.3,18.89"/>
      <path class="st6" d="M167.18,141.94c10.06-.51,16.97,10.82,17.43,19.7.58,11.34-6.28,20.91-15.32,21.38"/>
      <path class="st6" d="M156.08,144.47c9.92-1.73,18.16,8.69,19.68,17.45,1.95,11.19-3.7,21.52-12.62,23.07"/>
      <path class="st6" d="M144.78,147.93c9.55-3.2,19.26,5.86,22.08,14.29,3.61,10.77-.43,21.83-9.01,24.71"/>
      <path class="st6" d="M135.43,152.01c9.2-4.09,19.72,4.01,23.34,12.13,4.61,10.38,1.64,21.77-6.63,25.45"/>
      <path class="st6" d="M125.54,156.16c8.66-5.15,20.06,1.65,24.6,9.3,5.8,9.76,4.2,21.43-3.58,26.06"/>
      <path class="st6" d="M116.79,161.11c8.12-5.96,20.13-.28,25.38,6.89,6.72,9.16,6.24,20.92-1.06,26.28"/>
      <path class="st6" d="M106.59,169.68c7.14-7.1,19.86-3.28,26.13,3.02,8.01,8.05,9.29,19.76,2.87,26.14"/>
      <path class="st6" d="M100.25,175.13c7.14-7.1,19.86-3.28,26.13,3.02,8.01,8.05,9.29,19.76,2.87,26.14"/>
      <path class="st6" d="M93.17,182.66c6.37-7.8,19.42-5.31,26.3.32,8.79,7.19,11.27,18.7,5.54,25.71"/>
      <path class="st6" d="M87.63,190.59c5.67-8.32,18.88-6.98,26.23-1.98,9.39,6.39,12.87,17.64,7.77,25.13"/>
      <path class="st6" d="M80.82,201.46c4.64-8.94,17.91-9.18,25.81-5.08,10.08,5.23,14.87,15.99,10.7,24.03"/>
      <path class="st9" d="M76.49,212.54c3.61-9.4,16.77-11.13,25.07-7.95,10.6,4.07,16.57,14.22,13.33,22.67"/>
      <path class="st3" d="M72.92,221.48c3.21-9.55,16.29-11.83,24.71-9,10.77,3.62,17.16,13.51,14.27,22.09"/>
      <path class="st11" d="M69.9,234.78c1.62-9.94,14.16-14.31,22.93-12.87,11.21,1.83,19.12,10.55,17.66,19.49"/>
      <path class="st8" d="M68.44,244.66c1.62-9.94,14.16-14.31,22.93-12.87,11.21,1.83,19.12,10.55,17.66,19.49"/>
      <path class="st4" d="M67.72,254.54c1.62-9.94,14.16-14.31,22.93-12.87,11.21,1.83,19.12,10.55,17.66,19.49"/>
      <path class="st7" d="M68.32,269.95c.97-10.02,13.2-15.2,22.05-14.34,11.3,1.09,19.76,9.29,18.89,18.3"/>
      <path class="st1" d="M69.44,284.58c0-10.07,11.67-16.4,20.56-16.4,11.36,0,20.56,7.34,20.56,16.4"/>
      <path class="st27" d="M532.74,105.25c8.59,4.97,17.49,10.98,22.56,19.14,6.76,10.99.31,17.7-11.43,15.53-15.63-3.06-28.87-12.79-43.63-18.63-13.25-6.18-30.34-9.89-42.46-16.67-7.71-4.18-14.39-13.28-3.99-18.91,19.59-9.79,60.44,9.49,78.75,19.42l.2.12ZM565.22,151.62c.77,7.07,6.94,12.52,11.99,17.13,3.18,2.92,6.62,6.5,10.26,10.27,4.94,4.75,13.15,14.29,19.61,9.1,9.44-10.5-16.78-40.3-26.63-45.04-6.9-3.82-16.12-.48-15.25,8.35l.02.18Z"/>
      <path class="st20" d="M152.04,329.57c-2.35,6.04-8.33,11.32-19.53,12.06-12.51.83-22.78-4.3-33.3-11.82s-19.77-18.32-26.68-33.66c0,0,6.26,31.83,40.08,52.74,11.34,7.08,27.66,19.38,38.71-3.54,3.84-6.63.73-15.79.73-15.79Z"/>
      <path class="st19" d="M111.91,234.58c4.03-19.7,14.94-39.29,30.75-51.94,15.38-12.31,37.69-16.42,56.88-13.3,29.92,4.86,58.68,35.43,77.86,57.62,13.66,15.81,18.24,18.88,18.24,18.88,0,0-10.35,13.52-23.32,4.41-12.11-12.37-18.83-20.58-25.96-28.61-12.92-14.54-28.51-30.74-47.6-36.68-33.49-10.43-69.79,9.69-83.58,40.65-1.29,2.89-2.5,5.89-3.27,8.97Z"/>
    </g>
  </g>
</svg>