<?xml version="1.0" encoding="UTF-8"?>
<svg id="Layer_1" xmlns="http://www.w3.org/2000/svg" version="1.1" viewBox="0 0 598.04 757.65">
  <!-- Generator: Adobe Illustrator 29.1.0, SVG Export Plug-In . SVG Version: 2.1.0 Build 142)  -->
  <defs>
    <style>
      .st0 {
        isolation: isolate;
        opacity: .1;
      }

      .st1 {
        fill: #b24e00;
      }

      .st2 {
        fill: #3a200a;
      }

      .st3 {
        fill: #fff;
      }

      .st4 {
        fill: #894406;
      }

      .st5 {
        fill: #e56e00;
      }

      .st6 {
        fill: #ff7b00;
      }
    </style>
  </defs>
  <path class="st0" d="M598.04,689.23c0-16.54-65.01-29.95-145.2-29.95-11.89,0-23.45.3-34.52.85-25.11-7.87-57.31-12.59-92.42-12.59-58.58,0-109.06,13.16-132.01,32.1-15.22-1.12-31.61-1.73-48.69-1.73C65.01,677.91,0,691.32,0,707.86s65.01,29.95,145.2,29.95c22.58,0,43.95-1.06,63.01-2.96,26.38,13.82,69.26,22.81,117.68,22.81,65.05,0,120.11-16.22,138.58-38.58,74.75-1.22,133.56-14.12,133.56-29.85h.01Z"/>
  <path class="st6" d="M88.8,325.61s-.16-8.64-6.24-15.84-26.24-19.84-34.4-46.72-11.56-73.47,0-102.47,50.37-42.89,50.37-42.89c0,0,62.5-22.47,86.19-31.86s49.84-28.59,65.36-32.27,57.19-2.45,84.97,21.65,60.46,65.36,60.46,65.36c0,0-1.23-64.54,4.9-82.92s16.75-40.24,20.02-48.61,7.76-10.21,15.11-8.38c7.35,1.84,12.25,7.97,16.75,34.52,0,0,5.72-.41,10.62,4.08s3.68,13.07,3.68,13.07c0,0,11.85-.82,13.48,12.25s-.82,25.33-8.58,28.59c0,0,13.89,50.24,12.25,94.77s-10.21,65.36-10.21,65.36c0,0,31.18,65.7,39.33,97.37,8.14,31.67,13.57,57.46,15.84,78.28,0,0,29.86,68.77,20.36,133.48-9.5,64.7-27.15,98.64-36.65,109.04-9.5,10.41-28.96,16.29-51.13,16.29s-67.87-17.65-76.47-24.89c0,0-30.31,15.84-71.94,15.84s-62.89-4.07-84.16-9.95c0,0-44.94,57.49-119.45,45.7-49.79-7.88-56.53-29.5-58.31-37.98-.53-2.51-.89-5.3-1.2-7.89-1.03-8.74-3.4-30.69,10.64-68.6,15.3-41.31,23.98-51.58,23.98-51.58,0,0-17.19-37.1-6.79-81.44,0,0-28.96,3.62-41.63-9.95-12.67-13.57-3.62-45.25-3.62-45.25,0,0,10.86-33.48,31.22-57.46s25.24-28.68,25.24-28.68v-.02Z"/>
  <g>
    <path class="st5" d="M471.99,92.26h-10.3s5.81,12.15,8.45,53.02-24.87,59.96-24.87,59.96c23.46,42.29,23.46,143.07-48.69,239.85s-168.5,107.09-168.5,107.09c-20.6,24.43-61.17,61.6-89.42,84.96s-52.25,32.29-66.7,31.44c-13.51-.79-18.66-10.89-22.75-20.88-.7,9.96.06,16.83.53,20.87.31,2.59.67,5.37,1.2,7.89,1.78,8.48,8.52,30.1,58.31,37.98,74.51,11.79,119.45-45.7,119.45-45.7,21.27,5.88,42.53,9.95,84.16,9.95s71.94-15.84,71.94-15.84c8.6,7.24,54.3,24.89,76.47,24.89s41.63-5.88,51.13-16.29,27.15-44.34,36.65-109.04c9.5-64.7-20.36-133.48-20.36-133.48-2.26-20.81-7.69-46.6-15.84-78.28-8.14-31.67-39.33-97.37-39.33-97.37,0,0,8.58-20.83,10.21-65.36s-12.25-94.77-12.25-94.77c.3-.12.57-.29.85-.44l-.34-.47v.02Z"/>
    <path class="st5" d="M30.73,447.09c1.04,3.76,2.7,7.2,5.23,9.91,12.67,13.57,41.63,9.95,41.63,9.95-.5,2.15-.92,4.27-1.3,6.38.34,0,.68.02,1.02.02,27.57.54,48.66-17.03,66.23-37.58,17.57-20.55,32.71-30.82,48.93-38.93s27.57-11.89,27.57-17.2-5.95-13.61-28.39-13.61c-40.01,0-78.94,30.28-109.22,55.96s-39.74,25.95-39.74,25.95c0,0-7.84,1.35-11.08-1.62,0,0-.35.28-.89.76h0Z"/>
    <path class="st5" d="M450.07,61.06l16.8-8.4.18-.35h-.47s1.23-8.58-3.68-13.07c-4.9-4.49-10.62-4.08-10.62-4.08-.06-.35-.12-.67-.18-1.01l-2.03,1.12v25.78h0Z"/>
  </g>
  <path class="st3" d="M188.63,222.2c13.52,18.18,45.22,35.9,73.66,20.51,28.44-15.38,17.15-52.81,1.73-71.16-15.3-18.19-46.86-32.82-72.59-15.55-33.22,24.26-2.8,66.2-2.8,66.2h0Z"/>
  <path class="st3" d="M326.91,160.6c-.57-.66-1.16-1.3-1.76-1.92-8.57-8.86-15.48-21.26-16.24-34.55s11.79-18.95,11.79-18.95c0,0,15.93-7.17,38.06,8.76,12.36,8.89,19.06,19.17,22.57,26.52,3.13,6.56,4.45,13.89,3.52,21.1-.53,4.09-1.94,8.08-4.58,10.51-6.9,6.34-17.09,8.76-33.23,2.23-12.08-5.18-18.23-11.51-20.12-13.7h-.01Z"/>
  <path class="st4" d="M300.59,252.33c-2.31.54-3.2,3.34-1.62,5.11,8.68,9.74,31.71,34.54,46.67,41.21,18.47,8.23,37.82,12.96,57.18-4.39.51-.46.62-1.22.26-1.8-4.53-7.41-32.52-53.69-31.69-64.28.9-11.52-.23-9.94-2.26-10.39s-1.13,1.58-3.84,5.2-14.68,12.42-28.46,18.52c-10.1,4.47-27.62,8.82-36.24,10.83h0Z"/>
  <path class="st1" d="M323.42,279.28s18.73,16.41,33.15,20.88,26.68,4.64,35.47-.66c0,0-22.21-22.71-42.1-25.52-19.89-2.82-26.52,5.3-26.52,5.3Z"/>
  <path class="st2" d="M261.3,221.96c7.51-4,14.06-13.69,10.87-27.47-1.56-6.73-5.28-12.77-10.31-17.51-11.26-10.61-24.58-12.19-27.55-12.19-3.61,0-16.79.21-22.53,12.96s-.43,26.35,8.08,35.06,25.08,17.85,41.44,9.14h0Z"/>
  <path class="st3" d="M233.15,205.46c3.21-.8,6.6-3.84,6.7-9.34.04-2.69-.78-5.32-2.24-7.58-3.25-5.07-8.12-6.92-9.25-7.2-1.37-.34-6.35-1.51-9.73,2.76s-2.65,9.9-.27,14,7.78,9.11,14.78,7.37h0Z"/>
  <path class="st2" d="M330.58,157.56c-.35-.41-.72-.81-1.1-1.2-5.33-5.52-9.63-13.24-10.11-21.51s7.34-11.8,7.34-11.8c0,0,9.91-4.46,23.7,5.45,7.69,5.53,11.86,11.93,14.05,16.51,1.95,4.08,2.77,8.65,2.19,13.14-.33,2.55-1.21,5.03-2.85,6.54-4.29,3.95-10.64,5.45-20.69,1.39-7.52-3.22-11.35-7.16-12.52-8.53h-.01Z"/>
  <path class="st3" d="M328.4,148.35c-.14-.16-.29-.32-.43-.47-2.11-2.19-3.82-5.25-4.01-8.52s2.91-4.67,2.91-4.67c0,0,3.93-1.77,9.39,2.16,3.05,2.19,4.7,4.73,5.57,6.54.77,1.62,1.1,3.43.87,5.2-.13,1.01-.48,1.99-1.13,2.59-1.7,1.56-4.22,2.16-8.2.55-2.98-1.28-4.5-2.84-4.96-3.38h-.01Z"/>
  <path class="st4" d="M159.8,175.85c-10.14-13.31-13.97-35.78-.33-48.22,9.27-8.23,22.7-10.52,34.44-7.65,2.81.73,5.56,1.62,8.1,3.11-3.73,1.06-7.22,2-10.59,3.02-7.6,2.32-14.89,4.96-21.15,9.58-5.93,4.33-8.01,10.33-9.19,18.92-.91,6.58-.98,13.65-1.28,21.24h0Z"/>
  <path class="st4" d="M289.13,90.41c4.38-11.41,18.22-17.9,30.12-15,11.53,2.53,21.28,11.87,24.85,23-4.51-2.02-9.98-5-14.34-7.18-14.76-7.79-25.11-7.94-40.63-.81h0Z"/>
  <path class="st4" d="M388.77,132.39c20.68,20.64,39.86,43.1,55.63,67.73,16.08,24.4,30.27,50.27,40.35,77.74-16.69-30.27-34.95-59.47-54.56-87.89-4.48-6.47-11.2-15.68-15.9-22.04-8.32-11.74-18.06-23.6-25.51-35.53h-.01Z"/>
  <path class="st4" d="M449.64,22.08c4.21,13.11,4.23,27.43.92,40.74l-3.16-1.99c2.14-2.01,4.46-3.63,6.96-5.09,3.89-2.15,8.3-4.19,13.04-4.01,4.7.21,9.43,3.21,11.14,7.52-8.82-3.59-13.36-2.42-21.53,1.58-1.16.53-2.32,1.09-3.5,1.63-2.61,1.22-4.99,2.87-7.05,4.87h0c-.06-7.79.77-17.26,1.4-25.07.51-6.73.85-13.42,1.79-20.18h-.01Z"/>
  <path class="st4" d="M461.69,92.26c8.43-1.95,11,.34,15.22-8.6,1.05-1.96,2.06-3.97,3.3-5.97-.22,4.85-1.2,9.4-4.44,13.35-3.77,3.76-9.55,2.41-14.08,1.23h0Z"/>
  <path class="st4" d="M526.97,416.03c5.32,33.44,3.25,68-4.73,100.9-7.37,32.93-22.32,65.16-46.15,89.4,14.24-20.85,25.81-42.86,32.88-66.96,12.18-39.94,17.55-81.53,18-123.33h0Z"/>
  <path class="st4" d="M417.09,650.14c-30.92,15.07-64.14,27.34-98.86,28.53-18.22.45-36.5.64-54.67-1.35-12.11-1.42-24.04-4.61-35.41-8.84,7.98,1.34,15.91,2.72,23.86,3.56,15.95,1.71,31.92.97,47.95.75,7.07-.16,17.04-.13,23.97-.62,32.01-1.85,62.79-12.26,93.16-22.02h0Z"/>
  <path class="st4" d="M246.25,576.75c6.07,37.77,1.91,74.35-26.37,102.56-8.7,8.68-18.95,15.58-29.85,20.75,14.63-10.51,27.75-22.6,37.28-37.78,9.43-14.99,14.62-32.05,16.76-49.66,1.59-11.87,1.41-23.88,2.18-35.87h0Z"/>
  <path class="st4" d="M71.91,571.52c8.38-22.17,24.13-46.81,42.53-61.9-14.77,19.83-28.07,41.84-42.53,61.9h0Z"/>
  <path class="st4" d="M67.74,467.37c6.27-1.77,12.8-2.66,18.37-6.19,5.36-3.28,9.98-7.8,14.3-12.61,13.33-14.61,23.73-32.43,39.48-44.78,10.4-8.64,22.67-15.22,35.82-18.47,6.54-1.64,13.21-2.37,19.84-2.58-3.23.77-6.46,1.5-9.63,2.38-30.96,8.46-49.24,27.82-67.94,52.48-8.05,9.6-16.73,19.54-27.88,25.65-6.87,3.79-14.76,4.03-22.35,4.11h0Z"/>
  <path class="st4" d="M106.21,416.25c-.41,9.59-2.95,20.33-11.35,26.2-4.52,2.93-10.53,3.81-15.53,1.53-10.72-5.47-10.08-21.49-9.35-31.71,2.03,8.75,2.35,18.61,8.11,25.52,3.64,4.03,10.11,3.63,14.5,1.05,7.65-4.89,10.57-14.15,13.63-22.61h0v.02Z"/>
  <path class="st4" d="M63.01,355.05c19.49-30.88,48.45-59.68,87.11-60.8-17.03,6.05-32.66,13.99-46.68,25.18-14.19,10.95-26.19,24.45-40.43,35.62h0Z"/>
</svg>