<?xml version="1.0" encoding="UTF-8"?>
<svg xmlns="http://www.w3.org/2000/svg" version="1.1" viewBox="0 0 365.96 518.93">
  <!-- Generator: Adobe Illustrator 29.1.0, SVG Export Plug-In . SVG Version: 2.1.0 Build 142)  -->
  <defs>
    <style>
      .st0 {
        fill: #005d30;
      }

      .st1, .st2, .st3, .st4, .st5 {
        isolation: isolate;
      }

      .st1, .st2, .st4 {
        opacity: .1;
      }

      .st6 {
        fill: #d10000;
      }

      .st7 {
        fill: #b24e00;
      }

      .st2, .st8 {
        fill: #ff7b00;
      }

      .st9 {
        fill: #cae6ef;
      }

      .st10 {
        opacity: .24;
      }

      .st10, .st11, .st12 {
        fill: #fff;
      }

      .st11, .st13 {
        opacity: .15;
      }

      .st14 {
        fill: #994500;
      }

      .st15 {
        fill: #339d6a;
      }

      .st16 {
        fill: #0096d8;
      }

      .st17, .st18 {
        fill: #00783e;
      }

      .st18, .st19, .st3 {
        opacity: .5;
      }

      .st20 {
        opacity: .2;
      }

      .st21 {
        opacity: .25;
      }

      .st22 {
        opacity: .1;
      }

      .st3, .st4 {
        fill: #0076aa;
      }

      .st23 {
        fill: none;
        stroke: #d10000;
        stroke-linecap: round;
        stroke-miterlimit: 10;
        stroke-width: 3px;
      }

      .st5 {
        opacity: .6;
      }

      .st5, .st24 {
        fill: #3a200a;
      }

      .st24 {
        opacity: .6;
      }
    </style>
  </defs>
  <g id="Layer_1">
    <g>
      <path d="M2.31,66.74c-3.67,5.58-2.91,12.97,1.83,17.68,16.63,16.53,41.77,41.6,58.79,79.67,19.79,44.26,129.68-63.66,129.68-63.66,0,0-10.98-51.1-37.84-93.31-2.31-3.63-6.19-5.94-10.47-6.35-14.29-1.37-48.97-1.8-87.08,19.04C25.42,37.21,9.61,55.64,2.31,66.74Z"/>
      <path class="st6" d="M185.68,75.29c-36.06,7.55-85.65,21.81-130.87,72.76,0,0,9.68,17.12,14,29.5l94.06-52.99,31.97-13.79s-4.4-22.39-9.15-35.47Z"/>
    </g>
    <g id="body">
      <path id="shadow" class="st19" d="M280.49,431.64c-23.9,0-45.49,3.01-61,7.85-11.86-2.12-25.35-3.33-39.67-3.33-47.2,0-85.47,13.05-85.47,29.14,0,.6.07,1.19.17,1.78-39.11,2.4-68.57,12.98-68.57,25.67,0,14.46,38.27,26.18,85.47,26.18s83.48-11.13,85.38-25.07c21.6-1.48,40.23-5.75,52.59-11.65,9.64,1.15,20.12,1.8,31.1,1.8,47.2,0,85.47-11.72,85.47-26.18s-38.27-26.18-85.47-26.18h0Z"/>
      <g id="leg-right_copy">
        <path class="st12" d="M274.1,324.3c-4.07-8.04-26.85,9.52-45.08,34.8s-38.65,76.92-36.36,86.24c-.4,9.68,22.6,18.49,51.37,19.66,77.07,3.15,92.65-17.08,30.07-140.71h0Z"/>
        <path class="st4" d="M274.1,324.3c-4.07-8.04-26.85,9.52-45.08,34.8s-38.65,76.92-36.36,86.24c-.4,9.68,22.6,18.49,51.37,19.66,77.07,3.15,92.65-17.08,30.07-140.71h0Z"/>
      </g>
      <g id="hand-right_copy_2">
        <g id="Arm">
          <path class="st12" d="M328.54,259.14c-.27,2.98-.74,5.71-1.39,8.21-5.01,19.32-20.42,24.81-32.95,25.91-8.87.79-16.3-.63-17.56-.89-.13-.03-.19-.04-.19-.04,1.38-29.73-5.23-51.83-9.7-63.1-2.17-5.47-3.83-8.39-3.83-8.39,1.75-8.73,5.65-12.6,10.13-13.96.14-.05.29-.09.43-.12,6.24-1.66,13.47,1.34,17.53,2.85,19.16,7.08,39.44,28.47,37.53,49.53h0Z"/>
          <path class="st4" d="M328.54,259.14c-.27,2.98-.74,5.71-1.39,8.21-5.01,19.32-20.42,24.81-32.95,25.91-8.87.79-16.3-.63-17.56-.89-.13-.03-.19-.04-.19-.04,1.38-29.73-5.23-51.83-9.7-63.1-2.17-5.47-3.83-8.39-3.83-8.39,1.75-8.73,5.65-12.6,10.13-13.96.14-.05.29-.09.43-.12,6.24-1.66,13.47,1.34,17.53,2.85,19.16,7.08,39.44,28.47,37.53,49.53h0Z"/>
        </g>
      </g>
      <path class="st12" d="M297.53,336.84c-.42,100.34-49.32,136.38-124.16,139.55-56.12,2.37-97.86-26.4-115.92-62.92-.18-.35-.36-.71-.53-1.07-1.01-2.1-1.95-4.22-2.8-6.37-2.62-6.58-4.49-13.37-5.55-20.21-.96-6.19-1.27-12.43-.87-18.63,2.59-36.21,35.83-76.65,28.58-105.49-5.87-23.36-20.94-54.68-7.66-74.42,18.59-27.64,33.31-33.59,71.48-38.78,9.15-1.24,21.86-2.04,37.52-6.52,1.17-.34,2.36-.69,3.59-1.07,13.28-4.07,21-7.42,28.62-8.66,10.9-1.78,26.63-3.06,36.09,8.66,10.91,13.51,16.7,32.13,26,61.68,14.31,45.48,25.74,99.57,25.59,134.25h.02Z"/>
      <path class="st4" d="M297.52,336.84c.15-34.68-11.28-88.77-25.59-134.25-3.62-11.52,8.62,32.44,2.39,84.08l-69.99,7.19c11.33,10.19,17.72,14.13,22.56,16.87,3.25,1.84,12.6,5.72,24.47,5.72,7.8,0,13.33-1.21,18.11-3.41,1.39-.64-1.76.92,0,0-.29,1.14-.58,2.28-.9,3.42-21.14,77.36-91.09,104.56-139.21,80.92,0,0-37.84,20.2-71.92,16.09,18.06,36.52,59.8,65.29,115.92,62.92,74.84-3.17,123.74-39.21,124.16-139.55h-.01Z"/>
      <g id="Leg-Left_copy">
        <path class="st12" d="M58.01,504.87c-2.01.14-3.92.19-5.73.16-30.63-.53-32.47-24.78-29.62-49.17.93-7.96,2.35-15.92,3.44-23.09,1.35-6.73,3.08-13.47,5.08-19.96,30.93-92.2,70.18-82.18,98.19-15.43,10.76,27.92,15.48,59.89,17.29,77.64,1,9.8-25.18,29.85-88.65,29.85Z"/>
        <path class="st4" d="M58.01,504.87c-1.88,0-3.79.06-5.73.16-30.63-.53-32.47-24.78-29.62-49.17,13.87,54.45,97.25,3.58,111.71-49.95,6.4,15.41,5.81,15.76,5.81,15.75,9.09,28.01,4.67,35.61,6.48,53.36,1,9.8-25.18,29.85-88.65,29.85Z"/>
        <path class="st16" d="M105.96,374.56c3.57,2.08,7.12,4.32,10.37,6.9,2.21,1.8,4.59,4.05,6.57,6.12,4.85,5.28,8.97,11.4,12.11,17.84.85,1.86,2.29,4.65,2.94,6.57,4.47,11.02,6.99,22.94,8.22,34.73.32,2.06.4,5.02.54,7.1.48,6.83.32,14.5-.05,21.29-.9-6.76-1.46-14.28-2.56-21.03-.94-6.93-2.12-13.88-3.78-20.67-.55-2.18-.97-4.62-1.66-6.77-3.7-13.29-9.17-26.46-17.74-37.35-1.67-2.12-3.9-4.58-5.76-6.52-2.85-2.83-6.14-5.58-9.21-8.2h0Z"/>
      </g>
      <path class="st6" d="M112.13,272.89c-4.32.55-7.55,1.54-11.79,2.56-9.12,2.17-18.59,4.63-24.62,7.79-7.32-3.71-2.3-11.91-2.3-11.91,0,0-2.95-.72-3.48-2.83-1.05-4.22,1.47-5.21,1.47-5.21,0,0-2.63-.74-3.22-2.91-1.15-4.28,2.44-6.8,5.44-8.03s7.52-4.36,18.76-7.3c14.1-3.68,31.91-4.24,39.56-3.64,14.55,1.15,23.19,4.32,23.19,4.32,0,0,1.38,6.55-.29,12.18-.83,2.82-7.05,3.36-7.52,5.34-.92,3.88-1.24,6.28-1.24,6.28l-16.96,2.71c-1.44,0-3.54-.67-4.98-.58l-7.46.85c-1.3.09-4.57.38-4.57.38Z"/>
      <path class="st4" d="M193.05,249.63c1.92-7.12,19.39,32.34,7.14,58.55-25.25,54-79.81,40.74-102.54,20.14,8.06,1.34,91.23-63.28,95.4-78.7h0Z"/>
      <path class="st16" d="M280.49,235.29c4.02,9.19,7.14,18.6,9.74,28.26,2.51,9.67,4.26,19.66,3.98,29.7-2.54-8.3-5.55-20.23-7.85-28.69-2.48-9.63-4.91-19.31-5.87-29.28h0Z"/>
      <path class="st6" d="M200.66,261.93c14.01,5.29,22.97,12.62,34.94,15.69,8.79,2.25,17.04,1.73,24.35-2.53,4.43-2.58,8.51-6.51,11.96-11.84s5.5-12.86,10.09-17.52c6.9,1.32,5.82,9.43,5.82,9.43,0,0,3.04,1.36,3.99,2.84,3,4.69,1.35,7.52,1.35,7.52,0,0,3.21,3.1,3.28,6.01.12,5.22-2.18,7.7-2.18,7.7,0,0,1.77,4.29-6.87,12.49s-17.3,14.63-33.51,16.25-29.13-4.45-34.91-7.33-20.62-9.44-20.62-9.44l2.34-29.25Z"/>
      <path class="st13" d="M234.83,306.58c-4.61-2.82-5.04-5.89-10.96-7.46s-8.24-2.73-13.44-5.62-9.47-7.73-12.1-7.69,1.47,5.9,1.47,5.9c0,0,11.36,5.23,17.88,8.29s17.16,6.58,17.16,6.58Z"/>
      <path class="st13" d="M159.46,253.9c-4.5-2.28-7.23-5-11.48-4.99s-8.33,2.9-11.54,1.29-8.1-1.63-11.74-1.01-6.77,1.33-8.82-.22c0,0,5.39-1.14,7.5-2.5s2.89-1.4,5.03-.82,5,2.25,7.3,1.95,3.85-.61,5.71-.13,1.97.97,4.61.16,6.82-1.06,8.53.45,4.89,5.82,4.89,5.82Z"/>
      <path class="st13" d="M165.28,252.81c-4.68,1.88-7.64,4.34-11.87,3.97s-8.04-3.62-11.38-2.29-8.21.92-11.78-.02-6.63-1.91-8.81-.56c0,0,5.27,1.6,7.25,3.15s2.76,1.65,4.94,1.26,5.18-1.81,7.45-1.3,3.78.94,5.68.62,2.05-.79,4.6.25,6.7,1.65,8.53.3,5.38-5.37,5.38-5.37Z"/>
      <path class="st13" d="M190.07,264.78c3.55.91,5.61,2.39,8.11,4.72s6.87,5.44,8.95,5.46,5.72.41,8.54,1.97c0,0-3.13-4.96-5.89-5.61s-4.8.59-7.3-1.24-3.22-3.62-6.01-4.68-6.4-.62-6.4-.62Z"/>
      <g id="HAnd-left_copy">
        <g id="Thumb">
          <path id="R_thumb" class="st12" d="M157.6,262.43s-9.13-15.02-7.35-25.48c.76-4.48,6.41-5.91,9.12-2.26,2.33,3.14,4.5,8.77,4.5,18.82l-8.43,12,2.16-3.08Z"/>
        </g>
        <g id="Arm-2">
          <path class="st12" d="M196.11,291.39c-8.99,23.06-33.65,38.26-38.89,41.2-19.69,11.04-40.44,9.49-52.38,2.39-2.05-1.21-3.84-2.59-5.32-4.1-2.57-2.62-4.68-5.13-6.38-7.54-1.94-2.74-3.37-5.36-4.39-7.86-2.85-6.94-2.58-12.93-1.49-18.08,3.04-14.37,14.11-20.89,19.97-22.08,4.32-.88,13.17-1.99,19.27-2.76,12.92-1.62,27.41-5.89,33.19-25.08,2.61-8.68,4.03-15.56,7.66-19.49,2.09-2.3,4.96-3.59,9.25-3.66,2.92-.04,5.56,1.19,7.86,3.02,4.94,3.94,8.3,10.63,9.39,13.2.4.99.79,2.03,1.17,3.12,4.47,12.69,7.5,31.31,1.09,47.72h0Z"/>
          <path class="st4" d="M200.48,267.23c.21,1.17-1.19,1.91-2.34,2.21-8.15,2.17-11.96,9.06-17.42,14.7-12.51,12.91-29.3,21.19-46.33,26.37-8.59,2.62-17.55,4.65-26.49,5.57-3.01.31-17.63,2.6-19.15-.61,21.81,46.03,84.26,24.45,107.36-24.09,1.25-2.63,1.58-5.48,2.22-8.32,1.2-5.3,3.26-10.51,2.15-15.84h0Z"/>
          <path class="st15" d="M154.86,257.9c2.65,24.56,6.55,23.75,9.01,26.3s14.27,12.34,28.75,7.99,2.4-48.52,2.4-48.52c0,0-6.17-18.78-18.42-19.34s-14.73,14.23-14.73,14.23c0,0-2.74-8.08-9.64-4.91s2.63,24.25,2.63,24.25Z"/>
          <path class="st16" d="M154.86,257.9c-1.8,4.1-4.69,7.73-8.25,10.55-5.82,3.46-12.5,5.13-19.14,5.99-6.15.8-13.07,1.6-19.08,2.68-1.86.3-3.82,1.07-5.49,1.94-8.56,4.48-13.8,13.86-14.32,23.38-.5,4.69-.72,9.08.59,14.01-2.49-3.59-4.14-7.94-4.67-12.56.07-13.46,8.82-27.3,22.33-30.54,8.63-1.73,17.72-2.18,26.29-3.96,4.05-.91,7.95-2.29,11.4-4.4,3.84-1.61,7.37-4.15,10.34-7.09h0Z"/>
          <path class="st16" d="M198.32,291.18c-7.01,18.2-21.88,32.06-38.16,42.07-5.63,3.13-11.85,5.38-18.13,6.74-8.38,1.29-17.11,1.64-25.33-.51h.01c8.26.56,16.57-.99,24.44-3.35,4.42-1.16,8.84-2.4,13.01-4.31,16.56-8.25,33.88-24.55,40.42-42.02"/>
          <path class="st18" d="M173.35,290.36c7.37-6.21,12.02-10.92,15.3-16.59,2.87-4.82,4.11-7.31,5.33-12.54,1.46-5.88,1.45-9.52,1.45-9.52,0,0,4.16,11.75,2.9,20s-3.43,17.2-3.43,17.2l-1.08,2.81s-5.12,1.96-12.1,1.54-8.37-2.9-8.37-2.9Z"/>
          <path class="st17" d="M193.82,291.71c5.92-16.28,4.02-39.71-4.11-54.9-2.7-4.58-7.13-10.09-12.45-10.45-3.7-.47-7.51.39-9.99,3.43-2.6,3.08-4.08,7.16-5.61,10.91,1.52-8.4,3.81-17.31,14.05-18.24,7.89-.9,13.78,6.27,17.43,12.31,8.71,16.11,11.54,38.99,5.18,56.41l-4.5.53Z"/>
        </g>
        <path class="st17" d="M154.86,257.9c-4.86-6.35-10.69-15.55-5.46-23.36,2.46-3.37,7.84-3.72,10.58-.66,1.2,1.42,1.74,3.06,1.89,4.68-1.68-2.33-3.91-4.34-6.78-3.59-1.83.46-2.77,1.69-3.28,3.43-1.86,6.42,2.18,12.94,3.04,19.49h.01Z"/>
      </g>
      <path class="st0" d="M318.57,233.65c3.9,0,9.36,2.08,10.61,7.74.56,2.53-.73,5.65-2.96,7.69,0,0-3.33,3.1-11.12,5.16-5.51,1.46-13.7,2.25-18.02,1.77-2.56-.28-7.71-1.12-10.13-2-1.4-.51-3.16-1.49-3.62-3.93-2.96-15.63,35.25-16.43,35.25-16.43Z"/>
      <g id="Hand_right-palm_copy_2">
        <path class="st15" d="M323.61,240.04c-.24,2.12-1.5,3.47-3.28,4.74-3.56,2.54-7.83,3.86-12.2,4.05-.9.04-1.84.12-2.82.25-20.73,2.69-31.66-7.07-38.68-18.73-5.56-7.36-9.74-25.62-3.76-34.16,1.19-1.7,2.78-3.01,4.83-3.78,5.61,1.57,10.37,6.91,15.89,9.19,14.22,8.02,29.38,13.4,39.56,35.46.38.94.58,1.97.46,2.99Z"/>
      </g>
      <path class="st16" d="M295.8,370.56c-1.65,28.28-12.04,57.3-33.62,76.47-8.45,7.3-18.22,13.23-28.68,16.84,14.96-8.24,28.24-19.09,38.07-33,12.86-17.84,19.37-39.02,24.24-60.31h-.01Z"/>
    </g>
    <g id="excited_face">
      <g id="face">
        <g class="st19">
          <path class="st16" d="M172.08,189.73c10.16,0,20.91,7.3,26.13,17.75,2.26,4.52,3.32,9.27,3.11,13.74-5.57-2.64-13.47-4.15-22.2-4.15-.38,0-.75,0-1.13,0-7.55.11-14.77,1.39-20.33,3.56-.25-.52-.49-1.04-.72-1.57-3.1-7.23-3.19-14.64-.25-20.33,2.3-4.45,6.31-7.5,11.28-8.58,1.32-.28,2.7-.43,4.11-.43M172.08,186.73c-1.6,0-3.19.16-4.75.5-13.36,2.89-19.79,17.52-13.15,33.02.63,1.48,1.35,2.89,2.15,4.24h0c5.19-2.57,12.97-4.28,21.7-4.41.36,0,.73,0,1.09,0,10.73,0,19.97,2.43,24.52,6.05,1.47-6.08.63-13.21-2.75-19.98-5.78-11.57-17.65-19.41-28.81-19.41h0Z"/>
        </g>
        <g class="st19">
          <path class="st16" d="M239.01,173.55c6.71,0,15.24,7.35,19.44,16.73.1.23.2.46.3.7-1.56.54-3.05,1.34-4.44,2.39h-.07l-.84.72c-4.75,4.08-8,8.85-9.28,13.46-4.38-3.29-8.24-8.4-10.55-14.14-2.61-6.46-2.81-12.81-.53-16.57,1.17-1.94,2.9-3.03,5.14-3.25.27-.03.56-.04.84-.04M239.01,170.55c-.38,0-.76.02-1.14.06-8.68.85-12.14,11.43-7.09,23.93,3.38,8.38,9.51,15,15.74,18-.32-4.81,2.67-10.88,8.83-16.17h0c2.36-2.02,4.88-2.97,7.37-3.18-.41-1.36-.93-2.75-1.55-4.13-4.73-10.59-14.22-18.51-22.17-18.51h0Z"/>
        </g>
        <path d="M173.6,220.27c1.44-.11,2.92-.18,4.43-.21,9.24-.14,17.47,1.53,22.72,4.21,2.71-4.21,2.9-10.17.1-15.82-4.11-8.3-13.42-13.36-21.2-11.39-8.16,2.07-11.8,11.11-7.66,20.28.46,1.03,1.01,1.99,1.61,2.91v.02Z"/>
        <path class="st12" d="M174.66,210.47c-.82-2.98.47-5.68,2.83-6.05s4.82,1.65,5.65,4.52c.83,2.89-.33,5.64-2.66,6.11s-5-1.57-5.82-4.58h0Z"/>
        <path d="M255.36,196.36c1.37-1.17,2.79-1.99,4.23-2.5-.26-.98-.59-1.97-1-2.96-3.24-7.86-10.23-13.51-15.86-12.71-5.87.82-8.19,8.28-4.92,16.78,2.07,5.37,5.8,9.67,9.72,11.82,1.34-3.44,3.95-7.09,7.83-10.41v-.02Z"/>
        <path class="st12" d="M239.93,191.77c-.81-2.61.11-4.81,2.02-4.94,1.88-.13,4.05,1.81,4.86,4.34.82,2.55-.02,4.79-1.9,4.99s-4.16-1.77-4.98-4.4h0Z"/>
        <path class="st16" d="M252.63,168.86c-4.13-4.29-7.4-7.13-12.15-9.64-2.13-1.12-4.19-2.06-6.44-2.38-2.6-.41-6.39.71-9.09,1.56,2.73-6.9,11.45-7.72,17.31-4.39,5.6,3.08,9.62,8.51,10.36,14.84h0Z"/>
        <g>
          <path d="M255.77,253.66c-.96-5.17-4.12-13.36.44-23.71.18-.67-.17-1.37-.81-1.64-.23-.1-.48-.13-.72-.1h.01c-.4.06-.78.29-1.01.66-.09.13-4.6,6.72-25.18,9.42-6.64.87-14.3,1.25-22.76,1.12-.07,0-.14,0-.2,0-.47.06-.87.35-1.08.79-.23.49-.15,1.08.2,1.49.59.69,14.55,16.91,23.73,20.59.12.05.25.1.41.17,2.54,1.04,10.25,4.21,17.75,3.23,3.19-.42,5.99-1.54,8.31-3.34,2.2-1.7,1.66-4.63.91-8.69ZM254.86,229.65s0-.03.01-.04c0,0,0,0,0,0h0s-.02.03-.02.05Z"/>
          <path class="st8" d="M253.19,260.66c-6.99,4.94-19.28,2.06-27.79-2.56,14.95-15.06,26.27.97,27.79,2.56Z"/>
        </g>
        <path class="st16" d="M144.04,196.58c-3.86-5.22-4.92-12.54-2.01-18.53,5.18-10.81,19.82-11.64,28.87-5.58-2.07.24-4.02.34-5.93.54-5.03.49-10.77,1.58-14.48,4.62-5.69,4.47-6.24,12.11-6.45,18.95h0Z"/>
      </g>
    </g>
    <g>
      <ellipse class="st3" cx="255.61" cy="327.04" rx="6.41" ry="8.48" transform="translate(-6.69 5.34) rotate(-1.18)"/>
      <ellipse cx="256.66" cy="324.21" rx="6.41" ry="8.48" transform="translate(-6.63 5.36) rotate(-1.18)"/>
      <ellipse class="st3" cx="252.62" cy="362.29" rx="8.48" ry="6.41" transform="translate(-146.97 550.41) rotate(-80.32)"/>
      <ellipse cx="255.05" cy="358.87" rx="8.48" ry="6.41" transform="translate(-141.59 549.97) rotate(-80.32)"/>
      <ellipse class="st3" cx="244.33" cy="396.26" rx="8.48" ry="6.41" transform="translate(-207.18 509.64) rotate(-72.44)"/>
      <ellipse cx="247.19" cy="393.01" rx="8.48" ry="6.41" transform="translate(-202.09 510.1) rotate(-72.44)"/>
      <ellipse class="st12" cx="254.78" cy="321.72" rx="2.37" ry="1.8" transform="translate(-120.55 487.67) rotate(-75.48)"/>
      <ellipse class="st12" cx="253.08" cy="356.91" rx="2.56" ry="1.94" transform="translate(-155.9 512.4) rotate(-75.48)"/>
      <ellipse class="st12" cx="245.89" cy="389.65" rx="2.59" ry="1.96" transform="translate(-214.39 368.87) rotate(-55.16)"/>
    </g>
    <path class="st18" d="M305.73,249.08c3.64-8.12,4.1-14.98,2.11-22-1.98-7.02-4.58-13.61-4.58-13.61,0,0,15.5,12.84,19.89,23.58,0,0,2.22,4.67-2.82,7.73-5.64,4.3-14.6,4.3-14.6,4.3Z"/>
    <path class="st0" d="M154.86,257.9c-4.1-.58-6.98,1.88-7.52,5.34s0,9.27,2.62,16.31c1.66,4.48,5.43,9.92,9.2,13.74,4.22,4.28,12.82,7.05,19.44,7.3s13.14-.66,16.88-3.05c2.49-1.59,4.68-6.05,3.62-8.64-3.37,1.25-4.7,2.47-11.11,3.07-5.85.55-11.41.02-16.48-2.38-7.1-3.36-12.11-9.96-13.97-17.59-1.56-6.38-2.66-14.1-2.66-14.1Z"/>
    <path class="st21" d="M109.51,242.07c.33,4.32.94,7.99,2.32,12.23s2.64,9.07,3.02,12.25,0,5.5,0,5.5l-2.73.84-8.75-9.52v-16.69l1.64-3.95,4.5-.65Z"/>
    <path class="st21" d="M75.79,282.63c-.33-4.32-.94-7.99-2.32-12.23s-2.64-9.07-3.02-12.25,0-5.5,0-5.5l2.73-.84,8.75,9.52v16.69s-1.64,3.95-1.64,3.95l-4.5.65Z"/>
    <path class="st9" d="M201.38,126.39c-12.44,3.14-19.58,4.66-33.42,12.46l-10.28-2.29s-87.72,47.35-91.71,53.22c-3.99,5.87-2.5,21.47-2.5,21.47,0,0,15.92-.33,27.25-3.42,13.16-3.59,21.76-6.93,31.59-14.55,20.69-16.04,32.81-30.66,48.34-43.47,1.62-1.33,11.58-7.67,13.49-8.53,0,0,.02,0,.02-.01,7.47-4.28,18.63-7.09,25.41-7.98,6.78-.88,19.31-1.15,26.05,1.31s-18.04-12.32-34.26-8.23Z"/>
    <path class="st11" d="M60.37,18.14c24.28.41,41.91,9.1,58.27,27.49,8.35,9.38,14.4,19.7,21.01,29.62,6.24,9.38,11.59,19.33,15.99,29.71l.44,1.54,34.94-15.66s-19.81-63.8-36.24-83.71c0,0-.78-6.07-14.41-6.9S94.52.09,60.37,18.14Z"/>
    <path class="st17" d="M321.22,233.65c-7.36-9.83-15.05-19.7-26.1-25.42-4.97-2.63-10.18-4.55-15.37-7.02,0,0,.32-.95.32-.95,20.75,3.83,33.08,13.88,41.15,33.38h0Z"/>
    <path class="st17" d="M285.15,247.15c-13.61-3.62-24.24-17.31-24.42-31.38,3.04,6.13,6.25,11.8,10.39,17.11,4.11,5.36,8.84,9.8,14.02,14.27h0Z"/>
    <path class="st6" d="M105.95,242.49c-1.63-7.05-8.79-7.26-11.59-7.2-2.98.06-7.04.38-10.51,1.17s-11.14,3.13-13.25,6.07-4.06,5.73-2.61,9.17,10.01,19.01,8.88,25.27-1.89,9.31-9.73,31.25c-12.55,30.41-19.6,36.29-19.63,66.34l-1.05,26.9,38.05,4.45s-2.56-16.4,1.99-43.63,12.62-43.42,16.41-54.06,10.87-25.87,9.23-35.33c0,0-.86-7.42-2.73-14.08s-3.45-16.32-3.45-16.32Z"/>
    <path class="st23" d="M82.77,404.4c.37,3.36,1.14,7.5,2.44,12.96s3.07,9.78,3.07,9.78"/>
    <path class="st23" d="M48,400.86c-.16,3.38-.05,7.58.38,13.18.43,5.6,1.5,10.14,1.5,10.14"/>
    <path class="st23" d="M52.33,401.95c-.13,3.38.01,7.58.49,13.18.48,5.59,1.58,10.12,1.58,10.12"/>
    <path class="st23" d="M56.54,402.81c-.29,3.37-.35,7.57-.15,13.18.21,5.61,1.09,10.19,1.09,10.19"/>
    <path class="st23" d="M60.51,402.9c.01,3.38.33,7.57,1.04,13.14.71,5.57,2,10.05,2,10.05"/>
    <path class="st23" d="M65.45,402.81c.01,3.38.33,7.57,1.04,13.14.71,5.57,2,10.05,2,10.05"/>
    <path class="st23" d="M70.01,404.01c-.2,3.38-.14,7.58.23,13.18.36,5.6,1.38,10.15,1.38,10.15"/>
    <path class="st23" d="M75.2,404.1c-.19,3.38-.12,7.58.26,13.18.38,5.6,1.41,10.15,1.41,10.15"/>
    <path class="st23" d="M79.17,404.12c-.13,3.38.01,7.58.49,13.18.48,5.59,1.58,10.12,1.58,10.12"/>
    <path class="st9" d="M238.8,229.25c-.38,3.58-1.56,5.34-3.79,6.03s-5.38.12-7.75-1.63-4.86-5.68-6.7-8.57-2.89-6.04-2.89-6.04l21.13,10.21"/>
    <path class="st13" d="M294.44,266.99c.35,4.51-.98,7.12-2.28,9.98s-2.46,5.6-5.48,8.3-4.08,3.18-8.09,5.67c0,0,5.82-1.26,9.58-5.55,1.47-1.68,1.73-1.41,1.73-1.41,0,0-.28.56-1.07,2.05-1.19,2.24-5.95,6.58-8.34,8.45s-9.01,6.27-12.13,7.62-7.9,3-11.43,3.52-10.44,1.66-14.32,2.3c-4.03-.56,19.25,4.2,37.27-9.73s14.36-18.96,14.36-18.96c0,0,4.89-6.73.2-12.23Z"/>
    <path class="st13" d="M293.14,265.51c-1.76,6.04-6.81,14.36-10.6,17.33s-10.78,6.84-13.75,9.36-8.4,6.24-12.86,6.24-6.24-.22-9.81.67c0,0,5.13-3.05,7.51-3.12s5.74-.52,7.1-1.64,5.08-4.46,7.83-6.39,5.05-3.05,8.03-5.05,4.83-3.57,7.13-6.91,5.8-7.95,6.24-11.37,2.34-6.79.54-7.91c0,0,2.5,2.09,2.91,5.04s-.28,3.75-.28,3.75Z"/>
    <path class="st13" d="M249.72,292.1c-4.98.79-8.42,2.53-12.45,1.23s-7.04-5.32-10.59-4.76-8.21-.93-11.48-2.64-6.04-3.34-8.46-2.5c0,0,4.78,2.73,6.37,4.68s2.32,2.22,4.54,2.33,5.45-.61,7.55.38,3.48,1.76,5.39,1.87,2.17-.31,4.43,1.27,6.16,3.1,8.25,2.19,6.44-4.04,6.44-4.04Z"/>
    <path class="st13" d="M256.13,289.8c2.42-2.75,4.67-3.92,7.89-5.08s7.97-3.65,8.93-5.5,2.96-4.91,5.63-6.71c0,0-5.84.54-7.67,2.7s-1.65,4.55-4.41,5.94-4.69,1.23-6.9,3.23-3.46,5.42-3.46,5.42Z"/>
    <path class="st13" d="M274.29,293.25c-3.71,1.05-3.86,3.09-6.29,4.29s-4.29,2.7-6.57,3.09c0,0,5-.4,7.14-1.51s2.29-1.31,3.57-2.71,2.14-3.16,2.14-3.16Z"/>
    <path class="st13" d="M131.92,264c-3.31-1.98-4.89-.69-7.43-1.63s-4.9-1.27-6.76-2.66c0,0,3.73,3.36,6,4.16s2.52.76,4.42.74,3.77-.61,3.77-.61Z"/>
    <path class="st22" d="M81.09,317.93c1.63-3.5.18-4.94.87-7.56s.76-5.01,1.96-6.99c0,0-2.96,4.05-3.53,6.39s-.5,2.59-.28,4.47.99,3.69.99,3.69Z"/>
    <path class="st22" d="M95.98,259.11c.89-3.76-.83-4.87-.69-7.58s-.27-5.06.49-7.25c0,0-2.08,4.57-2.15,6.98s.04,2.64.63,4.44,1.72,3.41,1.72,3.41Z"/>
    <path class="st22" d="M62.71,371.47c1.63-3.5.18-4.94.87-7.56s.76-5.01,1.96-6.99c0,0-2.96,4.05-3.53,6.39s-.5,2.59-.28,4.47.99,3.69.99,3.69Z"/>
    <path class="st22" d="M67.65,396.93c1.63-3.5.18-4.94.87-7.56s.76-5.01,1.96-6.99c0,0-2.96,4.05-3.53,6.39s-.5,2.59-.28,4.47.99,3.69.99,3.69Z"/>
    <path class="st22" d="M87.91,297.08c1.63-3.5.18-4.94.87-7.56s.76-5.01,1.96-6.99c0,0-2.96,4.05-3.53,6.39s-.5,2.59-.28,4.47.99,3.69.99,3.69Z"/>
    <path class="st13" d="M217.07,279.83c3.7.83,4.14,2.74,6.94,3.35s4.23-.14,7.7.68,6.5,3.41,8.67,3.73,4.86-1.47,6.95-1.61,5.6-.85,6.89-1.9c0,0-4.88-1.35-7.44-.51s-3.39,2.45-6.63.44c-3.24-2.01-5.41-3.93-7.55-3.16s-4.12,1.71-6.05,1.19-2.49-2.3-4.4-2.55-5.09.34-5.09.34Z"/>
    <path class="st22" d="M98.29,284.07c.97-4.06,3.68-7.5,4.08-10.04s-1.27-5.83-1.32-8.31c-.05-2.48-.62-6.67-1.62-8.26,0,0-1.56,5.69-.82,8.77s2.3,4.15.16,7.87c-2.14,3.72-4.15,6.17-3.47,8.75.68,2.57,1.54,4.97.94,7.23-.6,2.26-2.4,2.81-2.73,5.06-.16,1.08-.14,2.52-.07,3.73-.49.64-.71,1.37-.94,2.55-.42,2.18-.17,5.48-1.46,7.42-1.28,1.94-2.24,3.19-2.62,5.07-.38,1.88,0,2.2-1.88,4.21-1.89,2.01-3.95,5.66-3.34,7.86s3.08,6.95,3.08,6.95c-.07-5.05-1.31-8.69.56-12.5,1.87-3.81,6.26-6.21,6.23-9.8-.04-3.59,2.09-7.99,4.25-10.99,2.16-3,4.17-5.5,3.68-8.02,0,0-3.39,4.34-5.54,5.64-.13.08-.24.15-.36.23.85-1.4,1.74-2.33,2.18-4.33.73-3.28.03-5.01,1-9.08Z"/>
    <path class="st22" d="M52.05,389.35c.8-3.71,2.71-4.16,3.3-6.97.6-2.81-.17-4.23.63-7.71.8-3.48,3.36-6.53,3.66-8.7s-1.5-4.85-1.66-6.93-.89-5.59-1.95-6.87c0,0-1.32,4.89-.45,7.44.86,2.55,2.47,3.37.49,6.63-1.98,3.25-3.89,5.44-3.1,7.57.79,2.13,1.74,4.11,1.23,6.04s-2.28,2.5-2.52,4.42c-.24,1.92.37,5.08.37,5.08Z"/>
    <path class="st22" d="M85.5,287.01c-.12-3.79,1.63-4.69,1.53-7.56-.1-2.87-1.19-4.06-1.25-7.63-.06-3.57,1.69-7.15,1.46-9.32s-2.63-4.34-3.28-6.33-2.22-5.21-3.55-6.2c0,0-.1,5.06,1.35,7.33,1.46,2.27,3.21,2.68,2.07,6.31-1.14,3.64-2.47,6.22-1.19,8.1,1.28,1.88,2.68,3.57,2.66,5.57s-1.61,2.98-1.38,4.9c.23,1.92,1.59,4.84,1.59,4.84Z"/>
    <path class="st13" d="M287.81,255.16c-.68,4.2-.33,6.09-3.95,9.11s-6.04,3.37-8.62,5.44c0,0,1.26-2.24,4.68-4.83s5.15-2.83,5.24-6.07,1.79-4.8,1.79-4.8l.87,1.15Z"/>
    <path class="st22" d="M72.39,322.37s-.57-1.46-.59-1.79c-.12-2.07.03-5.74,1.4-8.65,0,0-4.74,3.45-5.21,6.25s.91,4.75-.75,7.36c-1.66,2.61-3.4,3.46-4.27,6.3-.87,2.85-.2,6.42-.2,6.42.68-3.6,2.01-5.76,4.18-8.4,1.03-1.26,2.21-2.96,3.15-4.62.05,1.13.25,2.45.71,3.95,1.56,5.08-.57,6.21-3.71,11.72-3.14,5.51-3.62,9.54-3.62,9.54,2.31-4.34,5.29-5.92,8.46-12.2,3.17-6.28,1.75-9.06.47-15.89Z"/>
    <path class="st22" d="M79.19,367.34c.68,5.51,1.6,7.72-.89,12.99s-4.67,6.69-6.47,10.34c0,0,.49-3.31,2.92-7.95s4-5.66,3.06-9.73.19-6.72.19-6.72l1.18,1.07Z"/>
    <path class="st18" d="M283.59,201.59l3.17.74-25.52,18.92s-.34-1.56-.51-5.49c-.2-4.82,22.85-14.17,22.85-14.17"/>
    <path class="st22" d="M78.62,342.66c-.3,4.79-1.41,7.79-3.28,11.54-1.88,3.75-4.2,10.1-3.87,12.79.33,2.69.57,7.49-.5,11.48,0,0,4.36-5.14,4.53-8.87s-1.39-6.08-.02-9.72,3.03-4.97,3.6-8.81-.47-8.42-.47-8.42Z"/>
    <path d="M241.77,404.34"/>
    <g>
      <path d="M541.68,66.74c-3.67,5.58-2.91,12.97,1.83,17.68,16.63,16.53,41.77,41.6,58.79,79.67,19.79,44.26,129.68-63.66,129.68-63.66,0,0-10.98-51.1-37.84-93.31-2.31-3.63-6.19-5.94-10.47-6.35-14.29-1.37-48.97-1.8-87.08,19.04-31.8,17.39-47.62,35.83-54.91,46.93Z"/>
      <path class="st6" d="M725.05,75.29c-36.06,7.55-85.65,21.81-130.87,72.76,0,0,9.68,17.12,14,29.5l94.06-52.99,31.97-13.79s-4.4-22.39-9.15-35.47Z"/>
    </g>
    <g id="body1" data-name="body">
      <path id="shadow1" data-name="shadow" class="st19" d="M819.86,431.64c-23.9,0-45.49,3.01-61,7.85-11.86-2.12-25.35-3.33-39.67-3.33-47.2,0-85.47,13.05-85.47,29.14,0,.6.07,1.19.17,1.78-39.11,2.4-68.57,12.98-68.57,25.67,0,14.46,38.27,26.18,85.47,26.18s83.48-11.13,85.38-25.07c21.6-1.48,40.23-5.75,52.59-11.65,9.64,1.15,20.12,1.8,31.1,1.8,47.2,0,85.47-11.72,85.47-26.18s-38.27-26.18-85.47-26.18h0Z"/>
      <g id="leg-right_copy1" data-name="leg-right_copy">
        <path class="st8" d="M813.47,324.3c-4.07-8.04-26.85,9.52-45.08,34.8s-38.65,76.92-36.36,86.24c-.4,9.68,22.6,18.49,51.37,19.66,77.07,3.15,92.65-17.08,30.07-140.71h0Z"/>
        <path class="st2" d="M813.47,324.3c-4.07-8.04-26.85,9.52-45.08,34.8s-38.65,76.92-36.36,86.24c-.4,9.68,22.6,18.49,51.37,19.66,77.07,3.15,92.65-17.08,30.07-140.71h0Z"/>
      </g>
      <g id="leg-right_copy2" data-name="leg-right_copy" class="st1">
        <path d="M813.47,324.3c-4.07-8.04-26.85,9.52-45.08,34.8s-38.65,76.92-36.36,86.24c-.4,9.68,22.6,18.49,51.37,19.66,77.07,3.15,92.65-17.08,30.07-140.71h0Z"/>
        <path class="st1" d="M813.47,324.3c-4.07-8.04-26.85,9.52-45.08,34.8s-38.65,76.92-36.36,86.24c-.4,9.68,22.6,18.49,51.37,19.66,77.07,3.15,92.65-17.08,30.07-140.71h0Z"/>
      </g>
      <g id="hand-right_copy_21" data-name="hand-right_copy_2">
        <g id="Arm1" data-name="Arm">
          <path class="st12" d="M867.91,259.14c-.27,2.98-.74,5.71-1.39,8.21-5.01,19.32-20.42,24.81-32.95,25.91-8.87.79-16.3-.63-17.56-.89-.13-.03-.19-.04-.19-.04,1.38-29.73-5.23-51.83-9.7-63.1-2.17-5.47-3.83-8.39-3.83-8.39,1.75-8.73,5.65-12.6,10.13-13.96.14-.05.29-.09.43-.12,6.24-1.66,13.47,1.34,17.53,2.85,19.16,7.08,39.44,28.47,37.53,49.53h0Z"/>
          <path class="st4" d="M867.91,259.14c-.27,2.98-.74,5.71-1.39,8.21-5.01,19.32-20.42,24.81-32.95,25.91-8.87.79-16.3-.63-17.56-.89-.13-.03-.19-.04-.19-.04,1.38-29.73-5.23-51.83-9.7-63.1-2.17-5.47-3.83-8.39-3.83-8.39,1.75-8.73,5.65-12.6,10.13-13.96.14-.05.29-.09.43-.12,6.24-1.66,13.47,1.34,17.53,2.85,19.16,7.08,39.44,28.47,37.53,49.53h0Z"/>
        </g>
      </g>
      <path class="st12" d="M836.9,336.84c-.42,100.34-49.32,136.38-124.16,139.55-56.12,2.37-97.86-26.4-115.92-62.92-.18-.35-.36-.71-.53-1.07-1.01-2.1-1.95-4.22-2.8-6.37-2.62-6.58-4.49-13.37-5.55-20.21-.96-6.19-1.27-12.43-.87-18.63,2.59-36.21,35.83-76.65,28.58-105.49-5.87-23.36-20.94-54.68-7.66-74.42,18.59-27.64,33.31-33.59,71.48-38.78,9.15-1.24,21.86-2.04,37.52-6.52,1.17-.34,2.36-.69,3.59-1.07,13.28-4.07,21-7.42,28.62-8.66,10.9-1.78,26.63-3.06,36.09,8.66,10.91,13.51,16.7,32.13,26,61.68,14.31,45.48,25.74,99.57,25.59,134.25h.02Z"/>
      <path class="st4" d="M836.89,336.84c.15-34.68-11.28-88.77-25.59-134.25-3.62-11.52,8.62,32.44,2.39,84.08l-69.99,7.19c11.33,10.19,17.72,14.13,22.56,16.87,3.25,1.84,12.6,5.72,24.47,5.72,7.8,0,13.33-1.21,18.11-3.41,1.39-.64-1.76.92,0,0-.29,1.14-.58,2.28-.9,3.42-21.14,77.36-91.09,104.56-139.21,80.92,0,0-37.84,20.2-71.92,16.09,18.06,36.52,59.8,65.29,115.92,62.92,74.84-3.17,123.74-39.21,124.16-139.55h-.01Z"/>
      <g id="Leg-Left_copy1" data-name="Leg-Left_copy">
        <path class="st8" d="M597.38,504.87c-2.01.14-3.92.19-5.73.16-30.63-.53-32.47-24.78-29.62-49.17.93-7.96,2.35-15.92,3.44-23.09,1.35-6.73,3.08-13.47,5.08-19.96,15.27-53.94,65.05-62.35,98.19-15.43,15.4,32.96,15.48,59.89,17.29,77.64,1,9.8-25.18,29.85-88.65,29.85Z"/>
        <path class="st1" d="M597.38,504.87c-1.88,0-3.79.06-5.73.16-30.63-.53-32.47-24.78-29.62-49.17,13.87,54.45,97.25,3.58,111.71-49.95,6.4,15.41,5.81,15.76,5.81,15.75,9.09,28.01,4.67,35.61,6.48,53.36,1,9.8-25.18,29.85-88.65,29.85Z"/>
        <path class="st14" d="M645.33,374.56c3.57,2.08,7.12,4.32,10.37,6.9,2.21,1.8,4.59,4.05,6.57,6.12,4.85,5.28,8.97,11.4,12.11,17.84.85,1.86,2.29,4.65,2.94,6.57,4.47,11.02,6.99,22.94,8.22,34.73.32,2.06.4,5.02.54,7.1.48,6.83.32,14.5-.05,21.29-.9-6.76-1.46-14.28-2.56-21.03-.93-6.87-2.05-13.59-3.78-20.67-.55-2.18-.97-4.62-1.66-6.77-3.7-13.29-9.17-26.46-17.74-37.35-1.67-2.12-3.9-4.58-5.76-6.52-2.85-2.83-6.14-5.58-9.21-8.2h0Z"/>
      </g>
      <path class="st6" d="M651.5,272.89c-4.32.55-7.55,1.54-11.79,2.56-9.12,2.17-18.59,4.63-24.62,7.79-7.32-3.71-2.3-11.91-2.3-11.91,0,0-2.95-.72-3.48-2.83-1.05-4.22,1.47-5.21,1.47-5.21,0,0-2.63-.74-3.22-2.91-1.15-4.28,2.44-6.8,5.44-8.03s7.52-4.36,18.76-7.3c14.1-3.68,31.91-4.24,39.56-3.64,14.55,1.15,23.19,4.32,23.19,4.32,0,0,1.38,6.55-.29,12.18-.83,2.82-7.05,3.36-7.52,5.34-.92,3.88-1.24,6.28-1.24,6.28l-16.96,2.71c-1.44,0-3.54-.67-4.98-.58l-7.46.85c-1.3.09-4.57.38-4.57.38Z"/>
      <path class="st4" d="M732.42,249.63c1.92-7.12,19.39,32.34,7.14,58.55-25.25,54-79.81,40.74-102.54,20.14,8.06,1.34,91.23-63.28,95.4-78.7h0Z"/>
      <path class="st16" d="M819.86,235.29c4.02,9.19,7.14,18.6,9.74,28.26,2.51,9.67,4.26,19.66,3.98,29.7-2.54-8.3-5.55-20.23-7.85-28.69-2.48-9.63-4.91-19.31-5.87-29.28h0Z"/>
      <path class="st6" d="M740.02,261.93c14.01,5.29,22.97,12.62,34.94,15.69,8.79,2.25,17.04,1.73,24.35-2.53,4.43-2.58,8.51-6.51,11.96-11.84s5.5-12.86,10.09-17.52c6.9,1.32,5.82,9.43,5.82,9.43,0,0,3.04,1.36,3.99,2.84,3,4.69,1.35,7.52,1.35,7.52,0,0,3.21,3.1,3.28,6.01.12,5.22-2.18,7.7-2.18,7.7,0,0,1.77,4.29-6.87,12.49s-17.3,14.63-33.51,16.25-29.13-4.45-34.91-7.33-20.62-9.44-20.62-9.44l2.34-29.25Z"/>
      <path class="st13" d="M774.19,306.58c-4.61-2.82-5.04-5.89-10.96-7.46s-8.24-2.73-13.44-5.62-9.47-7.73-12.1-7.69,1.47,5.9,1.47,5.9c0,0,11.36,5.23,17.88,8.29s17.16,6.58,17.16,6.58Z"/>
      <path class="st13" d="M698.83,253.9c-4.5-2.28-7.23-5-11.48-4.99s-8.33,2.9-11.54,1.29-8.1-1.63-11.74-1.01-6.77,1.33-8.82-.22c0,0,5.39-1.14,7.5-2.5s2.89-1.4,5.03-.82,5,2.25,7.3,1.95,3.85-.61,5.71-.13,1.97.97,4.61.16,6.82-1.06,8.53.45,4.89,5.82,4.89,5.82Z"/>
      <path class="st13" d="M704.65,252.81c-4.68,1.88-7.64,4.34-11.87,3.97s-8.04-3.62-11.38-2.29-8.21.92-11.78-.02-6.63-1.91-8.81-.56c0,0,5.27,1.6,7.25,3.15s2.76,1.65,4.94,1.26,5.18-1.81,7.45-1.3,3.78.94,5.68.62,2.05-.79,4.6.25,6.7,1.65,8.53.3,5.38-5.37,5.38-5.37Z"/>
      <path class="st13" d="M729.44,264.78c3.55.91,5.61,2.39,8.11,4.72s6.87,5.44,8.95,5.46,5.72.41,8.54,1.97c0,0-3.13-4.96-5.89-5.61s-4.8.59-7.3-1.24-3.22-3.62-6.01-4.68-6.4-.62-6.4-.62Z"/>
      <g id="HAnd-left_copy1" data-name="HAnd-left_copy">
        <g id="Thumb1" data-name="Thumb">
          <path id="R_thumb1" data-name="R_thumb" class="st12" d="M696.97,262.43s-9.13-15.02-7.35-25.48c.76-4.48,6.41-5.91,9.12-2.26,2.33,3.14,4.5,8.77,4.5,18.82l-8.43,12,2.16-3.08Z"/>
        </g>
        <g id="Arm-21" data-name="Arm-2">
          <path class="st12" d="M735.48,291.39c-8.99,23.06-33.65,38.26-38.89,41.2-19.69,11.04-40.44,9.49-52.38,2.39-2.05-1.21-3.84-2.59-5.32-4.1-2.57-2.62-4.68-5.13-6.38-7.54-1.94-2.74-3.37-5.36-4.39-7.86-2.85-6.94-2.58-12.93-1.49-18.08,3.04-14.37,14.11-20.89,19.97-22.08,4.32-.88,13.17-1.99,19.27-2.76,12.92-1.62,27.41-5.89,33.19-25.08,2.61-8.68,4.03-15.56,7.66-19.49,2.09-2.3,4.96-3.59,9.25-3.66,2.92-.04,5.56,1.19,7.86,3.02,4.94,3.94,8.3,10.63,9.39,13.2.4.99.79,2.03,1.17,3.12,4.47,12.69,7.5,31.31,1.09,47.72h0Z"/>
          <path class="st4" d="M739.85,267.23c.21,1.17-1.19,1.91-2.34,2.21-8.15,2.17-11.96,9.06-17.42,14.7-12.51,12.91-29.3,21.19-46.33,26.37-8.59,2.62-17.55,4.65-26.49,5.57-3.01.31-17.63,2.6-19.15-.61,21.81,46.03,84.26,24.45,107.36-24.09,1.25-2.63,1.58-5.48,2.22-8.32,1.2-5.3,3.26-10.51,2.15-15.84h0Z"/>
          <path class="st15" d="M694.23,257.9c2.65,24.56,6.55,23.75,9.01,26.3s14.27,12.34,28.75,7.99,2.4-48.52,2.4-48.52c0,0-6.17-18.78-18.42-19.34s-14.73,14.23-14.73,14.23c0,0-2.74-8.08-9.64-4.91s2.63,24.25,2.63,24.25Z"/>
          <path class="st16" d="M694.23,257.9c-1.8,4.1-4.69,7.73-8.25,10.55-5.82,3.46-12.5,5.13-19.14,5.99-6.15.8-13.07,1.6-19.08,2.68-1.86.3-3.82,1.07-5.49,1.94-8.56,4.48-13.8,13.86-14.32,23.38-.5,4.69-.72,9.08.59,14.01-2.49-3.59-4.14-7.94-4.67-12.56.07-13.46,8.82-27.3,22.33-30.54,8.63-1.73,17.72-2.18,26.29-3.96,4.05-.91,7.95-2.29,11.4-4.4,3.84-1.61,7.37-4.15,10.34-7.09h0Z"/>
          <path class="st16" d="M737.69,291.18c-7.01,18.2-21.88,32.06-38.16,42.07-5.63,3.13-11.85,5.38-18.13,6.74-8.38,1.29-17.11,1.64-25.33-.51h.01c8.26.56,16.57-.99,24.44-3.35,4.42-1.16,8.84-2.4,13.01-4.31,16.56-8.25,33.88-24.55,40.42-42.02"/>
          <path class="st18" d="M712.71,290.36c7.37-6.21,12.02-10.92,15.3-16.59,2.87-4.82,4.11-7.31,5.33-12.54,1.46-5.88,1.45-9.52,1.45-9.52,0,0,4.16,11.75,2.9,20s-3.43,17.2-3.43,17.2l-1.08,2.81s-5.12,1.96-12.1,1.54-8.37-2.9-8.37-2.9Z"/>
          <path class="st17" d="M733.18,291.71c5.92-16.28,4.02-39.71-4.11-54.9-2.7-4.58-7.13-10.09-12.45-10.45-3.7-.47-7.51.39-9.99,3.43-2.6,3.08-4.08,7.16-5.61,10.91,1.52-8.4,3.81-17.31,14.05-18.24,7.89-.9,13.78,6.27,17.43,12.31,8.71,16.11,11.54,38.99,5.18,56.41l-4.5.53Z"/>
        </g>
        <path class="st17" d="M694.23,257.9c-4.86-6.35-10.69-15.55-5.46-23.36,2.46-3.37,7.84-3.72,10.58-.66,1.2,1.42,1.74,3.06,1.89,4.68-1.68-2.33-3.91-4.34-6.78-3.59-1.83.46-2.77,1.69-3.28,3.43-1.86,6.42,2.18,12.94,3.04,19.49h.01Z"/>
      </g>
      <path class="st0" d="M857.93,233.65c3.9,0,9.36,2.08,10.61,7.74.56,2.53-.73,5.65-2.96,7.69,0,0-3.33,3.1-11.12,5.16-5.51,1.46-13.7,2.25-18.02,1.77-2.56-.28-7.71-1.12-10.13-2-1.4-.51-3.16-1.49-3.62-3.93-2.96-15.63,35.25-16.43,35.25-16.43Z"/>
      <g id="Hand_right-palm_copy_21" data-name="Hand_right-palm_copy_2">
        <path class="st15" d="M862.97,240.04c-.24,2.12-1.5,3.47-3.28,4.74-3.56,2.54-7.83,3.86-12.2,4.05-.9.04-1.84.12-2.82.25-20.73,2.69-31.66-7.07-38.68-18.73-5.56-7.36-9.74-25.62-3.76-34.16,1.19-1.7,2.78-3.01,4.83-3.78,5.61,1.57,10.37,6.91,15.89,9.19,14.22,8.02,29.38,13.4,39.56,35.46.38.94.58,1.97.46,2.99Z"/>
      </g>
      <path class="st14" d="M835.17,370.56c-1.65,28.28-12.04,57.3-33.62,76.47-8.45,7.3-18.22,13.23-28.68,16.84,14.96-8.24,28.24-19.09,38.07-33,12.86-17.84,19.37-39.02,24.24-60.31h-.01Z"/>
    </g>
    <g id="excited_face1" data-name="excited_face">
      <g id="face1" data-name="face">
        <g class="st19">
          <path class="st16" d="M711.44,189.73c10.16,0,20.91,7.3,26.13,17.75,2.26,4.52,3.32,9.27,3.11,13.74-5.57-2.64-13.47-4.15-22.2-4.15-.38,0-.75,0-1.13,0-7.55.11-14.77,1.39-20.33,3.56-.25-.52-.49-1.04-.72-1.57-3.1-7.23-3.19-14.64-.25-20.33,2.3-4.45,6.31-7.5,11.28-8.58,1.32-.28,2.7-.43,4.11-.43M711.44,186.73c-1.6,0-3.19.16-4.75.5-13.36,2.89-19.79,17.52-13.15,33.02.63,1.48,1.35,2.89,2.15,4.24h0c5.19-2.57,12.97-4.28,21.7-4.41.36,0,.73,0,1.09,0,10.73,0,19.97,2.43,24.52,6.05,1.47-6.08.63-13.21-2.75-19.98-5.78-11.57-17.65-19.41-28.81-19.41h0Z"/>
        </g>
        <g class="st19">
          <path class="st16" d="M778.37,173.55c6.71,0,15.24,7.35,19.44,16.73.1.23.2.46.3.7-1.56.54-3.05,1.34-4.44,2.39h-.07l-.84.72c-4.75,4.08-8,8.85-9.28,13.46-4.38-3.29-8.24-8.4-10.55-14.14-2.61-6.46-2.81-12.81-.53-16.57,1.17-1.94,2.9-3.03,5.14-3.25.27-.03.56-.04.84-.04M778.37,170.55c-.38,0-.76.02-1.14.06-8.68.85-12.14,11.43-7.09,23.93,3.38,8.38,9.51,15,15.74,18-.32-4.81,2.67-10.88,8.83-16.17h.01c2.36-2.02,4.88-2.97,7.37-3.18-.41-1.36-.93-2.75-1.55-4.13-4.73-10.59-14.22-18.51-22.17-18.51h0Z"/>
        </g>
        <path d="M712.97,220.27c1.44-.11,2.92-.18,4.43-.21,9.24-.14,17.47,1.53,22.72,4.21,2.71-4.21,2.9-10.17.1-15.82-4.11-8.3-13.42-13.36-21.2-11.39-8.16,2.07-11.8,11.11-7.66,20.28.46,1.03,1.01,1.99,1.61,2.91v.02Z"/>
        <path class="st12" d="M714.03,210.47c-.82-2.98.47-5.68,2.83-6.05s4.82,1.65,5.65,4.52c.83,2.89-.33,5.64-2.66,6.11s-5-1.57-5.82-4.58h0Z"/>
        <path d="M794.73,196.36c1.37-1.17,2.79-1.99,4.23-2.5-.26-.98-.59-1.97-1-2.96-3.24-7.86-10.23-13.51-15.86-12.71-5.87.82-8.19,8.28-4.92,16.78,2.07,5.37,5.8,9.67,9.72,11.82,1.34-3.44,3.95-7.09,7.83-10.41v-.02Z"/>
        <path class="st12" d="M779.3,191.77c-.81-2.61.11-4.81,2.02-4.94,1.88-.13,4.05,1.81,4.86,4.34.82,2.55-.02,4.79-1.9,4.99s-4.16-1.77-4.98-4.4h0Z"/>
        <path class="st16" d="M792,168.86c-4.13-4.29-7.4-7.13-12.15-9.64-2.13-1.12-4.19-2.06-6.44-2.38-2.6-.41-6.39.71-9.09,1.56,2.73-6.9,11.45-7.72,17.31-4.39,5.6,3.08,9.62,8.51,10.36,14.84h0Z"/>
        <g>
          <path d="M795.14,253.66c-.96-5.17-4.12-13.36.44-23.71.18-.67-.17-1.37-.81-1.64-.23-.1-.48-.13-.72-.1h.01c-.4.06-.78.29-1.01.66-.09.13-4.6,6.72-25.18,9.42-6.64.87-14.3,1.25-22.76,1.12-.07,0-.14,0-.2,0-.47.06-.87.35-1.08.79-.23.49-.15,1.08.2,1.49.59.69,14.55,16.91,23.73,20.59.12.05.25.1.41.17,2.54,1.04,10.25,4.21,17.75,3.23,3.19-.42,5.99-1.54,8.31-3.34,2.2-1.7,1.66-4.63.91-8.69ZM794.22,229.65s0-.03.01-.04c0,0,0,0,0,0h0s-.02.03-.02.05Z"/>
          <path class="st8" d="M792.55,260.66c-6.99,4.94-19.28,2.06-27.79-2.56,14.95-15.06,26.27.97,27.79,2.56Z"/>
        </g>
        <path class="st16" d="M683.41,196.58c-3.86-5.22-4.92-12.54-2.01-18.53,5.18-10.81,19.82-11.64,28.87-5.58-2.07.24-4.02.34-5.93.54-5.03.49-10.77,1.58-14.48,4.62-5.69,4.47-6.24,12.11-6.45,18.95h0Z"/>
      </g>
    </g>
    <g>
      <ellipse class="st3" cx="794.97" cy="327.04" rx="6.41" ry="8.48" transform="translate(-6.57 16.45) rotate(-1.18)"/>
      <ellipse cx="796.03" cy="324.21" rx="6.41" ry="8.48" transform="translate(-6.51 16.47) rotate(-1.18)"/>
      <ellipse class="st3" cx="791.99" cy="362.29" rx="8.48" ry="6.41" transform="translate(301.72 1082.1) rotate(-80.32)"/>
      <ellipse cx="794.42" cy="358.87" rx="8.48" ry="6.41" transform="translate(307.11 1081.66) rotate(-80.32)"/>
      <ellipse class="st3" cx="783.69" cy="396.26" rx="8.48" ry="6.41" transform="translate(169.45 1023.87) rotate(-72.44)"/>
      <ellipse cx="786.55" cy="393.01" rx="8.48" ry="6.41" transform="translate(174.54 1024.33) rotate(-72.44)"/>
      <ellipse class="st12" cx="794.14" cy="321.72" rx="2.37" ry="1.8" transform="translate(283.55 1009.8) rotate(-75.48)"/>
      <ellipse class="st12" cx="792.44" cy="356.91" rx="2.56" ry="1.94" transform="translate(248.21 1034.53) rotate(-75.48)"/>
      <ellipse class="st12" cx="785.25" cy="389.65" rx="2.59" ry="1.96" transform="translate(16.85 811.56) rotate(-55.16)"/>
    </g>
    <path class="st18" d="M845.1,249.08c3.64-8.12,4.1-14.98,2.11-22-1.98-7.02-4.58-13.61-4.58-13.61,0,0,15.5,12.84,19.89,23.58,0,0,2.22,4.67-2.82,7.73-5.64,4.3-14.6,4.3-14.6,4.3Z"/>
    <path class="st0" d="M694.23,257.9c-4.1-.58-6.98,1.88-7.52,5.34s0,9.27,2.62,16.31c1.66,4.48,5.43,9.92,9.2,13.74,4.22,4.28,12.82,7.05,19.44,7.3s13.14-.66,16.88-3.05c2.49-1.59,4.68-6.05,3.62-8.64-3.37,1.25-4.7,2.47-11.11,3.07-5.85.55-11.41.02-16.48-2.38-7.1-3.36-12.11-9.96-13.97-17.59-1.56-6.38-2.66-14.1-2.66-14.1Z"/>
    <path class="st21" d="M648.88,242.07c.33,4.32.94,7.99,2.32,12.23s2.64,9.07,3.02,12.25,0,5.5,0,5.5l-2.73.84-8.75-9.52v-16.69l1.64-3.95,4.5-.65Z"/>
    <path class="st21" d="M615.15,282.63c-.33-4.32-.94-7.99-2.32-12.23s-2.64-9.07-3.02-12.25,0-5.5,0-5.5l2.73-.84,8.75,9.52v16.69s-1.64,3.95-1.64,3.95l-4.5.65Z"/>
    <path class="st9" d="M740.74,126.39c-12.44,3.14-19.58,4.66-33.42,12.46l-10.28-2.29s-87.72,47.35-91.71,53.22c-3.99,5.87-2.5,21.47-2.5,21.47,0,0,15.92-.33,27.25-3.42,13.16-3.59,21.76-6.93,31.59-14.55,20.69-16.04,32.81-30.66,48.34-43.47,1.62-1.33,11.58-7.67,13.49-8.53,0,0,.02,0,.02-.01,7.47-4.28,18.63-7.09,25.41-7.98,6.78-.88,19.31-1.15,26.05,1.31s-18.04-12.32-34.26-8.23Z"/>
    <path class="st11" d="M599.74,18.14c24.28.41,41.91,9.1,58.27,27.49,8.35,9.38,14.4,19.7,21.01,29.62,6.24,9.38,11.59,19.33,15.99,29.71l.44,1.54,34.94-15.66s-19.81-63.8-36.24-83.71c0,0-.78-6.07-14.41-6.9s-45.85-.13-80,17.92Z"/>
    <path class="st17" d="M860.59,233.65c-7.36-9.83-15.05-19.7-26.1-25.42-4.97-2.63-10.18-4.55-15.37-7.02,0,0,.32-.95.32-.95,20.75,3.83,33.08,13.88,41.15,33.38h0Z"/>
    <path class="st17" d="M824.52,247.15c-13.61-3.62-24.24-17.31-24.42-31.38,3.04,6.13,6.25,11.8,10.39,17.11,4.11,5.36,8.84,9.8,14.02,14.27h0Z"/>
    <path class="st6" d="M645.32,242.49c-1.63-7.05-8.79-7.26-11.59-7.2-2.98.06-7.04.38-10.51,1.17s-11.14,3.13-13.25,6.07-4.06,5.73-2.61,9.17,10.01,19.01,8.88,25.27-1.89,9.31-9.73,31.25c-12.55,30.41-19.6,36.29-19.63,66.34l-1.05,26.9,38.05,4.45s-2.56-16.4,1.99-43.63,12.62-43.42,16.41-54.06,10.87-25.87,9.23-35.33c0,0-.86-7.42-2.73-14.08s-3.45-16.32-3.45-16.32Z"/>
    <path class="st23" d="M622.13,404.4c.37,3.36,1.14,7.5,2.44,12.96s3.07,9.78,3.07,9.78"/>
    <path class="st23" d="M587.36,400.86c-.16,3.38-.05,7.58.38,13.18.43,5.6,1.5,10.14,1.5,10.14"/>
    <path class="st23" d="M591.69,401.95c-.13,3.38.01,7.58.49,13.18.48,5.59,1.58,10.12,1.58,10.12"/>
    <path class="st23" d="M595.9,402.81c-.29,3.37-.35,7.57-.15,13.18.21,5.61,1.09,10.19,1.09,10.19"/>
    <path class="st23" d="M599.87,402.9c.01,3.38.33,7.57,1.04,13.14.71,5.57,2,10.05,2,10.05"/>
    <path class="st23" d="M604.82,402.81c.01,3.38.33,7.57,1.04,13.14.71,5.57,2,10.05,2,10.05"/>
    <path class="st23" d="M609.38,404.01c-.2,3.38-.14,7.58.23,13.18.36,5.6,1.38,10.15,1.38,10.15"/>
    <path class="st23" d="M614.57,404.1c-.19,3.38-.12,7.58.26,13.18.38,5.6,1.41,10.15,1.41,10.15"/>
    <path class="st23" d="M618.54,404.12c-.13,3.38.01,7.58.49,13.18.48,5.59,1.58,10.12,1.58,10.12"/>
    <path class="st4" d="M778.16,229.25c-.38,3.58-1.56,5.34-3.79,6.03s-5.38.12-7.75-1.63-4.86-5.68-6.7-8.57-2.89-6.04-2.89-6.04l21.13,10.21"/>
    <path class="st13" d="M833.8,266.99c.35,4.51-.98,7.12-2.28,9.98s-2.46,5.6-5.48,8.3-4.08,3.18-8.09,5.67c0,0,5.82-1.26,9.58-5.55,1.47-1.68,1.73-1.41,1.73-1.41,0,0-.28.56-1.07,2.05-1.19,2.24-5.95,6.58-8.34,8.45s-9.01,6.27-12.13,7.62-7.9,3-11.43,3.52-10.44,1.66-14.32,2.3c-4.03-.56,19.25,4.2,37.27-9.73s14.36-18.96,14.36-18.96c0,0,4.89-6.73.2-12.23Z"/>
    <path class="st13" d="M832.51,265.51c-1.76,6.04-6.81,14.36-10.6,17.33s-10.78,6.84-13.75,9.36-8.4,6.24-12.86,6.24-6.24-.22-9.81.67c0,0,5.13-3.05,7.51-3.12s5.74-.52,7.1-1.64,5.08-4.46,7.83-6.39,5.05-3.05,8.03-5.05,4.83-3.57,7.13-6.91,5.8-7.95,6.24-11.37,2.34-6.79.54-7.91c0,0,2.5,2.09,2.91,5.04s-.28,3.75-.28,3.75Z"/>
    <path class="st13" d="M789.09,292.1c-4.98.79-8.42,2.53-12.45,1.23s-7.04-5.32-10.59-4.76-8.21-.93-11.48-2.64-6.04-3.34-8.46-2.5c0,0,4.78,2.73,6.37,4.68s2.32,2.22,4.54,2.33,5.45-.61,7.55.38,3.48,1.76,5.39,1.87,2.17-.31,4.43,1.27,6.16,3.1,8.25,2.19,6.44-4.04,6.44-4.04Z"/>
    <path class="st13" d="M795.5,289.8c2.42-2.75,4.67-3.92,7.89-5.08s7.97-3.65,8.93-5.5,2.96-4.91,5.63-6.71c0,0-5.84.54-7.67,2.7s-1.65,4.55-4.41,5.94-4.69,1.23-6.9,3.23-3.46,5.42-3.46,5.42Z"/>
    <path class="st13" d="M813.65,293.25c-3.71,1.05-3.86,3.09-6.29,4.29s-4.29,2.7-6.57,3.09c0,0,5-.4,7.14-1.51s2.29-1.31,3.57-2.71,2.14-3.16,2.14-3.16Z"/>
    <path class="st13" d="M671.28,264c-3.31-1.98-4.89-.69-7.43-1.63s-4.9-1.27-6.76-2.66c0,0,3.73,3.36,6,4.16s2.52.76,4.42.74,3.77-.61,3.77-.61Z"/>
    <path class="st22" d="M620.45,317.93c1.63-3.5.18-4.94.87-7.56s.76-5.01,1.96-6.99c0,0-2.96,4.05-3.53,6.39s-.5,2.59-.28,4.47.99,3.69.99,3.69Z"/>
    <path class="st22" d="M635.34,259.11c.89-3.76-.83-4.87-.69-7.58s-.27-5.06.49-7.25c0,0-2.08,4.57-2.15,6.98s.04,2.64.63,4.44,1.72,3.41,1.72,3.41Z"/>
    <path class="st22" d="M602.07,371.47c1.63-3.5.18-4.94.87-7.56s.76-5.01,1.96-6.99c0,0-2.96,4.05-3.53,6.39s-.5,2.59-.28,4.47.99,3.69.99,3.69Z"/>
    <path class="st22" d="M607.02,396.93c1.63-3.5.18-4.94.87-7.56s.76-5.01,1.96-6.99c0,0-2.96,4.05-3.53,6.39s-.5,2.59-.28,4.47.99,3.69.99,3.69Z"/>
    <path class="st22" d="M627.28,297.08c1.63-3.5.18-4.94.87-7.56s.76-5.01,1.96-6.99c0,0-2.96,4.05-3.53,6.39s-.5,2.59-.28,4.47.99,3.69.99,3.69Z"/>
    <path class="st13" d="M756.44,279.83c3.7.83,4.14,2.74,6.94,3.35s4.23-.14,7.7.68,6.5,3.41,8.67,3.73,4.86-1.47,6.95-1.61,5.6-.85,6.89-1.9c0,0-4.88-1.35-7.44-.51s-3.39,2.45-6.63.44c-3.24-2.01-5.41-3.93-7.55-3.16s-4.12,1.71-6.05,1.19-2.49-2.3-4.4-2.55-5.09.34-5.09.34Z"/>
    <path class="st22" d="M637.66,284.07c.97-4.06,3.68-7.5,4.08-10.04s-1.27-5.83-1.32-8.31c-.05-2.48-.62-6.67-1.62-8.26,0,0-1.56,5.69-.82,8.77s2.3,4.15.16,7.87c-2.14,3.72-4.15,6.17-3.47,8.75.68,2.57,1.54,4.97.94,7.23-.6,2.26-2.4,2.81-2.73,5.06-.16,1.08-.14,2.52-.07,3.73-.49.64-.71,1.37-.94,2.55-.42,2.18-.17,5.48-1.46,7.42-1.28,1.94-2.24,3.19-2.62,5.07-.38,1.88,0,2.2-1.88,4.21-1.89,2.01-3.95,5.66-3.34,7.86s3.08,6.95,3.08,6.95c-.07-5.05-1.31-8.69.56-12.5,1.87-3.81,6.26-6.21,6.23-9.8-.04-3.59,2.09-7.99,4.25-10.99,2.16-3,4.17-5.5,3.68-8.02,0,0-3.39,4.34-5.54,5.64-.13.08-.24.15-.36.23.85-1.4,1.74-2.33,2.18-4.33.73-3.28.03-5.01,1-9.08Z"/>
    <path class="st22" d="M591.41,389.35c.8-3.71,2.71-4.16,3.3-6.97.6-2.81-.17-4.23.63-7.71.8-3.48,3.36-6.53,3.66-8.7s-1.5-4.85-1.66-6.93-.89-5.59-1.95-6.87c0,0-1.32,4.89-.45,7.44.86,2.55,2.47,3.37.49,6.63-1.98,3.25-3.89,5.44-3.1,7.57.79,2.13,1.74,4.11,1.23,6.04s-2.28,2.5-2.52,4.42c-.24,1.92.37,5.08.37,5.08Z"/>
    <path class="st22" d="M624.86,287.01c-.12-3.79,1.63-4.69,1.53-7.56-.1-2.87-1.19-4.06-1.25-7.63-.06-3.57,1.69-7.15,1.46-9.32s-2.63-4.34-3.28-6.33-2.22-5.21-3.55-6.2c0,0-.1,5.06,1.35,7.33,1.46,2.27,3.21,2.68,2.07,6.31-1.14,3.64-2.47,6.22-1.19,8.1,1.28,1.88,2.68,3.57,2.66,5.57s-1.61,2.98-1.38,4.9c.23,1.92,1.59,4.84,1.59,4.84Z"/>
    <path class="st13" d="M827.17,255.16c-.68,4.2-.33,6.09-3.95,9.11s-6.04,3.37-8.62,5.44c0,0,1.26-2.24,4.68-4.83s5.15-2.83,5.24-6.07,1.79-4.8,1.79-4.8l.87,1.15Z"/>
    <path class="st22" d="M611.76,322.37s-.57-1.46-.59-1.79c-.12-2.07.03-5.74,1.4-8.65,0,0-4.74,3.45-5.21,6.25s.91,4.75-.75,7.36c-1.66,2.61-3.4,3.46-4.27,6.3-.87,2.85-.2,6.42-.2,6.42.68-3.6,2.01-5.76,4.18-8.4,1.03-1.26,2.21-2.96,3.15-4.62.05,1.13.25,2.45.71,3.95,1.56,5.08-.57,6.21-3.71,11.72-3.14,5.51-3.62,9.54-3.62,9.54,2.31-4.34,5.29-5.92,8.46-12.2,3.17-6.28,1.75-9.06.47-15.89Z"/>
    <path class="st22" d="M618.55,367.34c.68,5.51,1.6,7.72-.89,12.99s-4.67,6.69-6.47,10.34c0,0,.49-3.31,2.92-7.95s4-5.66,3.06-9.73.19-6.72.19-6.72l1.18,1.07Z"/>
    <path class="st18" d="M822.95,201.59l3.17.74-25.52,18.92s-.34-1.56-.51-5.49c-.2-4.82,22.85-14.17,22.85-14.17"/>
    <path class="st22" d="M617.98,342.66c-.3,4.79-1.41,7.79-3.28,11.54-1.88,3.75-4.2,10.1-3.87,12.79.33,2.69.57,7.49-.5,11.48,0,0,4.36-5.14,4.53-8.87s-1.39-6.08-.02-9.72,3.03-4.97,3.6-8.81-.47-8.42-.47-8.42Z"/>
    <path class="st8" d="M783.69,404.46c16.1,33.92,39.78,3.96,39.78,3.96,0,0-19.45,55.45-81.13,65.42-37.93,6.13-56.31,1.27-56.31,1.27,0,0-2.78-47.87-9.59-65.3,0,0,62.3,51.32,107.26-5.35Z"/>
    <path class="st22" d="M783.69,404.46c17.68,34.97,40.28,2.78,40.28,2.78,0,0-16.92,55.14-81.63,66.59-37.83,6.7-56.31,1.27-56.31,1.27,0,0-3.37-49.16-10.18-66.59,0,0,59.48,53.78,107.85-4.06Z"/>
    <path class="st22" d="M823.97,407.25c-6.72,11.19-14.47,17.59-21.68,17.59s-18.68-7.69-18.59-20.37c0,0-14.44,31.43-48.37,31.43-36.94,0-58.89-26.08-58.89-26.08,0,0,34.61,24.27,61.25,21.18,20.84-2.42,28.07-9.76,28.07-9.76h0c4.73-3.58,9.29-7.11,13.38-11.41l4.56-5.36s6.93,15.92,17.63,16.2c12.84.34,22.64-13.41,22.64-13.41Z"/>
    <path class="st8" d="M775.25,231.05l76.02-46.94c1.37-.85.51-2.96-1.06-2.61l-88.53,19.72c-1.54.34-2.91,1.24-3.77,2.55-1.65,2.53-4.02,7.41-.88,15.26,3.92,9.79,9.2,10.87,12.45,12.37,1.86.86,4.02.71,5.77-.35Z"/>
    <path class="st22" d="M851.27,184.11c-44.15,20.23-66.75,34.92-78.38,36.82s-17.4-8.9-17.4-8.9c0,0,.78,17.15,16.74,19.92,0,0,1.75-.12,3.7-1.32s75.34-46.51,75.34-46.51Z"/>
    <path class="st20" d="M779.72,228.2c-4.19-2.35-11.21-9.53-11.91-13.19,0,0,6.92,9.71,14.32,11.69l-2.4,1.5Z"/>
    <path class="st20" d="M793.34,219.68c-3.91-2.91-10-10.93-10.32-14.68,0,0,5.35,10.34,12.47,13.33l-2.15,1.35Z"/>
    <path class="st20" d="M789.08,222.34c-2.87-1.61-7.69-6.53-8.17-9.05,0,0,4.75,6.66,9.82,8.02l-1.65,1.03Z"/>
    <path class="st20" d="M804.47,213.09c-2.52-2.11-6.35-7.84-6.36-10.4,0,0,3,7.2,7.74,9.47l-1.38.93Z"/>
    <path class="st20" d="M785.77,224.4c-2-1.12-5.36-4.55-5.69-6.3,0,0,3.31,4.64,6.84,5.59l-1.15.72Z"/>
    <path class="st20" d="M814.74,206.66c-1.75-1.49-4.38-5.5-4.37-7.29,0,0,2.09,5.06,5.38,6.67l-1.01.62Z"/>
    <path d="M602.57,205.01c.3-2.75,0-10.2,5.13-17.53,0,0,33.97-3.11,58.9-21.15,24.94-18.04,42.04-28.86,69.16-35.22,27.12-6.37,33.27-1.05,39.49,2.46,6.22,3.52,9.48,6.56,9.48,6.56,0,0,38.79-20.71,17.37-44.64-11.37-12.69-48.67-22.26-88.03-2.12-26.57,13.6-55.2,45.81-76.76,58.96s-69.44,18.72-75.3,35.15c-5.85,16.43,40.56,17.53,40.56,17.53Z"/>
    <path class="st10" d="M804.42,122.84c3.01-6.03-.92-16.19-4.8-20.78-6.56-7.76-19.69-12.41-32.11-12.71s-21.6.98-35.53,5.22-21.96,9.33-34.29,19.33-25.45,19.76-32.64,24.91-14.99,12.79-24.55,16.94c-13.58,5.89-27.93,6.89-27.93,6.89,0,0,16.02-5.12,24.72-10.3,12.78-7.61,44.75-36.62,57.44-46.5,15.88-12.35,31.67-18.58,39.82-20.49s20.62-5.34,39.12-2.59c10.73,1.6,23.83,6.74,29.67,14.29,4.35,5.62,8.85,14,1.07,25.8"/>
    <g>
      <path d="M1072.34,66.74c-3.67,5.58-2.91,12.97,1.83,17.68,16.63,16.53,41.77,41.6,58.79,79.67,19.79,44.26,129.68-63.66,129.68-63.66,0,0-10.98-51.1-37.84-93.31-2.31-3.63-6.19-5.94-10.47-6.35-14.29-1.37-48.97-1.8-87.08,19.04-31.8,17.39-47.62,35.83-54.91,46.93Z"/>
      <path class="st6" d="M1255.71,75.29c-36.06,7.55-85.65,21.81-130.87,72.76,0,0,9.68,17.12,14,29.5l94.06-52.99,31.97-13.79s-4.4-22.39-9.15-35.47Z"/>
    </g>
    <g id="body2" data-name="body">
      <g id="hand-right_copy_22" data-name="hand-right_copy_2">
        <g id="Arm2" data-name="Arm">
          <path class="st8" d="M1398.57,259.14c-.27,2.98-.74,5.71-1.39,8.21-5.01,19.32-20.42,24.81-32.95,25.91-8.87.79-16.3-.63-17.56-.89-.13-.03-.19-.04-.19-.04,1.38-29.73-5.23-51.83-9.7-63.1-2.17-5.47-3.83-8.39-3.83-8.39,1.75-8.73,5.65-12.6,10.13-13.96.14-.05.29-.09.43-.12,6.24-1.66,13.47,1.34,17.53,2.85,19.16,7.08,39.44,28.47,37.53,49.53h0Z"/>
          <path class="st2" d="M1398.57,259.14c-.27,2.98-.74,5.71-1.39,8.21-5.01,19.32-20.42,24.81-32.95,25.91-8.87.79-16.3-.63-17.56-.89-.13-.03-.19-.04-.19-.04,1.38-29.73-5.23-51.83-9.7-63.1-2.17-5.47-3.83-8.39-3.83-8.39,1.75-8.73,5.65-12.6,10.13-13.96.14-.05.29-.09.43-.12,6.24-1.66,13.47,1.34,17.53,2.85,19.16,7.08,39.44,28.47,37.53,49.53h0Z"/>
        </g>
      </g>
      <g id="hand-right_copy_23" data-name="hand-right_copy_2" class="st1">
        <g id="Arm3" data-name="Arm">
          <path d="M1398.57,259.14c-.27,2.98-.74,5.71-1.39,8.21-5.01,19.32-20.42,24.81-32.95,25.91-8.87.79-16.3-.63-17.56-.89-.13-.03-.19-.04-.19-.04,1.38-29.73-5.23-51.83-9.7-63.1-2.17-5.47-3.83-8.39-3.83-8.39,1.75-8.73,5.65-12.6,10.13-13.96.14-.05.29-.09.43-.12,6.24-1.66,13.47,1.34,17.53,2.85,19.16,7.08,39.44,28.47,37.53,49.53h0Z"/>
          <path class="st1" d="M1398.57,259.14c-.27,2.98-.74,5.71-1.39,8.21-5.01,19.32-20.42,24.81-32.95,25.91-8.87.79-16.3-.63-17.56-.89-.13-.03-.19-.04-.19-.04,1.38-29.73-5.23-51.83-9.7-63.1-2.17-5.47-3.83-8.39-3.83-8.39,1.75-8.73,5.65-12.6,10.13-13.96.14-.05.29-.09.43-.12,6.24-1.66,13.47,1.34,17.53,2.85,19.16,7.08,39.44,28.47,37.53,49.53h0Z"/>
        </g>
      </g>
      <path id="shadow2" data-name="shadow" class="st19" d="M1350.52,431.64c-23.9,0-45.49,3.01-61,7.85-11.86-2.12-25.35-3.33-39.67-3.33-47.2,0-85.47,13.05-85.47,29.14,0,.6.07,1.19.17,1.78-39.11,2.4-68.57,12.98-68.57,25.67,0,14.46,38.27,26.18,85.47,26.18s83.48-11.13,85.38-25.07c21.6-1.48,40.23-5.75,52.59-11.65,9.64,1.15,20.12,1.8,31.1,1.8,47.2,0,85.47-11.72,85.47-26.18s-38.27-26.18-85.47-26.18h0Z"/>
      <g id="leg-right_copy3" data-name="leg-right_copy">
        <path class="st8" d="M1344.13,324.3c-4.07-8.04-26.85,9.52-45.08,34.8s-38.65,76.92-36.36,86.24c-.4,9.68,22.6,18.49,51.37,19.66,77.07,3.15,92.65-17.08,30.07-140.71h0Z"/>
        <path class="st2" d="M1344.13,324.3c-4.07-8.04-26.85,9.52-45.08,34.8s-38.65,76.92-36.36,86.24c-.4,9.68,22.6,18.49,51.37,19.66,77.07,3.15,92.65-17.08,30.07-140.71h0Z"/>
      </g>
      <g id="leg-right_copy4" data-name="leg-right_copy" class="st1">
        <path d="M1344.13,324.3c-4.07-8.04-26.85,9.52-45.08,34.8s-38.65,76.92-36.36,86.24c-.4,9.68,22.6,18.49,51.37,19.66,77.07,3.15,92.65-17.08,30.07-140.71h0Z"/>
        <path class="st1" d="M1344.13,324.3c-4.07-8.04-26.85,9.52-45.08,34.8s-38.65,76.92-36.36,86.24c-.4,9.68,22.6,18.49,51.37,19.66,77.07,3.15,92.65-17.08,30.07-140.71h0Z"/>
      </g>
      <path class="st8" d="M1367.56,336.84c-.42,100.34-49.32,136.38-124.16,139.55-56.12,2.37-97.86-26.4-115.92-62.92-.18-.35-.36-.71-.53-1.07-1.01-2.1-1.95-4.22-2.8-6.37-2.62-6.58-4.49-13.37-5.55-20.21-.96-6.19-1.27-12.43-.87-18.63,2.59-36.21,35.83-76.65,28.58-105.49-5.87-23.36-20.94-54.68-7.66-74.42,18.59-27.64,33.31-33.59,71.48-38.78,9.15-1.24,21.86-2.04,37.52-6.52,1.17-.34,2.36-.69,3.59-1.07,13.28-4.07,21-7.42,28.62-8.66,10.9-1.78,26.63-3.06,36.09,8.66,10.91,13.51,16.7,32.13,26,61.68,14.31,45.48,25.74,99.57,25.59,134.25h.02Z"/>
      <path class="st1" d="M1367.55,336.84c.15-34.68-11.28-88.77-25.59-134.25-3.62-11.52,8.62,32.44,2.39,84.08l-69.99,7.19c11.33,10.19,17.72,14.13,22.56,16.87,3.25,1.84,12.6,5.72,24.47,5.72,7.8,0,13.33-1.21,18.11-3.41,1.39-.64-1.76.92,0,0-.29,1.14-.58,2.28-.9,3.42-21.14,77.36-91.09,104.56-139.21,80.92,0,0-37.84,20.2-71.92,16.09,18.06,36.52,59.8,65.29,115.92,62.92,74.84-3.17,123.74-39.21,124.16-139.55h-.01Z"/>
      <g id="Leg-Left_copy2" data-name="Leg-Left_copy">
        <path class="st8" d="M1128.04,504.87c-2.01.14-3.92.19-5.73.16-30.63-.53-32.47-24.78-29.62-49.17.93-7.96,2.35-15.92,3.44-23.09,1.35-6.73,3.08-13.47,5.08-19.96,15.27-53.94,65.05-62.35,98.19-15.43,15.4,32.96,15.48,59.89,17.29,77.64,1,9.8-25.18,29.85-88.65,29.85Z"/>
        <path class="st1" d="M1128.04,504.87c-1.88,0-3.79.06-5.73.16-30.63-.53-32.47-24.78-29.62-49.17,13.87,54.45,97.25,3.58,111.71-49.95,6.4,15.41,5.81,15.76,5.81,15.75,9.09,28.01,4.67,35.61,6.48,53.36,1,9.8-25.18,29.85-88.65,29.85Z"/>
        <path class="st14" d="M1175.99,374.56c3.57,2.08,7.12,4.32,10.37,6.9,2.21,1.8,4.59,4.05,6.57,6.12,4.85,5.28,8.97,11.4,12.11,17.84.85,1.86,2.29,4.65,2.94,6.57,4.47,11.02,6.99,22.94,8.22,34.73.32,2.06.4,5.02.54,7.1.48,6.83.32,14.5-.05,21.29-.9-6.76-1.46-14.28-2.56-21.03-.93-6.87-2.05-13.59-3.78-20.67-.55-2.18-.97-4.62-1.66-6.77-3.7-13.29-9.17-26.46-17.74-37.35-1.67-2.12-3.9-4.58-5.76-6.52-2.85-2.83-6.14-5.58-9.21-8.2h0Z"/>
      </g>
      <path class="st6" d="M1182.16,272.89c-4.32.55-7.55,1.54-11.79,2.56-9.12,2.17-18.59,4.63-24.62,7.79-7.32-3.71-2.3-11.91-2.3-11.91,0,0-2.95-.72-3.48-2.83-1.05-4.22,1.47-5.21,1.47-5.21,0,0-2.63-.74-3.22-2.91-1.15-4.28,2.44-6.8,5.44-8.03s7.52-4.36,18.76-7.3c14.1-3.68,31.91-4.24,39.56-3.64,14.55,1.15,23.19,4.32,23.19,4.32,0,0,1.38,6.55-.29,12.18-.83,2.82-7.05,3.36-7.52,5.34-.92,3.88-1.24,6.28-1.24,6.28l-16.96,2.71c-1.44,0-3.54-.67-4.98-.58l-7.46.85c-1.3.09-4.57.38-4.57.38Z"/>
      <path class="st1" d="M1263.08,249.63c1.92-7.12,19.39,32.34,7.14,58.55-25.25,54-79.81,40.74-102.54,20.14,8.06,1.34,91.23-63.28,95.4-78.7h0Z"/>
      <path class="st14" d="M1350.52,235.29c4.02,9.19,7.14,18.6,9.74,28.26,2.51,9.67,4.26,19.66,3.98,29.7-2.54-8.3-5.55-20.23-7.85-28.69-2.48-9.63-4.91-19.31-5.87-29.28h0Z"/>
      <path class="st6" d="M1270.69,261.93c14.01,5.29,22.97,12.62,34.94,15.69,8.79,2.25,17.04,1.73,24.35-2.53,4.43-2.58,8.51-6.51,11.96-11.84s5.5-12.86,10.09-17.52c6.9,1.32,5.82,9.43,5.82,9.43,0,0,3.04,1.36,3.99,2.84,3,4.69,1.35,7.52,1.35,7.52,0,0,3.21,3.1,3.28,6.01.12,5.22-2.18,7.7-2.18,7.7,0,0,1.77,4.29-6.87,12.49s-17.3,14.63-33.51,16.25-29.13-4.45-34.91-7.33-20.62-9.44-20.62-9.44l2.34-29.25Z"/>
      <path class="st13" d="M1304.86,306.58c-4.61-2.82-5.04-5.89-10.96-7.46s-8.24-2.73-13.44-5.62-9.47-7.73-12.1-7.69,1.47,5.9,1.47,5.9c0,0,11.36,5.23,17.88,8.29s17.16,6.58,17.16,6.58Z"/>
      <path class="st13" d="M1229.49,253.9c-4.5-2.28-7.23-5-11.48-4.99s-8.33,2.9-11.54,1.29-8.1-1.63-11.74-1.01-6.77,1.33-8.82-.22c0,0,5.39-1.14,7.5-2.5s2.89-1.4,5.03-.82,5,2.25,7.3,1.95,3.85-.61,5.71-.13,1.97.97,4.61.16,6.82-1.06,8.53.45,4.89,5.82,4.89,5.82Z"/>
      <path class="st13" d="M1235.31,252.81c-4.68,1.88-7.64,4.34-11.87,3.97s-8.04-3.62-11.38-2.29-8.21.92-11.78-.02-6.63-1.91-8.81-.56c0,0,5.27,1.6,7.25,3.15s2.76,1.65,4.94,1.26,5.18-1.81,7.45-1.3,3.78.94,5.68.62,2.05-.79,4.6.25,6.7,1.65,8.53.3,5.38-5.37,5.38-5.37Z"/>
      <path class="st13" d="M1260.1,264.78c3.55.91,5.61,2.39,8.11,4.72s6.87,5.44,8.95,5.46,5.72.41,8.54,1.97c0,0-3.13-4.96-5.89-5.61s-4.8.59-7.3-1.24-3.22-3.62-6.01-4.68-6.4-.62-6.4-.62Z"/>
      <g id="HAnd-left_copy2" data-name="HAnd-left_copy">
        <g id="Thumb2" data-name="Thumb">
          <path id="R_thumb2" data-name="R_thumb" class="st12" d="M1227.63,262.43s-9.13-15.02-7.35-25.48c.76-4.48,6.41-5.91,9.12-2.26,2.33,3.14,4.5,8.77,4.5,18.82l-8.43,12,2.16-3.08Z"/>
        </g>
        <g id="Arm-22" data-name="Arm-2">
          <path class="st8" d="M1266.14,291.39c-8.99,23.06-33.65,38.26-38.89,41.2-19.69,11.04-40.44,9.49-52.38,2.39-2.05-1.21-3.84-2.59-5.32-4.1-2.57-2.62-4.68-5.13-6.38-7.54-1.94-2.74-3.37-5.36-4.39-7.86-2.85-6.94-2.58-12.93-1.49-18.08,3.04-14.37,14.11-20.89,19.97-22.08,4.32-.88,13.17-1.99,19.27-2.76,12.92-1.62,27.41-5.89,33.19-25.08,2.61-8.68,4.03-15.56,7.66-19.49,2.09-2.3,4.96-3.59,9.25-3.66,2.92-.04,5.56,1.19,7.86,3.02,4.94,3.94,8.3,10.63,9.39,13.2.4.99.79,2.03,1.17,3.12,4.47,12.69,7.5,31.31,1.09,47.72h0Z"/>
          <path class="st1" d="M1270.51,267.23c.21,1.17-1.19,1.91-2.34,2.21-8.15,2.17-11.96,9.06-17.42,14.7-12.51,12.91-29.3,21.19-46.33,26.37-8.59,2.62-17.55,4.65-26.49,5.57-3.01.31-17.63,2.6-19.15-.61,21.81,46.03,84.26,24.45,107.36-24.09,1.25-2.63,1.58-5.48,2.22-8.32,1.2-5.3,3.26-10.51,2.15-15.84h0Z"/>
          <path class="st15" d="M1224.89,257.9c2.65,24.56,6.55,23.75,9.01,26.3s14.27,12.34,28.75,7.99,2.4-48.52,2.4-48.52c0,0-6.17-18.78-18.42-19.34s-14.73,14.23-14.73,14.23c0,0-2.74-8.08-9.64-4.91s2.63,24.25,2.63,24.25Z"/>
          <path class="st14" d="M1224.89,257.9c-1.8,4.1-4.69,7.73-8.25,10.55-5.82,3.46-12.5,5.13-19.14,5.99-6.15.8-13.07,1.6-19.08,2.68-1.86.3-3.82,1.07-5.49,1.94-8.56,4.48-13.8,13.86-14.32,23.38-.5,4.69-.72,9.08.59,14.01-2.49-3.59-4.14-7.94-4.67-12.56.07-13.46,8.82-27.3,22.33-30.54,8.63-1.73,17.72-2.18,26.29-3.96,4.05-.91,7.95-2.29,11.4-4.4,3.84-1.61,7.37-4.15,10.34-7.09h0Z"/>
          <path class="st14" d="M1268.35,291.18c-7.01,18.2-21.88,32.06-38.16,42.07-5.63,3.13-11.85,5.38-18.13,6.74-8.38,1.29-17.11,1.64-25.33-.51h.01c8.26.56,16.57-.99,24.44-3.35,4.42-1.16,8.84-2.4,13.01-4.31,16.56-8.25,33.88-24.55,40.42-42.02"/>
          <path class="st18" d="M1243.38,290.36c7.37-6.21,12.02-10.92,15.3-16.59,2.87-4.82,4.11-7.31,5.33-12.54,1.46-5.88,1.45-9.52,1.45-9.52,0,0,4.16,11.75,2.9,20s-3.43,17.2-3.43,17.2l-1.08,2.81s-5.12,1.96-12.1,1.54-8.37-2.9-8.37-2.9Z"/>
          <path class="st17" d="M1263.85,291.71c5.92-16.28,4.02-39.71-4.11-54.9-2.7-4.58-7.13-10.09-12.45-10.45-3.7-.47-7.51.39-9.99,3.43-2.6,3.08-4.08,7.16-5.61,10.91,1.52-8.4,3.81-17.31,14.05-18.24,7.89-.9,13.78,6.27,17.43,12.31,8.71,16.11,11.54,38.99,5.18,56.41l-4.5.53Z"/>
        </g>
        <path class="st17" d="M1224.89,257.9c-4.86-6.35-10.69-15.55-5.46-23.36,2.46-3.37,7.84-3.72,10.58-.66,1.2,1.42,1.74,3.06,1.89,4.68-1.68-2.33-3.91-4.34-6.78-3.59-1.83.46-2.77,1.69-3.28,3.43-1.86,6.42,2.18,12.94,3.04,19.49h.01Z"/>
      </g>
      <path class="st0" d="M1388.6,233.65c3.9,0,9.36,2.08,10.61,7.74.56,2.53-.73,5.65-2.96,7.69,0,0-3.33,3.1-11.12,5.16-5.51,1.46-13.7,2.25-18.02,1.77-2.56-.28-7.71-1.12-10.13-2-1.4-.51-3.16-1.49-3.62-3.93-2.96-15.63,35.25-16.43,35.25-16.43Z"/>
      <g id="Hand_right-palm_copy_22" data-name="Hand_right-palm_copy_2">
        <path class="st15" d="M1393.64,240.04c-.24,2.12-1.5,3.47-3.28,4.74-3.56,2.54-7.83,3.86-12.2,4.05-.9.04-1.84.12-2.82.25-20.73,2.69-31.66-7.07-38.68-18.73-5.56-7.36-9.74-25.62-3.76-34.16,1.19-1.7,2.78-3.01,4.83-3.78,5.61,1.57,10.37,6.91,15.89,9.19,14.22,8.02,29.38,13.4,39.56,35.46.38.94.58,1.97.46,2.99Z"/>
      </g>
      <path class="st14" d="M1365.83,370.56c-1.65,28.28-12.04,57.3-33.62,76.47-8.45,7.3-18.22,13.23-28.68,16.84,14.96-8.24,28.24-19.09,38.07-33,12.86-17.84,19.37-39.02,24.24-60.31h-.01Z"/>
    </g>
    <g id="excited_face2" data-name="excited_face">
      <g id="face2" data-name="face">
        <path class="st12" d="M1226.36,224.49c5.19-2.58,12.97-4.29,21.7-4.42,11.19-.17,20.9,2.3,25.61,6.04,1.47-6.08.63-13.21-2.75-19.98-6.61-13.23-21.18-21.58-33.56-18.91-13.36,2.89-19.79,17.52-13.15,33.02.63,1.48,1.35,2.89,2.15,4.24h0Z"/>
        <path class="st12" d="M1325.39,196.36c2.36-2.02,4.88-2.97,7.37-3.18-.41-1.36-.93-2.75-1.55-4.13-4.96-11.1-15.14-19.26-23.31-18.45-8.68.85-12.14,11.43-7.09,23.93,3.38,8.38,9.51,15,15.74,18-.32-4.81,2.67-10.88,8.83-16.17h0Z"/>
        <path d="M1243.63,220.27c1.44-.11,2.92-.18,4.43-.21,9.24-.14,17.47,1.53,22.72,4.21,2.71-4.21,2.9-10.17.1-15.82-4.11-8.3-13.42-13.36-21.2-11.39-8.16,2.07-11.8,11.11-7.66,20.28.46,1.03,1.01,1.99,1.61,2.91v.02Z"/>
        <path class="st12" d="M1244.69,210.47c-.82-2.98.47-5.68,2.83-6.05s4.82,1.65,5.65,4.52c.83,2.89-.33,5.64-2.66,6.11s-5-1.57-5.82-4.58h0Z"/>
        <path d="M1325.39,196.36c1.37-1.17,2.79-1.99,4.23-2.5-.26-.98-.59-1.97-1-2.96-3.24-7.86-10.23-13.51-15.86-12.71-5.87.82-8.19,8.28-4.92,16.78,2.07,5.37,5.8,9.67,9.72,11.82,1.34-3.44,3.95-7.09,7.83-10.41v-.02Z"/>
        <path class="st12" d="M1309.96,191.77c-.81-2.61.11-4.81,2.02-4.94,1.88-.13,4.05,1.81,4.86,4.34.82,2.55-.02,4.79-1.9,4.99s-4.16-1.77-4.98-4.4h0Z"/>
        <path class="st5" d="M1322.66,168.86c-4.13-4.29-7.4-7.13-12.15-9.64-2.13-1.12-4.19-2.06-6.44-2.38-2.6-.41-6.39.71-9.09,1.56,2.73-6.9,11.45-7.72,17.31-4.39,5.6,3.08,9.62,8.51,10.36,14.84h0Z"/>
        <g>
          <path class="st24" d="M1325.8,253.66c-.96-5.17-4.12-13.36.44-23.71.18-.67-.17-1.37-.81-1.64-.23-.1-.48-.13-.72-.1h.01c-.4.06-.78.29-1.01.66-.09.13-4.6,6.72-25.18,9.42-6.64.87-14.3,1.25-22.76,1.12-.07,0-.14,0-.2,0-.47.06-.87.35-1.08.79-.23.49-.15,1.08.2,1.49.59.69,14.55,16.91,23.73,20.59.12.05.25.1.41.17,2.54,1.04,10.25,4.21,17.75,3.23,3.19-.42,5.99-1.54,8.31-3.34,2.2-1.7,1.66-4.63.91-8.69ZM1324.89,229.65s0-.03.01-.04c0,0,0,0,0,0h0s-.02.03-.02.05Z"/>
          <path class="st7" d="M1323.22,260.66c-6.99,4.94-19.28,2.06-27.79-2.56,14.95-15.06,26.27.97,27.79,2.56Z"/>
        </g>
        <path class="st5" d="M1214.07,196.58c-3.86-5.22-4.92-12.54-2.01-18.53,5.18-10.81,19.82-11.64,28.87-5.58-2.07.24-4.02.34-5.93.54-5.03.49-10.77,1.58-14.48,4.62-5.69,4.47-6.24,12.11-6.45,18.95h0Z"/>
      </g>
    </g>
    <g>
      <ellipse class="st14" cx="1325.64" cy="327.04" rx="6.41" ry="8.48" transform="translate(-6.46 27.39) rotate(-1.18)"/>
      <ellipse cx="1326.69" cy="324.21" rx="6.41" ry="8.48" transform="translate(-6.4 27.41) rotate(-1.18)"/>
      <ellipse class="st14" cx="1322.65" cy="362.29" rx="8.48" ry="6.41" transform="translate(743.18 1605.22) rotate(-80.32)"/>
      <ellipse cx="1325.08" cy="358.87" rx="8.48" ry="6.41" transform="translate(748.57 1604.77) rotate(-80.32)"/>
      <ellipse class="st14" cx="1314.36" cy="396.26" rx="8.48" ry="6.41" transform="translate(540 1529.81) rotate(-72.44)"/>
      <ellipse cx="1317.22" cy="393.01" rx="8.48" ry="6.41" transform="translate(545.1 1530.27) rotate(-72.44)"/>
      <ellipse class="st12" cx="1324.8" cy="321.72" rx="2.37" ry="1.8" transform="translate(681.13 1523.51) rotate(-75.48)"/>
      <ellipse class="st12" cx="1323.11" cy="356.91" rx="2.56" ry="1.94" transform="translate(645.79 1548.23) rotate(-75.48)"/>
      <ellipse class="st12" cx="1315.92" cy="389.65" rx="2.59" ry="1.96" transform="translate(244.37 1247.11) rotate(-55.16)"/>
    </g>
    <path class="st18" d="M1375.76,249.08c3.64-8.12,4.1-14.98,2.11-22-1.98-7.02-4.58-13.61-4.58-13.61,0,0,15.5,12.84,19.89,23.58,0,0,2.22,4.67-2.82,7.73-5.64,4.3-14.6,4.3-14.6,4.3Z"/>
    <path class="st0" d="M1224.89,257.9c-4.1-.58-6.98,1.88-7.52,5.34s0,9.27,2.62,16.31c1.66,4.48,5.43,9.92,9.2,13.74,4.22,4.28,12.82,7.05,19.44,7.3s13.14-.66,16.88-3.05c2.49-1.59,4.68-6.05,3.62-8.64-3.37,1.25-4.7,2.47-11.11,3.07-5.85.55-11.41.02-16.48-2.38-7.1-3.36-12.11-9.96-13.97-17.59-1.56-6.38-2.66-14.1-2.66-14.1Z"/>
    <path class="st21" d="M1179.54,242.07c.33,4.32.94,7.99,2.32,12.23s2.64,9.07,3.02,12.25,0,5.5,0,5.5l-2.73.84-8.75-9.52v-16.69l1.64-3.95,4.5-.65Z"/>
    <path class="st21" d="M1145.82,282.63c-.33-4.32-.94-7.99-2.32-12.23s-2.64-9.07-3.02-12.25,0-5.5,0-5.5l2.73-.84,8.75,9.52v16.69s-1.64,3.95-1.64,3.95l-4.5.65Z"/>
    <path class="st1" d="M1271.41,126.39c-12.44,3.14-19.58,4.66-33.42,12.46l-10.28-2.29s-87.72,47.35-91.71,53.22c-3.99,5.87-2.5,21.47-2.5,21.47,0,0,15.92-.33,27.25-3.42,13.16-3.59,21.76-6.93,31.59-14.55,20.69-16.04,32.81-30.66,48.34-43.47,1.62-1.33,11.58-7.67,13.49-8.53,0,0,.02,0,.02-.01,7.47-4.28,18.63-7.09,25.41-7.98,6.78-.88,19.31-1.15,26.05,1.31s-18.04-12.32-34.26-8.23Z"/>
    <path class="st11" d="M1130.4,18.14c24.28.41,41.91,9.1,58.27,27.49,8.35,9.38,14.4,19.7,21.01,29.62,6.24,9.38,11.59,19.33,15.99,29.71l.44,1.54,34.94-15.66s-19.81-63.8-36.24-83.71c0,0-.78-6.07-14.41-6.9s-45.85-.13-80,17.92Z"/>
    <path class="st17" d="M1391.25,233.65c-7.36-9.83-15.05-19.7-26.1-25.42-4.97-2.63-10.18-4.55-15.37-7.02,0,0,.32-.95.32-.95,20.75,3.83,33.08,13.88,41.15,33.38h0Z"/>
    <path class="st17" d="M1355.18,247.15c-13.61-3.62-24.24-17.31-24.42-31.38,3.04,6.13,6.25,11.8,10.39,17.11,4.11,5.36,8.84,9.8,14.02,14.27h0Z"/>
    <path class="st6" d="M1175.98,242.49c-1.63-7.05-8.79-7.26-11.59-7.2-2.98.06-7.04.38-10.51,1.17s-11.14,3.13-13.25,6.07-4.06,5.73-2.61,9.17,10.01,19.01,8.88,25.27-1.89,9.31-9.73,31.25c-12.55,30.41-19.6,36.29-19.63,66.34l-1.05,26.9,38.05,4.45s-2.56-16.4,1.99-43.63,12.62-43.42,16.41-54.06,10.87-25.87,9.23-35.33c0,0-.86-7.42-2.73-14.08s-3.45-16.32-3.45-16.32Z"/>
    <path class="st23" d="M1152.8,404.4c.37,3.36,1.14,7.5,2.44,12.96s3.07,9.78,3.07,9.78"/>
    <path class="st23" d="M1118.03,400.86c-.16,3.38-.05,7.58.38,13.18.43,5.6,1.5,10.14,1.5,10.14"/>
    <path class="st23" d="M1122.36,401.95c-.13,3.38.01,7.58.49,13.18.48,5.59,1.58,10.12,1.58,10.12"/>
    <path class="st23" d="M1126.57,402.81c-.29,3.37-.35,7.57-.15,13.18.21,5.61,1.09,10.19,1.09,10.19"/>
    <path class="st23" d="M1130.54,402.9c.01,3.38.33,7.57,1.04,13.14.71,5.57,2,10.05,2,10.05"/>
    <path class="st23" d="M1135.48,402.81c.01,3.38.33,7.57,1.04,13.14.71,5.57,2,10.05,2,10.05"/>
    <path class="st23" d="M1140.04,404.01c-.2,3.38-.14,7.58.23,13.18.36,5.6,1.38,10.15,1.38,10.15"/>
    <path class="st23" d="M1145.23,404.1c-.19,3.38-.12,7.58.26,13.18.38,5.6,1.41,10.15,1.41,10.15"/>
    <path class="st23" d="M1149.2,404.12c-.13,3.38.01,7.58.49,13.18.48,5.59,1.58,10.12,1.58,10.12"/>
    <path class="st13" d="M1364.47,266.99c.35,4.51-.98,7.12-2.28,9.98s-2.46,5.6-5.48,8.3-4.08,3.18-8.09,5.67c0,0,5.82-1.26,9.58-5.55,1.47-1.68,1.73-1.41,1.73-1.41,0,0-.28.56-1.07,2.05-1.19,2.24-5.95,6.58-8.34,8.45s-9.01,6.27-12.13,7.62-7.9,3-11.43,3.52-10.44,1.66-14.32,2.3c-4.03-.56,19.25,4.2,37.27-9.73s14.36-18.96,14.36-18.96c0,0,4.89-6.73.2-12.23Z"/>
    <path class="st13" d="M1363.17,265.51c-1.76,6.04-6.81,14.36-10.6,17.33s-10.78,6.84-13.75,9.36-8.4,6.24-12.86,6.24-6.24-.22-9.81.67c0,0,5.13-3.05,7.51-3.12s5.74-.52,7.1-1.64,5.08-4.46,7.83-6.39,5.05-3.05,8.03-5.05,4.83-3.57,7.13-6.91,5.8-7.95,6.24-11.37,2.34-6.79.54-7.91c0,0,2.5,2.09,2.91,5.04s-.28,3.75-.28,3.75Z"/>
    <path class="st13" d="M1319.75,292.1c-4.98.79-8.42,2.53-12.45,1.23s-7.04-5.32-10.59-4.76-8.21-.93-11.48-2.64-6.04-3.34-8.46-2.5c0,0,4.78,2.73,6.37,4.68s2.32,2.22,4.54,2.33,5.45-.61,7.55.38,3.48,1.76,5.39,1.87,2.17-.31,4.43,1.27,6.16,3.1,8.25,2.19,6.44-4.04,6.44-4.04Z"/>
    <path class="st13" d="M1326.16,289.8c2.42-2.75,4.67-3.92,7.89-5.08s7.97-3.65,8.93-5.5,2.96-4.91,5.63-6.71c0,0-5.84.54-7.67,2.7s-1.65,4.55-4.41,5.94-4.69,1.23-6.9,3.23-3.46,5.42-3.46,5.42Z"/>
    <path class="st13" d="M1344.32,293.25c-3.71,1.05-3.86,3.09-6.29,4.29s-4.29,2.7-6.57,3.09c0,0,5-.4,7.14-1.51s2.29-1.31,3.57-2.71,2.14-3.16,2.14-3.16Z"/>
    <path class="st13" d="M1201.95,264c-3.31-1.98-4.89-.69-7.43-1.63s-4.9-1.27-6.76-2.66c0,0,3.73,3.36,6,4.16s2.52.76,4.42.74,3.77-.61,3.77-.61Z"/>
    <path class="st22" d="M1151.12,317.93c1.63-3.5.18-4.94.87-7.56s.76-5.01,1.96-6.99c0,0-2.96,4.05-3.53,6.39s-.5,2.59-.28,4.47.99,3.69.99,3.69Z"/>
    <path class="st22" d="M1166.01,259.11c.89-3.76-.83-4.87-.69-7.58s-.27-5.06.49-7.25c0,0-2.08,4.57-2.15,6.98s.04,2.64.63,4.44,1.72,3.41,1.72,3.41Z"/>
    <path class="st22" d="M1132.74,371.47c1.63-3.5.18-4.94.87-7.56s.76-5.01,1.96-6.99c0,0-2.96,4.05-3.53,6.39s-.5,2.59-.28,4.47.99,3.69.99,3.69Z"/>
    <path class="st22" d="M1137.68,396.93c1.63-3.5.18-4.94.87-7.56s.76-5.01,1.96-6.99c0,0-2.96,4.05-3.53,6.39s-.5,2.59-.28,4.47.99,3.69.99,3.69Z"/>
    <path class="st22" d="M1157.94,297.08c1.63-3.5.18-4.94.87-7.56s.76-5.01,1.96-6.99c0,0-2.96,4.05-3.53,6.39s-.5,2.59-.28,4.47.99,3.69.99,3.69Z"/>
    <path class="st13" d="M1287.1,279.83c3.7.83,4.14,2.74,6.94,3.35s4.23-.14,7.7.68,6.5,3.41,8.67,3.73,4.86-1.47,6.95-1.61,5.6-.85,6.89-1.9c0,0-4.88-1.35-7.44-.51s-3.39,2.45-6.63.44c-3.24-2.01-5.41-3.93-7.55-3.16s-4.12,1.71-6.05,1.19-2.49-2.3-4.4-2.55-5.09.34-5.09.34Z"/>
    <path class="st22" d="M1168.32,284.07c.97-4.06,3.68-7.5,4.08-10.04s-1.27-5.83-1.32-8.31c-.05-2.48-.62-6.67-1.62-8.26,0,0-1.56,5.69-.82,8.77s2.3,4.15.16,7.87c-2.14,3.72-4.15,6.17-3.47,8.75.68,2.57,1.54,4.97.94,7.23-.6,2.26-2.4,2.81-2.73,5.06-.16,1.08-.14,2.52-.07,3.73-.49.64-.71,1.37-.94,2.55-.42,2.18-.17,5.48-1.46,7.42-1.28,1.94-2.24,3.19-2.62,5.07-.38,1.88,0,2.2-1.88,4.21-1.89,2.01-3.95,5.66-3.34,7.86s3.08,6.95,3.08,6.95c-.07-5.05-1.31-8.69.56-12.5,1.87-3.81,6.26-6.21,6.23-9.8-.04-3.59,2.09-7.99,4.25-10.99,2.16-3,4.17-5.5,3.68-8.02,0,0-3.39,4.34-5.54,5.64-.13.08-.24.15-.36.23.85-1.4,1.74-2.33,2.18-4.33.73-3.28.03-5.01,1-9.08Z"/>
    <path class="st22" d="M1122.07,389.35c.8-3.71,2.71-4.16,3.3-6.97.6-2.81-.17-4.23.63-7.71.8-3.48,3.36-6.53,3.66-8.7s-1.5-4.85-1.66-6.93-.89-5.59-1.95-6.87c0,0-1.32,4.89-.45,7.44.86,2.55,2.47,3.37.49,6.63-1.98,3.25-3.89,5.44-3.1,7.57.79,2.13,1.74,4.11,1.23,6.04s-2.28,2.5-2.52,4.42c-.24,1.92.37,5.08.37,5.08Z"/>
    <path class="st22" d="M1155.53,287.01c-.12-3.79,1.63-4.69,1.53-7.56-.1-2.87-1.19-4.06-1.25-7.63-.06-3.57,1.69-7.15,1.46-9.32s-2.63-4.34-3.28-6.33-2.22-5.21-3.55-6.2c0,0-.1,5.06,1.35,7.33,1.46,2.27,3.21,2.68,2.07,6.31-1.14,3.64-2.47,6.22-1.19,8.1,1.28,1.88,2.68,3.57,2.66,5.57s-1.61,2.98-1.38,4.9c.23,1.92,1.59,4.84,1.59,4.84Z"/>
    <path class="st13" d="M1357.84,255.16c-.68,4.2-.33,6.09-3.95,9.11s-6.04,3.37-8.62,5.44c0,0,1.26-2.24,4.68-4.83s5.15-2.83,5.24-6.07,1.79-4.8,1.79-4.8l.87,1.15Z"/>
    <path class="st22" d="M1142.42,322.37s-.57-1.46-.59-1.79c-.12-2.07.03-5.74,1.4-8.65,0,0-4.74,3.45-5.21,6.25s.91,4.75-.75,7.36c-1.66,2.61-3.4,3.46-4.27,6.3-.87,2.85-.2,6.42-.2,6.42.68-3.6,2.01-5.76,4.18-8.4,1.03-1.26,2.21-2.96,3.15-4.62.05,1.13.25,2.45.71,3.95,1.56,5.08-.57,6.21-3.71,11.72-3.14,5.51-3.62,9.54-3.62,9.54,2.31-4.34,5.29-5.92,8.46-12.2,3.17-6.28,1.75-9.06.47-15.89Z"/>
    <path class="st22" d="M1149.22,367.34c.68,5.51,1.6,7.72-.89,12.99s-4.67,6.69-6.47,10.34c0,0,.49-3.31,2.92-7.95s4-5.66,3.06-9.73.19-6.72.19-6.72l1.18,1.07Z"/>
    <path class="st22" d="M1148.65,342.66c-.3,4.79-1.41,7.79-3.28,11.54-1.88,3.75-4.2,10.1-3.87,12.79.33,2.69.57,7.49-.5,11.48,0,0,4.36-5.14,4.53-8.87s-1.39-6.08-.02-9.72,3.03-4.97,3.6-8.81-.47-8.42-.47-8.42Z"/>
    <path d="M1133.23,205.01c.3-2.75,0-10.2,5.13-17.53,0,0,33.97-3.11,58.9-21.15,24.94-18.04,42.04-28.86,69.16-35.22,27.12-6.37,33.27-1.05,39.49,2.46,6.22,3.52,9.48,6.56,9.48,6.56,0,0,38.79-20.71,17.37-44.64-11.37-12.69-48.67-22.26-88.03-2.12-26.57,13.6-55.2,45.81-76.76,58.96s-69.44,18.72-75.3,35.15c-5.85,16.43,40.56,17.53,40.56,17.53Z"/>
    <path class="st10" d="M1335.09,122.84c3.01-6.03-.92-16.19-4.8-20.78-6.56-7.76-19.69-12.41-32.11-12.71s-21.6.98-35.53,5.22-21.96,9.33-34.29,19.33-25.45,19.76-32.64,24.91-14.99,12.79-24.55,16.94c-13.58,5.89-27.93,6.89-27.93,6.89,0,0,16.02-5.12,24.72-10.3,12.78-7.61,44.75-36.62,57.44-46.5,15.88-12.35,31.67-18.58,39.82-20.49s20.62-5.34,39.12-2.59c10.73,1.6,23.83,6.74,29.67,14.29,4.35,5.62,8.85,14,1.07,25.8"/>
  </g>
  <g id="Layer_2">
    <path class="st8" d="M235.88,231.05l76.02-46.94c1.37-.85.51-2.96-1.06-2.61l-88.53,19.72c-1.54.34-2.91,1.24-3.77,2.55-1.65,2.53-4.02,7.41-.88,15.26,3.92,9.79,9.2,10.87,12.45,12.37,1.86.86,4.02.71,5.77-.35Z"/>
    <path class="st22" d="M311.91,184.11c-44.15,20.23-66.75,34.92-78.38,36.82s-17.4-8.9-17.4-8.9c0,0,.78,17.15,16.74,19.92,0,0,1.75-.12,3.7-1.32s75.34-46.51,75.34-46.51Z"/>
    <path class="st20" d="M240.35,228.2c-4.19-2.35-11.21-9.53-11.91-13.19,0,0,6.92,9.71,14.32,11.69l-2.4,1.5Z"/>
    <path class="st20" d="M253.98,219.68c-3.91-2.91-10-10.93-10.32-14.68,0,0,5.35,10.34,12.47,13.33l-2.15,1.35Z"/>
    <path class="st20" d="M249.71,222.34c-2.87-1.61-7.69-6.53-8.17-9.05,0,0,4.75,6.66,9.82,8.02l-1.65,1.03Z"/>
    <path class="st20" d="M265.11,213.09c-2.52-2.11-6.35-7.84-6.36-10.4,0,0,3,7.2,7.74,9.47l-1.38.93Z"/>
    <path class="st20" d="M246.41,224.4c-2-1.12-5.36-4.55-5.69-6.3,0,0,3.31,4.64,6.84,5.59l-1.15.72Z"/>
    <path class="st20" d="M275.37,206.66c-1.75-1.49-4.38-5.5-4.37-7.29,0,0,2.09,5.06,5.38,6.67l-1.01.62Z"/>
    <path d="M63.2,205.01c.3-2.75,0-10.2,5.13-17.53,0,0,33.97-3.11,58.9-21.15,24.94-18.04,42.04-28.86,69.16-35.22,27.12-6.37,33.27-1.05,39.49,2.46,6.22,3.52,9.48,6.56,9.48,6.56,0,0,38.79-20.71,17.37-44.64-11.37-12.69-48.67-22.26-88.03-2.12-26.57,13.6-55.2,45.81-76.76,58.96s-69.44,18.72-75.3,35.15c-5.85,16.43,40.56,17.53,40.56,17.53Z"/>
    <path class="st10" d="M265.06,122.84c3.01-6.03-.92-16.19-4.8-20.78-6.56-7.76-19.69-12.41-32.11-12.71s-21.6.98-35.53,5.22-21.96,9.33-34.29,19.33-25.45,19.76-32.64,24.91-14.99,12.79-24.55,16.94c-13.58,5.89-27.93,6.89-27.93,6.89,0,0,16.02-5.12,24.72-10.3,12.78-7.61,44.75-36.62,57.44-46.5,15.88-12.35,31.67-18.58,39.82-20.49s20.62-5.34,39.12-2.59c10.73,1.6,23.83,6.74,29.67,14.29,4.35,5.62,8.85,14,1.07,25.8"/>
  </g>
</svg>